G04 #@! TF.GenerationSoftware,KiCad,Pcbnew,(5.0.2)-1*
G04 #@! TF.CreationDate,2018-12-31T15:38:33+01:00*
G04 #@! TF.ProjectId,EuroRack_LowNoisePowerPCB,4575726f-5261-4636-9b5f-4c6f774e6f69,rev?*
G04 #@! TF.SameCoordinates,Original*
G04 #@! TF.FileFunction,Legend,Bot*
G04 #@! TF.FilePolarity,Positive*
%FSLAX46Y46*%
G04 Gerber Fmt 4.6, Leading zero omitted, Abs format (unit mm)*
G04 Created by KiCad (PCBNEW (5.0.2)-1) date 31/12/2018 15:38:33*
%MOMM*%
%LPD*%
G01*
G04 APERTURE LIST*
%ADD10C,0.200000*%
G04 APERTURE END LIST*
D10*
X177800000Y-124460000D02*
X177800000Y-127000000D01*
X177800000Y-104140000D02*
X177800000Y-106680000D01*
X177800000Y-109220000D02*
X177800000Y-111760000D01*
X177800000Y-114300000D02*
X177800000Y-116840000D01*
X177800000Y-119380000D02*
X177800000Y-121920000D01*
X177800000Y-139700000D02*
X180340000Y-144780000D01*
X177800000Y-101600000D02*
X175260000Y-96520000D01*
X177800000Y-129540000D02*
X177800000Y-132080000D01*
X177800000Y-101600000D02*
X180340000Y-96520000D01*
X175260000Y-144780000D02*
X177800000Y-139700000D01*
X177800000Y-134620000D02*
X177800000Y-137160000D01*
X139700000Y-101600000D02*
X142240000Y-96520000D01*
X139700000Y-101600000D02*
X137160000Y-96520000D01*
X139700000Y-139700000D02*
X142240000Y-144780000D01*
X137160000Y-144780000D02*
X139700000Y-139700000D01*
X139700000Y-134620000D02*
X139700000Y-137160000D01*
X139700000Y-129540000D02*
X139700000Y-132080000D01*
X139700000Y-124460000D02*
X139700000Y-127000000D01*
X139700000Y-119380000D02*
X139700000Y-121920000D01*
X139700000Y-114300000D02*
X139700000Y-116840000D01*
X139700000Y-104140000D02*
X139700000Y-106680000D01*
X139700000Y-109220000D02*
X139700000Y-111760000D01*
M02*
