G04 #@! TF.GenerationSoftware,KiCad,Pcbnew,(5.0.2)-1*
G04 #@! TF.CreationDate,2018-12-31T15:38:33+01:00*
G04 #@! TF.ProjectId,EuroRack_LowNoisePowerPCB,4575726f-5261-4636-9b5f-4c6f774e6f69,rev?*
G04 #@! TF.SameCoordinates,Original*
G04 #@! TF.FileFunction,Soldermask,Bot*
G04 #@! TF.FilePolarity,Negative*
%FSLAX46Y46*%
G04 Gerber Fmt 4.6, Leading zero omitted, Abs format (unit mm)*
G04 Created by KiCad (PCBNEW (5.0.2)-1) date 31/12/2018 15:38:33*
%MOMM*%
%LPD*%
G01*
G04 APERTURE LIST*
%ADD10C,0.100000*%
G04 APERTURE END LIST*
D10*
G36*
X38519444Y-137591311D02*
X38727132Y-137632623D01*
X38889203Y-137699755D01*
X39118406Y-137794694D01*
X39470548Y-138029988D01*
X39770012Y-138329452D01*
X40005306Y-138681594D01*
X40167377Y-139072869D01*
X40250000Y-139488242D01*
X40250000Y-139911758D01*
X40167377Y-140327131D01*
X40005306Y-140718406D01*
X39770012Y-141070548D01*
X39470548Y-141370012D01*
X39118406Y-141605306D01*
X38889203Y-141700245D01*
X38727132Y-141767377D01*
X38519444Y-141808689D01*
X38311758Y-141850000D01*
X37888242Y-141850000D01*
X37680556Y-141808689D01*
X37472868Y-141767377D01*
X37310797Y-141700245D01*
X37081594Y-141605306D01*
X36729452Y-141370012D01*
X36429988Y-141070548D01*
X36194694Y-140718406D01*
X36032623Y-140327131D01*
X35950000Y-139911758D01*
X35950000Y-139488242D01*
X36032623Y-139072869D01*
X36194694Y-138681594D01*
X36429988Y-138329452D01*
X36729452Y-138029988D01*
X37081594Y-137794694D01*
X37310797Y-137699755D01*
X37472868Y-137632623D01*
X37680556Y-137591311D01*
X37888242Y-137550000D01*
X38311758Y-137550000D01*
X38519444Y-137591311D01*
X38519444Y-137591311D01*
G37*
G36*
X216319444Y-137591311D02*
X216527132Y-137632623D01*
X216689203Y-137699755D01*
X216918406Y-137794694D01*
X217270548Y-138029988D01*
X217570012Y-138329452D01*
X217805306Y-138681594D01*
X217967377Y-139072869D01*
X218050000Y-139488242D01*
X218050000Y-139911758D01*
X217967377Y-140327131D01*
X217805306Y-140718406D01*
X217570012Y-141070548D01*
X217270548Y-141370012D01*
X216918406Y-141605306D01*
X216689203Y-141700245D01*
X216527132Y-141767377D01*
X216319444Y-141808689D01*
X216111758Y-141850000D01*
X215688242Y-141850000D01*
X215480556Y-141808689D01*
X215272868Y-141767377D01*
X215110797Y-141700245D01*
X214881594Y-141605306D01*
X214529452Y-141370012D01*
X214229988Y-141070548D01*
X213994694Y-140718406D01*
X213832623Y-140327131D01*
X213750000Y-139911758D01*
X213750000Y-139488242D01*
X213832623Y-139072869D01*
X213994694Y-138681594D01*
X214229988Y-138329452D01*
X214529452Y-138029988D01*
X214881594Y-137794694D01*
X215110797Y-137699755D01*
X215272868Y-137632623D01*
X215480556Y-137591311D01*
X215688242Y-137550000D01*
X216111758Y-137550000D01*
X216319444Y-137591311D01*
X216319444Y-137591311D01*
G37*
G36*
X127419444Y-137591311D02*
X127627132Y-137632623D01*
X127789203Y-137699755D01*
X128018406Y-137794694D01*
X128370548Y-138029988D01*
X128670012Y-138329452D01*
X128905306Y-138681594D01*
X129067377Y-139072869D01*
X129150000Y-139488242D01*
X129150000Y-139911758D01*
X129067377Y-140327131D01*
X128905306Y-140718406D01*
X128670012Y-141070548D01*
X128370548Y-141370012D01*
X128018406Y-141605306D01*
X127789203Y-141700245D01*
X127627132Y-141767377D01*
X127419444Y-141808689D01*
X127211758Y-141850000D01*
X126788242Y-141850000D01*
X126580556Y-141808689D01*
X126372868Y-141767377D01*
X126210797Y-141700245D01*
X125981594Y-141605306D01*
X125629452Y-141370012D01*
X125329988Y-141070548D01*
X125094694Y-140718406D01*
X124932623Y-140327131D01*
X124850000Y-139911758D01*
X124850000Y-139488242D01*
X124932623Y-139072869D01*
X125094694Y-138681594D01*
X125329988Y-138329452D01*
X125629452Y-138029988D01*
X125981594Y-137794694D01*
X126210797Y-137699755D01*
X126372868Y-137632623D01*
X126580556Y-137591311D01*
X126788242Y-137550000D01*
X127211758Y-137550000D01*
X127419444Y-137591311D01*
X127419444Y-137591311D01*
G37*
G36*
X53507525Y-136164655D02*
X53653148Y-136193621D01*
X53836046Y-136269380D01*
X53836047Y-136269381D01*
X54000653Y-136379367D01*
X54140633Y-136519347D01*
X54140635Y-136519350D01*
X54250620Y-136683954D01*
X54326379Y-136866852D01*
X54365000Y-137061016D01*
X54365000Y-137258984D01*
X54326379Y-137453148D01*
X54250620Y-137636046D01*
X54250619Y-137636047D01*
X54140633Y-137800653D01*
X54000653Y-137940633D01*
X54000650Y-137940635D01*
X53836046Y-138050620D01*
X53653148Y-138126379D01*
X53507525Y-138155345D01*
X53458985Y-138165000D01*
X53261015Y-138165000D01*
X53212475Y-138155345D01*
X53066852Y-138126379D01*
X52883954Y-138050620D01*
X52719350Y-137940635D01*
X52719347Y-137940633D01*
X52579367Y-137800653D01*
X52469381Y-137636047D01*
X52469380Y-137636046D01*
X52393621Y-137453148D01*
X52355000Y-137258984D01*
X52355000Y-137061016D01*
X52393621Y-136866852D01*
X52469380Y-136683954D01*
X52579365Y-136519350D01*
X52579367Y-136519347D01*
X52719347Y-136379367D01*
X52883953Y-136269381D01*
X52883954Y-136269380D01*
X53066852Y-136193621D01*
X53212475Y-136164655D01*
X53261015Y-136155000D01*
X53458985Y-136155000D01*
X53507525Y-136164655D01*
X53507525Y-136164655D01*
G37*
G36*
X48407525Y-134964655D02*
X48553148Y-134993621D01*
X48736046Y-135069380D01*
X48736047Y-135069381D01*
X48900653Y-135179367D01*
X49040633Y-135319347D01*
X49040635Y-135319350D01*
X49150620Y-135483954D01*
X49226379Y-135666852D01*
X49265000Y-135861016D01*
X49265000Y-136058984D01*
X49226379Y-136253148D01*
X49150620Y-136436046D01*
X49150619Y-136436047D01*
X49040633Y-136600653D01*
X48900653Y-136740633D01*
X48900650Y-136740635D01*
X48736046Y-136850620D01*
X48553148Y-136926379D01*
X48407525Y-136955345D01*
X48358985Y-136965000D01*
X48161015Y-136965000D01*
X48112475Y-136955345D01*
X47966852Y-136926379D01*
X47783954Y-136850620D01*
X47619350Y-136740635D01*
X47619347Y-136740633D01*
X47479367Y-136600653D01*
X47369381Y-136436047D01*
X47369380Y-136436046D01*
X47293621Y-136253148D01*
X47255000Y-136058984D01*
X47255000Y-135861016D01*
X47293621Y-135666852D01*
X47369380Y-135483954D01*
X47479365Y-135319350D01*
X47479367Y-135319347D01*
X47619347Y-135179367D01*
X47783953Y-135069381D01*
X47783954Y-135069380D01*
X47966852Y-134993621D01*
X48112475Y-134964655D01*
X48161015Y-134955000D01*
X48358985Y-134955000D01*
X48407525Y-134964655D01*
X48407525Y-134964655D01*
G37*
G36*
X69480000Y-134250000D02*
X67680000Y-134250000D01*
X67680000Y-132450000D01*
X69480000Y-132450000D01*
X69480000Y-134250000D01*
X69480000Y-134250000D01*
G37*
G36*
X82180000Y-134250000D02*
X80380000Y-134250000D01*
X80380000Y-132450000D01*
X82180000Y-132450000D01*
X82180000Y-134250000D01*
X82180000Y-134250000D01*
G37*
G36*
X75830000Y-134250000D02*
X74030000Y-134250000D01*
X74030000Y-132450000D01*
X75830000Y-132450000D01*
X75830000Y-134250000D01*
X75830000Y-134250000D01*
G37*
G36*
X92943352Y-132580743D02*
X93088941Y-132641048D01*
X93219973Y-132728601D01*
X93331399Y-132840027D01*
X93418952Y-132971059D01*
X93479257Y-133116648D01*
X93510000Y-133271205D01*
X93510000Y-133428795D01*
X93479257Y-133583352D01*
X93418952Y-133728941D01*
X93331399Y-133859973D01*
X93219973Y-133971399D01*
X93088941Y-134058952D01*
X92943352Y-134119257D01*
X92788795Y-134150000D01*
X92631205Y-134150000D01*
X92476648Y-134119257D01*
X92331059Y-134058952D01*
X92200027Y-133971399D01*
X92088601Y-133859973D01*
X92001048Y-133728941D01*
X91940743Y-133583352D01*
X91910000Y-133428795D01*
X91910000Y-133271205D01*
X91940743Y-133116648D01*
X92001048Y-132971059D01*
X92088601Y-132840027D01*
X92200027Y-132728601D01*
X92331059Y-132641048D01*
X92476648Y-132580743D01*
X92631205Y-132550000D01*
X92788795Y-132550000D01*
X92943352Y-132580743D01*
X92943352Y-132580743D01*
G37*
G36*
X101833352Y-132540743D02*
X101978941Y-132601048D01*
X102109973Y-132688601D01*
X102221399Y-132800027D01*
X102308952Y-132931059D01*
X102369257Y-133076648D01*
X102400000Y-133231205D01*
X102400000Y-133388795D01*
X102369257Y-133543352D01*
X102308952Y-133688941D01*
X102221399Y-133819973D01*
X102109973Y-133931399D01*
X101978941Y-134018952D01*
X101833352Y-134079257D01*
X101678795Y-134110000D01*
X101521205Y-134110000D01*
X101366648Y-134079257D01*
X101221059Y-134018952D01*
X101090027Y-133931399D01*
X100978601Y-133819973D01*
X100891048Y-133688941D01*
X100830743Y-133543352D01*
X100800000Y-133388795D01*
X100800000Y-133231205D01*
X100830743Y-133076648D01*
X100891048Y-132931059D01*
X100978601Y-132800027D01*
X101090027Y-132688601D01*
X101221059Y-132601048D01*
X101366648Y-132540743D01*
X101521205Y-132510000D01*
X101678795Y-132510000D01*
X101833352Y-132540743D01*
X101833352Y-132540743D01*
G37*
G36*
X98023352Y-132540743D02*
X98168941Y-132601048D01*
X98299973Y-132688601D01*
X98411399Y-132800027D01*
X98498952Y-132931059D01*
X98559257Y-133076648D01*
X98590000Y-133231205D01*
X98590000Y-133388795D01*
X98559257Y-133543352D01*
X98498952Y-133688941D01*
X98411399Y-133819973D01*
X98299973Y-133931399D01*
X98168941Y-134018952D01*
X98023352Y-134079257D01*
X97868795Y-134110000D01*
X97711205Y-134110000D01*
X97556648Y-134079257D01*
X97411059Y-134018952D01*
X97280027Y-133931399D01*
X97168601Y-133819973D01*
X97081048Y-133688941D01*
X97020743Y-133543352D01*
X96990000Y-133388795D01*
X96990000Y-133231205D01*
X97020743Y-133076648D01*
X97081048Y-132931059D01*
X97168601Y-132800027D01*
X97280027Y-132688601D01*
X97411059Y-132601048D01*
X97556648Y-132540743D01*
X97711205Y-132510000D01*
X97868795Y-132510000D01*
X98023352Y-132540743D01*
X98023352Y-132540743D01*
G37*
G36*
X61193352Y-130770743D02*
X61338941Y-130831048D01*
X61469973Y-130918601D01*
X61581399Y-131030027D01*
X61668952Y-131161059D01*
X61729257Y-131306648D01*
X61760000Y-131461205D01*
X61760000Y-131618795D01*
X61729257Y-131773352D01*
X61668952Y-131918941D01*
X61581399Y-132049973D01*
X61469973Y-132161399D01*
X61338941Y-132248952D01*
X61193352Y-132309257D01*
X61038795Y-132340000D01*
X60881205Y-132340000D01*
X60726648Y-132309257D01*
X60581059Y-132248952D01*
X60450027Y-132161399D01*
X60338601Y-132049973D01*
X60251048Y-131918941D01*
X60190743Y-131773352D01*
X60160000Y-131618795D01*
X60160000Y-131461205D01*
X60190743Y-131306648D01*
X60251048Y-131161059D01*
X60338601Y-131030027D01*
X60450027Y-130918601D01*
X60581059Y-130831048D01*
X60726648Y-130770743D01*
X60881205Y-130740000D01*
X61038795Y-130740000D01*
X61193352Y-130770743D01*
X61193352Y-130770743D01*
G37*
G36*
X93510000Y-132150000D02*
X91910000Y-132150000D01*
X91910000Y-130550000D01*
X93510000Y-130550000D01*
X93510000Y-132150000D01*
X93510000Y-132150000D01*
G37*
G36*
X75192521Y-129944586D02*
X75356309Y-130012429D01*
X75503720Y-130110926D01*
X75629074Y-130236280D01*
X75727571Y-130383691D01*
X75795414Y-130547479D01*
X75830000Y-130721356D01*
X75830000Y-130898644D01*
X75795414Y-131072521D01*
X75727571Y-131236309D01*
X75629074Y-131383720D01*
X75503720Y-131509074D01*
X75356309Y-131607571D01*
X75192521Y-131675414D01*
X75018644Y-131710000D01*
X74841356Y-131710000D01*
X74667479Y-131675414D01*
X74503691Y-131607571D01*
X74356280Y-131509074D01*
X74230926Y-131383720D01*
X74132429Y-131236309D01*
X74064586Y-131072521D01*
X74030000Y-130898644D01*
X74030000Y-130721356D01*
X74064586Y-130547479D01*
X74132429Y-130383691D01*
X74230926Y-130236280D01*
X74356280Y-130110926D01*
X74503691Y-130012429D01*
X74667479Y-129944586D01*
X74841356Y-129910000D01*
X75018644Y-129910000D01*
X75192521Y-129944586D01*
X75192521Y-129944586D01*
G37*
G36*
X81542521Y-129944586D02*
X81706309Y-130012429D01*
X81853720Y-130110926D01*
X81979074Y-130236280D01*
X82077571Y-130383691D01*
X82145414Y-130547479D01*
X82180000Y-130721356D01*
X82180000Y-130898644D01*
X82145414Y-131072521D01*
X82077571Y-131236309D01*
X81979074Y-131383720D01*
X81853720Y-131509074D01*
X81706309Y-131607571D01*
X81542521Y-131675414D01*
X81368644Y-131710000D01*
X81191356Y-131710000D01*
X81017479Y-131675414D01*
X80853691Y-131607571D01*
X80706280Y-131509074D01*
X80580926Y-131383720D01*
X80482429Y-131236309D01*
X80414586Y-131072521D01*
X80380000Y-130898644D01*
X80380000Y-130721356D01*
X80414586Y-130547479D01*
X80482429Y-130383691D01*
X80580926Y-130236280D01*
X80706280Y-130110926D01*
X80853691Y-130012429D01*
X81017479Y-129944586D01*
X81191356Y-129910000D01*
X81368644Y-129910000D01*
X81542521Y-129944586D01*
X81542521Y-129944586D01*
G37*
G36*
X68842521Y-129944586D02*
X69006309Y-130012429D01*
X69153720Y-130110926D01*
X69279074Y-130236280D01*
X69377571Y-130383691D01*
X69445414Y-130547479D01*
X69480000Y-130721356D01*
X69480000Y-130898644D01*
X69445414Y-131072521D01*
X69377571Y-131236309D01*
X69279074Y-131383720D01*
X69153720Y-131509074D01*
X69006309Y-131607571D01*
X68842521Y-131675414D01*
X68668644Y-131710000D01*
X68491356Y-131710000D01*
X68317479Y-131675414D01*
X68153691Y-131607571D01*
X68006280Y-131509074D01*
X67880926Y-131383720D01*
X67782429Y-131236309D01*
X67714586Y-131072521D01*
X67680000Y-130898644D01*
X67680000Y-130721356D01*
X67714586Y-130547479D01*
X67782429Y-130383691D01*
X67880926Y-130236280D01*
X68006280Y-130110926D01*
X68153691Y-130012429D01*
X68317479Y-129944586D01*
X68491356Y-129910000D01*
X68668644Y-129910000D01*
X68842521Y-129944586D01*
X68842521Y-129944586D01*
G37*
G36*
X101833352Y-130040743D02*
X101978941Y-130101048D01*
X102109973Y-130188601D01*
X102221399Y-130300027D01*
X102308952Y-130431059D01*
X102369257Y-130576648D01*
X102400000Y-130731205D01*
X102400000Y-130888795D01*
X102369257Y-131043352D01*
X102308952Y-131188941D01*
X102221399Y-131319973D01*
X102109973Y-131431399D01*
X101978941Y-131518952D01*
X101833352Y-131579257D01*
X101678795Y-131610000D01*
X101521205Y-131610000D01*
X101366648Y-131579257D01*
X101221059Y-131518952D01*
X101090027Y-131431399D01*
X100978601Y-131319973D01*
X100891048Y-131188941D01*
X100830743Y-131043352D01*
X100800000Y-130888795D01*
X100800000Y-130731205D01*
X100830743Y-130576648D01*
X100891048Y-130431059D01*
X100978601Y-130300027D01*
X101090027Y-130188601D01*
X101221059Y-130101048D01*
X101366648Y-130040743D01*
X101521205Y-130010000D01*
X101678795Y-130010000D01*
X101833352Y-130040743D01*
X101833352Y-130040743D01*
G37*
G36*
X98023352Y-130040743D02*
X98168941Y-130101048D01*
X98299973Y-130188601D01*
X98411399Y-130300027D01*
X98498952Y-130431059D01*
X98559257Y-130576648D01*
X98590000Y-130731205D01*
X98590000Y-130888795D01*
X98559257Y-131043352D01*
X98498952Y-131188941D01*
X98411399Y-131319973D01*
X98299973Y-131431399D01*
X98168941Y-131518952D01*
X98023352Y-131579257D01*
X97868795Y-131610000D01*
X97711205Y-131610000D01*
X97556648Y-131579257D01*
X97411059Y-131518952D01*
X97280027Y-131431399D01*
X97168601Y-131319973D01*
X97081048Y-131188941D01*
X97020743Y-131043352D01*
X96990000Y-130888795D01*
X96990000Y-130731205D01*
X97020743Y-130576648D01*
X97081048Y-130431059D01*
X97168601Y-130300027D01*
X97280027Y-130188601D01*
X97411059Y-130101048D01*
X97556648Y-130040743D01*
X97711205Y-130010000D01*
X97868795Y-130010000D01*
X98023352Y-130040743D01*
X98023352Y-130040743D01*
G37*
G36*
X61760000Y-130340000D02*
X60160000Y-130340000D01*
X60160000Y-128740000D01*
X61760000Y-128740000D01*
X61760000Y-130340000D01*
X61760000Y-130340000D01*
G37*
G36*
X46683876Y-127245048D02*
X46879916Y-127304516D01*
X47060589Y-127401088D01*
X47218949Y-127531051D01*
X47348912Y-127689411D01*
X47445484Y-127870084D01*
X47504952Y-128066124D01*
X47525032Y-128270000D01*
X47504952Y-128473876D01*
X47445484Y-128669916D01*
X47348912Y-128850589D01*
X47218949Y-129008949D01*
X47060589Y-129138912D01*
X46879916Y-129235484D01*
X46683876Y-129294952D01*
X46531091Y-129310000D01*
X44908909Y-129310000D01*
X44756124Y-129294952D01*
X44560084Y-129235484D01*
X44379411Y-129138912D01*
X44221051Y-129008949D01*
X44091088Y-128850589D01*
X43994516Y-128669916D01*
X43935048Y-128473876D01*
X43914968Y-128270000D01*
X43935048Y-128066124D01*
X43994516Y-127870084D01*
X44091088Y-127689411D01*
X44221051Y-127531051D01*
X44379411Y-127401088D01*
X44560084Y-127304516D01*
X44756124Y-127245048D01*
X44908909Y-127230000D01*
X46531091Y-127230000D01*
X46683876Y-127245048D01*
X46683876Y-127245048D01*
G37*
G36*
X81397649Y-126207717D02*
X81436827Y-126211576D01*
X81512228Y-126234449D01*
X81587629Y-126257321D01*
X81726608Y-126331608D01*
X81848422Y-126431578D01*
X81948392Y-126553392D01*
X82022679Y-126692371D01*
X82068424Y-126843174D01*
X82083870Y-127000000D01*
X82068424Y-127156826D01*
X82022679Y-127307629D01*
X81948392Y-127446608D01*
X81848422Y-127568422D01*
X81726608Y-127668392D01*
X81587629Y-127742679D01*
X81512227Y-127765552D01*
X81436827Y-127788424D01*
X81397649Y-127792283D01*
X81319295Y-127800000D01*
X81240705Y-127800000D01*
X81162351Y-127792283D01*
X81123173Y-127788424D01*
X81047773Y-127765552D01*
X80972371Y-127742679D01*
X80833392Y-127668392D01*
X80711578Y-127568422D01*
X80611608Y-127446608D01*
X80537321Y-127307629D01*
X80491576Y-127156826D01*
X80476130Y-127000000D01*
X80491576Y-126843174D01*
X80537321Y-126692371D01*
X80611608Y-126553392D01*
X80711578Y-126431578D01*
X80833392Y-126331608D01*
X80972371Y-126257321D01*
X81047772Y-126234449D01*
X81123173Y-126211576D01*
X81162351Y-126207717D01*
X81240705Y-126200000D01*
X81319295Y-126200000D01*
X81397649Y-126207717D01*
X81397649Y-126207717D01*
G37*
G36*
X68697649Y-126207717D02*
X68736827Y-126211576D01*
X68812228Y-126234449D01*
X68887629Y-126257321D01*
X69026608Y-126331608D01*
X69148422Y-126431578D01*
X69248392Y-126553392D01*
X69322679Y-126692371D01*
X69368424Y-126843174D01*
X69383870Y-127000000D01*
X69368424Y-127156826D01*
X69322679Y-127307629D01*
X69248392Y-127446608D01*
X69148422Y-127568422D01*
X69026608Y-127668392D01*
X68887629Y-127742679D01*
X68812227Y-127765552D01*
X68736827Y-127788424D01*
X68697649Y-127792283D01*
X68619295Y-127800000D01*
X68540705Y-127800000D01*
X68462351Y-127792283D01*
X68423173Y-127788424D01*
X68347773Y-127765552D01*
X68272371Y-127742679D01*
X68133392Y-127668392D01*
X68011578Y-127568422D01*
X67911608Y-127446608D01*
X67837321Y-127307629D01*
X67791576Y-127156826D01*
X67776130Y-127000000D01*
X67791576Y-126843174D01*
X67837321Y-126692371D01*
X67911608Y-126553392D01*
X68011578Y-126431578D01*
X68133392Y-126331608D01*
X68272371Y-126257321D01*
X68347772Y-126234449D01*
X68423173Y-126211576D01*
X68462351Y-126207717D01*
X68540705Y-126200000D01*
X68619295Y-126200000D01*
X68697649Y-126207717D01*
X68697649Y-126207717D01*
G37*
G36*
X75047649Y-126207717D02*
X75086827Y-126211576D01*
X75162228Y-126234449D01*
X75237629Y-126257321D01*
X75376608Y-126331608D01*
X75498422Y-126431578D01*
X75598392Y-126553392D01*
X75672679Y-126692371D01*
X75718424Y-126843174D01*
X75733870Y-127000000D01*
X75718424Y-127156826D01*
X75672679Y-127307629D01*
X75598392Y-127446608D01*
X75498422Y-127568422D01*
X75376608Y-127668392D01*
X75237629Y-127742679D01*
X75162227Y-127765552D01*
X75086827Y-127788424D01*
X75047649Y-127792283D01*
X74969295Y-127800000D01*
X74890705Y-127800000D01*
X74812351Y-127792283D01*
X74773173Y-127788424D01*
X74697773Y-127765552D01*
X74622371Y-127742679D01*
X74483392Y-127668392D01*
X74361578Y-127568422D01*
X74261608Y-127446608D01*
X74187321Y-127307629D01*
X74141576Y-127156826D01*
X74126130Y-127000000D01*
X74141576Y-126843174D01*
X74187321Y-126692371D01*
X74261608Y-126553392D01*
X74361578Y-126431578D01*
X74483392Y-126331608D01*
X74622371Y-126257321D01*
X74697772Y-126234449D01*
X74773173Y-126211576D01*
X74812351Y-126207717D01*
X74890705Y-126200000D01*
X74969295Y-126200000D01*
X75047649Y-126207717D01*
X75047649Y-126207717D01*
G37*
G36*
X46683876Y-122165048D02*
X46879916Y-122224516D01*
X47060589Y-122321088D01*
X47218949Y-122451051D01*
X47348912Y-122609411D01*
X47445484Y-122790084D01*
X47504952Y-122986124D01*
X47525032Y-123190000D01*
X47504952Y-123393876D01*
X47445484Y-123589916D01*
X47348912Y-123770589D01*
X47218949Y-123928949D01*
X47060589Y-124058912D01*
X46879916Y-124155484D01*
X46683876Y-124214952D01*
X46531091Y-124230000D01*
X44908909Y-124230000D01*
X44756124Y-124214952D01*
X44560084Y-124155484D01*
X44379411Y-124058912D01*
X44221051Y-123928949D01*
X44091088Y-123770589D01*
X43994516Y-123589916D01*
X43935048Y-123393876D01*
X43914968Y-123190000D01*
X43935048Y-122986124D01*
X43994516Y-122790084D01*
X44091088Y-122609411D01*
X44221051Y-122451051D01*
X44379411Y-122321088D01*
X44560084Y-122224516D01*
X44756124Y-122165048D01*
X44908909Y-122150000D01*
X46531091Y-122150000D01*
X46683876Y-122165048D01*
X46683876Y-122165048D01*
G37*
G36*
X59221630Y-122352299D02*
X59381855Y-122400903D01*
X59529520Y-122479831D01*
X59658949Y-122586051D01*
X59765169Y-122715480D01*
X59844097Y-122863145D01*
X59892701Y-123023370D01*
X59909112Y-123190000D01*
X59892701Y-123356630D01*
X59844097Y-123516855D01*
X59765169Y-123664520D01*
X59658949Y-123793949D01*
X59529520Y-123900169D01*
X59381855Y-123979097D01*
X59221630Y-124027701D01*
X59096752Y-124040000D01*
X59013248Y-124040000D01*
X58888370Y-124027701D01*
X58728145Y-123979097D01*
X58580480Y-123900169D01*
X58451051Y-123793949D01*
X58344831Y-123664520D01*
X58265903Y-123516855D01*
X58217299Y-123356630D01*
X58200888Y-123190000D01*
X58217299Y-123023370D01*
X58265903Y-122863145D01*
X58344831Y-122715480D01*
X58451051Y-122586051D01*
X58580480Y-122479831D01*
X58728145Y-122400903D01*
X58888370Y-122352299D01*
X59013248Y-122340000D01*
X59096752Y-122340000D01*
X59221630Y-122352299D01*
X59221630Y-122352299D01*
G37*
G36*
X152484712Y-121060565D02*
X152569295Y-121068896D01*
X152689727Y-121105429D01*
X152732088Y-121118279D01*
X152882112Y-121198468D01*
X153013612Y-121306388D01*
X153121532Y-121437888D01*
X153201721Y-121587912D01*
X153201722Y-121587916D01*
X153251104Y-121750705D01*
X153267778Y-121920000D01*
X153251104Y-122089295D01*
X153231672Y-122153352D01*
X153201721Y-122252088D01*
X153121532Y-122402112D01*
X153013612Y-122533612D01*
X152882112Y-122641532D01*
X152732088Y-122721721D01*
X152689727Y-122734571D01*
X152569295Y-122771104D01*
X152484712Y-122779435D01*
X152442421Y-122783600D01*
X152357579Y-122783600D01*
X152315288Y-122779435D01*
X152230705Y-122771104D01*
X152110273Y-122734571D01*
X152067912Y-122721721D01*
X151917888Y-122641532D01*
X151786388Y-122533612D01*
X151678468Y-122402112D01*
X151598279Y-122252088D01*
X151568328Y-122153352D01*
X151548896Y-122089295D01*
X151532222Y-121920000D01*
X151548896Y-121750705D01*
X151598278Y-121587916D01*
X151598279Y-121587912D01*
X151678468Y-121437888D01*
X151786388Y-121306388D01*
X151917888Y-121198468D01*
X152067912Y-121118279D01*
X152110273Y-121105429D01*
X152230705Y-121068896D01*
X152315288Y-121060565D01*
X152357579Y-121056400D01*
X152442421Y-121056400D01*
X152484712Y-121060565D01*
X152484712Y-121060565D01*
G37*
G36*
X150723600Y-122783600D02*
X148996400Y-122783600D01*
X148996400Y-121056400D01*
X150723600Y-121056400D01*
X150723600Y-122783600D01*
X150723600Y-122783600D01*
G37*
G36*
X129624712Y-121060565D02*
X129709295Y-121068896D01*
X129829727Y-121105429D01*
X129872088Y-121118279D01*
X130022112Y-121198468D01*
X130153612Y-121306388D01*
X130261532Y-121437888D01*
X130341721Y-121587912D01*
X130341722Y-121587916D01*
X130391104Y-121750705D01*
X130407778Y-121920000D01*
X130391104Y-122089295D01*
X130371672Y-122153352D01*
X130341721Y-122252088D01*
X130261532Y-122402112D01*
X130153612Y-122533612D01*
X130022112Y-122641532D01*
X129872088Y-122721721D01*
X129829727Y-122734571D01*
X129709295Y-122771104D01*
X129624712Y-122779435D01*
X129582421Y-122783600D01*
X129497579Y-122783600D01*
X129455288Y-122779435D01*
X129370705Y-122771104D01*
X129250273Y-122734571D01*
X129207912Y-122721721D01*
X129057888Y-122641532D01*
X128926388Y-122533612D01*
X128818468Y-122402112D01*
X128738279Y-122252088D01*
X128708328Y-122153352D01*
X128688896Y-122089295D01*
X128672222Y-121920000D01*
X128688896Y-121750705D01*
X128738278Y-121587916D01*
X128738279Y-121587912D01*
X128818468Y-121437888D01*
X128926388Y-121306388D01*
X129057888Y-121198468D01*
X129207912Y-121118279D01*
X129250273Y-121105429D01*
X129370705Y-121068896D01*
X129455288Y-121060565D01*
X129497579Y-121056400D01*
X129582421Y-121056400D01*
X129624712Y-121060565D01*
X129624712Y-121060565D01*
G37*
G36*
X127084712Y-121060565D02*
X127169295Y-121068896D01*
X127289727Y-121105429D01*
X127332088Y-121118279D01*
X127482112Y-121198468D01*
X127613612Y-121306388D01*
X127721532Y-121437888D01*
X127801721Y-121587912D01*
X127801722Y-121587916D01*
X127851104Y-121750705D01*
X127867778Y-121920000D01*
X127851104Y-122089295D01*
X127831672Y-122153352D01*
X127801721Y-122252088D01*
X127721532Y-122402112D01*
X127613612Y-122533612D01*
X127482112Y-122641532D01*
X127332088Y-122721721D01*
X127289727Y-122734571D01*
X127169295Y-122771104D01*
X127084712Y-122779435D01*
X127042421Y-122783600D01*
X126957579Y-122783600D01*
X126915288Y-122779435D01*
X126830705Y-122771104D01*
X126710273Y-122734571D01*
X126667912Y-122721721D01*
X126517888Y-122641532D01*
X126386388Y-122533612D01*
X126278468Y-122402112D01*
X126198279Y-122252088D01*
X126168328Y-122153352D01*
X126148896Y-122089295D01*
X126132222Y-121920000D01*
X126148896Y-121750705D01*
X126198278Y-121587916D01*
X126198279Y-121587912D01*
X126278468Y-121437888D01*
X126386388Y-121306388D01*
X126517888Y-121198468D01*
X126667912Y-121118279D01*
X126710273Y-121105429D01*
X126830705Y-121068896D01*
X126915288Y-121060565D01*
X126957579Y-121056400D01*
X127042421Y-121056400D01*
X127084712Y-121060565D01*
X127084712Y-121060565D01*
G37*
G36*
X124544712Y-121060565D02*
X124629295Y-121068896D01*
X124749727Y-121105429D01*
X124792088Y-121118279D01*
X124942112Y-121198468D01*
X125073612Y-121306388D01*
X125181532Y-121437888D01*
X125261721Y-121587912D01*
X125261722Y-121587916D01*
X125311104Y-121750705D01*
X125327778Y-121920000D01*
X125311104Y-122089295D01*
X125291672Y-122153352D01*
X125261721Y-122252088D01*
X125181532Y-122402112D01*
X125073612Y-122533612D01*
X124942112Y-122641532D01*
X124792088Y-122721721D01*
X124749727Y-122734571D01*
X124629295Y-122771104D01*
X124544712Y-122779435D01*
X124502421Y-122783600D01*
X124417579Y-122783600D01*
X124375288Y-122779435D01*
X124290705Y-122771104D01*
X124170273Y-122734571D01*
X124127912Y-122721721D01*
X123977888Y-122641532D01*
X123846388Y-122533612D01*
X123738468Y-122402112D01*
X123658279Y-122252088D01*
X123628328Y-122153352D01*
X123608896Y-122089295D01*
X123592222Y-121920000D01*
X123608896Y-121750705D01*
X123658278Y-121587916D01*
X123658279Y-121587912D01*
X123738468Y-121437888D01*
X123846388Y-121306388D01*
X123977888Y-121198468D01*
X124127912Y-121118279D01*
X124170273Y-121105429D01*
X124290705Y-121068896D01*
X124375288Y-121060565D01*
X124417579Y-121056400D01*
X124502421Y-121056400D01*
X124544712Y-121060565D01*
X124544712Y-121060565D01*
G37*
G36*
X122004712Y-121060565D02*
X122089295Y-121068896D01*
X122209727Y-121105429D01*
X122252088Y-121118279D01*
X122402112Y-121198468D01*
X122533612Y-121306388D01*
X122641532Y-121437888D01*
X122721721Y-121587912D01*
X122721722Y-121587916D01*
X122771104Y-121750705D01*
X122787778Y-121920000D01*
X122771104Y-122089295D01*
X122751672Y-122153352D01*
X122721721Y-122252088D01*
X122641532Y-122402112D01*
X122533612Y-122533612D01*
X122402112Y-122641532D01*
X122252088Y-122721721D01*
X122209727Y-122734571D01*
X122089295Y-122771104D01*
X122004712Y-122779435D01*
X121962421Y-122783600D01*
X121877579Y-122783600D01*
X121835288Y-122779435D01*
X121750705Y-122771104D01*
X121630273Y-122734571D01*
X121587912Y-122721721D01*
X121437888Y-122641532D01*
X121306388Y-122533612D01*
X121198468Y-122402112D01*
X121118279Y-122252088D01*
X121088328Y-122153352D01*
X121068896Y-122089295D01*
X121052222Y-121920000D01*
X121068896Y-121750705D01*
X121118278Y-121587916D01*
X121118279Y-121587912D01*
X121198468Y-121437888D01*
X121306388Y-121306388D01*
X121437888Y-121198468D01*
X121587912Y-121118279D01*
X121630273Y-121105429D01*
X121750705Y-121068896D01*
X121835288Y-121060565D01*
X121877579Y-121056400D01*
X121962421Y-121056400D01*
X122004712Y-121060565D01*
X122004712Y-121060565D01*
G37*
G36*
X119464712Y-121060565D02*
X119549295Y-121068896D01*
X119669727Y-121105429D01*
X119712088Y-121118279D01*
X119862112Y-121198468D01*
X119993612Y-121306388D01*
X120101532Y-121437888D01*
X120181721Y-121587912D01*
X120181722Y-121587916D01*
X120231104Y-121750705D01*
X120247778Y-121920000D01*
X120231104Y-122089295D01*
X120211672Y-122153352D01*
X120181721Y-122252088D01*
X120101532Y-122402112D01*
X119993612Y-122533612D01*
X119862112Y-122641532D01*
X119712088Y-122721721D01*
X119669727Y-122734571D01*
X119549295Y-122771104D01*
X119464712Y-122779435D01*
X119422421Y-122783600D01*
X119337579Y-122783600D01*
X119295288Y-122779435D01*
X119210705Y-122771104D01*
X119090273Y-122734571D01*
X119047912Y-122721721D01*
X118897888Y-122641532D01*
X118766388Y-122533612D01*
X118658468Y-122402112D01*
X118578279Y-122252088D01*
X118548328Y-122153352D01*
X118528896Y-122089295D01*
X118512222Y-121920000D01*
X118528896Y-121750705D01*
X118578278Y-121587916D01*
X118578279Y-121587912D01*
X118658468Y-121437888D01*
X118766388Y-121306388D01*
X118897888Y-121198468D01*
X119047912Y-121118279D01*
X119090273Y-121105429D01*
X119210705Y-121068896D01*
X119295288Y-121060565D01*
X119337579Y-121056400D01*
X119422421Y-121056400D01*
X119464712Y-121060565D01*
X119464712Y-121060565D01*
G37*
G36*
X116924712Y-121060565D02*
X117009295Y-121068896D01*
X117129727Y-121105429D01*
X117172088Y-121118279D01*
X117322112Y-121198468D01*
X117453612Y-121306388D01*
X117561532Y-121437888D01*
X117641721Y-121587912D01*
X117641722Y-121587916D01*
X117691104Y-121750705D01*
X117707778Y-121920000D01*
X117691104Y-122089295D01*
X117671672Y-122153352D01*
X117641721Y-122252088D01*
X117561532Y-122402112D01*
X117453612Y-122533612D01*
X117322112Y-122641532D01*
X117172088Y-122721721D01*
X117129727Y-122734571D01*
X117009295Y-122771104D01*
X116924712Y-122779435D01*
X116882421Y-122783600D01*
X116797579Y-122783600D01*
X116755288Y-122779435D01*
X116670705Y-122771104D01*
X116550273Y-122734571D01*
X116507912Y-122721721D01*
X116357888Y-122641532D01*
X116226388Y-122533612D01*
X116118468Y-122402112D01*
X116038279Y-122252088D01*
X116008328Y-122153352D01*
X115988896Y-122089295D01*
X115972222Y-121920000D01*
X115988896Y-121750705D01*
X116038278Y-121587916D01*
X116038279Y-121587912D01*
X116118468Y-121437888D01*
X116226388Y-121306388D01*
X116357888Y-121198468D01*
X116507912Y-121118279D01*
X116550273Y-121105429D01*
X116670705Y-121068896D01*
X116755288Y-121060565D01*
X116797579Y-121056400D01*
X116882421Y-121056400D01*
X116924712Y-121060565D01*
X116924712Y-121060565D01*
G37*
G36*
X114384712Y-121060565D02*
X114469295Y-121068896D01*
X114589727Y-121105429D01*
X114632088Y-121118279D01*
X114782112Y-121198468D01*
X114913612Y-121306388D01*
X115021532Y-121437888D01*
X115101721Y-121587912D01*
X115101722Y-121587916D01*
X115151104Y-121750705D01*
X115167778Y-121920000D01*
X115151104Y-122089295D01*
X115131672Y-122153352D01*
X115101721Y-122252088D01*
X115021532Y-122402112D01*
X114913612Y-122533612D01*
X114782112Y-122641532D01*
X114632088Y-122721721D01*
X114589727Y-122734571D01*
X114469295Y-122771104D01*
X114384712Y-122779435D01*
X114342421Y-122783600D01*
X114257579Y-122783600D01*
X114215288Y-122779435D01*
X114130705Y-122771104D01*
X114010273Y-122734571D01*
X113967912Y-122721721D01*
X113817888Y-122641532D01*
X113686388Y-122533612D01*
X113578468Y-122402112D01*
X113498279Y-122252088D01*
X113468328Y-122153352D01*
X113448896Y-122089295D01*
X113432222Y-121920000D01*
X113448896Y-121750705D01*
X113498278Y-121587916D01*
X113498279Y-121587912D01*
X113578468Y-121437888D01*
X113686388Y-121306388D01*
X113817888Y-121198468D01*
X113967912Y-121118279D01*
X114010273Y-121105429D01*
X114130705Y-121068896D01*
X114215288Y-121060565D01*
X114257579Y-121056400D01*
X114342421Y-121056400D01*
X114384712Y-121060565D01*
X114384712Y-121060565D01*
G37*
G36*
X112623600Y-122783600D02*
X110896400Y-122783600D01*
X110896400Y-121056400D01*
X112623600Y-121056400D01*
X112623600Y-122783600D01*
X112623600Y-122783600D01*
G37*
G36*
X162644712Y-121060565D02*
X162729295Y-121068896D01*
X162849727Y-121105429D01*
X162892088Y-121118279D01*
X163042112Y-121198468D01*
X163173612Y-121306388D01*
X163281532Y-121437888D01*
X163361721Y-121587912D01*
X163361722Y-121587916D01*
X163411104Y-121750705D01*
X163427778Y-121920000D01*
X163411104Y-122089295D01*
X163391672Y-122153352D01*
X163361721Y-122252088D01*
X163281532Y-122402112D01*
X163173612Y-122533612D01*
X163042112Y-122641532D01*
X162892088Y-122721721D01*
X162849727Y-122734571D01*
X162729295Y-122771104D01*
X162644712Y-122779435D01*
X162602421Y-122783600D01*
X162517579Y-122783600D01*
X162475288Y-122779435D01*
X162390705Y-122771104D01*
X162270273Y-122734571D01*
X162227912Y-122721721D01*
X162077888Y-122641532D01*
X161946388Y-122533612D01*
X161838468Y-122402112D01*
X161758279Y-122252088D01*
X161728328Y-122153352D01*
X161708896Y-122089295D01*
X161692222Y-121920000D01*
X161708896Y-121750705D01*
X161758278Y-121587916D01*
X161758279Y-121587912D01*
X161838468Y-121437888D01*
X161946388Y-121306388D01*
X162077888Y-121198468D01*
X162227912Y-121118279D01*
X162270273Y-121105429D01*
X162390705Y-121068896D01*
X162475288Y-121060565D01*
X162517579Y-121056400D01*
X162602421Y-121056400D01*
X162644712Y-121060565D01*
X162644712Y-121060565D01*
G37*
G36*
X193124712Y-121060565D02*
X193209295Y-121068896D01*
X193329727Y-121105429D01*
X193372088Y-121118279D01*
X193522112Y-121198468D01*
X193653612Y-121306388D01*
X193761532Y-121437888D01*
X193841721Y-121587912D01*
X193841722Y-121587916D01*
X193891104Y-121750705D01*
X193907778Y-121920000D01*
X193891104Y-122089295D01*
X193871672Y-122153352D01*
X193841721Y-122252088D01*
X193761532Y-122402112D01*
X193653612Y-122533612D01*
X193522112Y-122641532D01*
X193372088Y-122721721D01*
X193329727Y-122734571D01*
X193209295Y-122771104D01*
X193124712Y-122779435D01*
X193082421Y-122783600D01*
X192997579Y-122783600D01*
X192955288Y-122779435D01*
X192870705Y-122771104D01*
X192750273Y-122734571D01*
X192707912Y-122721721D01*
X192557888Y-122641532D01*
X192426388Y-122533612D01*
X192318468Y-122402112D01*
X192238279Y-122252088D01*
X192208328Y-122153352D01*
X192188896Y-122089295D01*
X192172222Y-121920000D01*
X192188896Y-121750705D01*
X192238278Y-121587916D01*
X192238279Y-121587912D01*
X192318468Y-121437888D01*
X192426388Y-121306388D01*
X192557888Y-121198468D01*
X192707912Y-121118279D01*
X192750273Y-121105429D01*
X192870705Y-121068896D01*
X192955288Y-121060565D01*
X192997579Y-121056400D01*
X193082421Y-121056400D01*
X193124712Y-121060565D01*
X193124712Y-121060565D01*
G37*
G36*
X157564712Y-121060565D02*
X157649295Y-121068896D01*
X157769727Y-121105429D01*
X157812088Y-121118279D01*
X157962112Y-121198468D01*
X158093612Y-121306388D01*
X158201532Y-121437888D01*
X158281721Y-121587912D01*
X158281722Y-121587916D01*
X158331104Y-121750705D01*
X158347778Y-121920000D01*
X158331104Y-122089295D01*
X158311672Y-122153352D01*
X158281721Y-122252088D01*
X158201532Y-122402112D01*
X158093612Y-122533612D01*
X157962112Y-122641532D01*
X157812088Y-122721721D01*
X157769727Y-122734571D01*
X157649295Y-122771104D01*
X157564712Y-122779435D01*
X157522421Y-122783600D01*
X157437579Y-122783600D01*
X157395288Y-122779435D01*
X157310705Y-122771104D01*
X157190273Y-122734571D01*
X157147912Y-122721721D01*
X156997888Y-122641532D01*
X156866388Y-122533612D01*
X156758468Y-122402112D01*
X156678279Y-122252088D01*
X156648328Y-122153352D01*
X156628896Y-122089295D01*
X156612222Y-121920000D01*
X156628896Y-121750705D01*
X156678278Y-121587916D01*
X156678279Y-121587912D01*
X156758468Y-121437888D01*
X156866388Y-121306388D01*
X156997888Y-121198468D01*
X157147912Y-121118279D01*
X157190273Y-121105429D01*
X157310705Y-121068896D01*
X157395288Y-121060565D01*
X157437579Y-121056400D01*
X157522421Y-121056400D01*
X157564712Y-121060565D01*
X157564712Y-121060565D01*
G37*
G36*
X160104712Y-121060565D02*
X160189295Y-121068896D01*
X160309727Y-121105429D01*
X160352088Y-121118279D01*
X160502112Y-121198468D01*
X160633612Y-121306388D01*
X160741532Y-121437888D01*
X160821721Y-121587912D01*
X160821722Y-121587916D01*
X160871104Y-121750705D01*
X160887778Y-121920000D01*
X160871104Y-122089295D01*
X160851672Y-122153352D01*
X160821721Y-122252088D01*
X160741532Y-122402112D01*
X160633612Y-122533612D01*
X160502112Y-122641532D01*
X160352088Y-122721721D01*
X160309727Y-122734571D01*
X160189295Y-122771104D01*
X160104712Y-122779435D01*
X160062421Y-122783600D01*
X159977579Y-122783600D01*
X159935288Y-122779435D01*
X159850705Y-122771104D01*
X159730273Y-122734571D01*
X159687912Y-122721721D01*
X159537888Y-122641532D01*
X159406388Y-122533612D01*
X159298468Y-122402112D01*
X159218279Y-122252088D01*
X159188328Y-122153352D01*
X159168896Y-122089295D01*
X159152222Y-121920000D01*
X159168896Y-121750705D01*
X159218278Y-121587916D01*
X159218279Y-121587912D01*
X159298468Y-121437888D01*
X159406388Y-121306388D01*
X159537888Y-121198468D01*
X159687912Y-121118279D01*
X159730273Y-121105429D01*
X159850705Y-121068896D01*
X159935288Y-121060565D01*
X159977579Y-121056400D01*
X160062421Y-121056400D01*
X160104712Y-121060565D01*
X160104712Y-121060565D01*
G37*
G36*
X190584712Y-121060565D02*
X190669295Y-121068896D01*
X190789727Y-121105429D01*
X190832088Y-121118279D01*
X190982112Y-121198468D01*
X191113612Y-121306388D01*
X191221532Y-121437888D01*
X191301721Y-121587912D01*
X191301722Y-121587916D01*
X191351104Y-121750705D01*
X191367778Y-121920000D01*
X191351104Y-122089295D01*
X191331672Y-122153352D01*
X191301721Y-122252088D01*
X191221532Y-122402112D01*
X191113612Y-122533612D01*
X190982112Y-122641532D01*
X190832088Y-122721721D01*
X190789727Y-122734571D01*
X190669295Y-122771104D01*
X190584712Y-122779435D01*
X190542421Y-122783600D01*
X190457579Y-122783600D01*
X190415288Y-122779435D01*
X190330705Y-122771104D01*
X190210273Y-122734571D01*
X190167912Y-122721721D01*
X190017888Y-122641532D01*
X189886388Y-122533612D01*
X189778468Y-122402112D01*
X189698279Y-122252088D01*
X189668328Y-122153352D01*
X189648896Y-122089295D01*
X189632222Y-121920000D01*
X189648896Y-121750705D01*
X189698278Y-121587916D01*
X189698279Y-121587912D01*
X189778468Y-121437888D01*
X189886388Y-121306388D01*
X190017888Y-121198468D01*
X190167912Y-121118279D01*
X190210273Y-121105429D01*
X190330705Y-121068896D01*
X190415288Y-121060565D01*
X190457579Y-121056400D01*
X190542421Y-121056400D01*
X190584712Y-121060565D01*
X190584712Y-121060565D01*
G37*
G36*
X188823600Y-122783600D02*
X187096400Y-122783600D01*
X187096400Y-121056400D01*
X188823600Y-121056400D01*
X188823600Y-122783600D01*
X188823600Y-122783600D01*
G37*
G36*
X195664712Y-121060565D02*
X195749295Y-121068896D01*
X195869727Y-121105429D01*
X195912088Y-121118279D01*
X196062112Y-121198468D01*
X196193612Y-121306388D01*
X196301532Y-121437888D01*
X196381721Y-121587912D01*
X196381722Y-121587916D01*
X196431104Y-121750705D01*
X196447778Y-121920000D01*
X196431104Y-122089295D01*
X196411672Y-122153352D01*
X196381721Y-122252088D01*
X196301532Y-122402112D01*
X196193612Y-122533612D01*
X196062112Y-122641532D01*
X195912088Y-122721721D01*
X195869727Y-122734571D01*
X195749295Y-122771104D01*
X195664712Y-122779435D01*
X195622421Y-122783600D01*
X195537579Y-122783600D01*
X195495288Y-122779435D01*
X195410705Y-122771104D01*
X195290273Y-122734571D01*
X195247912Y-122721721D01*
X195097888Y-122641532D01*
X194966388Y-122533612D01*
X194858468Y-122402112D01*
X194778279Y-122252088D01*
X194748328Y-122153352D01*
X194728896Y-122089295D01*
X194712222Y-121920000D01*
X194728896Y-121750705D01*
X194778278Y-121587916D01*
X194778279Y-121587912D01*
X194858468Y-121437888D01*
X194966388Y-121306388D01*
X195097888Y-121198468D01*
X195247912Y-121118279D01*
X195290273Y-121105429D01*
X195410705Y-121068896D01*
X195495288Y-121060565D01*
X195537579Y-121056400D01*
X195622421Y-121056400D01*
X195664712Y-121060565D01*
X195664712Y-121060565D01*
G37*
G36*
X198204712Y-121060565D02*
X198289295Y-121068896D01*
X198409727Y-121105429D01*
X198452088Y-121118279D01*
X198602112Y-121198468D01*
X198733612Y-121306388D01*
X198841532Y-121437888D01*
X198921721Y-121587912D01*
X198921722Y-121587916D01*
X198971104Y-121750705D01*
X198987778Y-121920000D01*
X198971104Y-122089295D01*
X198951672Y-122153352D01*
X198921721Y-122252088D01*
X198841532Y-122402112D01*
X198733612Y-122533612D01*
X198602112Y-122641532D01*
X198452088Y-122721721D01*
X198409727Y-122734571D01*
X198289295Y-122771104D01*
X198204712Y-122779435D01*
X198162421Y-122783600D01*
X198077579Y-122783600D01*
X198035288Y-122779435D01*
X197950705Y-122771104D01*
X197830273Y-122734571D01*
X197787912Y-122721721D01*
X197637888Y-122641532D01*
X197506388Y-122533612D01*
X197398468Y-122402112D01*
X197318279Y-122252088D01*
X197288328Y-122153352D01*
X197268896Y-122089295D01*
X197252222Y-121920000D01*
X197268896Y-121750705D01*
X197318278Y-121587916D01*
X197318279Y-121587912D01*
X197398468Y-121437888D01*
X197506388Y-121306388D01*
X197637888Y-121198468D01*
X197787912Y-121118279D01*
X197830273Y-121105429D01*
X197950705Y-121068896D01*
X198035288Y-121060565D01*
X198077579Y-121056400D01*
X198162421Y-121056400D01*
X198204712Y-121060565D01*
X198204712Y-121060565D01*
G37*
G36*
X200744712Y-121060565D02*
X200829295Y-121068896D01*
X200949727Y-121105429D01*
X200992088Y-121118279D01*
X201142112Y-121198468D01*
X201273612Y-121306388D01*
X201381532Y-121437888D01*
X201461721Y-121587912D01*
X201461722Y-121587916D01*
X201511104Y-121750705D01*
X201527778Y-121920000D01*
X201511104Y-122089295D01*
X201491672Y-122153352D01*
X201461721Y-122252088D01*
X201381532Y-122402112D01*
X201273612Y-122533612D01*
X201142112Y-122641532D01*
X200992088Y-122721721D01*
X200949727Y-122734571D01*
X200829295Y-122771104D01*
X200744712Y-122779435D01*
X200702421Y-122783600D01*
X200617579Y-122783600D01*
X200575288Y-122779435D01*
X200490705Y-122771104D01*
X200370273Y-122734571D01*
X200327912Y-122721721D01*
X200177888Y-122641532D01*
X200046388Y-122533612D01*
X199938468Y-122402112D01*
X199858279Y-122252088D01*
X199828328Y-122153352D01*
X199808896Y-122089295D01*
X199792222Y-121920000D01*
X199808896Y-121750705D01*
X199858278Y-121587916D01*
X199858279Y-121587912D01*
X199938468Y-121437888D01*
X200046388Y-121306388D01*
X200177888Y-121198468D01*
X200327912Y-121118279D01*
X200370273Y-121105429D01*
X200490705Y-121068896D01*
X200575288Y-121060565D01*
X200617579Y-121056400D01*
X200702421Y-121056400D01*
X200744712Y-121060565D01*
X200744712Y-121060565D01*
G37*
G36*
X203284712Y-121060565D02*
X203369295Y-121068896D01*
X203489727Y-121105429D01*
X203532088Y-121118279D01*
X203682112Y-121198468D01*
X203813612Y-121306388D01*
X203921532Y-121437888D01*
X204001721Y-121587912D01*
X204001722Y-121587916D01*
X204051104Y-121750705D01*
X204067778Y-121920000D01*
X204051104Y-122089295D01*
X204031672Y-122153352D01*
X204001721Y-122252088D01*
X203921532Y-122402112D01*
X203813612Y-122533612D01*
X203682112Y-122641532D01*
X203532088Y-122721721D01*
X203489727Y-122734571D01*
X203369295Y-122771104D01*
X203284712Y-122779435D01*
X203242421Y-122783600D01*
X203157579Y-122783600D01*
X203115288Y-122779435D01*
X203030705Y-122771104D01*
X202910273Y-122734571D01*
X202867912Y-122721721D01*
X202717888Y-122641532D01*
X202586388Y-122533612D01*
X202478468Y-122402112D01*
X202398279Y-122252088D01*
X202368328Y-122153352D01*
X202348896Y-122089295D01*
X202332222Y-121920000D01*
X202348896Y-121750705D01*
X202398278Y-121587916D01*
X202398279Y-121587912D01*
X202478468Y-121437888D01*
X202586388Y-121306388D01*
X202717888Y-121198468D01*
X202867912Y-121118279D01*
X202910273Y-121105429D01*
X203030705Y-121068896D01*
X203115288Y-121060565D01*
X203157579Y-121056400D01*
X203242421Y-121056400D01*
X203284712Y-121060565D01*
X203284712Y-121060565D01*
G37*
G36*
X205824712Y-121060565D02*
X205909295Y-121068896D01*
X206029727Y-121105429D01*
X206072088Y-121118279D01*
X206222112Y-121198468D01*
X206353612Y-121306388D01*
X206461532Y-121437888D01*
X206541721Y-121587912D01*
X206541722Y-121587916D01*
X206591104Y-121750705D01*
X206607778Y-121920000D01*
X206591104Y-122089295D01*
X206571672Y-122153352D01*
X206541721Y-122252088D01*
X206461532Y-122402112D01*
X206353612Y-122533612D01*
X206222112Y-122641532D01*
X206072088Y-122721721D01*
X206029727Y-122734571D01*
X205909295Y-122771104D01*
X205824712Y-122779435D01*
X205782421Y-122783600D01*
X205697579Y-122783600D01*
X205655288Y-122779435D01*
X205570705Y-122771104D01*
X205450273Y-122734571D01*
X205407912Y-122721721D01*
X205257888Y-122641532D01*
X205126388Y-122533612D01*
X205018468Y-122402112D01*
X204938279Y-122252088D01*
X204908328Y-122153352D01*
X204888896Y-122089295D01*
X204872222Y-121920000D01*
X204888896Y-121750705D01*
X204938278Y-121587916D01*
X204938279Y-121587912D01*
X205018468Y-121437888D01*
X205126388Y-121306388D01*
X205257888Y-121198468D01*
X205407912Y-121118279D01*
X205450273Y-121105429D01*
X205570705Y-121068896D01*
X205655288Y-121060565D01*
X205697579Y-121056400D01*
X205782421Y-121056400D01*
X205824712Y-121060565D01*
X205824712Y-121060565D01*
G37*
G36*
X167724712Y-121060565D02*
X167809295Y-121068896D01*
X167929727Y-121105429D01*
X167972088Y-121118279D01*
X168122112Y-121198468D01*
X168253612Y-121306388D01*
X168361532Y-121437888D01*
X168441721Y-121587912D01*
X168441722Y-121587916D01*
X168491104Y-121750705D01*
X168507778Y-121920000D01*
X168491104Y-122089295D01*
X168471672Y-122153352D01*
X168441721Y-122252088D01*
X168361532Y-122402112D01*
X168253612Y-122533612D01*
X168122112Y-122641532D01*
X167972088Y-122721721D01*
X167929727Y-122734571D01*
X167809295Y-122771104D01*
X167724712Y-122779435D01*
X167682421Y-122783600D01*
X167597579Y-122783600D01*
X167555288Y-122779435D01*
X167470705Y-122771104D01*
X167350273Y-122734571D01*
X167307912Y-122721721D01*
X167157888Y-122641532D01*
X167026388Y-122533612D01*
X166918468Y-122402112D01*
X166838279Y-122252088D01*
X166808328Y-122153352D01*
X166788896Y-122089295D01*
X166772222Y-121920000D01*
X166788896Y-121750705D01*
X166838278Y-121587916D01*
X166838279Y-121587912D01*
X166918468Y-121437888D01*
X167026388Y-121306388D01*
X167157888Y-121198468D01*
X167307912Y-121118279D01*
X167350273Y-121105429D01*
X167470705Y-121068896D01*
X167555288Y-121060565D01*
X167597579Y-121056400D01*
X167682421Y-121056400D01*
X167724712Y-121060565D01*
X167724712Y-121060565D01*
G37*
G36*
X165184712Y-121060565D02*
X165269295Y-121068896D01*
X165389727Y-121105429D01*
X165432088Y-121118279D01*
X165582112Y-121198468D01*
X165713612Y-121306388D01*
X165821532Y-121437888D01*
X165901721Y-121587912D01*
X165901722Y-121587916D01*
X165951104Y-121750705D01*
X165967778Y-121920000D01*
X165951104Y-122089295D01*
X165931672Y-122153352D01*
X165901721Y-122252088D01*
X165821532Y-122402112D01*
X165713612Y-122533612D01*
X165582112Y-122641532D01*
X165432088Y-122721721D01*
X165389727Y-122734571D01*
X165269295Y-122771104D01*
X165184712Y-122779435D01*
X165142421Y-122783600D01*
X165057579Y-122783600D01*
X165015288Y-122779435D01*
X164930705Y-122771104D01*
X164810273Y-122734571D01*
X164767912Y-122721721D01*
X164617888Y-122641532D01*
X164486388Y-122533612D01*
X164378468Y-122402112D01*
X164298279Y-122252088D01*
X164268328Y-122153352D01*
X164248896Y-122089295D01*
X164232222Y-121920000D01*
X164248896Y-121750705D01*
X164298278Y-121587916D01*
X164298279Y-121587912D01*
X164378468Y-121437888D01*
X164486388Y-121306388D01*
X164617888Y-121198468D01*
X164767912Y-121118279D01*
X164810273Y-121105429D01*
X164930705Y-121068896D01*
X165015288Y-121060565D01*
X165057579Y-121056400D01*
X165142421Y-121056400D01*
X165184712Y-121060565D01*
X165184712Y-121060565D01*
G37*
G36*
X155024712Y-121060565D02*
X155109295Y-121068896D01*
X155229727Y-121105429D01*
X155272088Y-121118279D01*
X155422112Y-121198468D01*
X155553612Y-121306388D01*
X155661532Y-121437888D01*
X155741721Y-121587912D01*
X155741722Y-121587916D01*
X155791104Y-121750705D01*
X155807778Y-121920000D01*
X155791104Y-122089295D01*
X155771672Y-122153352D01*
X155741721Y-122252088D01*
X155661532Y-122402112D01*
X155553612Y-122533612D01*
X155422112Y-122641532D01*
X155272088Y-122721721D01*
X155229727Y-122734571D01*
X155109295Y-122771104D01*
X155024712Y-122779435D01*
X154982421Y-122783600D01*
X154897579Y-122783600D01*
X154855288Y-122779435D01*
X154770705Y-122771104D01*
X154650273Y-122734571D01*
X154607912Y-122721721D01*
X154457888Y-122641532D01*
X154326388Y-122533612D01*
X154218468Y-122402112D01*
X154138279Y-122252088D01*
X154108328Y-122153352D01*
X154088896Y-122089295D01*
X154072222Y-121920000D01*
X154088896Y-121750705D01*
X154138278Y-121587916D01*
X154138279Y-121587912D01*
X154218468Y-121437888D01*
X154326388Y-121306388D01*
X154457888Y-121198468D01*
X154607912Y-121118279D01*
X154650273Y-121105429D01*
X154770705Y-121068896D01*
X154855288Y-121060565D01*
X154897579Y-121056400D01*
X154982421Y-121056400D01*
X155024712Y-121060565D01*
X155024712Y-121060565D01*
G37*
G36*
X92943352Y-121150743D02*
X93088941Y-121211048D01*
X93219973Y-121298601D01*
X93331399Y-121410027D01*
X93418952Y-121541059D01*
X93479257Y-121686648D01*
X93510000Y-121841205D01*
X93510000Y-121998795D01*
X93479257Y-122153352D01*
X93418952Y-122298941D01*
X93331399Y-122429973D01*
X93219973Y-122541399D01*
X93088941Y-122628952D01*
X92943352Y-122689257D01*
X92788795Y-122720000D01*
X92631205Y-122720000D01*
X92476648Y-122689257D01*
X92331059Y-122628952D01*
X92200027Y-122541399D01*
X92088601Y-122429973D01*
X92001048Y-122298941D01*
X91940743Y-122153352D01*
X91910000Y-121998795D01*
X91910000Y-121841205D01*
X91940743Y-121686648D01*
X92001048Y-121541059D01*
X92088601Y-121410027D01*
X92200027Y-121298601D01*
X92331059Y-121211048D01*
X92476648Y-121150743D01*
X92631205Y-121120000D01*
X92788795Y-121120000D01*
X92943352Y-121150743D01*
X92943352Y-121150743D01*
G37*
G36*
X98023352Y-121110743D02*
X98168941Y-121171048D01*
X98299973Y-121258601D01*
X98411399Y-121370027D01*
X98498952Y-121501059D01*
X98559257Y-121646648D01*
X98590000Y-121801205D01*
X98590000Y-121958795D01*
X98559257Y-122113352D01*
X98498952Y-122258941D01*
X98411399Y-122389973D01*
X98299973Y-122501399D01*
X98168941Y-122588952D01*
X98023352Y-122649257D01*
X97868795Y-122680000D01*
X97711205Y-122680000D01*
X97556648Y-122649257D01*
X97411059Y-122588952D01*
X97280027Y-122501399D01*
X97168601Y-122389973D01*
X97081048Y-122258941D01*
X97020743Y-122113352D01*
X96990000Y-121958795D01*
X96990000Y-121801205D01*
X97020743Y-121646648D01*
X97081048Y-121501059D01*
X97168601Y-121370027D01*
X97280027Y-121258601D01*
X97411059Y-121171048D01*
X97556648Y-121110743D01*
X97711205Y-121080000D01*
X97868795Y-121080000D01*
X98023352Y-121110743D01*
X98023352Y-121110743D01*
G37*
G36*
X101833352Y-121110743D02*
X101978941Y-121171048D01*
X102109973Y-121258601D01*
X102221399Y-121370027D01*
X102308952Y-121501059D01*
X102369257Y-121646648D01*
X102400000Y-121801205D01*
X102400000Y-121958795D01*
X102369257Y-122113352D01*
X102308952Y-122258941D01*
X102221399Y-122389973D01*
X102109973Y-122501399D01*
X101978941Y-122588952D01*
X101833352Y-122649257D01*
X101678795Y-122680000D01*
X101521205Y-122680000D01*
X101366648Y-122649257D01*
X101221059Y-122588952D01*
X101090027Y-122501399D01*
X100978601Y-122389973D01*
X100891048Y-122258941D01*
X100830743Y-122113352D01*
X100800000Y-121958795D01*
X100800000Y-121801205D01*
X100830743Y-121646648D01*
X100891048Y-121501059D01*
X100978601Y-121370027D01*
X101090027Y-121258601D01*
X101221059Y-121171048D01*
X101366648Y-121110743D01*
X101521205Y-121080000D01*
X101678795Y-121080000D01*
X101833352Y-121110743D01*
X101833352Y-121110743D01*
G37*
G36*
X59221630Y-119812299D02*
X59381855Y-119860903D01*
X59529520Y-119939831D01*
X59658949Y-120046051D01*
X59765169Y-120175480D01*
X59844097Y-120323145D01*
X59892701Y-120483370D01*
X59909112Y-120650000D01*
X59892701Y-120816630D01*
X59844097Y-120976855D01*
X59765169Y-121124520D01*
X59658949Y-121253949D01*
X59529520Y-121360169D01*
X59381855Y-121439097D01*
X59221630Y-121487701D01*
X59096752Y-121500000D01*
X59013248Y-121500000D01*
X58888370Y-121487701D01*
X58728145Y-121439097D01*
X58580480Y-121360169D01*
X58451051Y-121253949D01*
X58344831Y-121124520D01*
X58265903Y-120976855D01*
X58217299Y-120816630D01*
X58200888Y-120650000D01*
X58217299Y-120483370D01*
X58265903Y-120323145D01*
X58344831Y-120175480D01*
X58451051Y-120046051D01*
X58580480Y-119939831D01*
X58728145Y-119860903D01*
X58888370Y-119812299D01*
X59013248Y-119800000D01*
X59096752Y-119800000D01*
X59221630Y-119812299D01*
X59221630Y-119812299D01*
G37*
G36*
X93510000Y-120720000D02*
X91910000Y-120720000D01*
X91910000Y-119120000D01*
X93510000Y-119120000D01*
X93510000Y-120720000D01*
X93510000Y-120720000D01*
G37*
G36*
X162644712Y-118520565D02*
X162729295Y-118528896D01*
X162849727Y-118565429D01*
X162892088Y-118578279D01*
X163042112Y-118658468D01*
X163173612Y-118766388D01*
X163281532Y-118897888D01*
X163361721Y-119047912D01*
X163361722Y-119047916D01*
X163411104Y-119210705D01*
X163427778Y-119380000D01*
X163411104Y-119549295D01*
X163391672Y-119613352D01*
X163361721Y-119712088D01*
X163281532Y-119862112D01*
X163173612Y-119993612D01*
X163042112Y-120101532D01*
X162892088Y-120181721D01*
X162849727Y-120194571D01*
X162729295Y-120231104D01*
X162644712Y-120239435D01*
X162602421Y-120243600D01*
X162517579Y-120243600D01*
X162475288Y-120239435D01*
X162390705Y-120231104D01*
X162270273Y-120194571D01*
X162227912Y-120181721D01*
X162077888Y-120101532D01*
X161946388Y-119993612D01*
X161838468Y-119862112D01*
X161758279Y-119712088D01*
X161728328Y-119613352D01*
X161708896Y-119549295D01*
X161692222Y-119380000D01*
X161708896Y-119210705D01*
X161758278Y-119047916D01*
X161758279Y-119047912D01*
X161838468Y-118897888D01*
X161946388Y-118766388D01*
X162077888Y-118658468D01*
X162227912Y-118578279D01*
X162270273Y-118565429D01*
X162390705Y-118528896D01*
X162475288Y-118520565D01*
X162517579Y-118516400D01*
X162602421Y-118516400D01*
X162644712Y-118520565D01*
X162644712Y-118520565D01*
G37*
G36*
X116924712Y-118520565D02*
X117009295Y-118528896D01*
X117129727Y-118565429D01*
X117172088Y-118578279D01*
X117322112Y-118658468D01*
X117453612Y-118766388D01*
X117561532Y-118897888D01*
X117641721Y-119047912D01*
X117641722Y-119047916D01*
X117691104Y-119210705D01*
X117707778Y-119380000D01*
X117691104Y-119549295D01*
X117671672Y-119613352D01*
X117641721Y-119712088D01*
X117561532Y-119862112D01*
X117453612Y-119993612D01*
X117322112Y-120101532D01*
X117172088Y-120181721D01*
X117129727Y-120194571D01*
X117009295Y-120231104D01*
X116924712Y-120239435D01*
X116882421Y-120243600D01*
X116797579Y-120243600D01*
X116755288Y-120239435D01*
X116670705Y-120231104D01*
X116550273Y-120194571D01*
X116507912Y-120181721D01*
X116357888Y-120101532D01*
X116226388Y-119993612D01*
X116118468Y-119862112D01*
X116038279Y-119712088D01*
X116008328Y-119613352D01*
X115988896Y-119549295D01*
X115972222Y-119380000D01*
X115988896Y-119210705D01*
X116038278Y-119047916D01*
X116038279Y-119047912D01*
X116118468Y-118897888D01*
X116226388Y-118766388D01*
X116357888Y-118658468D01*
X116507912Y-118578279D01*
X116550273Y-118565429D01*
X116670705Y-118528896D01*
X116755288Y-118520565D01*
X116797579Y-118516400D01*
X116882421Y-118516400D01*
X116924712Y-118520565D01*
X116924712Y-118520565D01*
G37*
G36*
X149944712Y-118520565D02*
X150029295Y-118528896D01*
X150149727Y-118565429D01*
X150192088Y-118578279D01*
X150342112Y-118658468D01*
X150473612Y-118766388D01*
X150581532Y-118897888D01*
X150661721Y-119047912D01*
X150661722Y-119047916D01*
X150711104Y-119210705D01*
X150727778Y-119380000D01*
X150711104Y-119549295D01*
X150691672Y-119613352D01*
X150661721Y-119712088D01*
X150581532Y-119862112D01*
X150473612Y-119993612D01*
X150342112Y-120101532D01*
X150192088Y-120181721D01*
X150149727Y-120194571D01*
X150029295Y-120231104D01*
X149944712Y-120239435D01*
X149902421Y-120243600D01*
X149817579Y-120243600D01*
X149775288Y-120239435D01*
X149690705Y-120231104D01*
X149570273Y-120194571D01*
X149527912Y-120181721D01*
X149377888Y-120101532D01*
X149246388Y-119993612D01*
X149138468Y-119862112D01*
X149058279Y-119712088D01*
X149028328Y-119613352D01*
X149008896Y-119549295D01*
X148992222Y-119380000D01*
X149008896Y-119210705D01*
X149058278Y-119047916D01*
X149058279Y-119047912D01*
X149138468Y-118897888D01*
X149246388Y-118766388D01*
X149377888Y-118658468D01*
X149527912Y-118578279D01*
X149570273Y-118565429D01*
X149690705Y-118528896D01*
X149775288Y-118520565D01*
X149817579Y-118516400D01*
X149902421Y-118516400D01*
X149944712Y-118520565D01*
X149944712Y-118520565D01*
G37*
G36*
X165184712Y-118520565D02*
X165269295Y-118528896D01*
X165389727Y-118565429D01*
X165432088Y-118578279D01*
X165582112Y-118658468D01*
X165713612Y-118766388D01*
X165821532Y-118897888D01*
X165901721Y-119047912D01*
X165901722Y-119047916D01*
X165951104Y-119210705D01*
X165967778Y-119380000D01*
X165951104Y-119549295D01*
X165931672Y-119613352D01*
X165901721Y-119712088D01*
X165821532Y-119862112D01*
X165713612Y-119993612D01*
X165582112Y-120101532D01*
X165432088Y-120181721D01*
X165389727Y-120194571D01*
X165269295Y-120231104D01*
X165184712Y-120239435D01*
X165142421Y-120243600D01*
X165057579Y-120243600D01*
X165015288Y-120239435D01*
X164930705Y-120231104D01*
X164810273Y-120194571D01*
X164767912Y-120181721D01*
X164617888Y-120101532D01*
X164486388Y-119993612D01*
X164378468Y-119862112D01*
X164298279Y-119712088D01*
X164268328Y-119613352D01*
X164248896Y-119549295D01*
X164232222Y-119380000D01*
X164248896Y-119210705D01*
X164298278Y-119047916D01*
X164298279Y-119047912D01*
X164378468Y-118897888D01*
X164486388Y-118766388D01*
X164617888Y-118658468D01*
X164767912Y-118578279D01*
X164810273Y-118565429D01*
X164930705Y-118528896D01*
X165015288Y-118520565D01*
X165057579Y-118516400D01*
X165142421Y-118516400D01*
X165184712Y-118520565D01*
X165184712Y-118520565D01*
G37*
G36*
X129624712Y-118520565D02*
X129709295Y-118528896D01*
X129829727Y-118565429D01*
X129872088Y-118578279D01*
X130022112Y-118658468D01*
X130153612Y-118766388D01*
X130261532Y-118897888D01*
X130341721Y-119047912D01*
X130341722Y-119047916D01*
X130391104Y-119210705D01*
X130407778Y-119380000D01*
X130391104Y-119549295D01*
X130371672Y-119613352D01*
X130341721Y-119712088D01*
X130261532Y-119862112D01*
X130153612Y-119993612D01*
X130022112Y-120101532D01*
X129872088Y-120181721D01*
X129829727Y-120194571D01*
X129709295Y-120231104D01*
X129624712Y-120239435D01*
X129582421Y-120243600D01*
X129497579Y-120243600D01*
X129455288Y-120239435D01*
X129370705Y-120231104D01*
X129250273Y-120194571D01*
X129207912Y-120181721D01*
X129057888Y-120101532D01*
X128926388Y-119993612D01*
X128818468Y-119862112D01*
X128738279Y-119712088D01*
X128708328Y-119613352D01*
X128688896Y-119549295D01*
X128672222Y-119380000D01*
X128688896Y-119210705D01*
X128738278Y-119047916D01*
X128738279Y-119047912D01*
X128818468Y-118897888D01*
X128926388Y-118766388D01*
X129057888Y-118658468D01*
X129207912Y-118578279D01*
X129250273Y-118565429D01*
X129370705Y-118528896D01*
X129455288Y-118520565D01*
X129497579Y-118516400D01*
X129582421Y-118516400D01*
X129624712Y-118520565D01*
X129624712Y-118520565D01*
G37*
G36*
X167724712Y-118520565D02*
X167809295Y-118528896D01*
X167929727Y-118565429D01*
X167972088Y-118578279D01*
X168122112Y-118658468D01*
X168253612Y-118766388D01*
X168361532Y-118897888D01*
X168441721Y-119047912D01*
X168441722Y-119047916D01*
X168491104Y-119210705D01*
X168507778Y-119380000D01*
X168491104Y-119549295D01*
X168471672Y-119613352D01*
X168441721Y-119712088D01*
X168361532Y-119862112D01*
X168253612Y-119993612D01*
X168122112Y-120101532D01*
X167972088Y-120181721D01*
X167929727Y-120194571D01*
X167809295Y-120231104D01*
X167724712Y-120239435D01*
X167682421Y-120243600D01*
X167597579Y-120243600D01*
X167555288Y-120239435D01*
X167470705Y-120231104D01*
X167350273Y-120194571D01*
X167307912Y-120181721D01*
X167157888Y-120101532D01*
X167026388Y-119993612D01*
X166918468Y-119862112D01*
X166838279Y-119712088D01*
X166808328Y-119613352D01*
X166788896Y-119549295D01*
X166772222Y-119380000D01*
X166788896Y-119210705D01*
X166838278Y-119047916D01*
X166838279Y-119047912D01*
X166918468Y-118897888D01*
X167026388Y-118766388D01*
X167157888Y-118658468D01*
X167307912Y-118578279D01*
X167350273Y-118565429D01*
X167470705Y-118528896D01*
X167555288Y-118520565D01*
X167597579Y-118516400D01*
X167682421Y-118516400D01*
X167724712Y-118520565D01*
X167724712Y-118520565D01*
G37*
G36*
X205824712Y-118520565D02*
X205909295Y-118528896D01*
X206029727Y-118565429D01*
X206072088Y-118578279D01*
X206222112Y-118658468D01*
X206353612Y-118766388D01*
X206461532Y-118897888D01*
X206541721Y-119047912D01*
X206541722Y-119047916D01*
X206591104Y-119210705D01*
X206607778Y-119380000D01*
X206591104Y-119549295D01*
X206571672Y-119613352D01*
X206541721Y-119712088D01*
X206461532Y-119862112D01*
X206353612Y-119993612D01*
X206222112Y-120101532D01*
X206072088Y-120181721D01*
X206029727Y-120194571D01*
X205909295Y-120231104D01*
X205824712Y-120239435D01*
X205782421Y-120243600D01*
X205697579Y-120243600D01*
X205655288Y-120239435D01*
X205570705Y-120231104D01*
X205450273Y-120194571D01*
X205407912Y-120181721D01*
X205257888Y-120101532D01*
X205126388Y-119993612D01*
X205018468Y-119862112D01*
X204938279Y-119712088D01*
X204908328Y-119613352D01*
X204888896Y-119549295D01*
X204872222Y-119380000D01*
X204888896Y-119210705D01*
X204938278Y-119047916D01*
X204938279Y-119047912D01*
X205018468Y-118897888D01*
X205126388Y-118766388D01*
X205257888Y-118658468D01*
X205407912Y-118578279D01*
X205450273Y-118565429D01*
X205570705Y-118528896D01*
X205655288Y-118520565D01*
X205697579Y-118516400D01*
X205782421Y-118516400D01*
X205824712Y-118520565D01*
X205824712Y-118520565D01*
G37*
G36*
X127084712Y-118520565D02*
X127169295Y-118528896D01*
X127289727Y-118565429D01*
X127332088Y-118578279D01*
X127482112Y-118658468D01*
X127613612Y-118766388D01*
X127721532Y-118897888D01*
X127801721Y-119047912D01*
X127801722Y-119047916D01*
X127851104Y-119210705D01*
X127867778Y-119380000D01*
X127851104Y-119549295D01*
X127831672Y-119613352D01*
X127801721Y-119712088D01*
X127721532Y-119862112D01*
X127613612Y-119993612D01*
X127482112Y-120101532D01*
X127332088Y-120181721D01*
X127289727Y-120194571D01*
X127169295Y-120231104D01*
X127084712Y-120239435D01*
X127042421Y-120243600D01*
X126957579Y-120243600D01*
X126915288Y-120239435D01*
X126830705Y-120231104D01*
X126710273Y-120194571D01*
X126667912Y-120181721D01*
X126517888Y-120101532D01*
X126386388Y-119993612D01*
X126278468Y-119862112D01*
X126198279Y-119712088D01*
X126168328Y-119613352D01*
X126148896Y-119549295D01*
X126132222Y-119380000D01*
X126148896Y-119210705D01*
X126198278Y-119047916D01*
X126198279Y-119047912D01*
X126278468Y-118897888D01*
X126386388Y-118766388D01*
X126517888Y-118658468D01*
X126667912Y-118578279D01*
X126710273Y-118565429D01*
X126830705Y-118528896D01*
X126915288Y-118520565D01*
X126957579Y-118516400D01*
X127042421Y-118516400D01*
X127084712Y-118520565D01*
X127084712Y-118520565D01*
G37*
G36*
X203284712Y-118520565D02*
X203369295Y-118528896D01*
X203489727Y-118565429D01*
X203532088Y-118578279D01*
X203682112Y-118658468D01*
X203813612Y-118766388D01*
X203921532Y-118897888D01*
X204001721Y-119047912D01*
X204001722Y-119047916D01*
X204051104Y-119210705D01*
X204067778Y-119380000D01*
X204051104Y-119549295D01*
X204031672Y-119613352D01*
X204001721Y-119712088D01*
X203921532Y-119862112D01*
X203813612Y-119993612D01*
X203682112Y-120101532D01*
X203532088Y-120181721D01*
X203489727Y-120194571D01*
X203369295Y-120231104D01*
X203284712Y-120239435D01*
X203242421Y-120243600D01*
X203157579Y-120243600D01*
X203115288Y-120239435D01*
X203030705Y-120231104D01*
X202910273Y-120194571D01*
X202867912Y-120181721D01*
X202717888Y-120101532D01*
X202586388Y-119993612D01*
X202478468Y-119862112D01*
X202398279Y-119712088D01*
X202368328Y-119613352D01*
X202348896Y-119549295D01*
X202332222Y-119380000D01*
X202348896Y-119210705D01*
X202398278Y-119047916D01*
X202398279Y-119047912D01*
X202478468Y-118897888D01*
X202586388Y-118766388D01*
X202717888Y-118658468D01*
X202867912Y-118578279D01*
X202910273Y-118565429D01*
X203030705Y-118528896D01*
X203115288Y-118520565D01*
X203157579Y-118516400D01*
X203242421Y-118516400D01*
X203284712Y-118520565D01*
X203284712Y-118520565D01*
G37*
G36*
X124544712Y-118520565D02*
X124629295Y-118528896D01*
X124749727Y-118565429D01*
X124792088Y-118578279D01*
X124942112Y-118658468D01*
X125073612Y-118766388D01*
X125181532Y-118897888D01*
X125261721Y-119047912D01*
X125261722Y-119047916D01*
X125311104Y-119210705D01*
X125327778Y-119380000D01*
X125311104Y-119549295D01*
X125291672Y-119613352D01*
X125261721Y-119712088D01*
X125181532Y-119862112D01*
X125073612Y-119993612D01*
X124942112Y-120101532D01*
X124792088Y-120181721D01*
X124749727Y-120194571D01*
X124629295Y-120231104D01*
X124544712Y-120239435D01*
X124502421Y-120243600D01*
X124417579Y-120243600D01*
X124375288Y-120239435D01*
X124290705Y-120231104D01*
X124170273Y-120194571D01*
X124127912Y-120181721D01*
X123977888Y-120101532D01*
X123846388Y-119993612D01*
X123738468Y-119862112D01*
X123658279Y-119712088D01*
X123628328Y-119613352D01*
X123608896Y-119549295D01*
X123592222Y-119380000D01*
X123608896Y-119210705D01*
X123658278Y-119047916D01*
X123658279Y-119047912D01*
X123738468Y-118897888D01*
X123846388Y-118766388D01*
X123977888Y-118658468D01*
X124127912Y-118578279D01*
X124170273Y-118565429D01*
X124290705Y-118528896D01*
X124375288Y-118520565D01*
X124417579Y-118516400D01*
X124502421Y-118516400D01*
X124544712Y-118520565D01*
X124544712Y-118520565D01*
G37*
G36*
X200744712Y-118520565D02*
X200829295Y-118528896D01*
X200949727Y-118565429D01*
X200992088Y-118578279D01*
X201142112Y-118658468D01*
X201273612Y-118766388D01*
X201381532Y-118897888D01*
X201461721Y-119047912D01*
X201461722Y-119047916D01*
X201511104Y-119210705D01*
X201527778Y-119380000D01*
X201511104Y-119549295D01*
X201491672Y-119613352D01*
X201461721Y-119712088D01*
X201381532Y-119862112D01*
X201273612Y-119993612D01*
X201142112Y-120101532D01*
X200992088Y-120181721D01*
X200949727Y-120194571D01*
X200829295Y-120231104D01*
X200744712Y-120239435D01*
X200702421Y-120243600D01*
X200617579Y-120243600D01*
X200575288Y-120239435D01*
X200490705Y-120231104D01*
X200370273Y-120194571D01*
X200327912Y-120181721D01*
X200177888Y-120101532D01*
X200046388Y-119993612D01*
X199938468Y-119862112D01*
X199858279Y-119712088D01*
X199828328Y-119613352D01*
X199808896Y-119549295D01*
X199792222Y-119380000D01*
X199808896Y-119210705D01*
X199858278Y-119047916D01*
X199858279Y-119047912D01*
X199938468Y-118897888D01*
X200046388Y-118766388D01*
X200177888Y-118658468D01*
X200327912Y-118578279D01*
X200370273Y-118565429D01*
X200490705Y-118528896D01*
X200575288Y-118520565D01*
X200617579Y-118516400D01*
X200702421Y-118516400D01*
X200744712Y-118520565D01*
X200744712Y-118520565D01*
G37*
G36*
X198204712Y-118520565D02*
X198289295Y-118528896D01*
X198409727Y-118565429D01*
X198452088Y-118578279D01*
X198602112Y-118658468D01*
X198733612Y-118766388D01*
X198841532Y-118897888D01*
X198921721Y-119047912D01*
X198921722Y-119047916D01*
X198971104Y-119210705D01*
X198987778Y-119380000D01*
X198971104Y-119549295D01*
X198951672Y-119613352D01*
X198921721Y-119712088D01*
X198841532Y-119862112D01*
X198733612Y-119993612D01*
X198602112Y-120101532D01*
X198452088Y-120181721D01*
X198409727Y-120194571D01*
X198289295Y-120231104D01*
X198204712Y-120239435D01*
X198162421Y-120243600D01*
X198077579Y-120243600D01*
X198035288Y-120239435D01*
X197950705Y-120231104D01*
X197830273Y-120194571D01*
X197787912Y-120181721D01*
X197637888Y-120101532D01*
X197506388Y-119993612D01*
X197398468Y-119862112D01*
X197318279Y-119712088D01*
X197288328Y-119613352D01*
X197268896Y-119549295D01*
X197252222Y-119380000D01*
X197268896Y-119210705D01*
X197318278Y-119047916D01*
X197318279Y-119047912D01*
X197398468Y-118897888D01*
X197506388Y-118766388D01*
X197637888Y-118658468D01*
X197787912Y-118578279D01*
X197830273Y-118565429D01*
X197950705Y-118528896D01*
X198035288Y-118520565D01*
X198077579Y-118516400D01*
X198162421Y-118516400D01*
X198204712Y-118520565D01*
X198204712Y-118520565D01*
G37*
G36*
X152484712Y-118520565D02*
X152569295Y-118528896D01*
X152689727Y-118565429D01*
X152732088Y-118578279D01*
X152882112Y-118658468D01*
X153013612Y-118766388D01*
X153121532Y-118897888D01*
X153201721Y-119047912D01*
X153201722Y-119047916D01*
X153251104Y-119210705D01*
X153267778Y-119380000D01*
X153251104Y-119549295D01*
X153231672Y-119613352D01*
X153201721Y-119712088D01*
X153121532Y-119862112D01*
X153013612Y-119993612D01*
X152882112Y-120101532D01*
X152732088Y-120181721D01*
X152689727Y-120194571D01*
X152569295Y-120231104D01*
X152484712Y-120239435D01*
X152442421Y-120243600D01*
X152357579Y-120243600D01*
X152315288Y-120239435D01*
X152230705Y-120231104D01*
X152110273Y-120194571D01*
X152067912Y-120181721D01*
X151917888Y-120101532D01*
X151786388Y-119993612D01*
X151678468Y-119862112D01*
X151598279Y-119712088D01*
X151568328Y-119613352D01*
X151548896Y-119549295D01*
X151532222Y-119380000D01*
X151548896Y-119210705D01*
X151598278Y-119047916D01*
X151598279Y-119047912D01*
X151678468Y-118897888D01*
X151786388Y-118766388D01*
X151917888Y-118658468D01*
X152067912Y-118578279D01*
X152110273Y-118565429D01*
X152230705Y-118528896D01*
X152315288Y-118520565D01*
X152357579Y-118516400D01*
X152442421Y-118516400D01*
X152484712Y-118520565D01*
X152484712Y-118520565D01*
G37*
G36*
X119464712Y-118520565D02*
X119549295Y-118528896D01*
X119669727Y-118565429D01*
X119712088Y-118578279D01*
X119862112Y-118658468D01*
X119993612Y-118766388D01*
X120101532Y-118897888D01*
X120181721Y-119047912D01*
X120181722Y-119047916D01*
X120231104Y-119210705D01*
X120247778Y-119380000D01*
X120231104Y-119549295D01*
X120211672Y-119613352D01*
X120181721Y-119712088D01*
X120101532Y-119862112D01*
X119993612Y-119993612D01*
X119862112Y-120101532D01*
X119712088Y-120181721D01*
X119669727Y-120194571D01*
X119549295Y-120231104D01*
X119464712Y-120239435D01*
X119422421Y-120243600D01*
X119337579Y-120243600D01*
X119295288Y-120239435D01*
X119210705Y-120231104D01*
X119090273Y-120194571D01*
X119047912Y-120181721D01*
X118897888Y-120101532D01*
X118766388Y-119993612D01*
X118658468Y-119862112D01*
X118578279Y-119712088D01*
X118548328Y-119613352D01*
X118528896Y-119549295D01*
X118512222Y-119380000D01*
X118528896Y-119210705D01*
X118578278Y-119047916D01*
X118578279Y-119047912D01*
X118658468Y-118897888D01*
X118766388Y-118766388D01*
X118897888Y-118658468D01*
X119047912Y-118578279D01*
X119090273Y-118565429D01*
X119210705Y-118528896D01*
X119295288Y-118520565D01*
X119337579Y-118516400D01*
X119422421Y-118516400D01*
X119464712Y-118520565D01*
X119464712Y-118520565D01*
G37*
G36*
X193124712Y-118520565D02*
X193209295Y-118528896D01*
X193329727Y-118565429D01*
X193372088Y-118578279D01*
X193522112Y-118658468D01*
X193653612Y-118766388D01*
X193761532Y-118897888D01*
X193841721Y-119047912D01*
X193841722Y-119047916D01*
X193891104Y-119210705D01*
X193907778Y-119380000D01*
X193891104Y-119549295D01*
X193871672Y-119613352D01*
X193841721Y-119712088D01*
X193761532Y-119862112D01*
X193653612Y-119993612D01*
X193522112Y-120101532D01*
X193372088Y-120181721D01*
X193329727Y-120194571D01*
X193209295Y-120231104D01*
X193124712Y-120239435D01*
X193082421Y-120243600D01*
X192997579Y-120243600D01*
X192955288Y-120239435D01*
X192870705Y-120231104D01*
X192750273Y-120194571D01*
X192707912Y-120181721D01*
X192557888Y-120101532D01*
X192426388Y-119993612D01*
X192318468Y-119862112D01*
X192238279Y-119712088D01*
X192208328Y-119613352D01*
X192188896Y-119549295D01*
X192172222Y-119380000D01*
X192188896Y-119210705D01*
X192238278Y-119047916D01*
X192238279Y-119047912D01*
X192318468Y-118897888D01*
X192426388Y-118766388D01*
X192557888Y-118658468D01*
X192707912Y-118578279D01*
X192750273Y-118565429D01*
X192870705Y-118528896D01*
X192955288Y-118520565D01*
X192997579Y-118516400D01*
X193082421Y-118516400D01*
X193124712Y-118520565D01*
X193124712Y-118520565D01*
G37*
G36*
X114384712Y-118520565D02*
X114469295Y-118528896D01*
X114589727Y-118565429D01*
X114632088Y-118578279D01*
X114782112Y-118658468D01*
X114913612Y-118766388D01*
X115021532Y-118897888D01*
X115101721Y-119047912D01*
X115101722Y-119047916D01*
X115151104Y-119210705D01*
X115167778Y-119380000D01*
X115151104Y-119549295D01*
X115131672Y-119613352D01*
X115101721Y-119712088D01*
X115021532Y-119862112D01*
X114913612Y-119993612D01*
X114782112Y-120101532D01*
X114632088Y-120181721D01*
X114589727Y-120194571D01*
X114469295Y-120231104D01*
X114384712Y-120239435D01*
X114342421Y-120243600D01*
X114257579Y-120243600D01*
X114215288Y-120239435D01*
X114130705Y-120231104D01*
X114010273Y-120194571D01*
X113967912Y-120181721D01*
X113817888Y-120101532D01*
X113686388Y-119993612D01*
X113578468Y-119862112D01*
X113498279Y-119712088D01*
X113468328Y-119613352D01*
X113448896Y-119549295D01*
X113432222Y-119380000D01*
X113448896Y-119210705D01*
X113498278Y-119047916D01*
X113498279Y-119047912D01*
X113578468Y-118897888D01*
X113686388Y-118766388D01*
X113817888Y-118658468D01*
X113967912Y-118578279D01*
X114010273Y-118565429D01*
X114130705Y-118528896D01*
X114215288Y-118520565D01*
X114257579Y-118516400D01*
X114342421Y-118516400D01*
X114384712Y-118520565D01*
X114384712Y-118520565D01*
G37*
G36*
X190584712Y-118520565D02*
X190669295Y-118528896D01*
X190789727Y-118565429D01*
X190832088Y-118578279D01*
X190982112Y-118658468D01*
X191113612Y-118766388D01*
X191221532Y-118897888D01*
X191301721Y-119047912D01*
X191301722Y-119047916D01*
X191351104Y-119210705D01*
X191367778Y-119380000D01*
X191351104Y-119549295D01*
X191331672Y-119613352D01*
X191301721Y-119712088D01*
X191221532Y-119862112D01*
X191113612Y-119993612D01*
X190982112Y-120101532D01*
X190832088Y-120181721D01*
X190789727Y-120194571D01*
X190669295Y-120231104D01*
X190584712Y-120239435D01*
X190542421Y-120243600D01*
X190457579Y-120243600D01*
X190415288Y-120239435D01*
X190330705Y-120231104D01*
X190210273Y-120194571D01*
X190167912Y-120181721D01*
X190017888Y-120101532D01*
X189886388Y-119993612D01*
X189778468Y-119862112D01*
X189698279Y-119712088D01*
X189668328Y-119613352D01*
X189648896Y-119549295D01*
X189632222Y-119380000D01*
X189648896Y-119210705D01*
X189698278Y-119047916D01*
X189698279Y-119047912D01*
X189778468Y-118897888D01*
X189886388Y-118766388D01*
X190017888Y-118658468D01*
X190167912Y-118578279D01*
X190210273Y-118565429D01*
X190330705Y-118528896D01*
X190415288Y-118520565D01*
X190457579Y-118516400D01*
X190542421Y-118516400D01*
X190584712Y-118520565D01*
X190584712Y-118520565D01*
G37*
G36*
X111844712Y-118520565D02*
X111929295Y-118528896D01*
X112049727Y-118565429D01*
X112092088Y-118578279D01*
X112242112Y-118658468D01*
X112373612Y-118766388D01*
X112481532Y-118897888D01*
X112561721Y-119047912D01*
X112561722Y-119047916D01*
X112611104Y-119210705D01*
X112627778Y-119380000D01*
X112611104Y-119549295D01*
X112591672Y-119613352D01*
X112561721Y-119712088D01*
X112481532Y-119862112D01*
X112373612Y-119993612D01*
X112242112Y-120101532D01*
X112092088Y-120181721D01*
X112049727Y-120194571D01*
X111929295Y-120231104D01*
X111844712Y-120239435D01*
X111802421Y-120243600D01*
X111717579Y-120243600D01*
X111675288Y-120239435D01*
X111590705Y-120231104D01*
X111470273Y-120194571D01*
X111427912Y-120181721D01*
X111277888Y-120101532D01*
X111146388Y-119993612D01*
X111038468Y-119862112D01*
X110958279Y-119712088D01*
X110928328Y-119613352D01*
X110908896Y-119549295D01*
X110892222Y-119380000D01*
X110908896Y-119210705D01*
X110958278Y-119047916D01*
X110958279Y-119047912D01*
X111038468Y-118897888D01*
X111146388Y-118766388D01*
X111277888Y-118658468D01*
X111427912Y-118578279D01*
X111470273Y-118565429D01*
X111590705Y-118528896D01*
X111675288Y-118520565D01*
X111717579Y-118516400D01*
X111802421Y-118516400D01*
X111844712Y-118520565D01*
X111844712Y-118520565D01*
G37*
G36*
X122004712Y-118520565D02*
X122089295Y-118528896D01*
X122209727Y-118565429D01*
X122252088Y-118578279D01*
X122402112Y-118658468D01*
X122533612Y-118766388D01*
X122641532Y-118897888D01*
X122721721Y-119047912D01*
X122721722Y-119047916D01*
X122771104Y-119210705D01*
X122787778Y-119380000D01*
X122771104Y-119549295D01*
X122751672Y-119613352D01*
X122721721Y-119712088D01*
X122641532Y-119862112D01*
X122533612Y-119993612D01*
X122402112Y-120101532D01*
X122252088Y-120181721D01*
X122209727Y-120194571D01*
X122089295Y-120231104D01*
X122004712Y-120239435D01*
X121962421Y-120243600D01*
X121877579Y-120243600D01*
X121835288Y-120239435D01*
X121750705Y-120231104D01*
X121630273Y-120194571D01*
X121587912Y-120181721D01*
X121437888Y-120101532D01*
X121306388Y-119993612D01*
X121198468Y-119862112D01*
X121118279Y-119712088D01*
X121088328Y-119613352D01*
X121068896Y-119549295D01*
X121052222Y-119380000D01*
X121068896Y-119210705D01*
X121118278Y-119047916D01*
X121118279Y-119047912D01*
X121198468Y-118897888D01*
X121306388Y-118766388D01*
X121437888Y-118658468D01*
X121587912Y-118578279D01*
X121630273Y-118565429D01*
X121750705Y-118528896D01*
X121835288Y-118520565D01*
X121877579Y-118516400D01*
X121962421Y-118516400D01*
X122004712Y-118520565D01*
X122004712Y-118520565D01*
G37*
G36*
X195664712Y-118520565D02*
X195749295Y-118528896D01*
X195869727Y-118565429D01*
X195912088Y-118578279D01*
X196062112Y-118658468D01*
X196193612Y-118766388D01*
X196301532Y-118897888D01*
X196381721Y-119047912D01*
X196381722Y-119047916D01*
X196431104Y-119210705D01*
X196447778Y-119380000D01*
X196431104Y-119549295D01*
X196411672Y-119613352D01*
X196381721Y-119712088D01*
X196301532Y-119862112D01*
X196193612Y-119993612D01*
X196062112Y-120101532D01*
X195912088Y-120181721D01*
X195869727Y-120194571D01*
X195749295Y-120231104D01*
X195664712Y-120239435D01*
X195622421Y-120243600D01*
X195537579Y-120243600D01*
X195495288Y-120239435D01*
X195410705Y-120231104D01*
X195290273Y-120194571D01*
X195247912Y-120181721D01*
X195097888Y-120101532D01*
X194966388Y-119993612D01*
X194858468Y-119862112D01*
X194778279Y-119712088D01*
X194748328Y-119613352D01*
X194728896Y-119549295D01*
X194712222Y-119380000D01*
X194728896Y-119210705D01*
X194778278Y-119047916D01*
X194778279Y-119047912D01*
X194858468Y-118897888D01*
X194966388Y-118766388D01*
X195097888Y-118658468D01*
X195247912Y-118578279D01*
X195290273Y-118565429D01*
X195410705Y-118528896D01*
X195495288Y-118520565D01*
X195537579Y-118516400D01*
X195622421Y-118516400D01*
X195664712Y-118520565D01*
X195664712Y-118520565D01*
G37*
G36*
X157564712Y-118520565D02*
X157649295Y-118528896D01*
X157769727Y-118565429D01*
X157812088Y-118578279D01*
X157962112Y-118658468D01*
X158093612Y-118766388D01*
X158201532Y-118897888D01*
X158281721Y-119047912D01*
X158281722Y-119047916D01*
X158331104Y-119210705D01*
X158347778Y-119380000D01*
X158331104Y-119549295D01*
X158311672Y-119613352D01*
X158281721Y-119712088D01*
X158201532Y-119862112D01*
X158093612Y-119993612D01*
X157962112Y-120101532D01*
X157812088Y-120181721D01*
X157769727Y-120194571D01*
X157649295Y-120231104D01*
X157564712Y-120239435D01*
X157522421Y-120243600D01*
X157437579Y-120243600D01*
X157395288Y-120239435D01*
X157310705Y-120231104D01*
X157190273Y-120194571D01*
X157147912Y-120181721D01*
X156997888Y-120101532D01*
X156866388Y-119993612D01*
X156758468Y-119862112D01*
X156678279Y-119712088D01*
X156648328Y-119613352D01*
X156628896Y-119549295D01*
X156612222Y-119380000D01*
X156628896Y-119210705D01*
X156678278Y-119047916D01*
X156678279Y-119047912D01*
X156758468Y-118897888D01*
X156866388Y-118766388D01*
X156997888Y-118658468D01*
X157147912Y-118578279D01*
X157190273Y-118565429D01*
X157310705Y-118528896D01*
X157395288Y-118520565D01*
X157437579Y-118516400D01*
X157522421Y-118516400D01*
X157564712Y-118520565D01*
X157564712Y-118520565D01*
G37*
G36*
X155024712Y-118520565D02*
X155109295Y-118528896D01*
X155229727Y-118565429D01*
X155272088Y-118578279D01*
X155422112Y-118658468D01*
X155553612Y-118766388D01*
X155661532Y-118897888D01*
X155741721Y-119047912D01*
X155741722Y-119047916D01*
X155791104Y-119210705D01*
X155807778Y-119380000D01*
X155791104Y-119549295D01*
X155771672Y-119613352D01*
X155741721Y-119712088D01*
X155661532Y-119862112D01*
X155553612Y-119993612D01*
X155422112Y-120101532D01*
X155272088Y-120181721D01*
X155229727Y-120194571D01*
X155109295Y-120231104D01*
X155024712Y-120239435D01*
X154982421Y-120243600D01*
X154897579Y-120243600D01*
X154855288Y-120239435D01*
X154770705Y-120231104D01*
X154650273Y-120194571D01*
X154607912Y-120181721D01*
X154457888Y-120101532D01*
X154326388Y-119993612D01*
X154218468Y-119862112D01*
X154138279Y-119712088D01*
X154108328Y-119613352D01*
X154088896Y-119549295D01*
X154072222Y-119380000D01*
X154088896Y-119210705D01*
X154138278Y-119047916D01*
X154138279Y-119047912D01*
X154218468Y-118897888D01*
X154326388Y-118766388D01*
X154457888Y-118658468D01*
X154607912Y-118578279D01*
X154650273Y-118565429D01*
X154770705Y-118528896D01*
X154855288Y-118520565D01*
X154897579Y-118516400D01*
X154982421Y-118516400D01*
X155024712Y-118520565D01*
X155024712Y-118520565D01*
G37*
G36*
X160104712Y-118520565D02*
X160189295Y-118528896D01*
X160309727Y-118565429D01*
X160352088Y-118578279D01*
X160502112Y-118658468D01*
X160633612Y-118766388D01*
X160741532Y-118897888D01*
X160821721Y-119047912D01*
X160821722Y-119047916D01*
X160871104Y-119210705D01*
X160887778Y-119380000D01*
X160871104Y-119549295D01*
X160851672Y-119613352D01*
X160821721Y-119712088D01*
X160741532Y-119862112D01*
X160633612Y-119993612D01*
X160502112Y-120101532D01*
X160352088Y-120181721D01*
X160309727Y-120194571D01*
X160189295Y-120231104D01*
X160104712Y-120239435D01*
X160062421Y-120243600D01*
X159977579Y-120243600D01*
X159935288Y-120239435D01*
X159850705Y-120231104D01*
X159730273Y-120194571D01*
X159687912Y-120181721D01*
X159537888Y-120101532D01*
X159406388Y-119993612D01*
X159298468Y-119862112D01*
X159218279Y-119712088D01*
X159188328Y-119613352D01*
X159168896Y-119549295D01*
X159152222Y-119380000D01*
X159168896Y-119210705D01*
X159218278Y-119047916D01*
X159218279Y-119047912D01*
X159298468Y-118897888D01*
X159406388Y-118766388D01*
X159537888Y-118658468D01*
X159687912Y-118578279D01*
X159730273Y-118565429D01*
X159850705Y-118528896D01*
X159935288Y-118520565D01*
X159977579Y-118516400D01*
X160062421Y-118516400D01*
X160104712Y-118520565D01*
X160104712Y-118520565D01*
G37*
G36*
X188044712Y-118520565D02*
X188129295Y-118528896D01*
X188249727Y-118565429D01*
X188292088Y-118578279D01*
X188442112Y-118658468D01*
X188573612Y-118766388D01*
X188681532Y-118897888D01*
X188761721Y-119047912D01*
X188761722Y-119047916D01*
X188811104Y-119210705D01*
X188827778Y-119380000D01*
X188811104Y-119549295D01*
X188791672Y-119613352D01*
X188761721Y-119712088D01*
X188681532Y-119862112D01*
X188573612Y-119993612D01*
X188442112Y-120101532D01*
X188292088Y-120181721D01*
X188249727Y-120194571D01*
X188129295Y-120231104D01*
X188044712Y-120239435D01*
X188002421Y-120243600D01*
X187917579Y-120243600D01*
X187875288Y-120239435D01*
X187790705Y-120231104D01*
X187670273Y-120194571D01*
X187627912Y-120181721D01*
X187477888Y-120101532D01*
X187346388Y-119993612D01*
X187238468Y-119862112D01*
X187158279Y-119712088D01*
X187128328Y-119613352D01*
X187108896Y-119549295D01*
X187092222Y-119380000D01*
X187108896Y-119210705D01*
X187158278Y-119047916D01*
X187158279Y-119047912D01*
X187238468Y-118897888D01*
X187346388Y-118766388D01*
X187477888Y-118658468D01*
X187627912Y-118578279D01*
X187670273Y-118565429D01*
X187790705Y-118528896D01*
X187875288Y-118520565D01*
X187917579Y-118516400D01*
X188002421Y-118516400D01*
X188044712Y-118520565D01*
X188044712Y-118520565D01*
G37*
G36*
X81513352Y-118610743D02*
X81658941Y-118671048D01*
X81789973Y-118758601D01*
X81901399Y-118870027D01*
X81988952Y-119001059D01*
X82049257Y-119146648D01*
X82080000Y-119301205D01*
X82080000Y-119458795D01*
X82049257Y-119613352D01*
X81988952Y-119758941D01*
X81901399Y-119889973D01*
X81789973Y-120001399D01*
X81658941Y-120088952D01*
X81513352Y-120149257D01*
X81358795Y-120180000D01*
X81201205Y-120180000D01*
X81046648Y-120149257D01*
X80901059Y-120088952D01*
X80770027Y-120001399D01*
X80658601Y-119889973D01*
X80571048Y-119758941D01*
X80510743Y-119613352D01*
X80480000Y-119458795D01*
X80480000Y-119301205D01*
X80510743Y-119146648D01*
X80571048Y-119001059D01*
X80658601Y-118870027D01*
X80770027Y-118758601D01*
X80901059Y-118671048D01*
X81046648Y-118610743D01*
X81201205Y-118580000D01*
X81358795Y-118580000D01*
X81513352Y-118610743D01*
X81513352Y-118610743D01*
G37*
G36*
X98023352Y-118610743D02*
X98168941Y-118671048D01*
X98299973Y-118758601D01*
X98411399Y-118870027D01*
X98498952Y-119001059D01*
X98559257Y-119146648D01*
X98590000Y-119301205D01*
X98590000Y-119458795D01*
X98559257Y-119613352D01*
X98498952Y-119758941D01*
X98411399Y-119889973D01*
X98299973Y-120001399D01*
X98168941Y-120088952D01*
X98023352Y-120149257D01*
X97868795Y-120180000D01*
X97711205Y-120180000D01*
X97556648Y-120149257D01*
X97411059Y-120088952D01*
X97280027Y-120001399D01*
X97168601Y-119889973D01*
X97081048Y-119758941D01*
X97020743Y-119613352D01*
X96990000Y-119458795D01*
X96990000Y-119301205D01*
X97020743Y-119146648D01*
X97081048Y-119001059D01*
X97168601Y-118870027D01*
X97280027Y-118758601D01*
X97411059Y-118671048D01*
X97556648Y-118610743D01*
X97711205Y-118580000D01*
X97868795Y-118580000D01*
X98023352Y-118610743D01*
X98023352Y-118610743D01*
G37*
G36*
X68813352Y-118610743D02*
X68958941Y-118671048D01*
X69089973Y-118758601D01*
X69201399Y-118870027D01*
X69288952Y-119001059D01*
X69349257Y-119146648D01*
X69380000Y-119301205D01*
X69380000Y-119458795D01*
X69349257Y-119613352D01*
X69288952Y-119758941D01*
X69201399Y-119889973D01*
X69089973Y-120001399D01*
X68958941Y-120088952D01*
X68813352Y-120149257D01*
X68658795Y-120180000D01*
X68501205Y-120180000D01*
X68346648Y-120149257D01*
X68201059Y-120088952D01*
X68070027Y-120001399D01*
X67958601Y-119889973D01*
X67871048Y-119758941D01*
X67810743Y-119613352D01*
X67780000Y-119458795D01*
X67780000Y-119301205D01*
X67810743Y-119146648D01*
X67871048Y-119001059D01*
X67958601Y-118870027D01*
X68070027Y-118758601D01*
X68201059Y-118671048D01*
X68346648Y-118610743D01*
X68501205Y-118580000D01*
X68658795Y-118580000D01*
X68813352Y-118610743D01*
X68813352Y-118610743D01*
G37*
G36*
X75163352Y-118610743D02*
X75308941Y-118671048D01*
X75439973Y-118758601D01*
X75551399Y-118870027D01*
X75638952Y-119001059D01*
X75699257Y-119146648D01*
X75730000Y-119301205D01*
X75730000Y-119458795D01*
X75699257Y-119613352D01*
X75638952Y-119758941D01*
X75551399Y-119889973D01*
X75439973Y-120001399D01*
X75308941Y-120088952D01*
X75163352Y-120149257D01*
X75008795Y-120180000D01*
X74851205Y-120180000D01*
X74696648Y-120149257D01*
X74551059Y-120088952D01*
X74420027Y-120001399D01*
X74308601Y-119889973D01*
X74221048Y-119758941D01*
X74160743Y-119613352D01*
X74130000Y-119458795D01*
X74130000Y-119301205D01*
X74160743Y-119146648D01*
X74221048Y-119001059D01*
X74308601Y-118870027D01*
X74420027Y-118758601D01*
X74551059Y-118671048D01*
X74696648Y-118610743D01*
X74851205Y-118580000D01*
X75008795Y-118580000D01*
X75163352Y-118610743D01*
X75163352Y-118610743D01*
G37*
G36*
X101833352Y-118610743D02*
X101978941Y-118671048D01*
X102109973Y-118758601D01*
X102221399Y-118870027D01*
X102308952Y-119001059D01*
X102369257Y-119146648D01*
X102400000Y-119301205D01*
X102400000Y-119458795D01*
X102369257Y-119613352D01*
X102308952Y-119758941D01*
X102221399Y-119889973D01*
X102109973Y-120001399D01*
X101978941Y-120088952D01*
X101833352Y-120149257D01*
X101678795Y-120180000D01*
X101521205Y-120180000D01*
X101366648Y-120149257D01*
X101221059Y-120088952D01*
X101090027Y-120001399D01*
X100978601Y-119889973D01*
X100891048Y-119758941D01*
X100830743Y-119613352D01*
X100800000Y-119458795D01*
X100800000Y-119301205D01*
X100830743Y-119146648D01*
X100891048Y-119001059D01*
X100978601Y-118870027D01*
X101090027Y-118758601D01*
X101221059Y-118671048D01*
X101366648Y-118610743D01*
X101521205Y-118580000D01*
X101678795Y-118580000D01*
X101833352Y-118610743D01*
X101833352Y-118610743D01*
G37*
G36*
X46683876Y-117085048D02*
X46879916Y-117144516D01*
X47060589Y-117241088D01*
X47218949Y-117371051D01*
X47348912Y-117529411D01*
X47445484Y-117710084D01*
X47504952Y-117906124D01*
X47525032Y-118110000D01*
X47504952Y-118313876D01*
X47445484Y-118509916D01*
X47348912Y-118690589D01*
X47218949Y-118848949D01*
X47060589Y-118978912D01*
X46879916Y-119075484D01*
X46683876Y-119134952D01*
X46531091Y-119150000D01*
X44908909Y-119150000D01*
X44756124Y-119134952D01*
X44560084Y-119075484D01*
X44379411Y-118978912D01*
X44221051Y-118848949D01*
X44091088Y-118690589D01*
X43994516Y-118509916D01*
X43935048Y-118313876D01*
X43914968Y-118110000D01*
X43935048Y-117906124D01*
X43994516Y-117710084D01*
X44091088Y-117529411D01*
X44221051Y-117371051D01*
X44379411Y-117241088D01*
X44560084Y-117144516D01*
X44756124Y-117085048D01*
X44908909Y-117070000D01*
X46531091Y-117070000D01*
X46683876Y-117085048D01*
X46683876Y-117085048D01*
G37*
G36*
X59905000Y-118960000D02*
X58205000Y-118960000D01*
X58205000Y-117260000D01*
X59905000Y-117260000D01*
X59905000Y-118960000D01*
X59905000Y-118960000D01*
G37*
G36*
X47395081Y-111993572D02*
X47424055Y-112002361D01*
X47450760Y-112016635D01*
X47474160Y-112035840D01*
X47493365Y-112059240D01*
X47507639Y-112085945D01*
X47516428Y-112114919D01*
X47520000Y-112151187D01*
X47520000Y-113908813D01*
X47516428Y-113945081D01*
X47507639Y-113974055D01*
X47493365Y-114000760D01*
X47474160Y-114024160D01*
X47450760Y-114043365D01*
X47424055Y-114057639D01*
X47395081Y-114066428D01*
X47358813Y-114070000D01*
X44081187Y-114070000D01*
X44044919Y-114066428D01*
X44015945Y-114057639D01*
X43989240Y-114043365D01*
X43965840Y-114024160D01*
X43946635Y-114000760D01*
X43932361Y-113974055D01*
X43923572Y-113945081D01*
X43920000Y-113908813D01*
X43920000Y-112151187D01*
X43923572Y-112114919D01*
X43932361Y-112085945D01*
X43946635Y-112059240D01*
X43965840Y-112035840D01*
X43989240Y-112016635D01*
X44015945Y-112002361D01*
X44044919Y-111993572D01*
X44081187Y-111990000D01*
X47358813Y-111990000D01*
X47395081Y-111993572D01*
X47395081Y-111993572D01*
G37*
G36*
X80760000Y-113780000D02*
X79260000Y-113780000D01*
X79260000Y-112280000D01*
X80760000Y-112280000D01*
X80760000Y-113780000D01*
X80760000Y-113780000D01*
G37*
G36*
X82697027Y-112290852D02*
X82838401Y-112333738D01*
X82968694Y-112403380D01*
X83082896Y-112497104D01*
X83176620Y-112611306D01*
X83246262Y-112741599D01*
X83289148Y-112882973D01*
X83303628Y-113030000D01*
X83289148Y-113177027D01*
X83246262Y-113318401D01*
X83176620Y-113448694D01*
X83082896Y-113562896D01*
X82968694Y-113656620D01*
X82838401Y-113726262D01*
X82697027Y-113769148D01*
X82586839Y-113780000D01*
X82513161Y-113780000D01*
X82402973Y-113769148D01*
X82261599Y-113726262D01*
X82131306Y-113656620D01*
X82017104Y-113562896D01*
X81923380Y-113448694D01*
X81853738Y-113318401D01*
X81810852Y-113177027D01*
X81796372Y-113030000D01*
X81810852Y-112882973D01*
X81853738Y-112741599D01*
X81923380Y-112611306D01*
X82017104Y-112497104D01*
X82131306Y-112403380D01*
X82261599Y-112333738D01*
X82402973Y-112290852D01*
X82513161Y-112280000D01*
X82586839Y-112280000D01*
X82697027Y-112290852D01*
X82697027Y-112290852D01*
G37*
G36*
X86507525Y-110764655D02*
X86653148Y-110793621D01*
X86836046Y-110869380D01*
X86836047Y-110869381D01*
X87000653Y-110979367D01*
X87140633Y-111119347D01*
X87140635Y-111119350D01*
X87250620Y-111283954D01*
X87326379Y-111466852D01*
X87365000Y-111661016D01*
X87365000Y-111858984D01*
X87326379Y-112053148D01*
X87250620Y-112236046D01*
X87142117Y-112398432D01*
X87140633Y-112400653D01*
X87000653Y-112540633D01*
X87000650Y-112540635D01*
X86836046Y-112650620D01*
X86653148Y-112726379D01*
X86507525Y-112755345D01*
X86458985Y-112765000D01*
X86261015Y-112765000D01*
X86212475Y-112755345D01*
X86066852Y-112726379D01*
X85883954Y-112650620D01*
X85719350Y-112540635D01*
X85719347Y-112540633D01*
X85579367Y-112400653D01*
X85577883Y-112398432D01*
X85469380Y-112236046D01*
X85393621Y-112053148D01*
X85355000Y-111858984D01*
X85355000Y-111661016D01*
X85393621Y-111466852D01*
X85469380Y-111283954D01*
X85579365Y-111119350D01*
X85579367Y-111119347D01*
X85719347Y-110979367D01*
X85883953Y-110869381D01*
X85883954Y-110869380D01*
X86066852Y-110793621D01*
X86212475Y-110764655D01*
X86261015Y-110755000D01*
X86458985Y-110755000D01*
X86507525Y-110764655D01*
X86507525Y-110764655D01*
G37*
G36*
X69580000Y-112712500D02*
X67580000Y-112712500D01*
X67580000Y-110807500D01*
X69580000Y-110807500D01*
X69580000Y-112712500D01*
X69580000Y-112712500D01*
G37*
G36*
X61760000Y-112560000D02*
X60160000Y-112560000D01*
X60160000Y-110960000D01*
X61760000Y-110960000D01*
X61760000Y-112560000D01*
X61760000Y-112560000D01*
G37*
G36*
X92943352Y-109720743D02*
X93088941Y-109781048D01*
X93219973Y-109868601D01*
X93331399Y-109980027D01*
X93418952Y-110111059D01*
X93479257Y-110256648D01*
X93510000Y-110411205D01*
X93510000Y-110568795D01*
X93479257Y-110723352D01*
X93418952Y-110868941D01*
X93331399Y-110999973D01*
X93219973Y-111111399D01*
X93088941Y-111198952D01*
X92943352Y-111259257D01*
X92788795Y-111290000D01*
X92631205Y-111290000D01*
X92476648Y-111259257D01*
X92331059Y-111198952D01*
X92200027Y-111111399D01*
X92088601Y-110999973D01*
X92001048Y-110868941D01*
X91940743Y-110723352D01*
X91910000Y-110568795D01*
X91910000Y-110411205D01*
X91940743Y-110256648D01*
X92001048Y-110111059D01*
X92088601Y-109980027D01*
X92200027Y-109868601D01*
X92331059Y-109781048D01*
X92476648Y-109720743D01*
X92631205Y-109690000D01*
X92788795Y-109690000D01*
X92943352Y-109720743D01*
X92943352Y-109720743D01*
G37*
G36*
X101833352Y-109680743D02*
X101978941Y-109741048D01*
X102109973Y-109828601D01*
X102221399Y-109940027D01*
X102308952Y-110071059D01*
X102369257Y-110216648D01*
X102400000Y-110371205D01*
X102400000Y-110528795D01*
X102369257Y-110683352D01*
X102308952Y-110828941D01*
X102221399Y-110959973D01*
X102109973Y-111071399D01*
X101978941Y-111158952D01*
X101833352Y-111219257D01*
X101678795Y-111250000D01*
X101521205Y-111250000D01*
X101366648Y-111219257D01*
X101221059Y-111158952D01*
X101090027Y-111071399D01*
X100978601Y-110959973D01*
X100891048Y-110828941D01*
X100830743Y-110683352D01*
X100800000Y-110528795D01*
X100800000Y-110371205D01*
X100830743Y-110216648D01*
X100891048Y-110071059D01*
X100978601Y-109940027D01*
X101090027Y-109828601D01*
X101221059Y-109741048D01*
X101366648Y-109680743D01*
X101521205Y-109650000D01*
X101678795Y-109650000D01*
X101833352Y-109680743D01*
X101833352Y-109680743D01*
G37*
G36*
X98063352Y-109680743D02*
X98208941Y-109741048D01*
X98339973Y-109828601D01*
X98451399Y-109940027D01*
X98538952Y-110071059D01*
X98599257Y-110216648D01*
X98630000Y-110371205D01*
X98630000Y-110528795D01*
X98599257Y-110683352D01*
X98538952Y-110828941D01*
X98451399Y-110959973D01*
X98339973Y-111071399D01*
X98208941Y-111158952D01*
X98063352Y-111219257D01*
X97908795Y-111250000D01*
X97751205Y-111250000D01*
X97596648Y-111219257D01*
X97451059Y-111158952D01*
X97320027Y-111071399D01*
X97208601Y-110959973D01*
X97121048Y-110828941D01*
X97060743Y-110683352D01*
X97030000Y-110528795D01*
X97030000Y-110371205D01*
X97060743Y-110216648D01*
X97121048Y-110071059D01*
X97208601Y-109940027D01*
X97320027Y-109828601D01*
X97451059Y-109741048D01*
X97596648Y-109680743D01*
X97751205Y-109650000D01*
X97908795Y-109650000D01*
X98063352Y-109680743D01*
X98063352Y-109680743D01*
G37*
G36*
X61193352Y-108990743D02*
X61338941Y-109051048D01*
X61469973Y-109138601D01*
X61581399Y-109250027D01*
X61668952Y-109381059D01*
X61729257Y-109526648D01*
X61760000Y-109681205D01*
X61760000Y-109838795D01*
X61729257Y-109993352D01*
X61668952Y-110138941D01*
X61581399Y-110269973D01*
X61469973Y-110381399D01*
X61338941Y-110468952D01*
X61193352Y-110529257D01*
X61038795Y-110560000D01*
X60881205Y-110560000D01*
X60726648Y-110529257D01*
X60581059Y-110468952D01*
X60450027Y-110381399D01*
X60338601Y-110269973D01*
X60251048Y-110138941D01*
X60190743Y-109993352D01*
X60160000Y-109838795D01*
X60160000Y-109681205D01*
X60190743Y-109526648D01*
X60251048Y-109381059D01*
X60338601Y-109250027D01*
X60450027Y-109138601D01*
X60581059Y-109051048D01*
X60726648Y-108990743D01*
X60881205Y-108960000D01*
X61038795Y-108960000D01*
X61193352Y-108990743D01*
X61193352Y-108990743D01*
G37*
G36*
X68814224Y-108281282D02*
X68993769Y-108335747D01*
X69159241Y-108424193D01*
X69304278Y-108543222D01*
X69423307Y-108688259D01*
X69511753Y-108853731D01*
X69566218Y-109033276D01*
X69584608Y-109220000D01*
X69566218Y-109406724D01*
X69511753Y-109586269D01*
X69423307Y-109751741D01*
X69304278Y-109896778D01*
X69159241Y-110015807D01*
X68993769Y-110104253D01*
X68814224Y-110158718D01*
X68674289Y-110172500D01*
X68485711Y-110172500D01*
X68345776Y-110158718D01*
X68166231Y-110104253D01*
X68000759Y-110015807D01*
X67855722Y-109896778D01*
X67736693Y-109751741D01*
X67648247Y-109586269D01*
X67593782Y-109406724D01*
X67575392Y-109220000D01*
X67593782Y-109033276D01*
X67648247Y-108853731D01*
X67736693Y-108688259D01*
X67855722Y-108543222D01*
X68000759Y-108424193D01*
X68166231Y-108335747D01*
X68345776Y-108281282D01*
X68485711Y-108267500D01*
X68674289Y-108267500D01*
X68814224Y-108281282D01*
X68814224Y-108281282D01*
G37*
G36*
X75163352Y-107910743D02*
X75308941Y-107971048D01*
X75439973Y-108058601D01*
X75551399Y-108170027D01*
X75638952Y-108301059D01*
X75699257Y-108446648D01*
X75730000Y-108601205D01*
X75730000Y-108758795D01*
X75699257Y-108913352D01*
X75638952Y-109058941D01*
X75551399Y-109189973D01*
X75439973Y-109301399D01*
X75308941Y-109388952D01*
X75163352Y-109449257D01*
X75008795Y-109480000D01*
X74851205Y-109480000D01*
X74696648Y-109449257D01*
X74551059Y-109388952D01*
X74420027Y-109301399D01*
X74308601Y-109189973D01*
X74221048Y-109058941D01*
X74160743Y-108913352D01*
X74130000Y-108758795D01*
X74130000Y-108601205D01*
X74160743Y-108446648D01*
X74221048Y-108301059D01*
X74308601Y-108170027D01*
X74420027Y-108058601D01*
X74551059Y-107971048D01*
X74696648Y-107910743D01*
X74851205Y-107880000D01*
X75008795Y-107880000D01*
X75163352Y-107910743D01*
X75163352Y-107910743D01*
G37*
G36*
X93510000Y-109290000D02*
X91910000Y-109290000D01*
X91910000Y-107690000D01*
X93510000Y-107690000D01*
X93510000Y-109290000D01*
X93510000Y-109290000D01*
G37*
G36*
X101833352Y-107180743D02*
X101978941Y-107241048D01*
X102109973Y-107328601D01*
X102221399Y-107440027D01*
X102308952Y-107571059D01*
X102369257Y-107716648D01*
X102400000Y-107871205D01*
X102400000Y-108028795D01*
X102369257Y-108183352D01*
X102308952Y-108328941D01*
X102221399Y-108459973D01*
X102109973Y-108571399D01*
X101978941Y-108658952D01*
X101833352Y-108719257D01*
X101678795Y-108750000D01*
X101521205Y-108750000D01*
X101366648Y-108719257D01*
X101221059Y-108658952D01*
X101090027Y-108571399D01*
X100978601Y-108459973D01*
X100891048Y-108328941D01*
X100830743Y-108183352D01*
X100800000Y-108028795D01*
X100800000Y-107871205D01*
X100830743Y-107716648D01*
X100891048Y-107571059D01*
X100978601Y-107440027D01*
X101090027Y-107328601D01*
X101221059Y-107241048D01*
X101366648Y-107180743D01*
X101521205Y-107150000D01*
X101678795Y-107150000D01*
X101833352Y-107180743D01*
X101833352Y-107180743D01*
G37*
G36*
X98063352Y-107180743D02*
X98208941Y-107241048D01*
X98339973Y-107328601D01*
X98451399Y-107440027D01*
X98538952Y-107571059D01*
X98599257Y-107716648D01*
X98630000Y-107871205D01*
X98630000Y-108028795D01*
X98599257Y-108183352D01*
X98538952Y-108328941D01*
X98451399Y-108459973D01*
X98339973Y-108571399D01*
X98208941Y-108658952D01*
X98063352Y-108719257D01*
X97908795Y-108750000D01*
X97751205Y-108750000D01*
X97596648Y-108719257D01*
X97451059Y-108658952D01*
X97320027Y-108571399D01*
X97208601Y-108459973D01*
X97121048Y-108328941D01*
X97060743Y-108183352D01*
X97030000Y-108028795D01*
X97030000Y-107871205D01*
X97060743Y-107716648D01*
X97121048Y-107571059D01*
X97208601Y-107440027D01*
X97320027Y-107328601D01*
X97451059Y-107241048D01*
X97596648Y-107180743D01*
X97751205Y-107150000D01*
X97908795Y-107150000D01*
X98063352Y-107180743D01*
X98063352Y-107180743D01*
G37*
G36*
X87707525Y-105664655D02*
X87853148Y-105693621D01*
X88036046Y-105769380D01*
X88198432Y-105877883D01*
X88200653Y-105879367D01*
X88340633Y-106019347D01*
X88340635Y-106019350D01*
X88450620Y-106183954D01*
X88526379Y-106366852D01*
X88565000Y-106561016D01*
X88565000Y-106758984D01*
X88526379Y-106953148D01*
X88450620Y-107136046D01*
X88450619Y-107136047D01*
X88340633Y-107300653D01*
X88200653Y-107440633D01*
X88200650Y-107440635D01*
X88036046Y-107550620D01*
X87853148Y-107626379D01*
X87707525Y-107655345D01*
X87658985Y-107665000D01*
X87461015Y-107665000D01*
X87412475Y-107655345D01*
X87266852Y-107626379D01*
X87083954Y-107550620D01*
X86919350Y-107440635D01*
X86919347Y-107440633D01*
X86779367Y-107300653D01*
X86669381Y-107136047D01*
X86669380Y-107136046D01*
X86593621Y-106953148D01*
X86555000Y-106758984D01*
X86555000Y-106561016D01*
X86593621Y-106366852D01*
X86669380Y-106183954D01*
X86779365Y-106019350D01*
X86779367Y-106019347D01*
X86919347Y-105879367D01*
X86921568Y-105877883D01*
X87083954Y-105769380D01*
X87266852Y-105693621D01*
X87412475Y-105664655D01*
X87461015Y-105655000D01*
X87658985Y-105655000D01*
X87707525Y-105664655D01*
X87707525Y-105664655D01*
G37*
G36*
X68814224Y-105741282D02*
X68993769Y-105795747D01*
X69159241Y-105884193D01*
X69304278Y-106003222D01*
X69423307Y-106148259D01*
X69511753Y-106313731D01*
X69566218Y-106493276D01*
X69584608Y-106680000D01*
X69566218Y-106866724D01*
X69511753Y-107046269D01*
X69423307Y-107211741D01*
X69304278Y-107356778D01*
X69159241Y-107475807D01*
X68993769Y-107564253D01*
X68814224Y-107618718D01*
X68674289Y-107632500D01*
X68485711Y-107632500D01*
X68345776Y-107618718D01*
X68166231Y-107564253D01*
X68000759Y-107475807D01*
X67855722Y-107356778D01*
X67736693Y-107211741D01*
X67648247Y-107046269D01*
X67593782Y-106866724D01*
X67575392Y-106680000D01*
X67593782Y-106493276D01*
X67648247Y-106313731D01*
X67736693Y-106148259D01*
X67855722Y-106003222D01*
X68000759Y-105884193D01*
X68166231Y-105795747D01*
X68345776Y-105741282D01*
X68485711Y-105727500D01*
X68674289Y-105727500D01*
X68814224Y-105741282D01*
X68814224Y-105741282D01*
G37*
G36*
X75730000Y-107480000D02*
X74130000Y-107480000D01*
X74130000Y-105880000D01*
X75730000Y-105880000D01*
X75730000Y-107480000D01*
X75730000Y-107480000D01*
G37*
G36*
X53507525Y-104414655D02*
X53653148Y-104443621D01*
X53836046Y-104519380D01*
X53836047Y-104519381D01*
X54000653Y-104629367D01*
X54140633Y-104769347D01*
X54140635Y-104769350D01*
X54250620Y-104933954D01*
X54326379Y-105116852D01*
X54365000Y-105311016D01*
X54365000Y-105508984D01*
X54326379Y-105703148D01*
X54250620Y-105886046D01*
X54212634Y-105942896D01*
X54140633Y-106050653D01*
X54000653Y-106190633D01*
X54000650Y-106190635D01*
X53836046Y-106300620D01*
X53653148Y-106376379D01*
X53507525Y-106405345D01*
X53458985Y-106415000D01*
X53261015Y-106415000D01*
X53212475Y-106405345D01*
X53066852Y-106376379D01*
X52883954Y-106300620D01*
X52719350Y-106190635D01*
X52719347Y-106190633D01*
X52579367Y-106050653D01*
X52507366Y-105942896D01*
X52469380Y-105886046D01*
X52393621Y-105703148D01*
X52355000Y-105508984D01*
X52355000Y-105311016D01*
X52393621Y-105116852D01*
X52469380Y-104933954D01*
X52579365Y-104769350D01*
X52579367Y-104769347D01*
X52719347Y-104629367D01*
X52883953Y-104519381D01*
X52883954Y-104519380D01*
X53066852Y-104443621D01*
X53212475Y-104414655D01*
X53261015Y-104405000D01*
X53458985Y-104405000D01*
X53507525Y-104414655D01*
X53507525Y-104414655D01*
G37*
G36*
X80157027Y-104670852D02*
X80298401Y-104713738D01*
X80428694Y-104783380D01*
X80542896Y-104877104D01*
X80636620Y-104991306D01*
X80706262Y-105121599D01*
X80749148Y-105262973D01*
X80763628Y-105410000D01*
X80749148Y-105557027D01*
X80706262Y-105698401D01*
X80636620Y-105828694D01*
X80542896Y-105942896D01*
X80428694Y-106036620D01*
X80298401Y-106106262D01*
X80157027Y-106149148D01*
X80046839Y-106160000D01*
X79973161Y-106160000D01*
X79862973Y-106149148D01*
X79721599Y-106106262D01*
X79591306Y-106036620D01*
X79477104Y-105942896D01*
X79383380Y-105828694D01*
X79313738Y-105698401D01*
X79270852Y-105557027D01*
X79256372Y-105410000D01*
X79270852Y-105262973D01*
X79313738Y-105121599D01*
X79383380Y-104991306D01*
X79477104Y-104877104D01*
X79591306Y-104783380D01*
X79721599Y-104713738D01*
X79862973Y-104670852D01*
X79973161Y-104660000D01*
X80046839Y-104660000D01*
X80157027Y-104670852D01*
X80157027Y-104670852D01*
G37*
G36*
X83300000Y-106160000D02*
X81800000Y-106160000D01*
X81800000Y-104660000D01*
X83300000Y-104660000D01*
X83300000Y-106160000D01*
X83300000Y-106160000D01*
G37*
G36*
X48407525Y-103214655D02*
X48553148Y-103243621D01*
X48736046Y-103319380D01*
X48736047Y-103319381D01*
X48900653Y-103429367D01*
X49040633Y-103569347D01*
X49040635Y-103569350D01*
X49150620Y-103733954D01*
X49226379Y-103916852D01*
X49265000Y-104111016D01*
X49265000Y-104308984D01*
X49226379Y-104503148D01*
X49150620Y-104686046D01*
X49150619Y-104686047D01*
X49040633Y-104850653D01*
X48900653Y-104990633D01*
X48900650Y-104990635D01*
X48736046Y-105100620D01*
X48553148Y-105176379D01*
X48407525Y-105205345D01*
X48358985Y-105215000D01*
X48161015Y-105215000D01*
X48112475Y-105205345D01*
X47966852Y-105176379D01*
X47783954Y-105100620D01*
X47619350Y-104990635D01*
X47619347Y-104990633D01*
X47479367Y-104850653D01*
X47369381Y-104686047D01*
X47369380Y-104686046D01*
X47293621Y-104503148D01*
X47255000Y-104308984D01*
X47255000Y-104111016D01*
X47293621Y-103916852D01*
X47369380Y-103733954D01*
X47479365Y-103569350D01*
X47479367Y-103569347D01*
X47619347Y-103429367D01*
X47783953Y-103319381D01*
X47783954Y-103319380D01*
X47966852Y-103243621D01*
X48112475Y-103214655D01*
X48161015Y-103205000D01*
X48358985Y-103205000D01*
X48407525Y-103214655D01*
X48407525Y-103214655D01*
G37*
G36*
X216319444Y-99491311D02*
X216527132Y-99532623D01*
X216689203Y-99599755D01*
X216918406Y-99694694D01*
X217270548Y-99929988D01*
X217570012Y-100229452D01*
X217805306Y-100581594D01*
X217967377Y-100972869D01*
X218050000Y-101388242D01*
X218050000Y-101811758D01*
X217967377Y-102227131D01*
X217805306Y-102618406D01*
X217570012Y-102970548D01*
X217270548Y-103270012D01*
X216918406Y-103505306D01*
X216689203Y-103600245D01*
X216527132Y-103667377D01*
X216319445Y-103708688D01*
X216111758Y-103750000D01*
X215688242Y-103750000D01*
X215480555Y-103708688D01*
X215272868Y-103667377D01*
X215110797Y-103600245D01*
X214881594Y-103505306D01*
X214529452Y-103270012D01*
X214229988Y-102970548D01*
X213994694Y-102618406D01*
X213832623Y-102227131D01*
X213750000Y-101811758D01*
X213750000Y-101388242D01*
X213832623Y-100972869D01*
X213994694Y-100581594D01*
X214229988Y-100229452D01*
X214529452Y-99929988D01*
X214881594Y-99694694D01*
X215110797Y-99599755D01*
X215272868Y-99532623D01*
X215480556Y-99491311D01*
X215688242Y-99450000D01*
X216111758Y-99450000D01*
X216319444Y-99491311D01*
X216319444Y-99491311D01*
G37*
G36*
X38519444Y-99491311D02*
X38727132Y-99532623D01*
X38889203Y-99599755D01*
X39118406Y-99694694D01*
X39470548Y-99929988D01*
X39770012Y-100229452D01*
X40005306Y-100581594D01*
X40167377Y-100972869D01*
X40250000Y-101388242D01*
X40250000Y-101811758D01*
X40167377Y-102227131D01*
X40005306Y-102618406D01*
X39770012Y-102970548D01*
X39470548Y-103270012D01*
X39118406Y-103505306D01*
X38889203Y-103600245D01*
X38727132Y-103667377D01*
X38519445Y-103708688D01*
X38311758Y-103750000D01*
X37888242Y-103750000D01*
X37680555Y-103708688D01*
X37472868Y-103667377D01*
X37310797Y-103600245D01*
X37081594Y-103505306D01*
X36729452Y-103270012D01*
X36429988Y-102970548D01*
X36194694Y-102618406D01*
X36032623Y-102227131D01*
X35950000Y-101811758D01*
X35950000Y-101388242D01*
X36032623Y-100972869D01*
X36194694Y-100581594D01*
X36429988Y-100229452D01*
X36729452Y-99929988D01*
X37081594Y-99694694D01*
X37310797Y-99599755D01*
X37472868Y-99532623D01*
X37680556Y-99491311D01*
X37888242Y-99450000D01*
X38311758Y-99450000D01*
X38519444Y-99491311D01*
X38519444Y-99491311D01*
G37*
G36*
X127419444Y-99491311D02*
X127627132Y-99532623D01*
X127789203Y-99599755D01*
X128018406Y-99694694D01*
X128370548Y-99929988D01*
X128670012Y-100229452D01*
X128905306Y-100581594D01*
X129067377Y-100972869D01*
X129150000Y-101388242D01*
X129150000Y-101811758D01*
X129067377Y-102227131D01*
X128905306Y-102618406D01*
X128670012Y-102970548D01*
X128370548Y-103270012D01*
X128018406Y-103505306D01*
X127789203Y-103600245D01*
X127627132Y-103667377D01*
X127419445Y-103708688D01*
X127211758Y-103750000D01*
X126788242Y-103750000D01*
X126580555Y-103708688D01*
X126372868Y-103667377D01*
X126210797Y-103600245D01*
X125981594Y-103505306D01*
X125629452Y-103270012D01*
X125329988Y-102970548D01*
X125094694Y-102618406D01*
X124932623Y-102227131D01*
X124850000Y-101811758D01*
X124850000Y-101388242D01*
X124932623Y-100972869D01*
X125094694Y-100581594D01*
X125329988Y-100229452D01*
X125629452Y-99929988D01*
X125981594Y-99694694D01*
X126210797Y-99599755D01*
X126372868Y-99532623D01*
X126580556Y-99491311D01*
X126788242Y-99450000D01*
X127211758Y-99450000D01*
X127419444Y-99491311D01*
X127419444Y-99491311D01*
G37*
M02*
