M48
;DRILL file {KiCad (5.0.2)-1} date 31/12/2018 15:33:06
;FORMAT={-:-/ absolute / metric / decimal}
FMAT,2
METRIC,TZ
T1C0.750
T2C0.800
T3C0.900
T4C1.000
T5C1.010
T6C1.016
T7C1.100
T8C1.400
%
G90
G05
T1
X82.55Y-105.41
X82.55Y-113.03
X80.01Y-105.41
X80.01Y-113.03
T2
X101.6Y-119.38
X101.6Y-121.88
X92.71Y-131.35
X92.71Y-133.35
X101.6Y-107.95
X101.6Y-110.45
X97.79Y-119.38
X97.79Y-121.88
X68.58Y-119.38
X68.58Y-127.
X97.83Y-107.95
X97.83Y-110.45
X81.28Y-119.38
X81.28Y-127.
X60.96Y-129.54
X60.96Y-131.54
X92.71Y-119.92
X92.71Y-121.92
X101.6Y-130.81
X101.6Y-133.31
X92.71Y-108.49
X92.71Y-110.49
X74.93Y-106.68
X74.93Y-108.68
X97.79Y-130.81
X97.79Y-133.31
X74.93Y-119.38
X74.93Y-127.
X60.96Y-109.76
X60.96Y-111.76
T3
X68.58Y-130.81
X68.58Y-133.35
X81.28Y-130.81
X81.28Y-133.35
X74.93Y-130.81
X74.93Y-133.35
T4
X59.055Y-118.11
X59.055Y-120.65
X59.055Y-123.19
T5
X48.26Y-104.21
X53.36Y-105.41
X86.36Y-111.76
X87.56Y-106.66
X48.26Y-135.96
X53.36Y-137.16
T6
X111.76Y-119.38
X111.76Y-121.92
X114.3Y-119.38
X114.3Y-121.92
X116.84Y-119.38
X116.84Y-121.92
X119.38Y-119.38
X119.38Y-121.92
X121.92Y-119.38
X121.92Y-121.92
X124.46Y-119.38
X124.46Y-121.92
X127.Y-119.38
X127.Y-121.92
X129.54Y-119.38
X129.54Y-121.92
X149.86Y-119.38
X149.86Y-121.92
X152.4Y-119.38
X152.4Y-121.92
X154.94Y-119.38
X154.94Y-121.92
X157.48Y-119.38
X157.48Y-121.92
X160.02Y-119.38
X160.02Y-121.92
X162.56Y-119.38
X162.56Y-121.92
X165.1Y-119.38
X165.1Y-121.92
X167.64Y-119.38
X167.64Y-121.92
X187.96Y-119.38
X187.96Y-121.92
X190.5Y-119.38
X190.5Y-121.92
X193.04Y-119.38
X193.04Y-121.92
X195.58Y-119.38
X195.58Y-121.92
X198.12Y-119.38
X198.12Y-121.92
X200.66Y-119.38
X200.66Y-121.92
X203.2Y-119.38
X203.2Y-121.92
X205.74Y-119.38
X205.74Y-121.92
T7
X68.58Y-106.68
X68.58Y-109.22
X68.58Y-111.76
T8
X45.72Y-113.03
X45.72Y-118.11
X45.72Y-123.19
X45.72Y-128.27
T0
M30
