G04 #@! TF.GenerationSoftware,KiCad,Pcbnew,(5.0.2)-1*
G04 #@! TF.CreationDate,2018-12-31T15:38:33+01:00*
G04 #@! TF.ProjectId,EuroRack_LowNoisePowerPCB,4575726f-5261-4636-9b5f-4c6f774e6f69,rev?*
G04 #@! TF.SameCoordinates,Original*
G04 #@! TF.FileFunction,Copper,L2,Bot*
G04 #@! TF.FilePolarity,Positive*
%FSLAX46Y46*%
G04 Gerber Fmt 4.6, Leading zero omitted, Abs format (unit mm)*
G04 Created by KiCad (PCBNEW (5.0.2)-1) date 31/12/2018 15:38:33*
%MOMM*%
%LPD*%
G01*
G04 APERTURE LIST*
G04 #@! TA.AperFunction,ComponentPad*
%ADD10C,1.600000*%
G04 #@! TD*
G04 #@! TA.AperFunction,ComponentPad*
%ADD11R,1.600000X1.600000*%
G04 #@! TD*
G04 #@! TA.AperFunction,ComponentPad*
%ADD12R,1.800000X1.800000*%
G04 #@! TD*
G04 #@! TA.AperFunction,ComponentPad*
%ADD13C,1.800000*%
G04 #@! TD*
G04 #@! TA.AperFunction,ComponentPad*
%ADD14C,2.010000*%
G04 #@! TD*
G04 #@! TA.AperFunction,Conductor*
%ADD15C,0.100000*%
G04 #@! TD*
G04 #@! TA.AperFunction,ComponentPad*
%ADD16C,2.080000*%
G04 #@! TD*
G04 #@! TA.AperFunction,ComponentPad*
%ADD17O,3.600000X2.080000*%
G04 #@! TD*
G04 #@! TA.AperFunction,ComponentPad*
%ADD18R,1.700000X1.700000*%
G04 #@! TD*
G04 #@! TA.AperFunction,ComponentPad*
%ADD19O,1.700000X1.700000*%
G04 #@! TD*
G04 #@! TA.AperFunction,ComponentPad*
%ADD20R,1.727200X1.727200*%
G04 #@! TD*
G04 #@! TA.AperFunction,ComponentPad*
%ADD21O,1.727200X1.727200*%
G04 #@! TD*
G04 #@! TA.AperFunction,ComponentPad*
%ADD22O,1.600000X1.600000*%
G04 #@! TD*
G04 #@! TA.AperFunction,ComponentPad*
%ADD23R,2.000000X1.905000*%
G04 #@! TD*
G04 #@! TA.AperFunction,ComponentPad*
%ADD24O,2.000000X1.905000*%
G04 #@! TD*
G04 #@! TA.AperFunction,ComponentPad*
%ADD25O,1.500000X1.500000*%
G04 #@! TD*
G04 #@! TA.AperFunction,ComponentPad*
%ADD26R,1.500000X1.500000*%
G04 #@! TD*
G04 #@! TA.AperFunction,Conductor*
%ADD27C,1.400000*%
G04 #@! TD*
G04 #@! TA.AperFunction,Conductor*
%ADD28C,0.254000*%
G04 #@! TD*
G04 APERTURE END LIST*
D10*
G04 #@! TO.P,C1,2*
G04 #@! TO.N,GND*
X92710000Y-121920000D03*
D11*
G04 #@! TO.P,C1,1*
G04 #@! TO.N,/+12V*
X92710000Y-119920000D03*
G04 #@! TD*
G04 #@! TO.P,C2,1*
G04 #@! TO.N,GND*
X92710000Y-131350000D03*
D10*
G04 #@! TO.P,C2,2*
G04 #@! TO.N,/-12V*
X92710000Y-133350000D03*
G04 #@! TD*
G04 #@! TO.P,C3,2*
G04 #@! TO.N,GND*
X92710000Y-110490000D03*
D11*
G04 #@! TO.P,C3,1*
G04 #@! TO.N,/+5V*
X92710000Y-108490000D03*
G04 #@! TD*
D10*
G04 #@! TO.P,C4,2*
G04 #@! TO.N,GND*
X97790000Y-121880000D03*
G04 #@! TO.P,C4,1*
G04 #@! TO.N,/+12V*
X97790000Y-119380000D03*
G04 #@! TD*
G04 #@! TO.P,C5,1*
G04 #@! TO.N,GND*
X97790000Y-130810000D03*
G04 #@! TO.P,C5,2*
G04 #@! TO.N,/-12V*
X97790000Y-133310000D03*
G04 #@! TD*
G04 #@! TO.P,C6,1*
G04 #@! TO.N,/+5V*
X97830000Y-107950000D03*
G04 #@! TO.P,C6,2*
G04 #@! TO.N,GND*
X97830000Y-110450000D03*
G04 #@! TD*
G04 #@! TO.P,C7,2*
G04 #@! TO.N,GND*
X60960000Y-109760000D03*
D11*
G04 #@! TO.P,C7,1*
G04 #@! TO.N,/+12V*
X60960000Y-111760000D03*
G04 #@! TD*
G04 #@! TO.P,C8,1*
G04 #@! TO.N,GND*
X60960000Y-129540000D03*
D10*
G04 #@! TO.P,C8,2*
G04 #@! TO.N,/-12V*
X60960000Y-131540000D03*
G04 #@! TD*
G04 #@! TO.P,C9,1*
G04 #@! TO.N,/+12V*
X101600000Y-119380000D03*
G04 #@! TO.P,C9,2*
G04 #@! TO.N,GND*
X101600000Y-121880000D03*
G04 #@! TD*
G04 #@! TO.P,C10,2*
G04 #@! TO.N,/-12V*
X101600000Y-133310000D03*
G04 #@! TO.P,C10,1*
G04 #@! TO.N,GND*
X101600000Y-130810000D03*
G04 #@! TD*
G04 #@! TO.P,C11,2*
G04 #@! TO.N,GND*
X101600000Y-110450000D03*
G04 #@! TO.P,C11,1*
G04 #@! TO.N,/+5V*
X101600000Y-107950000D03*
G04 #@! TD*
D11*
G04 #@! TO.P,C12,1*
G04 #@! TO.N,Net-(C12-Pad1)*
X74930000Y-106680000D03*
D10*
G04 #@! TO.P,C12,2*
G04 #@! TO.N,GND*
X74930000Y-108680000D03*
G04 #@! TD*
D12*
G04 #@! TO.P,D1,1*
G04 #@! TO.N,GND*
X68580000Y-133350000D03*
D13*
G04 #@! TO.P,D1,2*
G04 #@! TO.N,Net-(D1-Pad2)*
X68580000Y-130810000D03*
G04 #@! TD*
D12*
G04 #@! TO.P,D2,1*
G04 #@! TO.N,/-12V*
X74930000Y-133350000D03*
D13*
G04 #@! TO.P,D2,2*
G04 #@! TO.N,Net-(D2-Pad2)*
X74930000Y-130810000D03*
G04 #@! TD*
G04 #@! TO.P,D3,2*
G04 #@! TO.N,Net-(D3-Pad2)*
X81280000Y-130810000D03*
D12*
G04 #@! TO.P,D3,1*
G04 #@! TO.N,GND*
X81280000Y-133350000D03*
G04 #@! TD*
D14*
G04 #@! TO.P,F1,1*
G04 #@! TO.N,/+12V*
X53360000Y-105410000D03*
G04 #@! TO.P,F1,2*
G04 #@! TO.N,VCC*
X48260000Y-104210000D03*
G04 #@! TD*
G04 #@! TO.P,F2,2*
G04 #@! TO.N,VEE*
X48260000Y-135960000D03*
G04 #@! TO.P,F2,1*
G04 #@! TO.N,/-12V*
X53360000Y-137160000D03*
G04 #@! TD*
G04 #@! TO.P,F3,1*
G04 #@! TO.N,/+5V*
X86360000Y-111760000D03*
G04 #@! TO.P,F3,2*
G04 #@! TO.N,Net-(C12-Pad1)*
X87560000Y-106660000D03*
G04 #@! TD*
D15*
G04 #@! TO.N,VCC*
G04 #@! TO.C,J1*
G36*
X47294505Y-111991204D02*
X47318773Y-111994804D01*
X47342572Y-112000765D01*
X47365671Y-112009030D01*
X47387850Y-112019520D01*
X47408893Y-112032132D01*
X47428599Y-112046747D01*
X47446777Y-112063223D01*
X47463253Y-112081401D01*
X47477868Y-112101107D01*
X47490480Y-112122150D01*
X47500970Y-112144329D01*
X47509235Y-112167428D01*
X47515196Y-112191227D01*
X47518796Y-112215495D01*
X47520000Y-112239999D01*
X47520000Y-113820001D01*
X47518796Y-113844505D01*
X47515196Y-113868773D01*
X47509235Y-113892572D01*
X47500970Y-113915671D01*
X47490480Y-113937850D01*
X47477868Y-113958893D01*
X47463253Y-113978599D01*
X47446777Y-113996777D01*
X47428599Y-114013253D01*
X47408893Y-114027868D01*
X47387850Y-114040480D01*
X47365671Y-114050970D01*
X47342572Y-114059235D01*
X47318773Y-114065196D01*
X47294505Y-114068796D01*
X47270001Y-114070000D01*
X44169999Y-114070000D01*
X44145495Y-114068796D01*
X44121227Y-114065196D01*
X44097428Y-114059235D01*
X44074329Y-114050970D01*
X44052150Y-114040480D01*
X44031107Y-114027868D01*
X44011401Y-114013253D01*
X43993223Y-113996777D01*
X43976747Y-113978599D01*
X43962132Y-113958893D01*
X43949520Y-113937850D01*
X43939030Y-113915671D01*
X43930765Y-113892572D01*
X43924804Y-113868773D01*
X43921204Y-113844505D01*
X43920000Y-113820001D01*
X43920000Y-112239999D01*
X43921204Y-112215495D01*
X43924804Y-112191227D01*
X43930765Y-112167428D01*
X43939030Y-112144329D01*
X43949520Y-112122150D01*
X43962132Y-112101107D01*
X43976747Y-112081401D01*
X43993223Y-112063223D01*
X44011401Y-112046747D01*
X44031107Y-112032132D01*
X44052150Y-112019520D01*
X44074329Y-112009030D01*
X44097428Y-112000765D01*
X44121227Y-111994804D01*
X44145495Y-111991204D01*
X44169999Y-111990000D01*
X47270001Y-111990000D01*
X47294505Y-111991204D01*
X47294505Y-111991204D01*
G37*
D16*
G04 #@! TD*
G04 #@! TO.P,J1,1*
G04 #@! TO.N,VCC*
X45720000Y-113030000D03*
D17*
G04 #@! TO.P,J1,2*
G04 #@! TO.N,/EARTH*
X45720000Y-118110000D03*
G04 #@! TO.P,J1,3*
G04 #@! TO.N,GND*
X45720000Y-123190000D03*
G04 #@! TO.P,J1,4*
G04 #@! TO.N,VEE*
X45720000Y-128270000D03*
G04 #@! TD*
D18*
G04 #@! TO.P,J2,1*
G04 #@! TO.N,/EARTH*
X59055000Y-118110000D03*
D19*
G04 #@! TO.P,J2,2*
G04 #@! TO.N,GND*
X59055000Y-120650000D03*
G04 #@! TO.P,J2,3*
X59055000Y-123190000D03*
G04 #@! TD*
D20*
G04 #@! TO.P,J3,1*
G04 #@! TO.N,/-12V*
X187960000Y-121920000D03*
D21*
G04 #@! TO.P,J3,2*
X187960000Y-119380000D03*
G04 #@! TO.P,J3,3*
G04 #@! TO.N,GND*
X190500000Y-121920000D03*
G04 #@! TO.P,J3,4*
X190500000Y-119380000D03*
G04 #@! TO.P,J3,5*
X193040000Y-121920000D03*
G04 #@! TO.P,J3,6*
X193040000Y-119380000D03*
G04 #@! TO.P,J3,7*
X195580000Y-121920000D03*
G04 #@! TO.P,J3,8*
X195580000Y-119380000D03*
G04 #@! TO.P,J3,9*
G04 #@! TO.N,/+12V*
X198120000Y-121920000D03*
G04 #@! TO.P,J3,10*
X198120000Y-119380000D03*
G04 #@! TO.P,J3,11*
G04 #@! TO.N,/+5V*
X200660000Y-121920000D03*
G04 #@! TO.P,J3,12*
X200660000Y-119380000D03*
G04 #@! TO.P,J3,13*
G04 #@! TO.N,/CV1*
X203200000Y-121920000D03*
G04 #@! TO.P,J3,14*
X203200000Y-119380000D03*
G04 #@! TO.P,J3,15*
G04 #@! TO.N,/Gate1*
X205740000Y-121920000D03*
G04 #@! TO.P,J3,16*
X205740000Y-119380000D03*
G04 #@! TD*
G04 #@! TO.P,J4,16*
G04 #@! TO.N,/Gate2*
X167640000Y-119380000D03*
G04 #@! TO.P,J4,15*
X167640000Y-121920000D03*
G04 #@! TO.P,J4,14*
G04 #@! TO.N,/CV2*
X165100000Y-119380000D03*
G04 #@! TO.P,J4,13*
X165100000Y-121920000D03*
G04 #@! TO.P,J4,12*
G04 #@! TO.N,/+5V*
X162560000Y-119380000D03*
G04 #@! TO.P,J4,11*
X162560000Y-121920000D03*
G04 #@! TO.P,J4,10*
G04 #@! TO.N,/+12V*
X160020000Y-119380000D03*
G04 #@! TO.P,J4,9*
X160020000Y-121920000D03*
G04 #@! TO.P,J4,8*
G04 #@! TO.N,GND*
X157480000Y-119380000D03*
G04 #@! TO.P,J4,7*
X157480000Y-121920000D03*
G04 #@! TO.P,J4,6*
X154940000Y-119380000D03*
G04 #@! TO.P,J4,5*
X154940000Y-121920000D03*
G04 #@! TO.P,J4,4*
X152400000Y-119380000D03*
G04 #@! TO.P,J4,3*
X152400000Y-121920000D03*
G04 #@! TO.P,J4,2*
G04 #@! TO.N,/-12V*
X149860000Y-119380000D03*
D20*
G04 #@! TO.P,J4,1*
X149860000Y-121920000D03*
G04 #@! TD*
G04 #@! TO.P,J5,1*
G04 #@! TO.N,/-12V*
X111760000Y-121920000D03*
D21*
G04 #@! TO.P,J5,2*
X111760000Y-119380000D03*
G04 #@! TO.P,J5,3*
G04 #@! TO.N,GND*
X114300000Y-121920000D03*
G04 #@! TO.P,J5,4*
X114300000Y-119380000D03*
G04 #@! TO.P,J5,5*
X116840000Y-121920000D03*
G04 #@! TO.P,J5,6*
X116840000Y-119380000D03*
G04 #@! TO.P,J5,7*
X119380000Y-121920000D03*
G04 #@! TO.P,J5,8*
X119380000Y-119380000D03*
G04 #@! TO.P,J5,9*
G04 #@! TO.N,/+12V*
X121920000Y-121920000D03*
G04 #@! TO.P,J5,10*
X121920000Y-119380000D03*
G04 #@! TO.P,J5,11*
G04 #@! TO.N,/+5V*
X124460000Y-121920000D03*
G04 #@! TO.P,J5,12*
X124460000Y-119380000D03*
G04 #@! TO.P,J5,13*
G04 #@! TO.N,/CV3*
X127000000Y-121920000D03*
G04 #@! TO.P,J5,14*
X127000000Y-119380000D03*
G04 #@! TO.P,J5,15*
G04 #@! TO.N,/Gate3*
X129540000Y-121920000D03*
G04 #@! TO.P,J5,16*
X129540000Y-119380000D03*
G04 #@! TD*
D10*
G04 #@! TO.P,R1,1*
G04 #@! TO.N,/+12V*
X68580000Y-119380000D03*
D22*
G04 #@! TO.P,R1,2*
G04 #@! TO.N,Net-(D1-Pad2)*
X68580000Y-127000000D03*
G04 #@! TD*
G04 #@! TO.P,R2,2*
G04 #@! TO.N,Net-(D2-Pad2)*
X74930000Y-127000000D03*
D10*
G04 #@! TO.P,R2,1*
G04 #@! TO.N,GND*
X74930000Y-119380000D03*
G04 #@! TD*
G04 #@! TO.P,R3,1*
G04 #@! TO.N,/+5V*
X81280000Y-119380000D03*
D22*
G04 #@! TO.P,R3,2*
G04 #@! TO.N,Net-(D3-Pad2)*
X81280000Y-127000000D03*
G04 #@! TD*
D23*
G04 #@! TO.P,U1,1*
G04 #@! TO.N,/+12V*
X68580000Y-111760000D03*
D24*
G04 #@! TO.P,U1,2*
G04 #@! TO.N,GND*
X68580000Y-109220000D03*
G04 #@! TO.P,U1,3*
G04 #@! TO.N,Net-(C12-Pad1)*
X68580000Y-106680000D03*
G04 #@! TD*
D25*
G04 #@! TO.P,D4,2*
G04 #@! TO.N,Net-(C12-Pad1)*
X80010000Y-105410000D03*
D26*
G04 #@! TO.P,D4,1*
G04 #@! TO.N,/+12V*
X80010000Y-113030000D03*
G04 #@! TD*
G04 #@! TO.P,D5,1*
G04 #@! TO.N,Net-(C12-Pad1)*
X82550000Y-105410000D03*
D25*
G04 #@! TO.P,D5,2*
G04 #@! TO.N,GND*
X82550000Y-113030000D03*
G04 #@! TD*
D27*
G04 #@! TO.N,/+5V*
X89630000Y-108490000D02*
X92710000Y-108490000D01*
X86360000Y-111760000D02*
X89630000Y-108490000D01*
X97290000Y-108490000D02*
X97830000Y-107950000D01*
X92710000Y-108490000D02*
X97290000Y-108490000D01*
X97830000Y-107950000D02*
X101600000Y-107950000D01*
X86360000Y-114300000D02*
X81280000Y-119380000D01*
X86360000Y-111760000D02*
X86360000Y-114300000D01*
X200660000Y-119380000D02*
X200660000Y-107950000D01*
X200660000Y-121920000D02*
X200660000Y-119380000D01*
X162560000Y-119380000D02*
X162560000Y-121920000D01*
X124460000Y-119380000D02*
X124460000Y-121920000D01*
X124460000Y-119380000D02*
X124460000Y-107950000D01*
X101600000Y-107950000D02*
X124460000Y-107950000D01*
X162560000Y-119380000D02*
X162560000Y-107950000D01*
X124460000Y-107950000D02*
X162560000Y-107950000D01*
X162560000Y-107950000D02*
X200660000Y-107950000D01*
G04 #@! TO.N,/+12V*
X59710000Y-111760000D02*
X60960000Y-111760000D01*
X53360000Y-105410000D02*
X59710000Y-111760000D01*
X60960000Y-111760000D02*
X68580000Y-111760000D01*
X68580000Y-111760000D02*
X68580000Y-119380000D01*
X78740000Y-111760000D02*
X80010000Y-113030000D01*
X68580000Y-111760000D02*
X78740000Y-111760000D01*
X90510000Y-119920000D02*
X92710000Y-119920000D01*
X87240000Y-123190000D02*
X90510000Y-119920000D01*
X72390000Y-123190000D02*
X87240000Y-123190000D01*
X68580000Y-119380000D02*
X72390000Y-123190000D01*
X97250000Y-119920000D02*
X97790000Y-119380000D01*
X92710000Y-119920000D02*
X97250000Y-119920000D01*
X97790000Y-119380000D02*
X101600000Y-119380000D01*
X198120000Y-119380000D02*
X198120000Y-121920000D01*
X160020000Y-119380000D02*
X160020000Y-121920000D01*
X121920000Y-119380000D02*
X121920000Y-121920000D01*
X121920000Y-111760000D02*
X121920000Y-119380000D01*
X110490000Y-111760000D02*
X121920000Y-111760000D01*
X101600000Y-119380000D02*
X102870000Y-119380000D01*
X198120000Y-111760000D02*
X198120000Y-119380000D01*
X181610000Y-111760000D02*
X198120000Y-111760000D01*
X181610000Y-125730000D02*
X181610000Y-111760000D01*
X160020000Y-121920000D02*
X160020000Y-125730000D01*
X160020000Y-125730000D02*
X181610000Y-125730000D01*
X102870000Y-119380000D02*
X110490000Y-111760000D01*
X160020000Y-111760000D02*
X160020000Y-119380000D01*
X143510000Y-111760000D02*
X160020000Y-111760000D01*
X143510000Y-125730000D02*
X143510000Y-111760000D01*
X121920000Y-121920000D02*
X121920000Y-125730000D01*
X121920000Y-125730000D02*
X143510000Y-125730000D01*
G04 #@! TO.N,/-12V*
X88900000Y-137160000D02*
X92710000Y-133350000D01*
X74930000Y-133350000D02*
X74930000Y-137160000D01*
X74930000Y-137160000D02*
X88900000Y-137160000D01*
X60960000Y-131540000D02*
X60960000Y-137160000D01*
X53360000Y-137160000D02*
X60960000Y-137160000D01*
X60960000Y-137160000D02*
X74930000Y-137160000D01*
X97750000Y-133350000D02*
X97790000Y-133310000D01*
X92710000Y-133350000D02*
X97750000Y-133350000D01*
X97790000Y-133310000D02*
X101600000Y-133310000D01*
X187960000Y-133270000D02*
X187920000Y-133310000D01*
X187960000Y-121920000D02*
X187960000Y-133270000D01*
X187960000Y-119380000D02*
X187960000Y-121920000D01*
X149860000Y-119380000D02*
X149860000Y-121920000D01*
X111760000Y-119380000D02*
X111760000Y-121920000D01*
X111760000Y-121920000D02*
X111760000Y-133310000D01*
X101600000Y-133310000D02*
X111760000Y-133310000D01*
X149860000Y-121920000D02*
X149860000Y-133310000D01*
X111760000Y-133310000D02*
X149860000Y-133310000D01*
X149860000Y-133310000D02*
X187920000Y-133310000D01*
G04 #@! TO.N,Net-(C12-Pad1)*
X68580000Y-106680000D02*
X74930000Y-106680000D01*
X78740000Y-106680000D02*
X80010000Y-105410000D01*
X74930000Y-106680000D02*
X78740000Y-106680000D01*
X80010000Y-105410000D02*
X82550000Y-105410000D01*
X86310000Y-105410000D02*
X87560000Y-106660000D01*
X82550000Y-105410000D02*
X86310000Y-105410000D01*
G04 #@! TO.N,Net-(D1-Pad2)*
X68580000Y-130810000D02*
X68580000Y-127000000D01*
G04 #@! TO.N,Net-(D2-Pad2)*
X74930000Y-130810000D02*
X74930000Y-127000000D01*
G04 #@! TO.N,Net-(D3-Pad2)*
X81280000Y-130810000D02*
X81280000Y-127000000D01*
G04 #@! TO.N,VCC*
X45720000Y-106750000D02*
X48260000Y-104210000D01*
X45720000Y-113030000D02*
X45720000Y-106750000D01*
G04 #@! TO.N,VEE*
X45720000Y-133420000D02*
X48260000Y-135960000D01*
X45720000Y-128270000D02*
X45720000Y-133420000D01*
G04 #@! TO.N,/EARTH*
X45720000Y-118110000D02*
X53340000Y-118110000D01*
X53340000Y-118110000D02*
X59055000Y-118110000D01*
G04 #@! TO.N,/CV1*
X203200000Y-119380000D02*
X203200000Y-121920000D01*
G04 #@! TO.N,/Gate1*
X205740000Y-119380000D02*
X205740000Y-121920000D01*
G04 #@! TO.N,/Gate2*
X167640000Y-119380000D02*
X167640000Y-121920000D01*
G04 #@! TO.N,/CV2*
X165100000Y-119380000D02*
X165100000Y-121920000D01*
G04 #@! TO.N,/CV3*
X127000000Y-119380000D02*
X127000000Y-121920000D01*
G04 #@! TO.N,/Gate3*
X129540000Y-119380000D02*
X129540000Y-121920000D01*
G04 #@! TD*
D28*
G04 #@! TO.N,GND*
G36*
X216565150Y-97267085D02*
X216677803Y-97277139D01*
X217431023Y-97483197D01*
X218135852Y-97819384D01*
X218770002Y-98275065D01*
X219313441Y-98835851D01*
X219748981Y-99484001D01*
X220062862Y-100199043D01*
X220246424Y-100963636D01*
X220295000Y-101625112D01*
X220295001Y-139669483D01*
X220222861Y-140477805D01*
X220016803Y-141231023D01*
X219680616Y-141935852D01*
X219224932Y-142570005D01*
X218664149Y-143113441D01*
X218015996Y-143548982D01*
X217300956Y-143862863D01*
X216536364Y-144046424D01*
X215874887Y-144095000D01*
X38130506Y-144095000D01*
X37322195Y-144022861D01*
X36568977Y-143816803D01*
X35864148Y-143480616D01*
X35229995Y-143024932D01*
X34686559Y-142464149D01*
X34251018Y-141815996D01*
X33937137Y-141100956D01*
X33753576Y-140336364D01*
X33705000Y-139674887D01*
X33705000Y-139146029D01*
X35315000Y-139146029D01*
X35315000Y-140253971D01*
X35738991Y-141277576D01*
X36522424Y-142061009D01*
X37546029Y-142485000D01*
X38653971Y-142485000D01*
X39677576Y-142061009D01*
X40461009Y-141277576D01*
X40885000Y-140253971D01*
X40885000Y-139146029D01*
X124215000Y-139146029D01*
X124215000Y-140253971D01*
X124638991Y-141277576D01*
X125422424Y-142061009D01*
X126446029Y-142485000D01*
X127553971Y-142485000D01*
X128577576Y-142061009D01*
X129361009Y-141277576D01*
X129785000Y-140253971D01*
X129785000Y-139146029D01*
X213115000Y-139146029D01*
X213115000Y-140253971D01*
X213538991Y-141277576D01*
X214322424Y-142061009D01*
X215346029Y-142485000D01*
X216453971Y-142485000D01*
X217477576Y-142061009D01*
X218261009Y-141277576D01*
X218685000Y-140253971D01*
X218685000Y-139146029D01*
X218261009Y-138122424D01*
X217477576Y-137338991D01*
X216453971Y-136915000D01*
X215346029Y-136915000D01*
X214322424Y-137338991D01*
X213538991Y-138122424D01*
X213115000Y-139146029D01*
X129785000Y-139146029D01*
X129361009Y-138122424D01*
X128577576Y-137338991D01*
X127553971Y-136915000D01*
X126446029Y-136915000D01*
X125422424Y-137338991D01*
X124638991Y-138122424D01*
X124215000Y-139146029D01*
X40885000Y-139146029D01*
X40461009Y-138122424D01*
X39677576Y-137338991D01*
X38653971Y-136915000D01*
X37546029Y-136915000D01*
X36522424Y-137338991D01*
X35738991Y-138122424D01*
X35315000Y-139146029D01*
X33705000Y-139146029D01*
X33705000Y-128270000D01*
X43252185Y-128270000D01*
X43382185Y-128923553D01*
X43752392Y-129477608D01*
X44306447Y-129847815D01*
X44385000Y-129863440D01*
X44385001Y-133288515D01*
X44358847Y-133420000D01*
X44462458Y-133940890D01*
X44636268Y-134201014D01*
X44757520Y-134382481D01*
X44868986Y-134456960D01*
X46620000Y-136207975D01*
X46620000Y-136286216D01*
X46869676Y-136888985D01*
X47331015Y-137350324D01*
X47933784Y-137600000D01*
X48586216Y-137600000D01*
X49188985Y-137350324D01*
X49650324Y-136888985D01*
X49673189Y-136833784D01*
X51720000Y-136833784D01*
X51720000Y-137486216D01*
X51969676Y-138088985D01*
X52431015Y-138550324D01*
X53033784Y-138800000D01*
X53686216Y-138800000D01*
X54288985Y-138550324D01*
X54344309Y-138495000D01*
X60828516Y-138495000D01*
X60960000Y-138521154D01*
X61091485Y-138495000D01*
X74798516Y-138495000D01*
X74930000Y-138521154D01*
X75061485Y-138495000D01*
X88768519Y-138495000D01*
X88900000Y-138521153D01*
X89031481Y-138495000D01*
X89031485Y-138495000D01*
X89420891Y-138417542D01*
X89862481Y-138122481D01*
X89936963Y-138011012D01*
X93262975Y-134685000D01*
X97359708Y-134685000D01*
X97504561Y-134745000D01*
X98075439Y-134745000D01*
X98316860Y-134645000D01*
X101073140Y-134645000D01*
X101314561Y-134745000D01*
X101885439Y-134745000D01*
X102126860Y-134645000D01*
X111628516Y-134645000D01*
X111760000Y-134671154D01*
X111891485Y-134645000D01*
X149728516Y-134645000D01*
X149860000Y-134671154D01*
X149991485Y-134645000D01*
X187788519Y-134645000D01*
X187920000Y-134671153D01*
X188051481Y-134645000D01*
X188051485Y-134645000D01*
X188440891Y-134567542D01*
X188882481Y-134272481D01*
X188898503Y-134248503D01*
X188922481Y-134232481D01*
X189217542Y-133790891D01*
X189295000Y-133401485D01*
X189295000Y-133401484D01*
X189321154Y-133270000D01*
X189295000Y-133138515D01*
X189295000Y-123221069D01*
X189421757Y-123031365D01*
X189437475Y-122952343D01*
X189502010Y-123037996D01*
X189849026Y-123269828D01*
X190068200Y-123188364D01*
X190068200Y-122351800D01*
X190931800Y-122351800D01*
X190931800Y-123188364D01*
X191150974Y-123269828D01*
X191497990Y-123037996D01*
X191770000Y-122676974D01*
X192042010Y-123037996D01*
X192389026Y-123269828D01*
X192608200Y-123188364D01*
X192608200Y-122351800D01*
X193471800Y-122351800D01*
X193471800Y-123188364D01*
X193690974Y-123269828D01*
X194037990Y-123037996D01*
X194310000Y-122676974D01*
X194582010Y-123037996D01*
X194929026Y-123269828D01*
X195148200Y-123188364D01*
X195148200Y-122351800D01*
X193471800Y-122351800D01*
X192608200Y-122351800D01*
X190931800Y-122351800D01*
X190068200Y-122351800D01*
X189907000Y-122351800D01*
X189907000Y-121488200D01*
X190068200Y-121488200D01*
X190068200Y-120651636D01*
X190063798Y-120650000D01*
X190068200Y-120648364D01*
X190068200Y-119811800D01*
X190931800Y-119811800D01*
X190931800Y-120648364D01*
X190936202Y-120650000D01*
X190931800Y-120651636D01*
X190931800Y-121488200D01*
X192608200Y-121488200D01*
X192608200Y-120651636D01*
X192603798Y-120650000D01*
X192608200Y-120648364D01*
X192608200Y-119811800D01*
X193471800Y-119811800D01*
X193471800Y-120648364D01*
X193476202Y-120650000D01*
X193471800Y-120651636D01*
X193471800Y-121488200D01*
X195148200Y-121488200D01*
X195148200Y-120651636D01*
X195143798Y-120650000D01*
X195148200Y-120648364D01*
X195148200Y-119811800D01*
X193471800Y-119811800D01*
X192608200Y-119811800D01*
X190931800Y-119811800D01*
X190068200Y-119811800D01*
X189907000Y-119811800D01*
X189907000Y-118948200D01*
X190068200Y-118948200D01*
X190068200Y-118111636D01*
X190931800Y-118111636D01*
X190931800Y-118948200D01*
X192608200Y-118948200D01*
X192608200Y-118111636D01*
X193471800Y-118111636D01*
X193471800Y-118948200D01*
X195148200Y-118948200D01*
X195148200Y-118111636D01*
X194929026Y-118030172D01*
X194582010Y-118262004D01*
X194310000Y-118623026D01*
X194037990Y-118262004D01*
X193690974Y-118030172D01*
X193471800Y-118111636D01*
X192608200Y-118111636D01*
X192389026Y-118030172D01*
X192042010Y-118262004D01*
X191770000Y-118623026D01*
X191497990Y-118262004D01*
X191150974Y-118030172D01*
X190931800Y-118111636D01*
X190068200Y-118111636D01*
X189849026Y-118030172D01*
X189502010Y-118262004D01*
X189244075Y-118604346D01*
X189040430Y-118299570D01*
X188544725Y-117968350D01*
X188107598Y-117881400D01*
X187812402Y-117881400D01*
X187375275Y-117968350D01*
X186879570Y-118299570D01*
X186548350Y-118795275D01*
X186432041Y-119380000D01*
X186548350Y-119964725D01*
X186625000Y-120079440D01*
X186625000Y-120618930D01*
X186498243Y-120808635D01*
X186448960Y-121056400D01*
X186448960Y-122783600D01*
X186498243Y-123031365D01*
X186625000Y-123221069D01*
X186625001Y-131975000D01*
X151195000Y-131975000D01*
X151195000Y-123221069D01*
X151321757Y-123031365D01*
X151337475Y-122952343D01*
X151402010Y-123037996D01*
X151749026Y-123269828D01*
X151968200Y-123188364D01*
X151968200Y-122351800D01*
X152831800Y-122351800D01*
X152831800Y-123188364D01*
X153050974Y-123269828D01*
X153397990Y-123037996D01*
X153670000Y-122676974D01*
X153942010Y-123037996D01*
X154289026Y-123269828D01*
X154508200Y-123188364D01*
X154508200Y-122351800D01*
X155371800Y-122351800D01*
X155371800Y-123188364D01*
X155590974Y-123269828D01*
X155937990Y-123037996D01*
X156210000Y-122676974D01*
X156482010Y-123037996D01*
X156829026Y-123269828D01*
X157048200Y-123188364D01*
X157048200Y-122351800D01*
X155371800Y-122351800D01*
X154508200Y-122351800D01*
X152831800Y-122351800D01*
X151968200Y-122351800D01*
X151807000Y-122351800D01*
X151807000Y-121488200D01*
X151968200Y-121488200D01*
X151968200Y-120651636D01*
X151963798Y-120650000D01*
X151968200Y-120648364D01*
X151968200Y-119811800D01*
X152831800Y-119811800D01*
X152831800Y-120648364D01*
X152836202Y-120650000D01*
X152831800Y-120651636D01*
X152831800Y-121488200D01*
X154508200Y-121488200D01*
X154508200Y-120651636D01*
X154503798Y-120650000D01*
X154508200Y-120648364D01*
X154508200Y-119811800D01*
X155371800Y-119811800D01*
X155371800Y-120648364D01*
X155376202Y-120650000D01*
X155371800Y-120651636D01*
X155371800Y-121488200D01*
X157048200Y-121488200D01*
X157048200Y-120651636D01*
X157043798Y-120650000D01*
X157048200Y-120648364D01*
X157048200Y-119811800D01*
X155371800Y-119811800D01*
X154508200Y-119811800D01*
X152831800Y-119811800D01*
X151968200Y-119811800D01*
X151807000Y-119811800D01*
X151807000Y-118948200D01*
X151968200Y-118948200D01*
X151968200Y-118111636D01*
X152831800Y-118111636D01*
X152831800Y-118948200D01*
X154508200Y-118948200D01*
X154508200Y-118111636D01*
X155371800Y-118111636D01*
X155371800Y-118948200D01*
X157048200Y-118948200D01*
X157048200Y-118111636D01*
X156829026Y-118030172D01*
X156482010Y-118262004D01*
X156210000Y-118623026D01*
X155937990Y-118262004D01*
X155590974Y-118030172D01*
X155371800Y-118111636D01*
X154508200Y-118111636D01*
X154289026Y-118030172D01*
X153942010Y-118262004D01*
X153670000Y-118623026D01*
X153397990Y-118262004D01*
X153050974Y-118030172D01*
X152831800Y-118111636D01*
X151968200Y-118111636D01*
X151749026Y-118030172D01*
X151402010Y-118262004D01*
X151144075Y-118604346D01*
X150940430Y-118299570D01*
X150444725Y-117968350D01*
X150007598Y-117881400D01*
X149712402Y-117881400D01*
X149275275Y-117968350D01*
X148779570Y-118299570D01*
X148448350Y-118795275D01*
X148332041Y-119380000D01*
X148448350Y-119964725D01*
X148525000Y-120079440D01*
X148525000Y-120618930D01*
X148398243Y-120808635D01*
X148348960Y-121056400D01*
X148348960Y-122783600D01*
X148398243Y-123031365D01*
X148525000Y-123221069D01*
X148525001Y-131975000D01*
X113095000Y-131975000D01*
X113095000Y-123221069D01*
X113221757Y-123031365D01*
X113237475Y-122952343D01*
X113302010Y-123037996D01*
X113649026Y-123269828D01*
X113868200Y-123188364D01*
X113868200Y-122351800D01*
X114731800Y-122351800D01*
X114731800Y-123188364D01*
X114950974Y-123269828D01*
X115297990Y-123037996D01*
X115570000Y-122676974D01*
X115842010Y-123037996D01*
X116189026Y-123269828D01*
X116408200Y-123188364D01*
X116408200Y-122351800D01*
X117271800Y-122351800D01*
X117271800Y-123188364D01*
X117490974Y-123269828D01*
X117837990Y-123037996D01*
X118110000Y-122676974D01*
X118382010Y-123037996D01*
X118729026Y-123269828D01*
X118948200Y-123188364D01*
X118948200Y-122351800D01*
X117271800Y-122351800D01*
X116408200Y-122351800D01*
X114731800Y-122351800D01*
X113868200Y-122351800D01*
X113707000Y-122351800D01*
X113707000Y-121488200D01*
X113868200Y-121488200D01*
X113868200Y-120651636D01*
X113863798Y-120650000D01*
X113868200Y-120648364D01*
X113868200Y-119811800D01*
X114731800Y-119811800D01*
X114731800Y-120648364D01*
X114736202Y-120650000D01*
X114731800Y-120651636D01*
X114731800Y-121488200D01*
X116408200Y-121488200D01*
X116408200Y-120651636D01*
X116403798Y-120650000D01*
X116408200Y-120648364D01*
X116408200Y-119811800D01*
X117271800Y-119811800D01*
X117271800Y-120648364D01*
X117276202Y-120650000D01*
X117271800Y-120651636D01*
X117271800Y-121488200D01*
X118948200Y-121488200D01*
X118948200Y-120651636D01*
X118943798Y-120650000D01*
X118948200Y-120648364D01*
X118948200Y-119811800D01*
X117271800Y-119811800D01*
X116408200Y-119811800D01*
X114731800Y-119811800D01*
X113868200Y-119811800D01*
X113707000Y-119811800D01*
X113707000Y-118948200D01*
X113868200Y-118948200D01*
X113868200Y-118111636D01*
X114731800Y-118111636D01*
X114731800Y-118948200D01*
X116408200Y-118948200D01*
X116408200Y-118111636D01*
X117271800Y-118111636D01*
X117271800Y-118948200D01*
X118948200Y-118948200D01*
X118948200Y-118111636D01*
X118729026Y-118030172D01*
X118382010Y-118262004D01*
X118110000Y-118623026D01*
X117837990Y-118262004D01*
X117490974Y-118030172D01*
X117271800Y-118111636D01*
X116408200Y-118111636D01*
X116189026Y-118030172D01*
X115842010Y-118262004D01*
X115570000Y-118623026D01*
X115297990Y-118262004D01*
X114950974Y-118030172D01*
X114731800Y-118111636D01*
X113868200Y-118111636D01*
X113649026Y-118030172D01*
X113302010Y-118262004D01*
X113044075Y-118604346D01*
X112840430Y-118299570D01*
X112344725Y-117968350D01*
X111907598Y-117881400D01*
X111612402Y-117881400D01*
X111175275Y-117968350D01*
X110679570Y-118299570D01*
X110348350Y-118795275D01*
X110232041Y-119380000D01*
X110348350Y-119964725D01*
X110425000Y-120079440D01*
X110425000Y-120618930D01*
X110298243Y-120808635D01*
X110248960Y-121056400D01*
X110248960Y-122783600D01*
X110298243Y-123031365D01*
X110425000Y-123221069D01*
X110425001Y-131975000D01*
X102193208Y-131975000D01*
X102195042Y-131970727D01*
X101600000Y-131375685D01*
X101004958Y-131970727D01*
X101006792Y-131975000D01*
X98383208Y-131975000D01*
X98385042Y-131970727D01*
X97790000Y-131375685D01*
X97194958Y-131970727D01*
X97206808Y-131998334D01*
X97166571Y-132015000D01*
X94145000Y-132015000D01*
X94145000Y-131908750D01*
X93986250Y-131750000D01*
X93110000Y-131750000D01*
X93110000Y-131943000D01*
X93063037Y-131943000D01*
X92995439Y-131915000D01*
X92424561Y-131915000D01*
X92356963Y-131943000D01*
X92310000Y-131943000D01*
X92310000Y-131750000D01*
X91433750Y-131750000D01*
X91275000Y-131908750D01*
X91275000Y-132276309D01*
X91371673Y-132509698D01*
X91465830Y-132603856D01*
X91393466Y-132778559D01*
X88347026Y-135825000D01*
X76265000Y-135825000D01*
X76265000Y-134723050D01*
X76287809Y-134707809D01*
X76428157Y-134497765D01*
X76477440Y-134250000D01*
X76477440Y-133958750D01*
X79745000Y-133958750D01*
X79745000Y-134376309D01*
X79841673Y-134609698D01*
X80020301Y-134788327D01*
X80253690Y-134885000D01*
X80671250Y-134885000D01*
X80830000Y-134726250D01*
X80830000Y-133800000D01*
X81730000Y-133800000D01*
X81730000Y-134726250D01*
X81888750Y-134885000D01*
X82306310Y-134885000D01*
X82539699Y-134788327D01*
X82718327Y-134609698D01*
X82815000Y-134376309D01*
X82815000Y-133958750D01*
X82656250Y-133800000D01*
X81730000Y-133800000D01*
X80830000Y-133800000D01*
X79903750Y-133800000D01*
X79745000Y-133958750D01*
X76477440Y-133958750D01*
X76477440Y-132450000D01*
X76428157Y-132202235D01*
X76287809Y-131992191D01*
X76077765Y-131851843D01*
X76062092Y-131848725D01*
X76231310Y-131679507D01*
X76465000Y-131115330D01*
X76465000Y-130504670D01*
X79745000Y-130504670D01*
X79745000Y-131115330D01*
X79978690Y-131679507D01*
X80155044Y-131855861D01*
X80020301Y-131911673D01*
X79841673Y-132090302D01*
X79745000Y-132323691D01*
X79745000Y-132741250D01*
X79903750Y-132900000D01*
X80830000Y-132900000D01*
X80830000Y-132757000D01*
X81730000Y-132757000D01*
X81730000Y-132900000D01*
X82656250Y-132900000D01*
X82815000Y-132741250D01*
X82815000Y-132323691D01*
X82718327Y-132090302D01*
X82539699Y-131911673D01*
X82404956Y-131855861D01*
X82581310Y-131679507D01*
X82815000Y-131115330D01*
X82815000Y-130504670D01*
X82781458Y-130423691D01*
X91275000Y-130423691D01*
X91275000Y-130791250D01*
X91433750Y-130950000D01*
X92310000Y-130950000D01*
X92310000Y-130073750D01*
X93110000Y-130073750D01*
X93110000Y-130950000D01*
X93986250Y-130950000D01*
X94065847Y-130870403D01*
X96328135Y-130870403D01*
X96416297Y-131313626D01*
X96629273Y-131405042D01*
X97224315Y-130810000D01*
X98355685Y-130810000D01*
X98950727Y-131405042D01*
X99163703Y-131313626D01*
X99232982Y-130870403D01*
X100138135Y-130870403D01*
X100226297Y-131313626D01*
X100439273Y-131405042D01*
X101034315Y-130810000D01*
X102165685Y-130810000D01*
X102760727Y-131405042D01*
X102973703Y-131313626D01*
X103061865Y-130749597D01*
X102973703Y-130306374D01*
X102760727Y-130214958D01*
X102165685Y-130810000D01*
X101034315Y-130810000D01*
X100439273Y-130214958D01*
X100226297Y-130306374D01*
X100138135Y-130870403D01*
X99232982Y-130870403D01*
X99251865Y-130749597D01*
X99163703Y-130306374D01*
X98950727Y-130214958D01*
X98355685Y-130810000D01*
X97224315Y-130810000D01*
X96629273Y-130214958D01*
X96416297Y-130306374D01*
X96328135Y-130870403D01*
X94065847Y-130870403D01*
X94145000Y-130791250D01*
X94145000Y-130423691D01*
X94048327Y-130190302D01*
X93869699Y-130011673D01*
X93636310Y-129915000D01*
X93268750Y-129915000D01*
X93110000Y-130073750D01*
X92310000Y-130073750D01*
X92151250Y-129915000D01*
X91783690Y-129915000D01*
X91550301Y-130011673D01*
X91371673Y-130190302D01*
X91275000Y-130423691D01*
X82781458Y-130423691D01*
X82615000Y-130021828D01*
X82615000Y-129649273D01*
X97194958Y-129649273D01*
X97790000Y-130244315D01*
X98385042Y-129649273D01*
X101004958Y-129649273D01*
X101600000Y-130244315D01*
X102195042Y-129649273D01*
X102103626Y-129436297D01*
X101539597Y-129348135D01*
X101096374Y-129436297D01*
X101004958Y-129649273D01*
X98385042Y-129649273D01*
X98293626Y-129436297D01*
X97729597Y-129348135D01*
X97286374Y-129436297D01*
X97194958Y-129649273D01*
X82615000Y-129649273D01*
X82615000Y-127584962D01*
X82631740Y-127559909D01*
X82743113Y-127000000D01*
X82631740Y-126440091D01*
X82314577Y-125965423D01*
X81839909Y-125648260D01*
X81421333Y-125565000D01*
X81138667Y-125565000D01*
X80720091Y-125648260D01*
X80245423Y-125965423D01*
X79928260Y-126440091D01*
X79816887Y-127000000D01*
X79928260Y-127559909D01*
X79945001Y-127584963D01*
X79945000Y-130021827D01*
X79745000Y-130504670D01*
X76465000Y-130504670D01*
X76265000Y-130021828D01*
X76265000Y-127584962D01*
X76281740Y-127559909D01*
X76393113Y-127000000D01*
X76281740Y-126440091D01*
X75964577Y-125965423D01*
X75489909Y-125648260D01*
X75071333Y-125565000D01*
X74788667Y-125565000D01*
X74370091Y-125648260D01*
X73895423Y-125965423D01*
X73578260Y-126440091D01*
X73466887Y-127000000D01*
X73578260Y-127559909D01*
X73595001Y-127584963D01*
X73595000Y-130021827D01*
X73395000Y-130504670D01*
X73395000Y-131115330D01*
X73628690Y-131679507D01*
X73797908Y-131848725D01*
X73782235Y-131851843D01*
X73572191Y-131992191D01*
X73431843Y-132202235D01*
X73382560Y-132450000D01*
X73382560Y-134250000D01*
X73431843Y-134497765D01*
X73572191Y-134707809D01*
X73595000Y-134723050D01*
X73595001Y-135825000D01*
X62295000Y-135825000D01*
X62295000Y-133958750D01*
X67045000Y-133958750D01*
X67045000Y-134376309D01*
X67141673Y-134609698D01*
X67320301Y-134788327D01*
X67553690Y-134885000D01*
X67971250Y-134885000D01*
X68130000Y-134726250D01*
X68130000Y-133800000D01*
X69030000Y-133800000D01*
X69030000Y-134726250D01*
X69188750Y-134885000D01*
X69606310Y-134885000D01*
X69839699Y-134788327D01*
X70018327Y-134609698D01*
X70115000Y-134376309D01*
X70115000Y-133958750D01*
X69956250Y-133800000D01*
X69030000Y-133800000D01*
X68130000Y-133800000D01*
X67203750Y-133800000D01*
X67045000Y-133958750D01*
X62295000Y-133958750D01*
X62295000Y-132066860D01*
X62395000Y-131825439D01*
X62395000Y-131254561D01*
X62204170Y-130793856D01*
X62298327Y-130699698D01*
X62379110Y-130504670D01*
X67045000Y-130504670D01*
X67045000Y-131115330D01*
X67278690Y-131679507D01*
X67455044Y-131855861D01*
X67320301Y-131911673D01*
X67141673Y-132090302D01*
X67045000Y-132323691D01*
X67045000Y-132741250D01*
X67203750Y-132900000D01*
X68130000Y-132900000D01*
X68130000Y-132757000D01*
X69030000Y-132757000D01*
X69030000Y-132900000D01*
X69956250Y-132900000D01*
X70115000Y-132741250D01*
X70115000Y-132323691D01*
X70018327Y-132090302D01*
X69839699Y-131911673D01*
X69704956Y-131855861D01*
X69881310Y-131679507D01*
X70115000Y-131115330D01*
X70115000Y-130504670D01*
X69915000Y-130021828D01*
X69915000Y-127584962D01*
X69931740Y-127559909D01*
X70043113Y-127000000D01*
X69931740Y-126440091D01*
X69614577Y-125965423D01*
X69139909Y-125648260D01*
X68721333Y-125565000D01*
X68438667Y-125565000D01*
X68020091Y-125648260D01*
X67545423Y-125965423D01*
X67228260Y-126440091D01*
X67116887Y-127000000D01*
X67228260Y-127559909D01*
X67245001Y-127584963D01*
X67245000Y-130021827D01*
X67045000Y-130504670D01*
X62379110Y-130504670D01*
X62395000Y-130466309D01*
X62395000Y-130098750D01*
X62236250Y-129940000D01*
X61360000Y-129940000D01*
X61360000Y-130133000D01*
X61313037Y-130133000D01*
X61245439Y-130105000D01*
X60674561Y-130105000D01*
X60606963Y-130133000D01*
X60560000Y-130133000D01*
X60560000Y-129940000D01*
X59683750Y-129940000D01*
X59525000Y-130098750D01*
X59525000Y-130466309D01*
X59621673Y-130699698D01*
X59715830Y-130793856D01*
X59525000Y-131254561D01*
X59525000Y-131825439D01*
X59625000Y-132066860D01*
X59625001Y-135825000D01*
X54344309Y-135825000D01*
X54288985Y-135769676D01*
X53686216Y-135520000D01*
X53033784Y-135520000D01*
X52431015Y-135769676D01*
X51969676Y-136231015D01*
X51720000Y-136833784D01*
X49673189Y-136833784D01*
X49900000Y-136286216D01*
X49900000Y-135633784D01*
X49650324Y-135031015D01*
X49188985Y-134569676D01*
X48586216Y-134320000D01*
X48507975Y-134320000D01*
X47055000Y-132867026D01*
X47055000Y-129863440D01*
X47133553Y-129847815D01*
X47687608Y-129477608D01*
X48057815Y-128923553D01*
X48119450Y-128613691D01*
X59525000Y-128613691D01*
X59525000Y-128981250D01*
X59683750Y-129140000D01*
X60560000Y-129140000D01*
X60560000Y-128263750D01*
X61360000Y-128263750D01*
X61360000Y-129140000D01*
X62236250Y-129140000D01*
X62395000Y-128981250D01*
X62395000Y-128613691D01*
X62298327Y-128380302D01*
X62119699Y-128201673D01*
X61886310Y-128105000D01*
X61518750Y-128105000D01*
X61360000Y-128263750D01*
X60560000Y-128263750D01*
X60401250Y-128105000D01*
X60033690Y-128105000D01*
X59800301Y-128201673D01*
X59621673Y-128380302D01*
X59525000Y-128613691D01*
X48119450Y-128613691D01*
X48187815Y-128270000D01*
X48057815Y-127616447D01*
X47687608Y-127062392D01*
X47133553Y-126692185D01*
X46644972Y-126595000D01*
X44795028Y-126595000D01*
X44306447Y-126692185D01*
X43752392Y-127062392D01*
X43382185Y-127616447D01*
X43252185Y-128270000D01*
X33705000Y-128270000D01*
X33705000Y-123952679D01*
X43468710Y-123952679D01*
X43689188Y-124344443D01*
X44227709Y-124742885D01*
X44877715Y-124904914D01*
X45147000Y-124737923D01*
X45147000Y-123710000D01*
X46293000Y-123710000D01*
X46293000Y-124737923D01*
X46562285Y-124904914D01*
X47212291Y-124742885D01*
X47750812Y-124344443D01*
X47971290Y-123952679D01*
X47938073Y-123832356D01*
X57716119Y-123832356D01*
X57949155Y-124181175D01*
X58412639Y-124528915D01*
X58630000Y-124454168D01*
X58630000Y-123615000D01*
X59480000Y-123615000D01*
X59480000Y-124454168D01*
X59697361Y-124528915D01*
X60160845Y-124181175D01*
X60393881Y-123832356D01*
X60311310Y-123615000D01*
X59480000Y-123615000D01*
X58630000Y-123615000D01*
X57798690Y-123615000D01*
X57716119Y-123832356D01*
X47938073Y-123832356D01*
X47904294Y-123710000D01*
X46293000Y-123710000D01*
X45147000Y-123710000D01*
X43535706Y-123710000D01*
X43468710Y-123952679D01*
X33705000Y-123952679D01*
X33705000Y-122427321D01*
X43468710Y-122427321D01*
X43535706Y-122670000D01*
X45147000Y-122670000D01*
X45147000Y-121642077D01*
X46293000Y-121642077D01*
X46293000Y-122670000D01*
X47904294Y-122670000D01*
X47971290Y-122427321D01*
X47750812Y-122035557D01*
X47212291Y-121637115D01*
X46562285Y-121475086D01*
X46293000Y-121642077D01*
X45147000Y-121642077D01*
X44877715Y-121475086D01*
X44227709Y-121637115D01*
X43689188Y-122035557D01*
X43468710Y-122427321D01*
X33705000Y-122427321D01*
X33705000Y-121292356D01*
X57716119Y-121292356D01*
X57949155Y-121641175D01*
X58320786Y-121920000D01*
X57949155Y-122198825D01*
X57716119Y-122547644D01*
X57798690Y-122765000D01*
X58630000Y-122765000D01*
X58630000Y-121925832D01*
X58613041Y-121920000D01*
X58630000Y-121914168D01*
X58630000Y-121075000D01*
X59480000Y-121075000D01*
X59480000Y-121914168D01*
X59496959Y-121920000D01*
X59480000Y-121925832D01*
X59480000Y-122765000D01*
X60311310Y-122765000D01*
X60393881Y-122547644D01*
X60160845Y-122198825D01*
X59789214Y-121920000D01*
X60160845Y-121641175D01*
X60393881Y-121292356D01*
X60311310Y-121075000D01*
X59480000Y-121075000D01*
X58630000Y-121075000D01*
X57798690Y-121075000D01*
X57716119Y-121292356D01*
X33705000Y-121292356D01*
X33705000Y-118110000D01*
X43252185Y-118110000D01*
X43382185Y-118763553D01*
X43752392Y-119317608D01*
X44306447Y-119687815D01*
X44795028Y-119785000D01*
X46644972Y-119785000D01*
X47133553Y-119687815D01*
X47496952Y-119445000D01*
X57787885Y-119445000D01*
X57957235Y-119558157D01*
X58056906Y-119577983D01*
X57949155Y-119658825D01*
X57716119Y-120007644D01*
X57798690Y-120225000D01*
X58630000Y-120225000D01*
X58630000Y-120057000D01*
X59480000Y-120057000D01*
X59480000Y-120225000D01*
X60311310Y-120225000D01*
X60393881Y-120007644D01*
X60160845Y-119658825D01*
X60053094Y-119577983D01*
X60152765Y-119558157D01*
X60362809Y-119417809D01*
X60503157Y-119207765D01*
X60552440Y-118960000D01*
X60552440Y-117260000D01*
X60503157Y-117012235D01*
X60362809Y-116802191D01*
X60152765Y-116661843D01*
X59905000Y-116612560D01*
X58205000Y-116612560D01*
X57957235Y-116661843D01*
X57787885Y-116775000D01*
X47496952Y-116775000D01*
X47133553Y-116532185D01*
X46644972Y-116435000D01*
X44795028Y-116435000D01*
X44306447Y-116532185D01*
X43752392Y-116902392D01*
X43382185Y-117456447D01*
X43252185Y-118110000D01*
X33705000Y-118110000D01*
X33705000Y-112239999D01*
X43272560Y-112239999D01*
X43272560Y-113820001D01*
X43340873Y-114163436D01*
X43535414Y-114454586D01*
X43826564Y-114649127D01*
X44169999Y-114717440D01*
X47270001Y-114717440D01*
X47613436Y-114649127D01*
X47904586Y-114454586D01*
X48099127Y-114163436D01*
X48167440Y-113820001D01*
X48167440Y-112239999D01*
X48099127Y-111896564D01*
X47904586Y-111605414D01*
X47613436Y-111410873D01*
X47270001Y-111342560D01*
X47055000Y-111342560D01*
X47055000Y-107302974D01*
X48507975Y-105850000D01*
X48586216Y-105850000D01*
X49188985Y-105600324D01*
X49650324Y-105138985D01*
X49673189Y-105083784D01*
X51720000Y-105083784D01*
X51720000Y-105736216D01*
X51969676Y-106338985D01*
X52431015Y-106800324D01*
X53033784Y-107050000D01*
X53112026Y-107050000D01*
X58673038Y-112611013D01*
X58747519Y-112722481D01*
X58858986Y-112796961D01*
X58953423Y-112860062D01*
X59189109Y-113017542D01*
X59578515Y-113095000D01*
X59578519Y-113095000D01*
X59709999Y-113121153D01*
X59823166Y-113098643D01*
X59912235Y-113158157D01*
X60160000Y-113207440D01*
X61760000Y-113207440D01*
X62007765Y-113158157D01*
X62102285Y-113095000D01*
X67071871Y-113095000D01*
X67122191Y-113170309D01*
X67245000Y-113252368D01*
X67245001Y-118853138D01*
X67145000Y-119094561D01*
X67145000Y-119665439D01*
X67363466Y-120192862D01*
X67767138Y-120596534D01*
X68008560Y-120696535D01*
X71353039Y-124041014D01*
X71427519Y-124152481D01*
X71869109Y-124447542D01*
X72258515Y-124525000D01*
X72258519Y-124525000D01*
X72390000Y-124551153D01*
X72521481Y-124525000D01*
X87108519Y-124525000D01*
X87240000Y-124551153D01*
X87371481Y-124525000D01*
X87371485Y-124525000D01*
X87760891Y-124447542D01*
X88202481Y-124152481D01*
X88276963Y-124041012D01*
X89237248Y-123080727D01*
X92114958Y-123080727D01*
X92206374Y-123293703D01*
X92770403Y-123381865D01*
X93213626Y-123293703D01*
X93305042Y-123080727D01*
X93265042Y-123040727D01*
X97194958Y-123040727D01*
X97286374Y-123253703D01*
X97850403Y-123341865D01*
X98293626Y-123253703D01*
X98385042Y-123040727D01*
X101004958Y-123040727D01*
X101096374Y-123253703D01*
X101660403Y-123341865D01*
X102103626Y-123253703D01*
X102195042Y-123040727D01*
X101600000Y-122445685D01*
X101004958Y-123040727D01*
X98385042Y-123040727D01*
X97790000Y-122445685D01*
X97194958Y-123040727D01*
X93265042Y-123040727D01*
X92710000Y-122485685D01*
X92114958Y-123080727D01*
X89237248Y-123080727D01*
X91062975Y-121255000D01*
X91309365Y-121255000D01*
X91272009Y-121292356D01*
X91378089Y-121398436D01*
X91336297Y-121416374D01*
X91248135Y-121980403D01*
X91336297Y-122423626D01*
X91549273Y-122515042D01*
X92144315Y-121920000D01*
X92007843Y-121783528D01*
X92423931Y-121367440D01*
X92996069Y-121367440D01*
X93412157Y-121783528D01*
X93275685Y-121920000D01*
X93870727Y-122515042D01*
X94083703Y-122423626D01*
X94171865Y-121859597D01*
X94083703Y-121416374D01*
X94041911Y-121398436D01*
X94147991Y-121292356D01*
X94110635Y-121255000D01*
X96354653Y-121255000D01*
X96458089Y-121358436D01*
X96416297Y-121376374D01*
X96328135Y-121940403D01*
X96416297Y-122383626D01*
X96629273Y-122475042D01*
X97224315Y-121880000D01*
X98355685Y-121880000D01*
X98950727Y-122475042D01*
X99163703Y-122383626D01*
X99232982Y-121940403D01*
X100138135Y-121940403D01*
X100226297Y-122383626D01*
X100439273Y-122475042D01*
X101034315Y-121880000D01*
X102165685Y-121880000D01*
X102760727Y-122475042D01*
X102973703Y-122383626D01*
X103061865Y-121819597D01*
X102973703Y-121376374D01*
X102760727Y-121284958D01*
X102165685Y-121880000D01*
X101034315Y-121880000D01*
X100439273Y-121284958D01*
X100226297Y-121376374D01*
X100138135Y-121940403D01*
X99232982Y-121940403D01*
X99251865Y-121819597D01*
X99163703Y-121376374D01*
X98950727Y-121284958D01*
X98355685Y-121880000D01*
X97224315Y-121880000D01*
X97087843Y-121743528D01*
X97624762Y-121206609D01*
X97672749Y-121197064D01*
X97790000Y-121314315D01*
X98385042Y-120719273D01*
X98383208Y-120715000D01*
X101006792Y-120715000D01*
X101004958Y-120719273D01*
X101600000Y-121314315D01*
X102195042Y-120719273D01*
X102193208Y-120715000D01*
X102738519Y-120715000D01*
X102870000Y-120741153D01*
X103001481Y-120715000D01*
X103001485Y-120715000D01*
X103390891Y-120637542D01*
X103832481Y-120342481D01*
X103906963Y-120231011D01*
X111042975Y-113095000D01*
X120585000Y-113095000D01*
X120585001Y-118536757D01*
X120377990Y-118262004D01*
X120030974Y-118030172D01*
X119811800Y-118111636D01*
X119811800Y-118948200D01*
X119973000Y-118948200D01*
X119973000Y-119811800D01*
X119811800Y-119811800D01*
X119811800Y-120648364D01*
X119816202Y-120650000D01*
X119811800Y-120651636D01*
X119811800Y-121488200D01*
X119973000Y-121488200D01*
X119973000Y-122351800D01*
X119811800Y-122351800D01*
X119811800Y-123188364D01*
X120030974Y-123269828D01*
X120377990Y-123037996D01*
X120585000Y-122763244D01*
X120585001Y-125598511D01*
X120558846Y-125730000D01*
X120662458Y-126250891D01*
X120957519Y-126692481D01*
X121399109Y-126987542D01*
X121788515Y-127065000D01*
X121788516Y-127065000D01*
X121920000Y-127091154D01*
X122051485Y-127065000D01*
X143378515Y-127065000D01*
X143510000Y-127091154D01*
X143641484Y-127065000D01*
X143641485Y-127065000D01*
X144030891Y-126987542D01*
X144472481Y-126692481D01*
X144767542Y-126250891D01*
X144767542Y-126250890D01*
X144845000Y-125861485D01*
X144845000Y-125861484D01*
X144871154Y-125730000D01*
X144845000Y-125598515D01*
X144845000Y-113095000D01*
X158685000Y-113095000D01*
X158685001Y-118536757D01*
X158477990Y-118262004D01*
X158130974Y-118030172D01*
X157911800Y-118111636D01*
X157911800Y-118948200D01*
X158073000Y-118948200D01*
X158073000Y-119811800D01*
X157911800Y-119811800D01*
X157911800Y-120648364D01*
X157916202Y-120650000D01*
X157911800Y-120651636D01*
X157911800Y-121488200D01*
X158073000Y-121488200D01*
X158073000Y-122351800D01*
X157911800Y-122351800D01*
X157911800Y-123188364D01*
X158130974Y-123269828D01*
X158477990Y-123037996D01*
X158685000Y-122763244D01*
X158685001Y-125598511D01*
X158658846Y-125730000D01*
X158762458Y-126250891D01*
X159057519Y-126692481D01*
X159499109Y-126987542D01*
X159888515Y-127065000D01*
X159888516Y-127065000D01*
X160020000Y-127091154D01*
X160151485Y-127065000D01*
X181478515Y-127065000D01*
X181610000Y-127091154D01*
X181741484Y-127065000D01*
X181741485Y-127065000D01*
X182130891Y-126987542D01*
X182572481Y-126692481D01*
X182867542Y-126250891D01*
X182867542Y-126250890D01*
X182945000Y-125861485D01*
X182945000Y-125861484D01*
X182971154Y-125730000D01*
X182945000Y-125598515D01*
X182945000Y-113095000D01*
X196785000Y-113095000D01*
X196785001Y-118536757D01*
X196577990Y-118262004D01*
X196230974Y-118030172D01*
X196011800Y-118111636D01*
X196011800Y-118948200D01*
X196173000Y-118948200D01*
X196173000Y-119811800D01*
X196011800Y-119811800D01*
X196011800Y-120648364D01*
X196016202Y-120650000D01*
X196011800Y-120651636D01*
X196011800Y-121488200D01*
X196173000Y-121488200D01*
X196173000Y-122351800D01*
X196011800Y-122351800D01*
X196011800Y-123188364D01*
X196230974Y-123269828D01*
X196577990Y-123037996D01*
X196835925Y-122695654D01*
X197039570Y-123000430D01*
X197535275Y-123331650D01*
X197972402Y-123418600D01*
X198267598Y-123418600D01*
X198704725Y-123331650D01*
X199200430Y-123000430D01*
X199390000Y-122716719D01*
X199579570Y-123000430D01*
X200075275Y-123331650D01*
X200512402Y-123418600D01*
X200807598Y-123418600D01*
X201244725Y-123331650D01*
X201740430Y-123000430D01*
X201930000Y-122716719D01*
X202119570Y-123000430D01*
X202615275Y-123331650D01*
X203052402Y-123418600D01*
X203347598Y-123418600D01*
X203784725Y-123331650D01*
X204280430Y-123000430D01*
X204470000Y-122716719D01*
X204659570Y-123000430D01*
X205155275Y-123331650D01*
X205592402Y-123418600D01*
X205887598Y-123418600D01*
X206324725Y-123331650D01*
X206820430Y-123000430D01*
X207151650Y-122504725D01*
X207267959Y-121920000D01*
X207151650Y-121335275D01*
X207075000Y-121220560D01*
X207075000Y-120079440D01*
X207151650Y-119964725D01*
X207267959Y-119380000D01*
X207151650Y-118795275D01*
X206820430Y-118299570D01*
X206324725Y-117968350D01*
X205887598Y-117881400D01*
X205592402Y-117881400D01*
X205155275Y-117968350D01*
X204659570Y-118299570D01*
X204470000Y-118583281D01*
X204280430Y-118299570D01*
X203784725Y-117968350D01*
X203347598Y-117881400D01*
X203052402Y-117881400D01*
X202615275Y-117968350D01*
X202119570Y-118299570D01*
X201995000Y-118486002D01*
X201995000Y-108081485D01*
X202021154Y-107950000D01*
X201964377Y-107664561D01*
X201917542Y-107429109D01*
X201622481Y-106987519D01*
X201180891Y-106692458D01*
X200809156Y-106618515D01*
X200791485Y-106615000D01*
X200660000Y-106588846D01*
X200528516Y-106615000D01*
X162691485Y-106615000D01*
X162560000Y-106588846D01*
X162428516Y-106615000D01*
X124591485Y-106615000D01*
X124460000Y-106588846D01*
X124328516Y-106615000D01*
X102126860Y-106615000D01*
X101885439Y-106515000D01*
X101314561Y-106515000D01*
X101073140Y-106615000D01*
X98356860Y-106615000D01*
X98115439Y-106515000D01*
X97544561Y-106515000D01*
X97017138Y-106733466D01*
X96613466Y-107137138D01*
X96606067Y-107155000D01*
X93852285Y-107155000D01*
X93757765Y-107091843D01*
X93510000Y-107042560D01*
X91910000Y-107042560D01*
X91662235Y-107091843D01*
X91567715Y-107155000D01*
X89761479Y-107155000D01*
X89629999Y-107128847D01*
X89498519Y-107155000D01*
X89498515Y-107155000D01*
X89109109Y-107232458D01*
X89093753Y-107242719D01*
X89200000Y-106986216D01*
X89200000Y-106333784D01*
X88950324Y-105731015D01*
X88488985Y-105269676D01*
X87886216Y-105020000D01*
X87807974Y-105020000D01*
X87346962Y-104558988D01*
X87272481Y-104447519D01*
X86830891Y-104152458D01*
X86441485Y-104075000D01*
X86441481Y-104075000D01*
X86310000Y-104048847D01*
X86178519Y-104075000D01*
X83567456Y-104075000D01*
X83547765Y-104061843D01*
X83300000Y-104012560D01*
X81800000Y-104012560D01*
X81552235Y-104061843D01*
X81532544Y-104075000D01*
X80397775Y-104075000D01*
X80146407Y-104025000D01*
X79873593Y-104025000D01*
X79469600Y-104105359D01*
X79011471Y-104411471D01*
X78791813Y-104740212D01*
X78187026Y-105345000D01*
X76072285Y-105345000D01*
X75977765Y-105281843D01*
X75730000Y-105232560D01*
X74130000Y-105232560D01*
X73882235Y-105281843D01*
X73787715Y-105345000D01*
X69486954Y-105345000D01*
X69246911Y-105184609D01*
X68783850Y-105092500D01*
X68376150Y-105092500D01*
X67913089Y-105184609D01*
X67387977Y-105535477D01*
X67037109Y-106060589D01*
X66913900Y-106680000D01*
X67037109Y-107299411D01*
X67387977Y-107824523D01*
X67610727Y-107973359D01*
X67355305Y-108165024D01*
X67111268Y-108512713D01*
X67185462Y-108743750D01*
X68080000Y-108743750D01*
X68080000Y-108627000D01*
X69080000Y-108627000D01*
X69080000Y-108743750D01*
X69974538Y-108743750D01*
X70048732Y-108512713D01*
X69804695Y-108165024D01*
X69604766Y-108015000D01*
X73529365Y-108015000D01*
X73492009Y-108052356D01*
X73598089Y-108158436D01*
X73556297Y-108176374D01*
X73468135Y-108740403D01*
X73556297Y-109183626D01*
X73769273Y-109275042D01*
X74364315Y-108680000D01*
X74227843Y-108543528D01*
X74643931Y-108127440D01*
X75216069Y-108127440D01*
X75632157Y-108543528D01*
X75495685Y-108680000D01*
X76090727Y-109275042D01*
X76303703Y-109183626D01*
X76391865Y-108619597D01*
X76303703Y-108176374D01*
X76261911Y-108158436D01*
X76367991Y-108052356D01*
X76330635Y-108015000D01*
X78608519Y-108015000D01*
X78740000Y-108041153D01*
X78871481Y-108015000D01*
X78871485Y-108015000D01*
X79260891Y-107937542D01*
X79702481Y-107642481D01*
X79776962Y-107531012D01*
X80562975Y-106745000D01*
X81532544Y-106745000D01*
X81552235Y-106758157D01*
X81800000Y-106807440D01*
X83300000Y-106807440D01*
X83547765Y-106758157D01*
X83567456Y-106745000D01*
X85757026Y-106745000D01*
X85920000Y-106907974D01*
X85920000Y-106986216D01*
X86169676Y-107588985D01*
X86631015Y-108050324D01*
X87233784Y-108300000D01*
X87886216Y-108300000D01*
X87964417Y-108267608D01*
X86112026Y-110120000D01*
X86033784Y-110120000D01*
X85431015Y-110369676D01*
X84969676Y-110831015D01*
X84720000Y-111433784D01*
X84720000Y-112086216D01*
X84969676Y-112688985D01*
X85025000Y-112744309D01*
X85025001Y-113747024D01*
X80708560Y-118063465D01*
X80467138Y-118163466D01*
X80063466Y-118567138D01*
X79845000Y-119094561D01*
X79845000Y-119665439D01*
X80063466Y-120192862D01*
X80467138Y-120596534D01*
X80994561Y-120815000D01*
X81565439Y-120815000D01*
X82092862Y-120596534D01*
X82496534Y-120192862D01*
X82596535Y-119951440D01*
X87211014Y-115336961D01*
X87322481Y-115262481D01*
X87617542Y-114820891D01*
X87695000Y-114431485D01*
X87695000Y-114431481D01*
X87721153Y-114300000D01*
X87695000Y-114168519D01*
X87695000Y-112744309D01*
X87750324Y-112688985D01*
X88000000Y-112086216D01*
X88000000Y-112007974D01*
X88357247Y-111650727D01*
X92114958Y-111650727D01*
X92206374Y-111863703D01*
X92770403Y-111951865D01*
X93213626Y-111863703D01*
X93305042Y-111650727D01*
X93265042Y-111610727D01*
X97234958Y-111610727D01*
X97326374Y-111823703D01*
X97890403Y-111911865D01*
X98333626Y-111823703D01*
X98425042Y-111610727D01*
X101004958Y-111610727D01*
X101096374Y-111823703D01*
X101660403Y-111911865D01*
X102103626Y-111823703D01*
X102195042Y-111610727D01*
X101600000Y-111015685D01*
X101004958Y-111610727D01*
X98425042Y-111610727D01*
X97830000Y-111015685D01*
X97234958Y-111610727D01*
X93265042Y-111610727D01*
X92710000Y-111055685D01*
X92114958Y-111650727D01*
X88357247Y-111650727D01*
X90182975Y-109825000D01*
X91309365Y-109825000D01*
X91272009Y-109862356D01*
X91378089Y-109968436D01*
X91336297Y-109986374D01*
X91248135Y-110550403D01*
X91336297Y-110993626D01*
X91549273Y-111085042D01*
X92144315Y-110490000D01*
X92007843Y-110353528D01*
X92423931Y-109937440D01*
X92996069Y-109937440D01*
X93412157Y-110353528D01*
X93275685Y-110490000D01*
X93870727Y-111085042D01*
X94083703Y-110993626D01*
X94171865Y-110429597D01*
X94083703Y-109986374D01*
X94041911Y-109968436D01*
X94147991Y-109862356D01*
X94110635Y-109825000D01*
X96394653Y-109825000D01*
X96498089Y-109928436D01*
X96456297Y-109946374D01*
X96368135Y-110510403D01*
X96456297Y-110953626D01*
X96669273Y-111045042D01*
X97264315Y-110450000D01*
X98395685Y-110450000D01*
X98990727Y-111045042D01*
X99203703Y-110953626D01*
X99272982Y-110510403D01*
X100138135Y-110510403D01*
X100226297Y-110953626D01*
X100439273Y-111045042D01*
X101034315Y-110450000D01*
X102165685Y-110450000D01*
X102760727Y-111045042D01*
X102973703Y-110953626D01*
X103061865Y-110389597D01*
X102973703Y-109946374D01*
X102760727Y-109854958D01*
X102165685Y-110450000D01*
X101034315Y-110450000D01*
X100439273Y-109854958D01*
X100226297Y-109946374D01*
X100138135Y-110510403D01*
X99272982Y-110510403D01*
X99291865Y-110389597D01*
X99203703Y-109946374D01*
X98990727Y-109854958D01*
X98395685Y-110450000D01*
X97264315Y-110450000D01*
X97127843Y-110313528D01*
X97664762Y-109776609D01*
X97712749Y-109767064D01*
X97830000Y-109884315D01*
X98425042Y-109289273D01*
X98423208Y-109285000D01*
X101006792Y-109285000D01*
X101004958Y-109289273D01*
X101600000Y-109884315D01*
X102195042Y-109289273D01*
X102193208Y-109285000D01*
X123125001Y-109285000D01*
X123125001Y-111160475D01*
X122882481Y-110797519D01*
X122440891Y-110502458D01*
X122051485Y-110425000D01*
X122051484Y-110425000D01*
X121920000Y-110398846D01*
X121788515Y-110425000D01*
X110621479Y-110425000D01*
X110489999Y-110398847D01*
X110358519Y-110425000D01*
X110358515Y-110425000D01*
X109969109Y-110502458D01*
X109883388Y-110559735D01*
X109655156Y-110712235D01*
X109527519Y-110797519D01*
X109453039Y-110908986D01*
X102317026Y-118045000D01*
X102126860Y-118045000D01*
X101885439Y-117945000D01*
X101314561Y-117945000D01*
X101073140Y-118045000D01*
X98316860Y-118045000D01*
X98075439Y-117945000D01*
X97504561Y-117945000D01*
X96977138Y-118163466D01*
X96573466Y-118567138D01*
X96566067Y-118585000D01*
X93852285Y-118585000D01*
X93757765Y-118521843D01*
X93510000Y-118472560D01*
X91910000Y-118472560D01*
X91662235Y-118521843D01*
X91567715Y-118585000D01*
X90641479Y-118585000D01*
X90509999Y-118558847D01*
X90378519Y-118585000D01*
X90378515Y-118585000D01*
X89989109Y-118662458D01*
X89837810Y-118763553D01*
X89675156Y-118872235D01*
X89547519Y-118957519D01*
X89473039Y-119068986D01*
X86687026Y-121855000D01*
X72942975Y-121855000D01*
X71628702Y-120540727D01*
X74334958Y-120540727D01*
X74426374Y-120753703D01*
X74990403Y-120841865D01*
X75433626Y-120753703D01*
X75525042Y-120540727D01*
X74930000Y-119945685D01*
X74334958Y-120540727D01*
X71628702Y-120540727D01*
X70528378Y-119440403D01*
X73468135Y-119440403D01*
X73556297Y-119883626D01*
X73769273Y-119975042D01*
X74364315Y-119380000D01*
X75495685Y-119380000D01*
X76090727Y-119975042D01*
X76303703Y-119883626D01*
X76391865Y-119319597D01*
X76303703Y-118876374D01*
X76090727Y-118784958D01*
X75495685Y-119380000D01*
X74364315Y-119380000D01*
X73769273Y-118784958D01*
X73556297Y-118876374D01*
X73468135Y-119440403D01*
X70528378Y-119440403D01*
X69915000Y-118827026D01*
X69915000Y-118219273D01*
X74334958Y-118219273D01*
X74930000Y-118814315D01*
X75525042Y-118219273D01*
X75433626Y-118006297D01*
X74869597Y-117918135D01*
X74426374Y-118006297D01*
X74334958Y-118219273D01*
X69915000Y-118219273D01*
X69915000Y-113252368D01*
X70037809Y-113170309D01*
X70088129Y-113095000D01*
X78187026Y-113095000D01*
X78612560Y-113520535D01*
X78612560Y-113780000D01*
X78661843Y-114027765D01*
X78802191Y-114237809D01*
X79012235Y-114378157D01*
X79260000Y-114427440D01*
X80760000Y-114427440D01*
X81007765Y-114378157D01*
X81217809Y-114237809D01*
X81358157Y-114027765D01*
X81407440Y-113780000D01*
X81407440Y-113768389D01*
X81609114Y-114046386D01*
X81971048Y-114288189D01*
X82175000Y-114197503D01*
X82175000Y-113405000D01*
X82925000Y-113405000D01*
X82925000Y-114197503D01*
X83128952Y-114288189D01*
X83490886Y-114046386D01*
X83808220Y-113608957D01*
X83724548Y-113405000D01*
X82925000Y-113405000D01*
X82175000Y-113405000D01*
X81957000Y-113405000D01*
X81957000Y-112655000D01*
X82175000Y-112655000D01*
X82175000Y-111862497D01*
X82925000Y-111862497D01*
X82925000Y-112655000D01*
X83724548Y-112655000D01*
X83808220Y-112451043D01*
X83490886Y-112013614D01*
X83128952Y-111771811D01*
X82925000Y-111862497D01*
X82175000Y-111862497D01*
X81971048Y-111771811D01*
X81609114Y-112013614D01*
X81407440Y-112291611D01*
X81407440Y-112280000D01*
X81358157Y-112032235D01*
X81217809Y-111822191D01*
X81007765Y-111681843D01*
X80760000Y-111632560D01*
X80500535Y-111632560D01*
X79776962Y-110908988D01*
X79702481Y-110797519D01*
X79260891Y-110502458D01*
X78871485Y-110425000D01*
X78871481Y-110425000D01*
X78740000Y-110398847D01*
X78608519Y-110425000D01*
X70088129Y-110425000D01*
X70037809Y-110349691D01*
X69843420Y-110219803D01*
X70048732Y-109927287D01*
X70020935Y-109840727D01*
X74334958Y-109840727D01*
X74426374Y-110053703D01*
X74990403Y-110141865D01*
X75433626Y-110053703D01*
X75525042Y-109840727D01*
X74930000Y-109245685D01*
X74334958Y-109840727D01*
X70020935Y-109840727D01*
X69974538Y-109696250D01*
X69080000Y-109696250D01*
X69080000Y-109813000D01*
X68080000Y-109813000D01*
X68080000Y-109696250D01*
X67185462Y-109696250D01*
X67111268Y-109927287D01*
X67316580Y-110219803D01*
X67122191Y-110349691D01*
X67071871Y-110425000D01*
X62360635Y-110425000D01*
X62397991Y-110387644D01*
X62291911Y-110281564D01*
X62333703Y-110263626D01*
X62421865Y-109699597D01*
X62333703Y-109256374D01*
X62120727Y-109164958D01*
X61525685Y-109760000D01*
X61662157Y-109896472D01*
X61246069Y-110312560D01*
X60673931Y-110312560D01*
X60257843Y-109896472D01*
X60394315Y-109760000D01*
X59799273Y-109164958D01*
X59586297Y-109256374D01*
X59519796Y-109681822D01*
X58437247Y-108599273D01*
X60364958Y-108599273D01*
X60960000Y-109194315D01*
X61555042Y-108599273D01*
X61463626Y-108386297D01*
X60899597Y-108298135D01*
X60456374Y-108386297D01*
X60364958Y-108599273D01*
X58437247Y-108599273D01*
X55000000Y-105162026D01*
X55000000Y-105083784D01*
X54750324Y-104481015D01*
X54288985Y-104019676D01*
X53686216Y-103770000D01*
X53033784Y-103770000D01*
X52431015Y-104019676D01*
X51969676Y-104481015D01*
X51720000Y-105083784D01*
X49673189Y-105083784D01*
X49900000Y-104536216D01*
X49900000Y-103883784D01*
X49650324Y-103281015D01*
X49188985Y-102819676D01*
X48586216Y-102570000D01*
X47933784Y-102570000D01*
X47331015Y-102819676D01*
X46869676Y-103281015D01*
X46620000Y-103883784D01*
X46620000Y-103962025D01*
X44868986Y-105713040D01*
X44757520Y-105787519D01*
X44683040Y-105898986D01*
X44683039Y-105898987D01*
X44462458Y-106229110D01*
X44358847Y-106750000D01*
X44385001Y-106881485D01*
X44385000Y-111342560D01*
X44169999Y-111342560D01*
X43826564Y-111410873D01*
X43535414Y-111605414D01*
X43340873Y-111896564D01*
X43272560Y-112239999D01*
X33705000Y-112239999D01*
X33705000Y-101630505D01*
X33757162Y-101046029D01*
X35315000Y-101046029D01*
X35315000Y-102153971D01*
X35738991Y-103177576D01*
X36522424Y-103961009D01*
X37546029Y-104385000D01*
X38653971Y-104385000D01*
X39677576Y-103961009D01*
X40461009Y-103177576D01*
X40885000Y-102153971D01*
X40885000Y-101046029D01*
X124215000Y-101046029D01*
X124215000Y-102153971D01*
X124638991Y-103177576D01*
X125422424Y-103961009D01*
X126446029Y-104385000D01*
X127553971Y-104385000D01*
X128577576Y-103961009D01*
X129361009Y-103177576D01*
X129785000Y-102153971D01*
X129785000Y-101046029D01*
X213115000Y-101046029D01*
X213115000Y-102153971D01*
X213538991Y-103177576D01*
X214322424Y-103961009D01*
X215346029Y-104385000D01*
X216453971Y-104385000D01*
X217477576Y-103961009D01*
X218261009Y-103177576D01*
X218685000Y-102153971D01*
X218685000Y-101046029D01*
X218261009Y-100022424D01*
X217477576Y-99238991D01*
X216453971Y-98815000D01*
X215346029Y-98815000D01*
X214322424Y-99238991D01*
X213538991Y-100022424D01*
X213115000Y-101046029D01*
X129785000Y-101046029D01*
X129361009Y-100022424D01*
X128577576Y-99238991D01*
X127553971Y-98815000D01*
X126446029Y-98815000D01*
X125422424Y-99238991D01*
X124638991Y-100022424D01*
X124215000Y-101046029D01*
X40885000Y-101046029D01*
X40461009Y-100022424D01*
X39677576Y-99238991D01*
X38653971Y-98815000D01*
X37546029Y-98815000D01*
X36522424Y-99238991D01*
X35738991Y-100022424D01*
X35315000Y-101046029D01*
X33757162Y-101046029D01*
X33777139Y-100822197D01*
X33983197Y-100068977D01*
X34319384Y-99364148D01*
X34775065Y-98729998D01*
X35335851Y-98186559D01*
X35984001Y-97751019D01*
X36699043Y-97437138D01*
X37463636Y-97253576D01*
X38125112Y-97205000D01*
X198187952Y-97205000D01*
X216565150Y-97267085D01*
X216565150Y-97267085D01*
G37*
X216565150Y-97267085D02*
X216677803Y-97277139D01*
X217431023Y-97483197D01*
X218135852Y-97819384D01*
X218770002Y-98275065D01*
X219313441Y-98835851D01*
X219748981Y-99484001D01*
X220062862Y-100199043D01*
X220246424Y-100963636D01*
X220295000Y-101625112D01*
X220295001Y-139669483D01*
X220222861Y-140477805D01*
X220016803Y-141231023D01*
X219680616Y-141935852D01*
X219224932Y-142570005D01*
X218664149Y-143113441D01*
X218015996Y-143548982D01*
X217300956Y-143862863D01*
X216536364Y-144046424D01*
X215874887Y-144095000D01*
X38130506Y-144095000D01*
X37322195Y-144022861D01*
X36568977Y-143816803D01*
X35864148Y-143480616D01*
X35229995Y-143024932D01*
X34686559Y-142464149D01*
X34251018Y-141815996D01*
X33937137Y-141100956D01*
X33753576Y-140336364D01*
X33705000Y-139674887D01*
X33705000Y-139146029D01*
X35315000Y-139146029D01*
X35315000Y-140253971D01*
X35738991Y-141277576D01*
X36522424Y-142061009D01*
X37546029Y-142485000D01*
X38653971Y-142485000D01*
X39677576Y-142061009D01*
X40461009Y-141277576D01*
X40885000Y-140253971D01*
X40885000Y-139146029D01*
X124215000Y-139146029D01*
X124215000Y-140253971D01*
X124638991Y-141277576D01*
X125422424Y-142061009D01*
X126446029Y-142485000D01*
X127553971Y-142485000D01*
X128577576Y-142061009D01*
X129361009Y-141277576D01*
X129785000Y-140253971D01*
X129785000Y-139146029D01*
X213115000Y-139146029D01*
X213115000Y-140253971D01*
X213538991Y-141277576D01*
X214322424Y-142061009D01*
X215346029Y-142485000D01*
X216453971Y-142485000D01*
X217477576Y-142061009D01*
X218261009Y-141277576D01*
X218685000Y-140253971D01*
X218685000Y-139146029D01*
X218261009Y-138122424D01*
X217477576Y-137338991D01*
X216453971Y-136915000D01*
X215346029Y-136915000D01*
X214322424Y-137338991D01*
X213538991Y-138122424D01*
X213115000Y-139146029D01*
X129785000Y-139146029D01*
X129361009Y-138122424D01*
X128577576Y-137338991D01*
X127553971Y-136915000D01*
X126446029Y-136915000D01*
X125422424Y-137338991D01*
X124638991Y-138122424D01*
X124215000Y-139146029D01*
X40885000Y-139146029D01*
X40461009Y-138122424D01*
X39677576Y-137338991D01*
X38653971Y-136915000D01*
X37546029Y-136915000D01*
X36522424Y-137338991D01*
X35738991Y-138122424D01*
X35315000Y-139146029D01*
X33705000Y-139146029D01*
X33705000Y-128270000D01*
X43252185Y-128270000D01*
X43382185Y-128923553D01*
X43752392Y-129477608D01*
X44306447Y-129847815D01*
X44385000Y-129863440D01*
X44385001Y-133288515D01*
X44358847Y-133420000D01*
X44462458Y-133940890D01*
X44636268Y-134201014D01*
X44757520Y-134382481D01*
X44868986Y-134456960D01*
X46620000Y-136207975D01*
X46620000Y-136286216D01*
X46869676Y-136888985D01*
X47331015Y-137350324D01*
X47933784Y-137600000D01*
X48586216Y-137600000D01*
X49188985Y-137350324D01*
X49650324Y-136888985D01*
X49673189Y-136833784D01*
X51720000Y-136833784D01*
X51720000Y-137486216D01*
X51969676Y-138088985D01*
X52431015Y-138550324D01*
X53033784Y-138800000D01*
X53686216Y-138800000D01*
X54288985Y-138550324D01*
X54344309Y-138495000D01*
X60828516Y-138495000D01*
X60960000Y-138521154D01*
X61091485Y-138495000D01*
X74798516Y-138495000D01*
X74930000Y-138521154D01*
X75061485Y-138495000D01*
X88768519Y-138495000D01*
X88900000Y-138521153D01*
X89031481Y-138495000D01*
X89031485Y-138495000D01*
X89420891Y-138417542D01*
X89862481Y-138122481D01*
X89936963Y-138011012D01*
X93262975Y-134685000D01*
X97359708Y-134685000D01*
X97504561Y-134745000D01*
X98075439Y-134745000D01*
X98316860Y-134645000D01*
X101073140Y-134645000D01*
X101314561Y-134745000D01*
X101885439Y-134745000D01*
X102126860Y-134645000D01*
X111628516Y-134645000D01*
X111760000Y-134671154D01*
X111891485Y-134645000D01*
X149728516Y-134645000D01*
X149860000Y-134671154D01*
X149991485Y-134645000D01*
X187788519Y-134645000D01*
X187920000Y-134671153D01*
X188051481Y-134645000D01*
X188051485Y-134645000D01*
X188440891Y-134567542D01*
X188882481Y-134272481D01*
X188898503Y-134248503D01*
X188922481Y-134232481D01*
X189217542Y-133790891D01*
X189295000Y-133401485D01*
X189295000Y-133401484D01*
X189321154Y-133270000D01*
X189295000Y-133138515D01*
X189295000Y-123221069D01*
X189421757Y-123031365D01*
X189437475Y-122952343D01*
X189502010Y-123037996D01*
X189849026Y-123269828D01*
X190068200Y-123188364D01*
X190068200Y-122351800D01*
X190931800Y-122351800D01*
X190931800Y-123188364D01*
X191150974Y-123269828D01*
X191497990Y-123037996D01*
X191770000Y-122676974D01*
X192042010Y-123037996D01*
X192389026Y-123269828D01*
X192608200Y-123188364D01*
X192608200Y-122351800D01*
X193471800Y-122351800D01*
X193471800Y-123188364D01*
X193690974Y-123269828D01*
X194037990Y-123037996D01*
X194310000Y-122676974D01*
X194582010Y-123037996D01*
X194929026Y-123269828D01*
X195148200Y-123188364D01*
X195148200Y-122351800D01*
X193471800Y-122351800D01*
X192608200Y-122351800D01*
X190931800Y-122351800D01*
X190068200Y-122351800D01*
X189907000Y-122351800D01*
X189907000Y-121488200D01*
X190068200Y-121488200D01*
X190068200Y-120651636D01*
X190063798Y-120650000D01*
X190068200Y-120648364D01*
X190068200Y-119811800D01*
X190931800Y-119811800D01*
X190931800Y-120648364D01*
X190936202Y-120650000D01*
X190931800Y-120651636D01*
X190931800Y-121488200D01*
X192608200Y-121488200D01*
X192608200Y-120651636D01*
X192603798Y-120650000D01*
X192608200Y-120648364D01*
X192608200Y-119811800D01*
X193471800Y-119811800D01*
X193471800Y-120648364D01*
X193476202Y-120650000D01*
X193471800Y-120651636D01*
X193471800Y-121488200D01*
X195148200Y-121488200D01*
X195148200Y-120651636D01*
X195143798Y-120650000D01*
X195148200Y-120648364D01*
X195148200Y-119811800D01*
X193471800Y-119811800D01*
X192608200Y-119811800D01*
X190931800Y-119811800D01*
X190068200Y-119811800D01*
X189907000Y-119811800D01*
X189907000Y-118948200D01*
X190068200Y-118948200D01*
X190068200Y-118111636D01*
X190931800Y-118111636D01*
X190931800Y-118948200D01*
X192608200Y-118948200D01*
X192608200Y-118111636D01*
X193471800Y-118111636D01*
X193471800Y-118948200D01*
X195148200Y-118948200D01*
X195148200Y-118111636D01*
X194929026Y-118030172D01*
X194582010Y-118262004D01*
X194310000Y-118623026D01*
X194037990Y-118262004D01*
X193690974Y-118030172D01*
X193471800Y-118111636D01*
X192608200Y-118111636D01*
X192389026Y-118030172D01*
X192042010Y-118262004D01*
X191770000Y-118623026D01*
X191497990Y-118262004D01*
X191150974Y-118030172D01*
X190931800Y-118111636D01*
X190068200Y-118111636D01*
X189849026Y-118030172D01*
X189502010Y-118262004D01*
X189244075Y-118604346D01*
X189040430Y-118299570D01*
X188544725Y-117968350D01*
X188107598Y-117881400D01*
X187812402Y-117881400D01*
X187375275Y-117968350D01*
X186879570Y-118299570D01*
X186548350Y-118795275D01*
X186432041Y-119380000D01*
X186548350Y-119964725D01*
X186625000Y-120079440D01*
X186625000Y-120618930D01*
X186498243Y-120808635D01*
X186448960Y-121056400D01*
X186448960Y-122783600D01*
X186498243Y-123031365D01*
X186625000Y-123221069D01*
X186625001Y-131975000D01*
X151195000Y-131975000D01*
X151195000Y-123221069D01*
X151321757Y-123031365D01*
X151337475Y-122952343D01*
X151402010Y-123037996D01*
X151749026Y-123269828D01*
X151968200Y-123188364D01*
X151968200Y-122351800D01*
X152831800Y-122351800D01*
X152831800Y-123188364D01*
X153050974Y-123269828D01*
X153397990Y-123037996D01*
X153670000Y-122676974D01*
X153942010Y-123037996D01*
X154289026Y-123269828D01*
X154508200Y-123188364D01*
X154508200Y-122351800D01*
X155371800Y-122351800D01*
X155371800Y-123188364D01*
X155590974Y-123269828D01*
X155937990Y-123037996D01*
X156210000Y-122676974D01*
X156482010Y-123037996D01*
X156829026Y-123269828D01*
X157048200Y-123188364D01*
X157048200Y-122351800D01*
X155371800Y-122351800D01*
X154508200Y-122351800D01*
X152831800Y-122351800D01*
X151968200Y-122351800D01*
X151807000Y-122351800D01*
X151807000Y-121488200D01*
X151968200Y-121488200D01*
X151968200Y-120651636D01*
X151963798Y-120650000D01*
X151968200Y-120648364D01*
X151968200Y-119811800D01*
X152831800Y-119811800D01*
X152831800Y-120648364D01*
X152836202Y-120650000D01*
X152831800Y-120651636D01*
X152831800Y-121488200D01*
X154508200Y-121488200D01*
X154508200Y-120651636D01*
X154503798Y-120650000D01*
X154508200Y-120648364D01*
X154508200Y-119811800D01*
X155371800Y-119811800D01*
X155371800Y-120648364D01*
X155376202Y-120650000D01*
X155371800Y-120651636D01*
X155371800Y-121488200D01*
X157048200Y-121488200D01*
X157048200Y-120651636D01*
X157043798Y-120650000D01*
X157048200Y-120648364D01*
X157048200Y-119811800D01*
X155371800Y-119811800D01*
X154508200Y-119811800D01*
X152831800Y-119811800D01*
X151968200Y-119811800D01*
X151807000Y-119811800D01*
X151807000Y-118948200D01*
X151968200Y-118948200D01*
X151968200Y-118111636D01*
X152831800Y-118111636D01*
X152831800Y-118948200D01*
X154508200Y-118948200D01*
X154508200Y-118111636D01*
X155371800Y-118111636D01*
X155371800Y-118948200D01*
X157048200Y-118948200D01*
X157048200Y-118111636D01*
X156829026Y-118030172D01*
X156482010Y-118262004D01*
X156210000Y-118623026D01*
X155937990Y-118262004D01*
X155590974Y-118030172D01*
X155371800Y-118111636D01*
X154508200Y-118111636D01*
X154289026Y-118030172D01*
X153942010Y-118262004D01*
X153670000Y-118623026D01*
X153397990Y-118262004D01*
X153050974Y-118030172D01*
X152831800Y-118111636D01*
X151968200Y-118111636D01*
X151749026Y-118030172D01*
X151402010Y-118262004D01*
X151144075Y-118604346D01*
X150940430Y-118299570D01*
X150444725Y-117968350D01*
X150007598Y-117881400D01*
X149712402Y-117881400D01*
X149275275Y-117968350D01*
X148779570Y-118299570D01*
X148448350Y-118795275D01*
X148332041Y-119380000D01*
X148448350Y-119964725D01*
X148525000Y-120079440D01*
X148525000Y-120618930D01*
X148398243Y-120808635D01*
X148348960Y-121056400D01*
X148348960Y-122783600D01*
X148398243Y-123031365D01*
X148525000Y-123221069D01*
X148525001Y-131975000D01*
X113095000Y-131975000D01*
X113095000Y-123221069D01*
X113221757Y-123031365D01*
X113237475Y-122952343D01*
X113302010Y-123037996D01*
X113649026Y-123269828D01*
X113868200Y-123188364D01*
X113868200Y-122351800D01*
X114731800Y-122351800D01*
X114731800Y-123188364D01*
X114950974Y-123269828D01*
X115297990Y-123037996D01*
X115570000Y-122676974D01*
X115842010Y-123037996D01*
X116189026Y-123269828D01*
X116408200Y-123188364D01*
X116408200Y-122351800D01*
X117271800Y-122351800D01*
X117271800Y-123188364D01*
X117490974Y-123269828D01*
X117837990Y-123037996D01*
X118110000Y-122676974D01*
X118382010Y-123037996D01*
X118729026Y-123269828D01*
X118948200Y-123188364D01*
X118948200Y-122351800D01*
X117271800Y-122351800D01*
X116408200Y-122351800D01*
X114731800Y-122351800D01*
X113868200Y-122351800D01*
X113707000Y-122351800D01*
X113707000Y-121488200D01*
X113868200Y-121488200D01*
X113868200Y-120651636D01*
X113863798Y-120650000D01*
X113868200Y-120648364D01*
X113868200Y-119811800D01*
X114731800Y-119811800D01*
X114731800Y-120648364D01*
X114736202Y-120650000D01*
X114731800Y-120651636D01*
X114731800Y-121488200D01*
X116408200Y-121488200D01*
X116408200Y-120651636D01*
X116403798Y-120650000D01*
X116408200Y-120648364D01*
X116408200Y-119811800D01*
X117271800Y-119811800D01*
X117271800Y-120648364D01*
X117276202Y-120650000D01*
X117271800Y-120651636D01*
X117271800Y-121488200D01*
X118948200Y-121488200D01*
X118948200Y-120651636D01*
X118943798Y-120650000D01*
X118948200Y-120648364D01*
X118948200Y-119811800D01*
X117271800Y-119811800D01*
X116408200Y-119811800D01*
X114731800Y-119811800D01*
X113868200Y-119811800D01*
X113707000Y-119811800D01*
X113707000Y-118948200D01*
X113868200Y-118948200D01*
X113868200Y-118111636D01*
X114731800Y-118111636D01*
X114731800Y-118948200D01*
X116408200Y-118948200D01*
X116408200Y-118111636D01*
X117271800Y-118111636D01*
X117271800Y-118948200D01*
X118948200Y-118948200D01*
X118948200Y-118111636D01*
X118729026Y-118030172D01*
X118382010Y-118262004D01*
X118110000Y-118623026D01*
X117837990Y-118262004D01*
X117490974Y-118030172D01*
X117271800Y-118111636D01*
X116408200Y-118111636D01*
X116189026Y-118030172D01*
X115842010Y-118262004D01*
X115570000Y-118623026D01*
X115297990Y-118262004D01*
X114950974Y-118030172D01*
X114731800Y-118111636D01*
X113868200Y-118111636D01*
X113649026Y-118030172D01*
X113302010Y-118262004D01*
X113044075Y-118604346D01*
X112840430Y-118299570D01*
X112344725Y-117968350D01*
X111907598Y-117881400D01*
X111612402Y-117881400D01*
X111175275Y-117968350D01*
X110679570Y-118299570D01*
X110348350Y-118795275D01*
X110232041Y-119380000D01*
X110348350Y-119964725D01*
X110425000Y-120079440D01*
X110425000Y-120618930D01*
X110298243Y-120808635D01*
X110248960Y-121056400D01*
X110248960Y-122783600D01*
X110298243Y-123031365D01*
X110425000Y-123221069D01*
X110425001Y-131975000D01*
X102193208Y-131975000D01*
X102195042Y-131970727D01*
X101600000Y-131375685D01*
X101004958Y-131970727D01*
X101006792Y-131975000D01*
X98383208Y-131975000D01*
X98385042Y-131970727D01*
X97790000Y-131375685D01*
X97194958Y-131970727D01*
X97206808Y-131998334D01*
X97166571Y-132015000D01*
X94145000Y-132015000D01*
X94145000Y-131908750D01*
X93986250Y-131750000D01*
X93110000Y-131750000D01*
X93110000Y-131943000D01*
X93063037Y-131943000D01*
X92995439Y-131915000D01*
X92424561Y-131915000D01*
X92356963Y-131943000D01*
X92310000Y-131943000D01*
X92310000Y-131750000D01*
X91433750Y-131750000D01*
X91275000Y-131908750D01*
X91275000Y-132276309D01*
X91371673Y-132509698D01*
X91465830Y-132603856D01*
X91393466Y-132778559D01*
X88347026Y-135825000D01*
X76265000Y-135825000D01*
X76265000Y-134723050D01*
X76287809Y-134707809D01*
X76428157Y-134497765D01*
X76477440Y-134250000D01*
X76477440Y-133958750D01*
X79745000Y-133958750D01*
X79745000Y-134376309D01*
X79841673Y-134609698D01*
X80020301Y-134788327D01*
X80253690Y-134885000D01*
X80671250Y-134885000D01*
X80830000Y-134726250D01*
X80830000Y-133800000D01*
X81730000Y-133800000D01*
X81730000Y-134726250D01*
X81888750Y-134885000D01*
X82306310Y-134885000D01*
X82539699Y-134788327D01*
X82718327Y-134609698D01*
X82815000Y-134376309D01*
X82815000Y-133958750D01*
X82656250Y-133800000D01*
X81730000Y-133800000D01*
X80830000Y-133800000D01*
X79903750Y-133800000D01*
X79745000Y-133958750D01*
X76477440Y-133958750D01*
X76477440Y-132450000D01*
X76428157Y-132202235D01*
X76287809Y-131992191D01*
X76077765Y-131851843D01*
X76062092Y-131848725D01*
X76231310Y-131679507D01*
X76465000Y-131115330D01*
X76465000Y-130504670D01*
X79745000Y-130504670D01*
X79745000Y-131115330D01*
X79978690Y-131679507D01*
X80155044Y-131855861D01*
X80020301Y-131911673D01*
X79841673Y-132090302D01*
X79745000Y-132323691D01*
X79745000Y-132741250D01*
X79903750Y-132900000D01*
X80830000Y-132900000D01*
X80830000Y-132757000D01*
X81730000Y-132757000D01*
X81730000Y-132900000D01*
X82656250Y-132900000D01*
X82815000Y-132741250D01*
X82815000Y-132323691D01*
X82718327Y-132090302D01*
X82539699Y-131911673D01*
X82404956Y-131855861D01*
X82581310Y-131679507D01*
X82815000Y-131115330D01*
X82815000Y-130504670D01*
X82781458Y-130423691D01*
X91275000Y-130423691D01*
X91275000Y-130791250D01*
X91433750Y-130950000D01*
X92310000Y-130950000D01*
X92310000Y-130073750D01*
X93110000Y-130073750D01*
X93110000Y-130950000D01*
X93986250Y-130950000D01*
X94065847Y-130870403D01*
X96328135Y-130870403D01*
X96416297Y-131313626D01*
X96629273Y-131405042D01*
X97224315Y-130810000D01*
X98355685Y-130810000D01*
X98950727Y-131405042D01*
X99163703Y-131313626D01*
X99232982Y-130870403D01*
X100138135Y-130870403D01*
X100226297Y-131313626D01*
X100439273Y-131405042D01*
X101034315Y-130810000D01*
X102165685Y-130810000D01*
X102760727Y-131405042D01*
X102973703Y-131313626D01*
X103061865Y-130749597D01*
X102973703Y-130306374D01*
X102760727Y-130214958D01*
X102165685Y-130810000D01*
X101034315Y-130810000D01*
X100439273Y-130214958D01*
X100226297Y-130306374D01*
X100138135Y-130870403D01*
X99232982Y-130870403D01*
X99251865Y-130749597D01*
X99163703Y-130306374D01*
X98950727Y-130214958D01*
X98355685Y-130810000D01*
X97224315Y-130810000D01*
X96629273Y-130214958D01*
X96416297Y-130306374D01*
X96328135Y-130870403D01*
X94065847Y-130870403D01*
X94145000Y-130791250D01*
X94145000Y-130423691D01*
X94048327Y-130190302D01*
X93869699Y-130011673D01*
X93636310Y-129915000D01*
X93268750Y-129915000D01*
X93110000Y-130073750D01*
X92310000Y-130073750D01*
X92151250Y-129915000D01*
X91783690Y-129915000D01*
X91550301Y-130011673D01*
X91371673Y-130190302D01*
X91275000Y-130423691D01*
X82781458Y-130423691D01*
X82615000Y-130021828D01*
X82615000Y-129649273D01*
X97194958Y-129649273D01*
X97790000Y-130244315D01*
X98385042Y-129649273D01*
X101004958Y-129649273D01*
X101600000Y-130244315D01*
X102195042Y-129649273D01*
X102103626Y-129436297D01*
X101539597Y-129348135D01*
X101096374Y-129436297D01*
X101004958Y-129649273D01*
X98385042Y-129649273D01*
X98293626Y-129436297D01*
X97729597Y-129348135D01*
X97286374Y-129436297D01*
X97194958Y-129649273D01*
X82615000Y-129649273D01*
X82615000Y-127584962D01*
X82631740Y-127559909D01*
X82743113Y-127000000D01*
X82631740Y-126440091D01*
X82314577Y-125965423D01*
X81839909Y-125648260D01*
X81421333Y-125565000D01*
X81138667Y-125565000D01*
X80720091Y-125648260D01*
X80245423Y-125965423D01*
X79928260Y-126440091D01*
X79816887Y-127000000D01*
X79928260Y-127559909D01*
X79945001Y-127584963D01*
X79945000Y-130021827D01*
X79745000Y-130504670D01*
X76465000Y-130504670D01*
X76265000Y-130021828D01*
X76265000Y-127584962D01*
X76281740Y-127559909D01*
X76393113Y-127000000D01*
X76281740Y-126440091D01*
X75964577Y-125965423D01*
X75489909Y-125648260D01*
X75071333Y-125565000D01*
X74788667Y-125565000D01*
X74370091Y-125648260D01*
X73895423Y-125965423D01*
X73578260Y-126440091D01*
X73466887Y-127000000D01*
X73578260Y-127559909D01*
X73595001Y-127584963D01*
X73595000Y-130021827D01*
X73395000Y-130504670D01*
X73395000Y-131115330D01*
X73628690Y-131679507D01*
X73797908Y-131848725D01*
X73782235Y-131851843D01*
X73572191Y-131992191D01*
X73431843Y-132202235D01*
X73382560Y-132450000D01*
X73382560Y-134250000D01*
X73431843Y-134497765D01*
X73572191Y-134707809D01*
X73595000Y-134723050D01*
X73595001Y-135825000D01*
X62295000Y-135825000D01*
X62295000Y-133958750D01*
X67045000Y-133958750D01*
X67045000Y-134376309D01*
X67141673Y-134609698D01*
X67320301Y-134788327D01*
X67553690Y-134885000D01*
X67971250Y-134885000D01*
X68130000Y-134726250D01*
X68130000Y-133800000D01*
X69030000Y-133800000D01*
X69030000Y-134726250D01*
X69188750Y-134885000D01*
X69606310Y-134885000D01*
X69839699Y-134788327D01*
X70018327Y-134609698D01*
X70115000Y-134376309D01*
X70115000Y-133958750D01*
X69956250Y-133800000D01*
X69030000Y-133800000D01*
X68130000Y-133800000D01*
X67203750Y-133800000D01*
X67045000Y-133958750D01*
X62295000Y-133958750D01*
X62295000Y-132066860D01*
X62395000Y-131825439D01*
X62395000Y-131254561D01*
X62204170Y-130793856D01*
X62298327Y-130699698D01*
X62379110Y-130504670D01*
X67045000Y-130504670D01*
X67045000Y-131115330D01*
X67278690Y-131679507D01*
X67455044Y-131855861D01*
X67320301Y-131911673D01*
X67141673Y-132090302D01*
X67045000Y-132323691D01*
X67045000Y-132741250D01*
X67203750Y-132900000D01*
X68130000Y-132900000D01*
X68130000Y-132757000D01*
X69030000Y-132757000D01*
X69030000Y-132900000D01*
X69956250Y-132900000D01*
X70115000Y-132741250D01*
X70115000Y-132323691D01*
X70018327Y-132090302D01*
X69839699Y-131911673D01*
X69704956Y-131855861D01*
X69881310Y-131679507D01*
X70115000Y-131115330D01*
X70115000Y-130504670D01*
X69915000Y-130021828D01*
X69915000Y-127584962D01*
X69931740Y-127559909D01*
X70043113Y-127000000D01*
X69931740Y-126440091D01*
X69614577Y-125965423D01*
X69139909Y-125648260D01*
X68721333Y-125565000D01*
X68438667Y-125565000D01*
X68020091Y-125648260D01*
X67545423Y-125965423D01*
X67228260Y-126440091D01*
X67116887Y-127000000D01*
X67228260Y-127559909D01*
X67245001Y-127584963D01*
X67245000Y-130021827D01*
X67045000Y-130504670D01*
X62379110Y-130504670D01*
X62395000Y-130466309D01*
X62395000Y-130098750D01*
X62236250Y-129940000D01*
X61360000Y-129940000D01*
X61360000Y-130133000D01*
X61313037Y-130133000D01*
X61245439Y-130105000D01*
X60674561Y-130105000D01*
X60606963Y-130133000D01*
X60560000Y-130133000D01*
X60560000Y-129940000D01*
X59683750Y-129940000D01*
X59525000Y-130098750D01*
X59525000Y-130466309D01*
X59621673Y-130699698D01*
X59715830Y-130793856D01*
X59525000Y-131254561D01*
X59525000Y-131825439D01*
X59625000Y-132066860D01*
X59625001Y-135825000D01*
X54344309Y-135825000D01*
X54288985Y-135769676D01*
X53686216Y-135520000D01*
X53033784Y-135520000D01*
X52431015Y-135769676D01*
X51969676Y-136231015D01*
X51720000Y-136833784D01*
X49673189Y-136833784D01*
X49900000Y-136286216D01*
X49900000Y-135633784D01*
X49650324Y-135031015D01*
X49188985Y-134569676D01*
X48586216Y-134320000D01*
X48507975Y-134320000D01*
X47055000Y-132867026D01*
X47055000Y-129863440D01*
X47133553Y-129847815D01*
X47687608Y-129477608D01*
X48057815Y-128923553D01*
X48119450Y-128613691D01*
X59525000Y-128613691D01*
X59525000Y-128981250D01*
X59683750Y-129140000D01*
X60560000Y-129140000D01*
X60560000Y-128263750D01*
X61360000Y-128263750D01*
X61360000Y-129140000D01*
X62236250Y-129140000D01*
X62395000Y-128981250D01*
X62395000Y-128613691D01*
X62298327Y-128380302D01*
X62119699Y-128201673D01*
X61886310Y-128105000D01*
X61518750Y-128105000D01*
X61360000Y-128263750D01*
X60560000Y-128263750D01*
X60401250Y-128105000D01*
X60033690Y-128105000D01*
X59800301Y-128201673D01*
X59621673Y-128380302D01*
X59525000Y-128613691D01*
X48119450Y-128613691D01*
X48187815Y-128270000D01*
X48057815Y-127616447D01*
X47687608Y-127062392D01*
X47133553Y-126692185D01*
X46644972Y-126595000D01*
X44795028Y-126595000D01*
X44306447Y-126692185D01*
X43752392Y-127062392D01*
X43382185Y-127616447D01*
X43252185Y-128270000D01*
X33705000Y-128270000D01*
X33705000Y-123952679D01*
X43468710Y-123952679D01*
X43689188Y-124344443D01*
X44227709Y-124742885D01*
X44877715Y-124904914D01*
X45147000Y-124737923D01*
X45147000Y-123710000D01*
X46293000Y-123710000D01*
X46293000Y-124737923D01*
X46562285Y-124904914D01*
X47212291Y-124742885D01*
X47750812Y-124344443D01*
X47971290Y-123952679D01*
X47938073Y-123832356D01*
X57716119Y-123832356D01*
X57949155Y-124181175D01*
X58412639Y-124528915D01*
X58630000Y-124454168D01*
X58630000Y-123615000D01*
X59480000Y-123615000D01*
X59480000Y-124454168D01*
X59697361Y-124528915D01*
X60160845Y-124181175D01*
X60393881Y-123832356D01*
X60311310Y-123615000D01*
X59480000Y-123615000D01*
X58630000Y-123615000D01*
X57798690Y-123615000D01*
X57716119Y-123832356D01*
X47938073Y-123832356D01*
X47904294Y-123710000D01*
X46293000Y-123710000D01*
X45147000Y-123710000D01*
X43535706Y-123710000D01*
X43468710Y-123952679D01*
X33705000Y-123952679D01*
X33705000Y-122427321D01*
X43468710Y-122427321D01*
X43535706Y-122670000D01*
X45147000Y-122670000D01*
X45147000Y-121642077D01*
X46293000Y-121642077D01*
X46293000Y-122670000D01*
X47904294Y-122670000D01*
X47971290Y-122427321D01*
X47750812Y-122035557D01*
X47212291Y-121637115D01*
X46562285Y-121475086D01*
X46293000Y-121642077D01*
X45147000Y-121642077D01*
X44877715Y-121475086D01*
X44227709Y-121637115D01*
X43689188Y-122035557D01*
X43468710Y-122427321D01*
X33705000Y-122427321D01*
X33705000Y-121292356D01*
X57716119Y-121292356D01*
X57949155Y-121641175D01*
X58320786Y-121920000D01*
X57949155Y-122198825D01*
X57716119Y-122547644D01*
X57798690Y-122765000D01*
X58630000Y-122765000D01*
X58630000Y-121925832D01*
X58613041Y-121920000D01*
X58630000Y-121914168D01*
X58630000Y-121075000D01*
X59480000Y-121075000D01*
X59480000Y-121914168D01*
X59496959Y-121920000D01*
X59480000Y-121925832D01*
X59480000Y-122765000D01*
X60311310Y-122765000D01*
X60393881Y-122547644D01*
X60160845Y-122198825D01*
X59789214Y-121920000D01*
X60160845Y-121641175D01*
X60393881Y-121292356D01*
X60311310Y-121075000D01*
X59480000Y-121075000D01*
X58630000Y-121075000D01*
X57798690Y-121075000D01*
X57716119Y-121292356D01*
X33705000Y-121292356D01*
X33705000Y-118110000D01*
X43252185Y-118110000D01*
X43382185Y-118763553D01*
X43752392Y-119317608D01*
X44306447Y-119687815D01*
X44795028Y-119785000D01*
X46644972Y-119785000D01*
X47133553Y-119687815D01*
X47496952Y-119445000D01*
X57787885Y-119445000D01*
X57957235Y-119558157D01*
X58056906Y-119577983D01*
X57949155Y-119658825D01*
X57716119Y-120007644D01*
X57798690Y-120225000D01*
X58630000Y-120225000D01*
X58630000Y-120057000D01*
X59480000Y-120057000D01*
X59480000Y-120225000D01*
X60311310Y-120225000D01*
X60393881Y-120007644D01*
X60160845Y-119658825D01*
X60053094Y-119577983D01*
X60152765Y-119558157D01*
X60362809Y-119417809D01*
X60503157Y-119207765D01*
X60552440Y-118960000D01*
X60552440Y-117260000D01*
X60503157Y-117012235D01*
X60362809Y-116802191D01*
X60152765Y-116661843D01*
X59905000Y-116612560D01*
X58205000Y-116612560D01*
X57957235Y-116661843D01*
X57787885Y-116775000D01*
X47496952Y-116775000D01*
X47133553Y-116532185D01*
X46644972Y-116435000D01*
X44795028Y-116435000D01*
X44306447Y-116532185D01*
X43752392Y-116902392D01*
X43382185Y-117456447D01*
X43252185Y-118110000D01*
X33705000Y-118110000D01*
X33705000Y-112239999D01*
X43272560Y-112239999D01*
X43272560Y-113820001D01*
X43340873Y-114163436D01*
X43535414Y-114454586D01*
X43826564Y-114649127D01*
X44169999Y-114717440D01*
X47270001Y-114717440D01*
X47613436Y-114649127D01*
X47904586Y-114454586D01*
X48099127Y-114163436D01*
X48167440Y-113820001D01*
X48167440Y-112239999D01*
X48099127Y-111896564D01*
X47904586Y-111605414D01*
X47613436Y-111410873D01*
X47270001Y-111342560D01*
X47055000Y-111342560D01*
X47055000Y-107302974D01*
X48507975Y-105850000D01*
X48586216Y-105850000D01*
X49188985Y-105600324D01*
X49650324Y-105138985D01*
X49673189Y-105083784D01*
X51720000Y-105083784D01*
X51720000Y-105736216D01*
X51969676Y-106338985D01*
X52431015Y-106800324D01*
X53033784Y-107050000D01*
X53112026Y-107050000D01*
X58673038Y-112611013D01*
X58747519Y-112722481D01*
X58858986Y-112796961D01*
X58953423Y-112860062D01*
X59189109Y-113017542D01*
X59578515Y-113095000D01*
X59578519Y-113095000D01*
X59709999Y-113121153D01*
X59823166Y-113098643D01*
X59912235Y-113158157D01*
X60160000Y-113207440D01*
X61760000Y-113207440D01*
X62007765Y-113158157D01*
X62102285Y-113095000D01*
X67071871Y-113095000D01*
X67122191Y-113170309D01*
X67245000Y-113252368D01*
X67245001Y-118853138D01*
X67145000Y-119094561D01*
X67145000Y-119665439D01*
X67363466Y-120192862D01*
X67767138Y-120596534D01*
X68008560Y-120696535D01*
X71353039Y-124041014D01*
X71427519Y-124152481D01*
X71869109Y-124447542D01*
X72258515Y-124525000D01*
X72258519Y-124525000D01*
X72390000Y-124551153D01*
X72521481Y-124525000D01*
X87108519Y-124525000D01*
X87240000Y-124551153D01*
X87371481Y-124525000D01*
X87371485Y-124525000D01*
X87760891Y-124447542D01*
X88202481Y-124152481D01*
X88276963Y-124041012D01*
X89237248Y-123080727D01*
X92114958Y-123080727D01*
X92206374Y-123293703D01*
X92770403Y-123381865D01*
X93213626Y-123293703D01*
X93305042Y-123080727D01*
X93265042Y-123040727D01*
X97194958Y-123040727D01*
X97286374Y-123253703D01*
X97850403Y-123341865D01*
X98293626Y-123253703D01*
X98385042Y-123040727D01*
X101004958Y-123040727D01*
X101096374Y-123253703D01*
X101660403Y-123341865D01*
X102103626Y-123253703D01*
X102195042Y-123040727D01*
X101600000Y-122445685D01*
X101004958Y-123040727D01*
X98385042Y-123040727D01*
X97790000Y-122445685D01*
X97194958Y-123040727D01*
X93265042Y-123040727D01*
X92710000Y-122485685D01*
X92114958Y-123080727D01*
X89237248Y-123080727D01*
X91062975Y-121255000D01*
X91309365Y-121255000D01*
X91272009Y-121292356D01*
X91378089Y-121398436D01*
X91336297Y-121416374D01*
X91248135Y-121980403D01*
X91336297Y-122423626D01*
X91549273Y-122515042D01*
X92144315Y-121920000D01*
X92007843Y-121783528D01*
X92423931Y-121367440D01*
X92996069Y-121367440D01*
X93412157Y-121783528D01*
X93275685Y-121920000D01*
X93870727Y-122515042D01*
X94083703Y-122423626D01*
X94171865Y-121859597D01*
X94083703Y-121416374D01*
X94041911Y-121398436D01*
X94147991Y-121292356D01*
X94110635Y-121255000D01*
X96354653Y-121255000D01*
X96458089Y-121358436D01*
X96416297Y-121376374D01*
X96328135Y-121940403D01*
X96416297Y-122383626D01*
X96629273Y-122475042D01*
X97224315Y-121880000D01*
X98355685Y-121880000D01*
X98950727Y-122475042D01*
X99163703Y-122383626D01*
X99232982Y-121940403D01*
X100138135Y-121940403D01*
X100226297Y-122383626D01*
X100439273Y-122475042D01*
X101034315Y-121880000D01*
X102165685Y-121880000D01*
X102760727Y-122475042D01*
X102973703Y-122383626D01*
X103061865Y-121819597D01*
X102973703Y-121376374D01*
X102760727Y-121284958D01*
X102165685Y-121880000D01*
X101034315Y-121880000D01*
X100439273Y-121284958D01*
X100226297Y-121376374D01*
X100138135Y-121940403D01*
X99232982Y-121940403D01*
X99251865Y-121819597D01*
X99163703Y-121376374D01*
X98950727Y-121284958D01*
X98355685Y-121880000D01*
X97224315Y-121880000D01*
X97087843Y-121743528D01*
X97624762Y-121206609D01*
X97672749Y-121197064D01*
X97790000Y-121314315D01*
X98385042Y-120719273D01*
X98383208Y-120715000D01*
X101006792Y-120715000D01*
X101004958Y-120719273D01*
X101600000Y-121314315D01*
X102195042Y-120719273D01*
X102193208Y-120715000D01*
X102738519Y-120715000D01*
X102870000Y-120741153D01*
X103001481Y-120715000D01*
X103001485Y-120715000D01*
X103390891Y-120637542D01*
X103832481Y-120342481D01*
X103906963Y-120231011D01*
X111042975Y-113095000D01*
X120585000Y-113095000D01*
X120585001Y-118536757D01*
X120377990Y-118262004D01*
X120030974Y-118030172D01*
X119811800Y-118111636D01*
X119811800Y-118948200D01*
X119973000Y-118948200D01*
X119973000Y-119811800D01*
X119811800Y-119811800D01*
X119811800Y-120648364D01*
X119816202Y-120650000D01*
X119811800Y-120651636D01*
X119811800Y-121488200D01*
X119973000Y-121488200D01*
X119973000Y-122351800D01*
X119811800Y-122351800D01*
X119811800Y-123188364D01*
X120030974Y-123269828D01*
X120377990Y-123037996D01*
X120585000Y-122763244D01*
X120585001Y-125598511D01*
X120558846Y-125730000D01*
X120662458Y-126250891D01*
X120957519Y-126692481D01*
X121399109Y-126987542D01*
X121788515Y-127065000D01*
X121788516Y-127065000D01*
X121920000Y-127091154D01*
X122051485Y-127065000D01*
X143378515Y-127065000D01*
X143510000Y-127091154D01*
X143641484Y-127065000D01*
X143641485Y-127065000D01*
X144030891Y-126987542D01*
X144472481Y-126692481D01*
X144767542Y-126250891D01*
X144767542Y-126250890D01*
X144845000Y-125861485D01*
X144845000Y-125861484D01*
X144871154Y-125730000D01*
X144845000Y-125598515D01*
X144845000Y-113095000D01*
X158685000Y-113095000D01*
X158685001Y-118536757D01*
X158477990Y-118262004D01*
X158130974Y-118030172D01*
X157911800Y-118111636D01*
X157911800Y-118948200D01*
X158073000Y-118948200D01*
X158073000Y-119811800D01*
X157911800Y-119811800D01*
X157911800Y-120648364D01*
X157916202Y-120650000D01*
X157911800Y-120651636D01*
X157911800Y-121488200D01*
X158073000Y-121488200D01*
X158073000Y-122351800D01*
X157911800Y-122351800D01*
X157911800Y-123188364D01*
X158130974Y-123269828D01*
X158477990Y-123037996D01*
X158685000Y-122763244D01*
X158685001Y-125598511D01*
X158658846Y-125730000D01*
X158762458Y-126250891D01*
X159057519Y-126692481D01*
X159499109Y-126987542D01*
X159888515Y-127065000D01*
X159888516Y-127065000D01*
X160020000Y-127091154D01*
X160151485Y-127065000D01*
X181478515Y-127065000D01*
X181610000Y-127091154D01*
X181741484Y-127065000D01*
X181741485Y-127065000D01*
X182130891Y-126987542D01*
X182572481Y-126692481D01*
X182867542Y-126250891D01*
X182867542Y-126250890D01*
X182945000Y-125861485D01*
X182945000Y-125861484D01*
X182971154Y-125730000D01*
X182945000Y-125598515D01*
X182945000Y-113095000D01*
X196785000Y-113095000D01*
X196785001Y-118536757D01*
X196577990Y-118262004D01*
X196230974Y-118030172D01*
X196011800Y-118111636D01*
X196011800Y-118948200D01*
X196173000Y-118948200D01*
X196173000Y-119811800D01*
X196011800Y-119811800D01*
X196011800Y-120648364D01*
X196016202Y-120650000D01*
X196011800Y-120651636D01*
X196011800Y-121488200D01*
X196173000Y-121488200D01*
X196173000Y-122351800D01*
X196011800Y-122351800D01*
X196011800Y-123188364D01*
X196230974Y-123269828D01*
X196577990Y-123037996D01*
X196835925Y-122695654D01*
X197039570Y-123000430D01*
X197535275Y-123331650D01*
X197972402Y-123418600D01*
X198267598Y-123418600D01*
X198704725Y-123331650D01*
X199200430Y-123000430D01*
X199390000Y-122716719D01*
X199579570Y-123000430D01*
X200075275Y-123331650D01*
X200512402Y-123418600D01*
X200807598Y-123418600D01*
X201244725Y-123331650D01*
X201740430Y-123000430D01*
X201930000Y-122716719D01*
X202119570Y-123000430D01*
X202615275Y-123331650D01*
X203052402Y-123418600D01*
X203347598Y-123418600D01*
X203784725Y-123331650D01*
X204280430Y-123000430D01*
X204470000Y-122716719D01*
X204659570Y-123000430D01*
X205155275Y-123331650D01*
X205592402Y-123418600D01*
X205887598Y-123418600D01*
X206324725Y-123331650D01*
X206820430Y-123000430D01*
X207151650Y-122504725D01*
X207267959Y-121920000D01*
X207151650Y-121335275D01*
X207075000Y-121220560D01*
X207075000Y-120079440D01*
X207151650Y-119964725D01*
X207267959Y-119380000D01*
X207151650Y-118795275D01*
X206820430Y-118299570D01*
X206324725Y-117968350D01*
X205887598Y-117881400D01*
X205592402Y-117881400D01*
X205155275Y-117968350D01*
X204659570Y-118299570D01*
X204470000Y-118583281D01*
X204280430Y-118299570D01*
X203784725Y-117968350D01*
X203347598Y-117881400D01*
X203052402Y-117881400D01*
X202615275Y-117968350D01*
X202119570Y-118299570D01*
X201995000Y-118486002D01*
X201995000Y-108081485D01*
X202021154Y-107950000D01*
X201964377Y-107664561D01*
X201917542Y-107429109D01*
X201622481Y-106987519D01*
X201180891Y-106692458D01*
X200809156Y-106618515D01*
X200791485Y-106615000D01*
X200660000Y-106588846D01*
X200528516Y-106615000D01*
X162691485Y-106615000D01*
X162560000Y-106588846D01*
X162428516Y-106615000D01*
X124591485Y-106615000D01*
X124460000Y-106588846D01*
X124328516Y-106615000D01*
X102126860Y-106615000D01*
X101885439Y-106515000D01*
X101314561Y-106515000D01*
X101073140Y-106615000D01*
X98356860Y-106615000D01*
X98115439Y-106515000D01*
X97544561Y-106515000D01*
X97017138Y-106733466D01*
X96613466Y-107137138D01*
X96606067Y-107155000D01*
X93852285Y-107155000D01*
X93757765Y-107091843D01*
X93510000Y-107042560D01*
X91910000Y-107042560D01*
X91662235Y-107091843D01*
X91567715Y-107155000D01*
X89761479Y-107155000D01*
X89629999Y-107128847D01*
X89498519Y-107155000D01*
X89498515Y-107155000D01*
X89109109Y-107232458D01*
X89093753Y-107242719D01*
X89200000Y-106986216D01*
X89200000Y-106333784D01*
X88950324Y-105731015D01*
X88488985Y-105269676D01*
X87886216Y-105020000D01*
X87807974Y-105020000D01*
X87346962Y-104558988D01*
X87272481Y-104447519D01*
X86830891Y-104152458D01*
X86441485Y-104075000D01*
X86441481Y-104075000D01*
X86310000Y-104048847D01*
X86178519Y-104075000D01*
X83567456Y-104075000D01*
X83547765Y-104061843D01*
X83300000Y-104012560D01*
X81800000Y-104012560D01*
X81552235Y-104061843D01*
X81532544Y-104075000D01*
X80397775Y-104075000D01*
X80146407Y-104025000D01*
X79873593Y-104025000D01*
X79469600Y-104105359D01*
X79011471Y-104411471D01*
X78791813Y-104740212D01*
X78187026Y-105345000D01*
X76072285Y-105345000D01*
X75977765Y-105281843D01*
X75730000Y-105232560D01*
X74130000Y-105232560D01*
X73882235Y-105281843D01*
X73787715Y-105345000D01*
X69486954Y-105345000D01*
X69246911Y-105184609D01*
X68783850Y-105092500D01*
X68376150Y-105092500D01*
X67913089Y-105184609D01*
X67387977Y-105535477D01*
X67037109Y-106060589D01*
X66913900Y-106680000D01*
X67037109Y-107299411D01*
X67387977Y-107824523D01*
X67610727Y-107973359D01*
X67355305Y-108165024D01*
X67111268Y-108512713D01*
X67185462Y-108743750D01*
X68080000Y-108743750D01*
X68080000Y-108627000D01*
X69080000Y-108627000D01*
X69080000Y-108743750D01*
X69974538Y-108743750D01*
X70048732Y-108512713D01*
X69804695Y-108165024D01*
X69604766Y-108015000D01*
X73529365Y-108015000D01*
X73492009Y-108052356D01*
X73598089Y-108158436D01*
X73556297Y-108176374D01*
X73468135Y-108740403D01*
X73556297Y-109183626D01*
X73769273Y-109275042D01*
X74364315Y-108680000D01*
X74227843Y-108543528D01*
X74643931Y-108127440D01*
X75216069Y-108127440D01*
X75632157Y-108543528D01*
X75495685Y-108680000D01*
X76090727Y-109275042D01*
X76303703Y-109183626D01*
X76391865Y-108619597D01*
X76303703Y-108176374D01*
X76261911Y-108158436D01*
X76367991Y-108052356D01*
X76330635Y-108015000D01*
X78608519Y-108015000D01*
X78740000Y-108041153D01*
X78871481Y-108015000D01*
X78871485Y-108015000D01*
X79260891Y-107937542D01*
X79702481Y-107642481D01*
X79776962Y-107531012D01*
X80562975Y-106745000D01*
X81532544Y-106745000D01*
X81552235Y-106758157D01*
X81800000Y-106807440D01*
X83300000Y-106807440D01*
X83547765Y-106758157D01*
X83567456Y-106745000D01*
X85757026Y-106745000D01*
X85920000Y-106907974D01*
X85920000Y-106986216D01*
X86169676Y-107588985D01*
X86631015Y-108050324D01*
X87233784Y-108300000D01*
X87886216Y-108300000D01*
X87964417Y-108267608D01*
X86112026Y-110120000D01*
X86033784Y-110120000D01*
X85431015Y-110369676D01*
X84969676Y-110831015D01*
X84720000Y-111433784D01*
X84720000Y-112086216D01*
X84969676Y-112688985D01*
X85025000Y-112744309D01*
X85025001Y-113747024D01*
X80708560Y-118063465D01*
X80467138Y-118163466D01*
X80063466Y-118567138D01*
X79845000Y-119094561D01*
X79845000Y-119665439D01*
X80063466Y-120192862D01*
X80467138Y-120596534D01*
X80994561Y-120815000D01*
X81565439Y-120815000D01*
X82092862Y-120596534D01*
X82496534Y-120192862D01*
X82596535Y-119951440D01*
X87211014Y-115336961D01*
X87322481Y-115262481D01*
X87617542Y-114820891D01*
X87695000Y-114431485D01*
X87695000Y-114431481D01*
X87721153Y-114300000D01*
X87695000Y-114168519D01*
X87695000Y-112744309D01*
X87750324Y-112688985D01*
X88000000Y-112086216D01*
X88000000Y-112007974D01*
X88357247Y-111650727D01*
X92114958Y-111650727D01*
X92206374Y-111863703D01*
X92770403Y-111951865D01*
X93213626Y-111863703D01*
X93305042Y-111650727D01*
X93265042Y-111610727D01*
X97234958Y-111610727D01*
X97326374Y-111823703D01*
X97890403Y-111911865D01*
X98333626Y-111823703D01*
X98425042Y-111610727D01*
X101004958Y-111610727D01*
X101096374Y-111823703D01*
X101660403Y-111911865D01*
X102103626Y-111823703D01*
X102195042Y-111610727D01*
X101600000Y-111015685D01*
X101004958Y-111610727D01*
X98425042Y-111610727D01*
X97830000Y-111015685D01*
X97234958Y-111610727D01*
X93265042Y-111610727D01*
X92710000Y-111055685D01*
X92114958Y-111650727D01*
X88357247Y-111650727D01*
X90182975Y-109825000D01*
X91309365Y-109825000D01*
X91272009Y-109862356D01*
X91378089Y-109968436D01*
X91336297Y-109986374D01*
X91248135Y-110550403D01*
X91336297Y-110993626D01*
X91549273Y-111085042D01*
X92144315Y-110490000D01*
X92007843Y-110353528D01*
X92423931Y-109937440D01*
X92996069Y-109937440D01*
X93412157Y-110353528D01*
X93275685Y-110490000D01*
X93870727Y-111085042D01*
X94083703Y-110993626D01*
X94171865Y-110429597D01*
X94083703Y-109986374D01*
X94041911Y-109968436D01*
X94147991Y-109862356D01*
X94110635Y-109825000D01*
X96394653Y-109825000D01*
X96498089Y-109928436D01*
X96456297Y-109946374D01*
X96368135Y-110510403D01*
X96456297Y-110953626D01*
X96669273Y-111045042D01*
X97264315Y-110450000D01*
X98395685Y-110450000D01*
X98990727Y-111045042D01*
X99203703Y-110953626D01*
X99272982Y-110510403D01*
X100138135Y-110510403D01*
X100226297Y-110953626D01*
X100439273Y-111045042D01*
X101034315Y-110450000D01*
X102165685Y-110450000D01*
X102760727Y-111045042D01*
X102973703Y-110953626D01*
X103061865Y-110389597D01*
X102973703Y-109946374D01*
X102760727Y-109854958D01*
X102165685Y-110450000D01*
X101034315Y-110450000D01*
X100439273Y-109854958D01*
X100226297Y-109946374D01*
X100138135Y-110510403D01*
X99272982Y-110510403D01*
X99291865Y-110389597D01*
X99203703Y-109946374D01*
X98990727Y-109854958D01*
X98395685Y-110450000D01*
X97264315Y-110450000D01*
X97127843Y-110313528D01*
X97664762Y-109776609D01*
X97712749Y-109767064D01*
X97830000Y-109884315D01*
X98425042Y-109289273D01*
X98423208Y-109285000D01*
X101006792Y-109285000D01*
X101004958Y-109289273D01*
X101600000Y-109884315D01*
X102195042Y-109289273D01*
X102193208Y-109285000D01*
X123125001Y-109285000D01*
X123125001Y-111160475D01*
X122882481Y-110797519D01*
X122440891Y-110502458D01*
X122051485Y-110425000D01*
X122051484Y-110425000D01*
X121920000Y-110398846D01*
X121788515Y-110425000D01*
X110621479Y-110425000D01*
X110489999Y-110398847D01*
X110358519Y-110425000D01*
X110358515Y-110425000D01*
X109969109Y-110502458D01*
X109883388Y-110559735D01*
X109655156Y-110712235D01*
X109527519Y-110797519D01*
X109453039Y-110908986D01*
X102317026Y-118045000D01*
X102126860Y-118045000D01*
X101885439Y-117945000D01*
X101314561Y-117945000D01*
X101073140Y-118045000D01*
X98316860Y-118045000D01*
X98075439Y-117945000D01*
X97504561Y-117945000D01*
X96977138Y-118163466D01*
X96573466Y-118567138D01*
X96566067Y-118585000D01*
X93852285Y-118585000D01*
X93757765Y-118521843D01*
X93510000Y-118472560D01*
X91910000Y-118472560D01*
X91662235Y-118521843D01*
X91567715Y-118585000D01*
X90641479Y-118585000D01*
X90509999Y-118558847D01*
X90378519Y-118585000D01*
X90378515Y-118585000D01*
X89989109Y-118662458D01*
X89837810Y-118763553D01*
X89675156Y-118872235D01*
X89547519Y-118957519D01*
X89473039Y-119068986D01*
X86687026Y-121855000D01*
X72942975Y-121855000D01*
X71628702Y-120540727D01*
X74334958Y-120540727D01*
X74426374Y-120753703D01*
X74990403Y-120841865D01*
X75433626Y-120753703D01*
X75525042Y-120540727D01*
X74930000Y-119945685D01*
X74334958Y-120540727D01*
X71628702Y-120540727D01*
X70528378Y-119440403D01*
X73468135Y-119440403D01*
X73556297Y-119883626D01*
X73769273Y-119975042D01*
X74364315Y-119380000D01*
X75495685Y-119380000D01*
X76090727Y-119975042D01*
X76303703Y-119883626D01*
X76391865Y-119319597D01*
X76303703Y-118876374D01*
X76090727Y-118784958D01*
X75495685Y-119380000D01*
X74364315Y-119380000D01*
X73769273Y-118784958D01*
X73556297Y-118876374D01*
X73468135Y-119440403D01*
X70528378Y-119440403D01*
X69915000Y-118827026D01*
X69915000Y-118219273D01*
X74334958Y-118219273D01*
X74930000Y-118814315D01*
X75525042Y-118219273D01*
X75433626Y-118006297D01*
X74869597Y-117918135D01*
X74426374Y-118006297D01*
X74334958Y-118219273D01*
X69915000Y-118219273D01*
X69915000Y-113252368D01*
X70037809Y-113170309D01*
X70088129Y-113095000D01*
X78187026Y-113095000D01*
X78612560Y-113520535D01*
X78612560Y-113780000D01*
X78661843Y-114027765D01*
X78802191Y-114237809D01*
X79012235Y-114378157D01*
X79260000Y-114427440D01*
X80760000Y-114427440D01*
X81007765Y-114378157D01*
X81217809Y-114237809D01*
X81358157Y-114027765D01*
X81407440Y-113780000D01*
X81407440Y-113768389D01*
X81609114Y-114046386D01*
X81971048Y-114288189D01*
X82175000Y-114197503D01*
X82175000Y-113405000D01*
X82925000Y-113405000D01*
X82925000Y-114197503D01*
X83128952Y-114288189D01*
X83490886Y-114046386D01*
X83808220Y-113608957D01*
X83724548Y-113405000D01*
X82925000Y-113405000D01*
X82175000Y-113405000D01*
X81957000Y-113405000D01*
X81957000Y-112655000D01*
X82175000Y-112655000D01*
X82175000Y-111862497D01*
X82925000Y-111862497D01*
X82925000Y-112655000D01*
X83724548Y-112655000D01*
X83808220Y-112451043D01*
X83490886Y-112013614D01*
X83128952Y-111771811D01*
X82925000Y-111862497D01*
X82175000Y-111862497D01*
X81971048Y-111771811D01*
X81609114Y-112013614D01*
X81407440Y-112291611D01*
X81407440Y-112280000D01*
X81358157Y-112032235D01*
X81217809Y-111822191D01*
X81007765Y-111681843D01*
X80760000Y-111632560D01*
X80500535Y-111632560D01*
X79776962Y-110908988D01*
X79702481Y-110797519D01*
X79260891Y-110502458D01*
X78871485Y-110425000D01*
X78871481Y-110425000D01*
X78740000Y-110398847D01*
X78608519Y-110425000D01*
X70088129Y-110425000D01*
X70037809Y-110349691D01*
X69843420Y-110219803D01*
X70048732Y-109927287D01*
X70020935Y-109840727D01*
X74334958Y-109840727D01*
X74426374Y-110053703D01*
X74990403Y-110141865D01*
X75433626Y-110053703D01*
X75525042Y-109840727D01*
X74930000Y-109245685D01*
X74334958Y-109840727D01*
X70020935Y-109840727D01*
X69974538Y-109696250D01*
X69080000Y-109696250D01*
X69080000Y-109813000D01*
X68080000Y-109813000D01*
X68080000Y-109696250D01*
X67185462Y-109696250D01*
X67111268Y-109927287D01*
X67316580Y-110219803D01*
X67122191Y-110349691D01*
X67071871Y-110425000D01*
X62360635Y-110425000D01*
X62397991Y-110387644D01*
X62291911Y-110281564D01*
X62333703Y-110263626D01*
X62421865Y-109699597D01*
X62333703Y-109256374D01*
X62120727Y-109164958D01*
X61525685Y-109760000D01*
X61662157Y-109896472D01*
X61246069Y-110312560D01*
X60673931Y-110312560D01*
X60257843Y-109896472D01*
X60394315Y-109760000D01*
X59799273Y-109164958D01*
X59586297Y-109256374D01*
X59519796Y-109681822D01*
X58437247Y-108599273D01*
X60364958Y-108599273D01*
X60960000Y-109194315D01*
X61555042Y-108599273D01*
X61463626Y-108386297D01*
X60899597Y-108298135D01*
X60456374Y-108386297D01*
X60364958Y-108599273D01*
X58437247Y-108599273D01*
X55000000Y-105162026D01*
X55000000Y-105083784D01*
X54750324Y-104481015D01*
X54288985Y-104019676D01*
X53686216Y-103770000D01*
X53033784Y-103770000D01*
X52431015Y-104019676D01*
X51969676Y-104481015D01*
X51720000Y-105083784D01*
X49673189Y-105083784D01*
X49900000Y-104536216D01*
X49900000Y-103883784D01*
X49650324Y-103281015D01*
X49188985Y-102819676D01*
X48586216Y-102570000D01*
X47933784Y-102570000D01*
X47331015Y-102819676D01*
X46869676Y-103281015D01*
X46620000Y-103883784D01*
X46620000Y-103962025D01*
X44868986Y-105713040D01*
X44757520Y-105787519D01*
X44683040Y-105898986D01*
X44683039Y-105898987D01*
X44462458Y-106229110D01*
X44358847Y-106750000D01*
X44385001Y-106881485D01*
X44385000Y-111342560D01*
X44169999Y-111342560D01*
X43826564Y-111410873D01*
X43535414Y-111605414D01*
X43340873Y-111896564D01*
X43272560Y-112239999D01*
X33705000Y-112239999D01*
X33705000Y-101630505D01*
X33757162Y-101046029D01*
X35315000Y-101046029D01*
X35315000Y-102153971D01*
X35738991Y-103177576D01*
X36522424Y-103961009D01*
X37546029Y-104385000D01*
X38653971Y-104385000D01*
X39677576Y-103961009D01*
X40461009Y-103177576D01*
X40885000Y-102153971D01*
X40885000Y-101046029D01*
X124215000Y-101046029D01*
X124215000Y-102153971D01*
X124638991Y-103177576D01*
X125422424Y-103961009D01*
X126446029Y-104385000D01*
X127553971Y-104385000D01*
X128577576Y-103961009D01*
X129361009Y-103177576D01*
X129785000Y-102153971D01*
X129785000Y-101046029D01*
X213115000Y-101046029D01*
X213115000Y-102153971D01*
X213538991Y-103177576D01*
X214322424Y-103961009D01*
X215346029Y-104385000D01*
X216453971Y-104385000D01*
X217477576Y-103961009D01*
X218261009Y-103177576D01*
X218685000Y-102153971D01*
X218685000Y-101046029D01*
X218261009Y-100022424D01*
X217477576Y-99238991D01*
X216453971Y-98815000D01*
X215346029Y-98815000D01*
X214322424Y-99238991D01*
X213538991Y-100022424D01*
X213115000Y-101046029D01*
X129785000Y-101046029D01*
X129361009Y-100022424D01*
X128577576Y-99238991D01*
X127553971Y-98815000D01*
X126446029Y-98815000D01*
X125422424Y-99238991D01*
X124638991Y-100022424D01*
X124215000Y-101046029D01*
X40885000Y-101046029D01*
X40461009Y-100022424D01*
X39677576Y-99238991D01*
X38653971Y-98815000D01*
X37546029Y-98815000D01*
X36522424Y-99238991D01*
X35738991Y-100022424D01*
X35315000Y-101046029D01*
X33757162Y-101046029D01*
X33777139Y-100822197D01*
X33983197Y-100068977D01*
X34319384Y-99364148D01*
X34775065Y-98729998D01*
X35335851Y-98186559D01*
X35984001Y-97751019D01*
X36699043Y-97437138D01*
X37463636Y-97253576D01*
X38125112Y-97205000D01*
X198187952Y-97205000D01*
X216565150Y-97267085D01*
G04 #@! TD*
M02*
