G04 #@! TF.GenerationSoftware,KiCad,Pcbnew,(5.0.2)-1*
G04 #@! TF.CreationDate,2018-12-31T15:38:33+01:00*
G04 #@! TF.ProjectId,EuroRack_LowNoisePowerPCB,4575726f-5261-4636-9b5f-4c6f774e6f69,rev?*
G04 #@! TF.SameCoordinates,Original*
G04 #@! TF.FileFunction,Legend,Top*
G04 #@! TF.FilePolarity,Positive*
%FSLAX46Y46*%
G04 Gerber Fmt 4.6, Leading zero omitted, Abs format (unit mm)*
G04 Created by KiCad (PCBNEW (5.0.2)-1) date 31/12/2018 15:38:33*
%MOMM*%
%LPD*%
G01*
G04 APERTURE LIST*
%ADD10C,0.200000*%
%ADD11C,0.300000*%
%ADD12C,0.120000*%
%ADD13C,0.150000*%
G04 APERTURE END LIST*
D10*
X177800000Y-139700000D02*
X175260000Y-144780000D01*
X177800000Y-139700000D02*
X180340000Y-144780000D01*
X139700000Y-139700000D02*
X137160000Y-144780000D01*
X139700000Y-139700000D02*
X142240000Y-144780000D01*
X177800000Y-101600000D02*
X175260000Y-96520000D01*
X177800000Y-101600000D02*
X180340000Y-96520000D01*
X139700000Y-101600000D02*
X142240000Y-96520000D01*
X137160000Y-96520000D02*
X139700000Y-101600000D01*
X177800000Y-134620000D02*
X177800000Y-137160000D01*
X177800000Y-129540000D02*
X177800000Y-132080000D01*
X177800000Y-124460000D02*
X177800000Y-127000000D01*
X177800000Y-119380000D02*
X177800000Y-121920000D01*
X177800000Y-114300000D02*
X177800000Y-116840000D01*
X177800000Y-109220000D02*
X177800000Y-111760000D01*
X177800000Y-104140000D02*
X177800000Y-106680000D01*
X139700000Y-106680000D02*
X139700000Y-104140000D01*
X139700000Y-111760000D02*
X139700000Y-109220000D01*
X139700000Y-116840000D02*
X139700000Y-114300000D01*
X139700000Y-121920000D02*
X139700000Y-119380000D01*
X139700000Y-127000000D02*
X139700000Y-124460000D01*
X139700000Y-132080000D02*
X139700000Y-129540000D01*
X139700000Y-137160000D02*
X139700000Y-134620000D01*
D11*
X49427142Y-128377142D02*
X50570000Y-128377142D01*
X52070000Y-128948571D02*
X51212857Y-128948571D01*
X51641428Y-128948571D02*
X51641428Y-127448571D01*
X51498571Y-127662857D01*
X51355714Y-127805714D01*
X51212857Y-127877142D01*
X52641428Y-127591428D02*
X52712857Y-127520000D01*
X52855714Y-127448571D01*
X53212857Y-127448571D01*
X53355714Y-127520000D01*
X53427142Y-127591428D01*
X53498571Y-127734285D01*
X53498571Y-127877142D01*
X53427142Y-128091428D01*
X52570000Y-128948571D01*
X53498571Y-128948571D01*
X53927142Y-127448571D02*
X54427142Y-128948571D01*
X54927142Y-127448571D01*
X49427142Y-113137142D02*
X50570000Y-113137142D01*
X49998571Y-113708571D02*
X49998571Y-112565714D01*
X52070000Y-113708571D02*
X51212857Y-113708571D01*
X51641428Y-113708571D02*
X51641428Y-112208571D01*
X51498571Y-112422857D01*
X51355714Y-112565714D01*
X51212857Y-112637142D01*
X52641428Y-112351428D02*
X52712857Y-112280000D01*
X52855714Y-112208571D01*
X53212857Y-112208571D01*
X53355714Y-112280000D01*
X53427142Y-112351428D01*
X53498571Y-112494285D01*
X53498571Y-112637142D01*
X53427142Y-112851428D01*
X52570000Y-113708571D01*
X53498571Y-113708571D01*
X53927142Y-112208571D02*
X54427142Y-113708571D01*
X54927142Y-112208571D01*
X185317142Y-132187142D02*
X186460000Y-132187142D01*
X187960000Y-132758571D02*
X187102857Y-132758571D01*
X187531428Y-132758571D02*
X187531428Y-131258571D01*
X187388571Y-131472857D01*
X187245714Y-131615714D01*
X187102857Y-131687142D01*
X188531428Y-131401428D02*
X188602857Y-131330000D01*
X188745714Y-131258571D01*
X189102857Y-131258571D01*
X189245714Y-131330000D01*
X189317142Y-131401428D01*
X189388571Y-131544285D01*
X189388571Y-131687142D01*
X189317142Y-131901428D01*
X188460000Y-132758571D01*
X189388571Y-132758571D01*
X189817142Y-131258571D02*
X190317142Y-132758571D01*
X190817142Y-131258571D01*
X147217142Y-132187142D02*
X148360000Y-132187142D01*
X149860000Y-132758571D02*
X149002857Y-132758571D01*
X149431428Y-132758571D02*
X149431428Y-131258571D01*
X149288571Y-131472857D01*
X149145714Y-131615714D01*
X149002857Y-131687142D01*
X150431428Y-131401428D02*
X150502857Y-131330000D01*
X150645714Y-131258571D01*
X151002857Y-131258571D01*
X151145714Y-131330000D01*
X151217142Y-131401428D01*
X151288571Y-131544285D01*
X151288571Y-131687142D01*
X151217142Y-131901428D01*
X150360000Y-132758571D01*
X151288571Y-132758571D01*
X151717142Y-131258571D02*
X152217142Y-132758571D01*
X152717142Y-131258571D01*
X109117142Y-132187142D02*
X110260000Y-132187142D01*
X111760000Y-132758571D02*
X110902857Y-132758571D01*
X111331428Y-132758571D02*
X111331428Y-131258571D01*
X111188571Y-131472857D01*
X111045714Y-131615714D01*
X110902857Y-131687142D01*
X112331428Y-131401428D02*
X112402857Y-131330000D01*
X112545714Y-131258571D01*
X112902857Y-131258571D01*
X113045714Y-131330000D01*
X113117142Y-131401428D01*
X113188571Y-131544285D01*
X113188571Y-131687142D01*
X113117142Y-131901428D01*
X112260000Y-132758571D01*
X113188571Y-132758571D01*
X113617142Y-131258571D02*
X114117142Y-132758571D01*
X114617142Y-131258571D01*
D10*
X187960000Y-122555000D02*
X187960000Y-129540000D01*
X149860000Y-122555000D02*
X149860000Y-129540000D01*
X111760000Y-122555000D02*
X111760000Y-129540000D01*
D11*
X50292142Y-122440000D02*
X50149285Y-122368571D01*
X49935000Y-122368571D01*
X49720714Y-122440000D01*
X49577857Y-122582857D01*
X49506428Y-122725714D01*
X49435000Y-123011428D01*
X49435000Y-123225714D01*
X49506428Y-123511428D01*
X49577857Y-123654285D01*
X49720714Y-123797142D01*
X49935000Y-123868571D01*
X50077857Y-123868571D01*
X50292142Y-123797142D01*
X50363571Y-123725714D01*
X50363571Y-123225714D01*
X50077857Y-123225714D01*
X51006428Y-123868571D02*
X51006428Y-122368571D01*
X51863571Y-123868571D01*
X51863571Y-122368571D01*
X52577857Y-123868571D02*
X52577857Y-122368571D01*
X52935000Y-122368571D01*
X53149285Y-122440000D01*
X53292142Y-122582857D01*
X53363571Y-122725714D01*
X53435000Y-123011428D01*
X53435000Y-123225714D01*
X53363571Y-123511428D01*
X53292142Y-123654285D01*
X53149285Y-123797142D01*
X52935000Y-123868571D01*
X52577857Y-123868571D01*
X49498571Y-118002857D02*
X49998571Y-118002857D01*
X50212857Y-118788571D02*
X49498571Y-118788571D01*
X49498571Y-117288571D01*
X50212857Y-117288571D01*
X51498571Y-118788571D02*
X51498571Y-118002857D01*
X51427142Y-117860000D01*
X51284285Y-117788571D01*
X50998571Y-117788571D01*
X50855714Y-117860000D01*
X51498571Y-118717142D02*
X51355714Y-118788571D01*
X50998571Y-118788571D01*
X50855714Y-118717142D01*
X50784285Y-118574285D01*
X50784285Y-118431428D01*
X50855714Y-118288571D01*
X50998571Y-118217142D01*
X51355714Y-118217142D01*
X51498571Y-118145714D01*
X52212857Y-118788571D02*
X52212857Y-117788571D01*
X52212857Y-118074285D02*
X52284285Y-117931428D01*
X52355714Y-117860000D01*
X52498571Y-117788571D01*
X52641428Y-117788571D01*
X52927142Y-117788571D02*
X53498571Y-117788571D01*
X53141428Y-117288571D02*
X53141428Y-118574285D01*
X53212857Y-118717142D01*
X53355714Y-118788571D01*
X53498571Y-118788571D01*
X53998571Y-118788571D02*
X53998571Y-117288571D01*
X54641428Y-118788571D02*
X54641428Y-118002857D01*
X54570000Y-117860000D01*
X54427142Y-117788571D01*
X54212857Y-117788571D01*
X54070000Y-117860000D01*
X53998571Y-117931428D01*
D10*
X56515000Y-116840000D02*
X56515000Y-119380000D01*
X55245000Y-116840000D02*
X56515000Y-116840000D01*
X56515000Y-124460000D02*
X55245000Y-124460000D01*
X56515000Y-119380000D02*
X56515000Y-124460000D01*
X55245000Y-119380000D02*
X56515000Y-119380000D01*
D11*
X51875714Y-98238571D02*
X52161428Y-98238571D01*
X52304285Y-98310000D01*
X52447142Y-98452857D01*
X52518571Y-98738571D01*
X52518571Y-99238571D01*
X52447142Y-99524285D01*
X52304285Y-99667142D01*
X52161428Y-99738571D01*
X51875714Y-99738571D01*
X51732857Y-99667142D01*
X51590000Y-99524285D01*
X51518571Y-99238571D01*
X51518571Y-98738571D01*
X51590000Y-98452857D01*
X51732857Y-98310000D01*
X51875714Y-98238571D01*
X53375714Y-99738571D02*
X53232857Y-99667142D01*
X53161428Y-99524285D01*
X53161428Y-98238571D01*
X53947142Y-99738571D02*
X53947142Y-98738571D01*
X53947142Y-98238571D02*
X53875714Y-98310000D01*
X53947142Y-98381428D01*
X54018571Y-98310000D01*
X53947142Y-98238571D01*
X53947142Y-98381428D01*
X54518571Y-98738571D02*
X54875714Y-99738571D01*
X55232857Y-98738571D01*
X56375714Y-99667142D02*
X56232857Y-99738571D01*
X55947142Y-99738571D01*
X55804285Y-99667142D01*
X55732857Y-99524285D01*
X55732857Y-98952857D01*
X55804285Y-98810000D01*
X55947142Y-98738571D01*
X56232857Y-98738571D01*
X56375714Y-98810000D01*
X56447142Y-98952857D01*
X56447142Y-99095714D01*
X55732857Y-99238571D01*
X57090000Y-99738571D02*
X57090000Y-98738571D01*
X57090000Y-99024285D02*
X57161428Y-98881428D01*
X57232857Y-98810000D01*
X57375714Y-98738571D01*
X57518571Y-98738571D01*
X59018571Y-98238571D02*
X59375714Y-99738571D01*
X59661428Y-98667142D01*
X59947142Y-99738571D01*
X60304285Y-98238571D01*
X61518571Y-99738571D02*
X61518571Y-98952857D01*
X61447142Y-98810000D01*
X61304285Y-98738571D01*
X61018571Y-98738571D01*
X60875714Y-98810000D01*
X61518571Y-99667142D02*
X61375714Y-99738571D01*
X61018571Y-99738571D01*
X60875714Y-99667142D01*
X60804285Y-99524285D01*
X60804285Y-99381428D01*
X60875714Y-99238571D01*
X61018571Y-99167142D01*
X61375714Y-99167142D01*
X61518571Y-99095714D01*
X62447142Y-99738571D02*
X62304285Y-99667142D01*
X62232857Y-99524285D01*
X62232857Y-98238571D01*
X63661428Y-99667142D02*
X63518571Y-99738571D01*
X63232857Y-99738571D01*
X63090000Y-99667142D01*
X63018571Y-99595714D01*
X62947142Y-99452857D01*
X62947142Y-99024285D01*
X63018571Y-98881428D01*
X63090000Y-98810000D01*
X63232857Y-98738571D01*
X63518571Y-98738571D01*
X63661428Y-98810000D01*
X64161428Y-98738571D02*
X64947142Y-98738571D01*
X64161428Y-99738571D01*
X64947142Y-99738571D01*
X66161428Y-99738571D02*
X66161428Y-98952857D01*
X66090000Y-98810000D01*
X65947142Y-98738571D01*
X65661428Y-98738571D01*
X65518571Y-98810000D01*
X66161428Y-99667142D02*
X66018571Y-99738571D01*
X65661428Y-99738571D01*
X65518571Y-99667142D01*
X65447142Y-99524285D01*
X65447142Y-99381428D01*
X65518571Y-99238571D01*
X65661428Y-99167142D01*
X66018571Y-99167142D01*
X66161428Y-99095714D01*
X66875714Y-99738571D02*
X66875714Y-98238571D01*
X67018571Y-99167142D02*
X67447142Y-99738571D01*
X67447142Y-98738571D02*
X66875714Y-99310000D01*
X70304285Y-98167142D02*
X69018571Y-100095714D01*
X71947142Y-98952857D02*
X72447142Y-98952857D01*
X72661428Y-99738571D02*
X71947142Y-99738571D01*
X71947142Y-98238571D01*
X72661428Y-98238571D01*
X73947142Y-98738571D02*
X73947142Y-99738571D01*
X73304285Y-98738571D02*
X73304285Y-99524285D01*
X73375714Y-99667142D01*
X73518571Y-99738571D01*
X73732857Y-99738571D01*
X73875714Y-99667142D01*
X73947142Y-99595714D01*
X74661428Y-99738571D02*
X74661428Y-98738571D01*
X74661428Y-99024285D02*
X74732857Y-98881428D01*
X74804285Y-98810000D01*
X74947142Y-98738571D01*
X75090000Y-98738571D01*
X75804285Y-99738571D02*
X75661428Y-99667142D01*
X75590000Y-99595714D01*
X75518571Y-99452857D01*
X75518571Y-99024285D01*
X75590000Y-98881428D01*
X75661428Y-98810000D01*
X75804285Y-98738571D01*
X76018571Y-98738571D01*
X76161428Y-98810000D01*
X76232857Y-98881428D01*
X76304285Y-99024285D01*
X76304285Y-99452857D01*
X76232857Y-99595714D01*
X76161428Y-99667142D01*
X76018571Y-99738571D01*
X75804285Y-99738571D01*
X76947142Y-99738571D02*
X76947142Y-98738571D01*
X76947142Y-99024285D02*
X77018571Y-98881428D01*
X77090000Y-98810000D01*
X77232857Y-98738571D01*
X77375714Y-98738571D01*
X78518571Y-99738571D02*
X78518571Y-98952857D01*
X78447142Y-98810000D01*
X78304285Y-98738571D01*
X78018571Y-98738571D01*
X77875714Y-98810000D01*
X78518571Y-99667142D02*
X78375714Y-99738571D01*
X78018571Y-99738571D01*
X77875714Y-99667142D01*
X77804285Y-99524285D01*
X77804285Y-99381428D01*
X77875714Y-99238571D01*
X78018571Y-99167142D01*
X78375714Y-99167142D01*
X78518571Y-99095714D01*
X79875714Y-99667142D02*
X79732857Y-99738571D01*
X79447142Y-99738571D01*
X79304285Y-99667142D01*
X79232857Y-99595714D01*
X79161428Y-99452857D01*
X79161428Y-99024285D01*
X79232857Y-98881428D01*
X79304285Y-98810000D01*
X79447142Y-98738571D01*
X79732857Y-98738571D01*
X79875714Y-98810000D01*
X80518571Y-99738571D02*
X80518571Y-98238571D01*
X80661428Y-99167142D02*
X81090000Y-99738571D01*
X81090000Y-98738571D02*
X80518571Y-99310000D01*
X83590000Y-99738571D02*
X82875714Y-99738571D01*
X82875714Y-98238571D01*
X84304285Y-99738571D02*
X84161428Y-99667142D01*
X84090000Y-99595714D01*
X84018571Y-99452857D01*
X84018571Y-99024285D01*
X84090000Y-98881428D01*
X84161428Y-98810000D01*
X84304285Y-98738571D01*
X84518571Y-98738571D01*
X84661428Y-98810000D01*
X84732857Y-98881428D01*
X84804285Y-99024285D01*
X84804285Y-99452857D01*
X84732857Y-99595714D01*
X84661428Y-99667142D01*
X84518571Y-99738571D01*
X84304285Y-99738571D01*
X85304285Y-98738571D02*
X85590000Y-99738571D01*
X85875714Y-99024285D01*
X86161428Y-99738571D01*
X86447142Y-98738571D01*
X88161428Y-99738571D02*
X88161428Y-98238571D01*
X89018571Y-99738571D01*
X89018571Y-98238571D01*
X89947142Y-99738571D02*
X89804285Y-99667142D01*
X89732857Y-99595714D01*
X89661428Y-99452857D01*
X89661428Y-99024285D01*
X89732857Y-98881428D01*
X89804285Y-98810000D01*
X89947142Y-98738571D01*
X90161428Y-98738571D01*
X90304285Y-98810000D01*
X90375714Y-98881428D01*
X90447142Y-99024285D01*
X90447142Y-99452857D01*
X90375714Y-99595714D01*
X90304285Y-99667142D01*
X90161428Y-99738571D01*
X89947142Y-99738571D01*
X91090000Y-99738571D02*
X91090000Y-98738571D01*
X91090000Y-98238571D02*
X91018571Y-98310000D01*
X91090000Y-98381428D01*
X91161428Y-98310000D01*
X91090000Y-98238571D01*
X91090000Y-98381428D01*
X91732857Y-99667142D02*
X91875714Y-99738571D01*
X92161428Y-99738571D01*
X92304285Y-99667142D01*
X92375714Y-99524285D01*
X92375714Y-99452857D01*
X92304285Y-99310000D01*
X92161428Y-99238571D01*
X91947142Y-99238571D01*
X91804285Y-99167142D01*
X91732857Y-99024285D01*
X91732857Y-98952857D01*
X91804285Y-98810000D01*
X91947142Y-98738571D01*
X92161428Y-98738571D01*
X92304285Y-98810000D01*
X93590000Y-99667142D02*
X93447142Y-99738571D01*
X93161428Y-99738571D01*
X93018571Y-99667142D01*
X92947142Y-99524285D01*
X92947142Y-98952857D01*
X93018571Y-98810000D01*
X93161428Y-98738571D01*
X93447142Y-98738571D01*
X93590000Y-98810000D01*
X93661428Y-98952857D01*
X93661428Y-99095714D01*
X92947142Y-99238571D01*
X95447142Y-99738571D02*
X95447142Y-98238571D01*
X96018571Y-98238571D01*
X96161428Y-98310000D01*
X96232857Y-98381428D01*
X96304285Y-98524285D01*
X96304285Y-98738571D01*
X96232857Y-98881428D01*
X96161428Y-98952857D01*
X96018571Y-99024285D01*
X95447142Y-99024285D01*
X97161428Y-99738571D02*
X97018571Y-99667142D01*
X96947142Y-99595714D01*
X96875714Y-99452857D01*
X96875714Y-99024285D01*
X96947142Y-98881428D01*
X97018571Y-98810000D01*
X97161428Y-98738571D01*
X97375714Y-98738571D01*
X97518571Y-98810000D01*
X97590000Y-98881428D01*
X97661428Y-99024285D01*
X97661428Y-99452857D01*
X97590000Y-99595714D01*
X97518571Y-99667142D01*
X97375714Y-99738571D01*
X97161428Y-99738571D01*
X98161428Y-98738571D02*
X98447142Y-99738571D01*
X98732857Y-99024285D01*
X99018571Y-99738571D01*
X99304285Y-98738571D01*
X100447142Y-99667142D02*
X100304285Y-99738571D01*
X100018571Y-99738571D01*
X99875714Y-99667142D01*
X99804285Y-99524285D01*
X99804285Y-98952857D01*
X99875714Y-98810000D01*
X100018571Y-98738571D01*
X100304285Y-98738571D01*
X100447142Y-98810000D01*
X100518571Y-98952857D01*
X100518571Y-99095714D01*
X99804285Y-99238571D01*
X101161428Y-99738571D02*
X101161428Y-98738571D01*
X101161428Y-99024285D02*
X101232857Y-98881428D01*
X101304285Y-98810000D01*
X101447142Y-98738571D01*
X101590000Y-98738571D01*
X103732857Y-98952857D02*
X103947142Y-99024285D01*
X104018571Y-99095714D01*
X104090000Y-99238571D01*
X104090000Y-99452857D01*
X104018571Y-99595714D01*
X103947142Y-99667142D01*
X103804285Y-99738571D01*
X103232857Y-99738571D01*
X103232857Y-98238571D01*
X103732857Y-98238571D01*
X103875714Y-98310000D01*
X103947142Y-98381428D01*
X104018571Y-98524285D01*
X104018571Y-98667142D01*
X103947142Y-98810000D01*
X103875714Y-98881428D01*
X103732857Y-98952857D01*
X103232857Y-98952857D01*
X104947142Y-99738571D02*
X104804285Y-99667142D01*
X104732857Y-99595714D01*
X104661428Y-99452857D01*
X104661428Y-99024285D01*
X104732857Y-98881428D01*
X104804285Y-98810000D01*
X104947142Y-98738571D01*
X105161428Y-98738571D01*
X105304285Y-98810000D01*
X105375714Y-98881428D01*
X105447142Y-99024285D01*
X105447142Y-99452857D01*
X105375714Y-99595714D01*
X105304285Y-99667142D01*
X105161428Y-99738571D01*
X104947142Y-99738571D01*
X106732857Y-99738571D02*
X106732857Y-98952857D01*
X106661428Y-98810000D01*
X106518571Y-98738571D01*
X106232857Y-98738571D01*
X106090000Y-98810000D01*
X106732857Y-99667142D02*
X106590000Y-99738571D01*
X106232857Y-99738571D01*
X106090000Y-99667142D01*
X106018571Y-99524285D01*
X106018571Y-99381428D01*
X106090000Y-99238571D01*
X106232857Y-99167142D01*
X106590000Y-99167142D01*
X106732857Y-99095714D01*
X107447142Y-99738571D02*
X107447142Y-98738571D01*
X107447142Y-99024285D02*
X107518571Y-98881428D01*
X107590000Y-98810000D01*
X107732857Y-98738571D01*
X107875714Y-98738571D01*
X109018571Y-99738571D02*
X109018571Y-98238571D01*
X109018571Y-99667142D02*
X108875714Y-99738571D01*
X108590000Y-99738571D01*
X108447142Y-99667142D01*
X108375714Y-99595714D01*
X108304285Y-99452857D01*
X108304285Y-99024285D01*
X108375714Y-98881428D01*
X108447142Y-98810000D01*
X108590000Y-98738571D01*
X108875714Y-98738571D01*
X109018571Y-98810000D01*
X111947142Y-98167142D02*
X110661428Y-100095714D01*
X113518571Y-98381428D02*
X113590000Y-98310000D01*
X113732857Y-98238571D01*
X114090000Y-98238571D01*
X114232857Y-98310000D01*
X114304285Y-98381428D01*
X114375714Y-98524285D01*
X114375714Y-98667142D01*
X114304285Y-98881428D01*
X113447142Y-99738571D01*
X114375714Y-99738571D01*
X115304285Y-98238571D02*
X115447142Y-98238571D01*
X115590000Y-98310000D01*
X115661428Y-98381428D01*
X115732857Y-98524285D01*
X115804285Y-98810000D01*
X115804285Y-99167142D01*
X115732857Y-99452857D01*
X115661428Y-99595714D01*
X115590000Y-99667142D01*
X115447142Y-99738571D01*
X115304285Y-99738571D01*
X115161428Y-99667142D01*
X115090000Y-99595714D01*
X115018571Y-99452857D01*
X114947142Y-99167142D01*
X114947142Y-98810000D01*
X115018571Y-98524285D01*
X115090000Y-98381428D01*
X115161428Y-98310000D01*
X115304285Y-98238571D01*
X117232857Y-99738571D02*
X116375714Y-99738571D01*
X116804285Y-99738571D02*
X116804285Y-98238571D01*
X116661428Y-98452857D01*
X116518571Y-98595714D01*
X116375714Y-98667142D01*
X117947142Y-99738571D02*
X118232857Y-99738571D01*
X118375714Y-99667142D01*
X118447142Y-99595714D01*
X118590000Y-99381428D01*
X118661428Y-99095714D01*
X118661428Y-98524285D01*
X118590000Y-98381428D01*
X118518571Y-98310000D01*
X118375714Y-98238571D01*
X118090000Y-98238571D01*
X117947142Y-98310000D01*
X117875714Y-98381428D01*
X117804285Y-98524285D01*
X117804285Y-98881428D01*
X117875714Y-99024285D01*
X117947142Y-99095714D01*
X118090000Y-99167142D01*
X118375714Y-99167142D01*
X118518571Y-99095714D01*
X118590000Y-99024285D01*
X118661428Y-98881428D01*
D12*
G04 #@! TO.C,C1*
X94435000Y-118365225D02*
X93935000Y-118365225D01*
X94185000Y-118115225D02*
X94185000Y-118615225D01*
X92994000Y-123521000D02*
X92426000Y-123521000D01*
X93228000Y-123481000D02*
X92192000Y-123481000D01*
X93387000Y-123441000D02*
X92033000Y-123441000D01*
X93515000Y-123401000D02*
X91905000Y-123401000D01*
X93625000Y-123361000D02*
X91795000Y-123361000D01*
X93721000Y-123321000D02*
X91699000Y-123321000D01*
X93808000Y-123281000D02*
X91612000Y-123281000D01*
X93888000Y-123241000D02*
X91532000Y-123241000D01*
X93961000Y-123201000D02*
X91459000Y-123201000D01*
X94029000Y-123161000D02*
X91391000Y-123161000D01*
X94093000Y-123121000D02*
X91327000Y-123121000D01*
X94153000Y-123081000D02*
X91267000Y-123081000D01*
X94210000Y-123041000D02*
X91210000Y-123041000D01*
X94264000Y-123001000D02*
X91156000Y-123001000D01*
X94315000Y-122961000D02*
X91105000Y-122961000D01*
X91670000Y-122921000D02*
X91057000Y-122921000D01*
X94363000Y-122921000D02*
X93750000Y-122921000D01*
X91670000Y-122881000D02*
X91011000Y-122881000D01*
X94409000Y-122881000D02*
X93750000Y-122881000D01*
X91670000Y-122841000D02*
X90967000Y-122841000D01*
X94453000Y-122841000D02*
X93750000Y-122841000D01*
X91670000Y-122801000D02*
X90925000Y-122801000D01*
X94495000Y-122801000D02*
X93750000Y-122801000D01*
X91670000Y-122761000D02*
X90884000Y-122761000D01*
X94536000Y-122761000D02*
X93750000Y-122761000D01*
X91670000Y-122721000D02*
X90846000Y-122721000D01*
X94574000Y-122721000D02*
X93750000Y-122721000D01*
X91670000Y-122681000D02*
X90809000Y-122681000D01*
X94611000Y-122681000D02*
X93750000Y-122681000D01*
X91670000Y-122641000D02*
X90773000Y-122641000D01*
X94647000Y-122641000D02*
X93750000Y-122641000D01*
X91670000Y-122601000D02*
X90739000Y-122601000D01*
X94681000Y-122601000D02*
X93750000Y-122601000D01*
X91670000Y-122561000D02*
X90706000Y-122561000D01*
X94714000Y-122561000D02*
X93750000Y-122561000D01*
X91670000Y-122521000D02*
X90675000Y-122521000D01*
X94745000Y-122521000D02*
X93750000Y-122521000D01*
X91670000Y-122481000D02*
X90645000Y-122481000D01*
X94775000Y-122481000D02*
X93750000Y-122481000D01*
X91670000Y-122441000D02*
X90615000Y-122441000D01*
X94805000Y-122441000D02*
X93750000Y-122441000D01*
X91670000Y-122401000D02*
X90588000Y-122401000D01*
X94832000Y-122401000D02*
X93750000Y-122401000D01*
X91670000Y-122361000D02*
X90561000Y-122361000D01*
X94859000Y-122361000D02*
X93750000Y-122361000D01*
X91670000Y-122321000D02*
X90535000Y-122321000D01*
X94885000Y-122321000D02*
X93750000Y-122321000D01*
X91670000Y-122281000D02*
X90510000Y-122281000D01*
X94910000Y-122281000D02*
X93750000Y-122281000D01*
X91670000Y-122241000D02*
X90486000Y-122241000D01*
X94934000Y-122241000D02*
X93750000Y-122241000D01*
X91670000Y-122201000D02*
X90463000Y-122201000D01*
X94957000Y-122201000D02*
X93750000Y-122201000D01*
X91670000Y-122161000D02*
X90442000Y-122161000D01*
X94978000Y-122161000D02*
X93750000Y-122161000D01*
X91670000Y-122121000D02*
X90420000Y-122121000D01*
X95000000Y-122121000D02*
X93750000Y-122121000D01*
X91670000Y-122081000D02*
X90400000Y-122081000D01*
X95020000Y-122081000D02*
X93750000Y-122081000D01*
X91670000Y-122041000D02*
X90381000Y-122041000D01*
X95039000Y-122041000D02*
X93750000Y-122041000D01*
X91670000Y-122001000D02*
X90362000Y-122001000D01*
X95058000Y-122001000D02*
X93750000Y-122001000D01*
X91670000Y-121961000D02*
X90345000Y-121961000D01*
X95075000Y-121961000D02*
X93750000Y-121961000D01*
X91670000Y-121921000D02*
X90328000Y-121921000D01*
X95092000Y-121921000D02*
X93750000Y-121921000D01*
X91670000Y-121881000D02*
X90312000Y-121881000D01*
X95108000Y-121881000D02*
X93750000Y-121881000D01*
X91670000Y-121841000D02*
X90296000Y-121841000D01*
X95124000Y-121841000D02*
X93750000Y-121841000D01*
X91670000Y-121801000D02*
X90282000Y-121801000D01*
X95138000Y-121801000D02*
X93750000Y-121801000D01*
X91670000Y-121761000D02*
X90268000Y-121761000D01*
X95152000Y-121761000D02*
X93750000Y-121761000D01*
X91670000Y-121721000D02*
X90255000Y-121721000D01*
X95165000Y-121721000D02*
X93750000Y-121721000D01*
X91670000Y-121681000D02*
X90242000Y-121681000D01*
X95178000Y-121681000D02*
X93750000Y-121681000D01*
X91670000Y-121641000D02*
X90230000Y-121641000D01*
X95190000Y-121641000D02*
X93750000Y-121641000D01*
X91670000Y-121600000D02*
X90219000Y-121600000D01*
X95201000Y-121600000D02*
X93750000Y-121600000D01*
X91670000Y-121560000D02*
X90209000Y-121560000D01*
X95211000Y-121560000D02*
X93750000Y-121560000D01*
X91670000Y-121520000D02*
X90199000Y-121520000D01*
X95221000Y-121520000D02*
X93750000Y-121520000D01*
X91670000Y-121480000D02*
X90190000Y-121480000D01*
X95230000Y-121480000D02*
X93750000Y-121480000D01*
X91670000Y-121440000D02*
X90182000Y-121440000D01*
X95238000Y-121440000D02*
X93750000Y-121440000D01*
X91670000Y-121400000D02*
X90174000Y-121400000D01*
X95246000Y-121400000D02*
X93750000Y-121400000D01*
X91670000Y-121360000D02*
X90167000Y-121360000D01*
X95253000Y-121360000D02*
X93750000Y-121360000D01*
X91670000Y-121320000D02*
X90160000Y-121320000D01*
X95260000Y-121320000D02*
X93750000Y-121320000D01*
X91670000Y-121280000D02*
X90154000Y-121280000D01*
X95266000Y-121280000D02*
X93750000Y-121280000D01*
X91670000Y-121240000D02*
X90149000Y-121240000D01*
X95271000Y-121240000D02*
X93750000Y-121240000D01*
X91670000Y-121200000D02*
X90145000Y-121200000D01*
X95275000Y-121200000D02*
X93750000Y-121200000D01*
X91670000Y-121160000D02*
X90141000Y-121160000D01*
X95279000Y-121160000D02*
X93750000Y-121160000D01*
X91670000Y-121120000D02*
X90137000Y-121120000D01*
X95283000Y-121120000D02*
X93750000Y-121120000D01*
X91670000Y-121080000D02*
X90134000Y-121080000D01*
X95286000Y-121080000D02*
X93750000Y-121080000D01*
X91670000Y-121040000D02*
X90132000Y-121040000D01*
X95288000Y-121040000D02*
X93750000Y-121040000D01*
X91670000Y-121000000D02*
X90131000Y-121000000D01*
X95289000Y-121000000D02*
X93750000Y-121000000D01*
X95290000Y-120960000D02*
X93750000Y-120960000D01*
X91670000Y-120960000D02*
X90130000Y-120960000D01*
X95290000Y-120920000D02*
X93750000Y-120920000D01*
X91670000Y-120920000D02*
X90130000Y-120920000D01*
X95330000Y-120920000D02*
G75*
G03X95330000Y-120920000I-2620000J0D01*
G01*
G04 #@! TO.C,C2*
X95330000Y-132350000D02*
G75*
G03X95330000Y-132350000I-2620000J0D01*
G01*
X91670000Y-132350000D02*
X90130000Y-132350000D01*
X95290000Y-132350000D02*
X93750000Y-132350000D01*
X91670000Y-132390000D02*
X90130000Y-132390000D01*
X95290000Y-132390000D02*
X93750000Y-132390000D01*
X95289000Y-132430000D02*
X93750000Y-132430000D01*
X91670000Y-132430000D02*
X90131000Y-132430000D01*
X95288000Y-132470000D02*
X93750000Y-132470000D01*
X91670000Y-132470000D02*
X90132000Y-132470000D01*
X95286000Y-132510000D02*
X93750000Y-132510000D01*
X91670000Y-132510000D02*
X90134000Y-132510000D01*
X95283000Y-132550000D02*
X93750000Y-132550000D01*
X91670000Y-132550000D02*
X90137000Y-132550000D01*
X95279000Y-132590000D02*
X93750000Y-132590000D01*
X91670000Y-132590000D02*
X90141000Y-132590000D01*
X95275000Y-132630000D02*
X93750000Y-132630000D01*
X91670000Y-132630000D02*
X90145000Y-132630000D01*
X95271000Y-132670000D02*
X93750000Y-132670000D01*
X91670000Y-132670000D02*
X90149000Y-132670000D01*
X95266000Y-132710000D02*
X93750000Y-132710000D01*
X91670000Y-132710000D02*
X90154000Y-132710000D01*
X95260000Y-132750000D02*
X93750000Y-132750000D01*
X91670000Y-132750000D02*
X90160000Y-132750000D01*
X95253000Y-132790000D02*
X93750000Y-132790000D01*
X91670000Y-132790000D02*
X90167000Y-132790000D01*
X95246000Y-132830000D02*
X93750000Y-132830000D01*
X91670000Y-132830000D02*
X90174000Y-132830000D01*
X95238000Y-132870000D02*
X93750000Y-132870000D01*
X91670000Y-132870000D02*
X90182000Y-132870000D01*
X95230000Y-132910000D02*
X93750000Y-132910000D01*
X91670000Y-132910000D02*
X90190000Y-132910000D01*
X95221000Y-132950000D02*
X93750000Y-132950000D01*
X91670000Y-132950000D02*
X90199000Y-132950000D01*
X95211000Y-132990000D02*
X93750000Y-132990000D01*
X91670000Y-132990000D02*
X90209000Y-132990000D01*
X95201000Y-133030000D02*
X93750000Y-133030000D01*
X91670000Y-133030000D02*
X90219000Y-133030000D01*
X95190000Y-133071000D02*
X93750000Y-133071000D01*
X91670000Y-133071000D02*
X90230000Y-133071000D01*
X95178000Y-133111000D02*
X93750000Y-133111000D01*
X91670000Y-133111000D02*
X90242000Y-133111000D01*
X95165000Y-133151000D02*
X93750000Y-133151000D01*
X91670000Y-133151000D02*
X90255000Y-133151000D01*
X95152000Y-133191000D02*
X93750000Y-133191000D01*
X91670000Y-133191000D02*
X90268000Y-133191000D01*
X95138000Y-133231000D02*
X93750000Y-133231000D01*
X91670000Y-133231000D02*
X90282000Y-133231000D01*
X95124000Y-133271000D02*
X93750000Y-133271000D01*
X91670000Y-133271000D02*
X90296000Y-133271000D01*
X95108000Y-133311000D02*
X93750000Y-133311000D01*
X91670000Y-133311000D02*
X90312000Y-133311000D01*
X95092000Y-133351000D02*
X93750000Y-133351000D01*
X91670000Y-133351000D02*
X90328000Y-133351000D01*
X95075000Y-133391000D02*
X93750000Y-133391000D01*
X91670000Y-133391000D02*
X90345000Y-133391000D01*
X95058000Y-133431000D02*
X93750000Y-133431000D01*
X91670000Y-133431000D02*
X90362000Y-133431000D01*
X95039000Y-133471000D02*
X93750000Y-133471000D01*
X91670000Y-133471000D02*
X90381000Y-133471000D01*
X95020000Y-133511000D02*
X93750000Y-133511000D01*
X91670000Y-133511000D02*
X90400000Y-133511000D01*
X95000000Y-133551000D02*
X93750000Y-133551000D01*
X91670000Y-133551000D02*
X90420000Y-133551000D01*
X94978000Y-133591000D02*
X93750000Y-133591000D01*
X91670000Y-133591000D02*
X90442000Y-133591000D01*
X94957000Y-133631000D02*
X93750000Y-133631000D01*
X91670000Y-133631000D02*
X90463000Y-133631000D01*
X94934000Y-133671000D02*
X93750000Y-133671000D01*
X91670000Y-133671000D02*
X90486000Y-133671000D01*
X94910000Y-133711000D02*
X93750000Y-133711000D01*
X91670000Y-133711000D02*
X90510000Y-133711000D01*
X94885000Y-133751000D02*
X93750000Y-133751000D01*
X91670000Y-133751000D02*
X90535000Y-133751000D01*
X94859000Y-133791000D02*
X93750000Y-133791000D01*
X91670000Y-133791000D02*
X90561000Y-133791000D01*
X94832000Y-133831000D02*
X93750000Y-133831000D01*
X91670000Y-133831000D02*
X90588000Y-133831000D01*
X94805000Y-133871000D02*
X93750000Y-133871000D01*
X91670000Y-133871000D02*
X90615000Y-133871000D01*
X94775000Y-133911000D02*
X93750000Y-133911000D01*
X91670000Y-133911000D02*
X90645000Y-133911000D01*
X94745000Y-133951000D02*
X93750000Y-133951000D01*
X91670000Y-133951000D02*
X90675000Y-133951000D01*
X94714000Y-133991000D02*
X93750000Y-133991000D01*
X91670000Y-133991000D02*
X90706000Y-133991000D01*
X94681000Y-134031000D02*
X93750000Y-134031000D01*
X91670000Y-134031000D02*
X90739000Y-134031000D01*
X94647000Y-134071000D02*
X93750000Y-134071000D01*
X91670000Y-134071000D02*
X90773000Y-134071000D01*
X94611000Y-134111000D02*
X93750000Y-134111000D01*
X91670000Y-134111000D02*
X90809000Y-134111000D01*
X94574000Y-134151000D02*
X93750000Y-134151000D01*
X91670000Y-134151000D02*
X90846000Y-134151000D01*
X94536000Y-134191000D02*
X93750000Y-134191000D01*
X91670000Y-134191000D02*
X90884000Y-134191000D01*
X94495000Y-134231000D02*
X93750000Y-134231000D01*
X91670000Y-134231000D02*
X90925000Y-134231000D01*
X94453000Y-134271000D02*
X93750000Y-134271000D01*
X91670000Y-134271000D02*
X90967000Y-134271000D01*
X94409000Y-134311000D02*
X93750000Y-134311000D01*
X91670000Y-134311000D02*
X91011000Y-134311000D01*
X94363000Y-134351000D02*
X93750000Y-134351000D01*
X91670000Y-134351000D02*
X91057000Y-134351000D01*
X94315000Y-134391000D02*
X91105000Y-134391000D01*
X94264000Y-134431000D02*
X91156000Y-134431000D01*
X94210000Y-134471000D02*
X91210000Y-134471000D01*
X94153000Y-134511000D02*
X91267000Y-134511000D01*
X94093000Y-134551000D02*
X91327000Y-134551000D01*
X94029000Y-134591000D02*
X91391000Y-134591000D01*
X93961000Y-134631000D02*
X91459000Y-134631000D01*
X93888000Y-134671000D02*
X91532000Y-134671000D01*
X93808000Y-134711000D02*
X91612000Y-134711000D01*
X93721000Y-134751000D02*
X91699000Y-134751000D01*
X93625000Y-134791000D02*
X91795000Y-134791000D01*
X93515000Y-134831000D02*
X91905000Y-134831000D01*
X93387000Y-134871000D02*
X92033000Y-134871000D01*
X93228000Y-134911000D02*
X92192000Y-134911000D01*
X92994000Y-134951000D02*
X92426000Y-134951000D01*
X94185000Y-129545225D02*
X94185000Y-130045225D01*
X94435000Y-129795225D02*
X93935000Y-129795225D01*
G04 #@! TO.C,C3*
X94435000Y-106935225D02*
X93935000Y-106935225D01*
X94185000Y-106685225D02*
X94185000Y-107185225D01*
X92994000Y-112091000D02*
X92426000Y-112091000D01*
X93228000Y-112051000D02*
X92192000Y-112051000D01*
X93387000Y-112011000D02*
X92033000Y-112011000D01*
X93515000Y-111971000D02*
X91905000Y-111971000D01*
X93625000Y-111931000D02*
X91795000Y-111931000D01*
X93721000Y-111891000D02*
X91699000Y-111891000D01*
X93808000Y-111851000D02*
X91612000Y-111851000D01*
X93888000Y-111811000D02*
X91532000Y-111811000D01*
X93961000Y-111771000D02*
X91459000Y-111771000D01*
X94029000Y-111731000D02*
X91391000Y-111731000D01*
X94093000Y-111691000D02*
X91327000Y-111691000D01*
X94153000Y-111651000D02*
X91267000Y-111651000D01*
X94210000Y-111611000D02*
X91210000Y-111611000D01*
X94264000Y-111571000D02*
X91156000Y-111571000D01*
X94315000Y-111531000D02*
X91105000Y-111531000D01*
X91670000Y-111491000D02*
X91057000Y-111491000D01*
X94363000Y-111491000D02*
X93750000Y-111491000D01*
X91670000Y-111451000D02*
X91011000Y-111451000D01*
X94409000Y-111451000D02*
X93750000Y-111451000D01*
X91670000Y-111411000D02*
X90967000Y-111411000D01*
X94453000Y-111411000D02*
X93750000Y-111411000D01*
X91670000Y-111371000D02*
X90925000Y-111371000D01*
X94495000Y-111371000D02*
X93750000Y-111371000D01*
X91670000Y-111331000D02*
X90884000Y-111331000D01*
X94536000Y-111331000D02*
X93750000Y-111331000D01*
X91670000Y-111291000D02*
X90846000Y-111291000D01*
X94574000Y-111291000D02*
X93750000Y-111291000D01*
X91670000Y-111251000D02*
X90809000Y-111251000D01*
X94611000Y-111251000D02*
X93750000Y-111251000D01*
X91670000Y-111211000D02*
X90773000Y-111211000D01*
X94647000Y-111211000D02*
X93750000Y-111211000D01*
X91670000Y-111171000D02*
X90739000Y-111171000D01*
X94681000Y-111171000D02*
X93750000Y-111171000D01*
X91670000Y-111131000D02*
X90706000Y-111131000D01*
X94714000Y-111131000D02*
X93750000Y-111131000D01*
X91670000Y-111091000D02*
X90675000Y-111091000D01*
X94745000Y-111091000D02*
X93750000Y-111091000D01*
X91670000Y-111051000D02*
X90645000Y-111051000D01*
X94775000Y-111051000D02*
X93750000Y-111051000D01*
X91670000Y-111011000D02*
X90615000Y-111011000D01*
X94805000Y-111011000D02*
X93750000Y-111011000D01*
X91670000Y-110971000D02*
X90588000Y-110971000D01*
X94832000Y-110971000D02*
X93750000Y-110971000D01*
X91670000Y-110931000D02*
X90561000Y-110931000D01*
X94859000Y-110931000D02*
X93750000Y-110931000D01*
X91670000Y-110891000D02*
X90535000Y-110891000D01*
X94885000Y-110891000D02*
X93750000Y-110891000D01*
X91670000Y-110851000D02*
X90510000Y-110851000D01*
X94910000Y-110851000D02*
X93750000Y-110851000D01*
X91670000Y-110811000D02*
X90486000Y-110811000D01*
X94934000Y-110811000D02*
X93750000Y-110811000D01*
X91670000Y-110771000D02*
X90463000Y-110771000D01*
X94957000Y-110771000D02*
X93750000Y-110771000D01*
X91670000Y-110731000D02*
X90442000Y-110731000D01*
X94978000Y-110731000D02*
X93750000Y-110731000D01*
X91670000Y-110691000D02*
X90420000Y-110691000D01*
X95000000Y-110691000D02*
X93750000Y-110691000D01*
X91670000Y-110651000D02*
X90400000Y-110651000D01*
X95020000Y-110651000D02*
X93750000Y-110651000D01*
X91670000Y-110611000D02*
X90381000Y-110611000D01*
X95039000Y-110611000D02*
X93750000Y-110611000D01*
X91670000Y-110571000D02*
X90362000Y-110571000D01*
X95058000Y-110571000D02*
X93750000Y-110571000D01*
X91670000Y-110531000D02*
X90345000Y-110531000D01*
X95075000Y-110531000D02*
X93750000Y-110531000D01*
X91670000Y-110491000D02*
X90328000Y-110491000D01*
X95092000Y-110491000D02*
X93750000Y-110491000D01*
X91670000Y-110451000D02*
X90312000Y-110451000D01*
X95108000Y-110451000D02*
X93750000Y-110451000D01*
X91670000Y-110411000D02*
X90296000Y-110411000D01*
X95124000Y-110411000D02*
X93750000Y-110411000D01*
X91670000Y-110371000D02*
X90282000Y-110371000D01*
X95138000Y-110371000D02*
X93750000Y-110371000D01*
X91670000Y-110331000D02*
X90268000Y-110331000D01*
X95152000Y-110331000D02*
X93750000Y-110331000D01*
X91670000Y-110291000D02*
X90255000Y-110291000D01*
X95165000Y-110291000D02*
X93750000Y-110291000D01*
X91670000Y-110251000D02*
X90242000Y-110251000D01*
X95178000Y-110251000D02*
X93750000Y-110251000D01*
X91670000Y-110211000D02*
X90230000Y-110211000D01*
X95190000Y-110211000D02*
X93750000Y-110211000D01*
X91670000Y-110170000D02*
X90219000Y-110170000D01*
X95201000Y-110170000D02*
X93750000Y-110170000D01*
X91670000Y-110130000D02*
X90209000Y-110130000D01*
X95211000Y-110130000D02*
X93750000Y-110130000D01*
X91670000Y-110090000D02*
X90199000Y-110090000D01*
X95221000Y-110090000D02*
X93750000Y-110090000D01*
X91670000Y-110050000D02*
X90190000Y-110050000D01*
X95230000Y-110050000D02*
X93750000Y-110050000D01*
X91670000Y-110010000D02*
X90182000Y-110010000D01*
X95238000Y-110010000D02*
X93750000Y-110010000D01*
X91670000Y-109970000D02*
X90174000Y-109970000D01*
X95246000Y-109970000D02*
X93750000Y-109970000D01*
X91670000Y-109930000D02*
X90167000Y-109930000D01*
X95253000Y-109930000D02*
X93750000Y-109930000D01*
X91670000Y-109890000D02*
X90160000Y-109890000D01*
X95260000Y-109890000D02*
X93750000Y-109890000D01*
X91670000Y-109850000D02*
X90154000Y-109850000D01*
X95266000Y-109850000D02*
X93750000Y-109850000D01*
X91670000Y-109810000D02*
X90149000Y-109810000D01*
X95271000Y-109810000D02*
X93750000Y-109810000D01*
X91670000Y-109770000D02*
X90145000Y-109770000D01*
X95275000Y-109770000D02*
X93750000Y-109770000D01*
X91670000Y-109730000D02*
X90141000Y-109730000D01*
X95279000Y-109730000D02*
X93750000Y-109730000D01*
X91670000Y-109690000D02*
X90137000Y-109690000D01*
X95283000Y-109690000D02*
X93750000Y-109690000D01*
X91670000Y-109650000D02*
X90134000Y-109650000D01*
X95286000Y-109650000D02*
X93750000Y-109650000D01*
X91670000Y-109610000D02*
X90132000Y-109610000D01*
X95288000Y-109610000D02*
X93750000Y-109610000D01*
X91670000Y-109570000D02*
X90131000Y-109570000D01*
X95289000Y-109570000D02*
X93750000Y-109570000D01*
X95290000Y-109530000D02*
X93750000Y-109530000D01*
X91670000Y-109530000D02*
X90130000Y-109530000D01*
X95290000Y-109490000D02*
X93750000Y-109490000D01*
X91670000Y-109490000D02*
X90130000Y-109490000D01*
X95330000Y-109490000D02*
G75*
G03X95330000Y-109490000I-2620000J0D01*
G01*
G04 #@! TO.C,C4*
X99160000Y-123250000D02*
X96420000Y-123250000D01*
X99160000Y-118010000D02*
X96420000Y-118010000D01*
X96420000Y-118010000D02*
X96420000Y-123250000D01*
X99160000Y-118010000D02*
X99160000Y-123250000D01*
G04 #@! TO.C,C5*
X99160000Y-129440000D02*
X99160000Y-134680000D01*
X96420000Y-129440000D02*
X96420000Y-134680000D01*
X99160000Y-129440000D02*
X96420000Y-129440000D01*
X99160000Y-134680000D02*
X96420000Y-134680000D01*
G04 #@! TO.C,C6*
X99200000Y-106580000D02*
X99200000Y-111820000D01*
X96460000Y-106580000D02*
X96460000Y-111820000D01*
X99200000Y-106580000D02*
X96460000Y-106580000D01*
X99200000Y-111820000D02*
X96460000Y-111820000D01*
G04 #@! TO.C,C7*
X59235000Y-113314775D02*
X59735000Y-113314775D01*
X59485000Y-113564775D02*
X59485000Y-113064775D01*
X60676000Y-108159000D02*
X61244000Y-108159000D01*
X60442000Y-108199000D02*
X61478000Y-108199000D01*
X60283000Y-108239000D02*
X61637000Y-108239000D01*
X60155000Y-108279000D02*
X61765000Y-108279000D01*
X60045000Y-108319000D02*
X61875000Y-108319000D01*
X59949000Y-108359000D02*
X61971000Y-108359000D01*
X59862000Y-108399000D02*
X62058000Y-108399000D01*
X59782000Y-108439000D02*
X62138000Y-108439000D01*
X59709000Y-108479000D02*
X62211000Y-108479000D01*
X59641000Y-108519000D02*
X62279000Y-108519000D01*
X59577000Y-108559000D02*
X62343000Y-108559000D01*
X59517000Y-108599000D02*
X62403000Y-108599000D01*
X59460000Y-108639000D02*
X62460000Y-108639000D01*
X59406000Y-108679000D02*
X62514000Y-108679000D01*
X59355000Y-108719000D02*
X62565000Y-108719000D01*
X62000000Y-108759000D02*
X62613000Y-108759000D01*
X59307000Y-108759000D02*
X59920000Y-108759000D01*
X62000000Y-108799000D02*
X62659000Y-108799000D01*
X59261000Y-108799000D02*
X59920000Y-108799000D01*
X62000000Y-108839000D02*
X62703000Y-108839000D01*
X59217000Y-108839000D02*
X59920000Y-108839000D01*
X62000000Y-108879000D02*
X62745000Y-108879000D01*
X59175000Y-108879000D02*
X59920000Y-108879000D01*
X62000000Y-108919000D02*
X62786000Y-108919000D01*
X59134000Y-108919000D02*
X59920000Y-108919000D01*
X62000000Y-108959000D02*
X62824000Y-108959000D01*
X59096000Y-108959000D02*
X59920000Y-108959000D01*
X62000000Y-108999000D02*
X62861000Y-108999000D01*
X59059000Y-108999000D02*
X59920000Y-108999000D01*
X62000000Y-109039000D02*
X62897000Y-109039000D01*
X59023000Y-109039000D02*
X59920000Y-109039000D01*
X62000000Y-109079000D02*
X62931000Y-109079000D01*
X58989000Y-109079000D02*
X59920000Y-109079000D01*
X62000000Y-109119000D02*
X62964000Y-109119000D01*
X58956000Y-109119000D02*
X59920000Y-109119000D01*
X62000000Y-109159000D02*
X62995000Y-109159000D01*
X58925000Y-109159000D02*
X59920000Y-109159000D01*
X62000000Y-109199000D02*
X63025000Y-109199000D01*
X58895000Y-109199000D02*
X59920000Y-109199000D01*
X62000000Y-109239000D02*
X63055000Y-109239000D01*
X58865000Y-109239000D02*
X59920000Y-109239000D01*
X62000000Y-109279000D02*
X63082000Y-109279000D01*
X58838000Y-109279000D02*
X59920000Y-109279000D01*
X62000000Y-109319000D02*
X63109000Y-109319000D01*
X58811000Y-109319000D02*
X59920000Y-109319000D01*
X62000000Y-109359000D02*
X63135000Y-109359000D01*
X58785000Y-109359000D02*
X59920000Y-109359000D01*
X62000000Y-109399000D02*
X63160000Y-109399000D01*
X58760000Y-109399000D02*
X59920000Y-109399000D01*
X62000000Y-109439000D02*
X63184000Y-109439000D01*
X58736000Y-109439000D02*
X59920000Y-109439000D01*
X62000000Y-109479000D02*
X63207000Y-109479000D01*
X58713000Y-109479000D02*
X59920000Y-109479000D01*
X62000000Y-109519000D02*
X63228000Y-109519000D01*
X58692000Y-109519000D02*
X59920000Y-109519000D01*
X62000000Y-109559000D02*
X63250000Y-109559000D01*
X58670000Y-109559000D02*
X59920000Y-109559000D01*
X62000000Y-109599000D02*
X63270000Y-109599000D01*
X58650000Y-109599000D02*
X59920000Y-109599000D01*
X62000000Y-109639000D02*
X63289000Y-109639000D01*
X58631000Y-109639000D02*
X59920000Y-109639000D01*
X62000000Y-109679000D02*
X63308000Y-109679000D01*
X58612000Y-109679000D02*
X59920000Y-109679000D01*
X62000000Y-109719000D02*
X63325000Y-109719000D01*
X58595000Y-109719000D02*
X59920000Y-109719000D01*
X62000000Y-109759000D02*
X63342000Y-109759000D01*
X58578000Y-109759000D02*
X59920000Y-109759000D01*
X62000000Y-109799000D02*
X63358000Y-109799000D01*
X58562000Y-109799000D02*
X59920000Y-109799000D01*
X62000000Y-109839000D02*
X63374000Y-109839000D01*
X58546000Y-109839000D02*
X59920000Y-109839000D01*
X62000000Y-109879000D02*
X63388000Y-109879000D01*
X58532000Y-109879000D02*
X59920000Y-109879000D01*
X62000000Y-109919000D02*
X63402000Y-109919000D01*
X58518000Y-109919000D02*
X59920000Y-109919000D01*
X62000000Y-109959000D02*
X63415000Y-109959000D01*
X58505000Y-109959000D02*
X59920000Y-109959000D01*
X62000000Y-109999000D02*
X63428000Y-109999000D01*
X58492000Y-109999000D02*
X59920000Y-109999000D01*
X62000000Y-110039000D02*
X63440000Y-110039000D01*
X58480000Y-110039000D02*
X59920000Y-110039000D01*
X62000000Y-110080000D02*
X63451000Y-110080000D01*
X58469000Y-110080000D02*
X59920000Y-110080000D01*
X62000000Y-110120000D02*
X63461000Y-110120000D01*
X58459000Y-110120000D02*
X59920000Y-110120000D01*
X62000000Y-110160000D02*
X63471000Y-110160000D01*
X58449000Y-110160000D02*
X59920000Y-110160000D01*
X62000000Y-110200000D02*
X63480000Y-110200000D01*
X58440000Y-110200000D02*
X59920000Y-110200000D01*
X62000000Y-110240000D02*
X63488000Y-110240000D01*
X58432000Y-110240000D02*
X59920000Y-110240000D01*
X62000000Y-110280000D02*
X63496000Y-110280000D01*
X58424000Y-110280000D02*
X59920000Y-110280000D01*
X62000000Y-110320000D02*
X63503000Y-110320000D01*
X58417000Y-110320000D02*
X59920000Y-110320000D01*
X62000000Y-110360000D02*
X63510000Y-110360000D01*
X58410000Y-110360000D02*
X59920000Y-110360000D01*
X62000000Y-110400000D02*
X63516000Y-110400000D01*
X58404000Y-110400000D02*
X59920000Y-110400000D01*
X62000000Y-110440000D02*
X63521000Y-110440000D01*
X58399000Y-110440000D02*
X59920000Y-110440000D01*
X62000000Y-110480000D02*
X63525000Y-110480000D01*
X58395000Y-110480000D02*
X59920000Y-110480000D01*
X62000000Y-110520000D02*
X63529000Y-110520000D01*
X58391000Y-110520000D02*
X59920000Y-110520000D01*
X62000000Y-110560000D02*
X63533000Y-110560000D01*
X58387000Y-110560000D02*
X59920000Y-110560000D01*
X62000000Y-110600000D02*
X63536000Y-110600000D01*
X58384000Y-110600000D02*
X59920000Y-110600000D01*
X62000000Y-110640000D02*
X63538000Y-110640000D01*
X58382000Y-110640000D02*
X59920000Y-110640000D01*
X62000000Y-110680000D02*
X63539000Y-110680000D01*
X58381000Y-110680000D02*
X59920000Y-110680000D01*
X58380000Y-110720000D02*
X59920000Y-110720000D01*
X62000000Y-110720000D02*
X63540000Y-110720000D01*
X58380000Y-110760000D02*
X59920000Y-110760000D01*
X62000000Y-110760000D02*
X63540000Y-110760000D01*
X63580000Y-110760000D02*
G75*
G03X63580000Y-110760000I-2620000J0D01*
G01*
G04 #@! TO.C,C8*
X63580000Y-130540000D02*
G75*
G03X63580000Y-130540000I-2620000J0D01*
G01*
X59920000Y-130540000D02*
X58380000Y-130540000D01*
X63540000Y-130540000D02*
X62000000Y-130540000D01*
X59920000Y-130580000D02*
X58380000Y-130580000D01*
X63540000Y-130580000D02*
X62000000Y-130580000D01*
X63539000Y-130620000D02*
X62000000Y-130620000D01*
X59920000Y-130620000D02*
X58381000Y-130620000D01*
X63538000Y-130660000D02*
X62000000Y-130660000D01*
X59920000Y-130660000D02*
X58382000Y-130660000D01*
X63536000Y-130700000D02*
X62000000Y-130700000D01*
X59920000Y-130700000D02*
X58384000Y-130700000D01*
X63533000Y-130740000D02*
X62000000Y-130740000D01*
X59920000Y-130740000D02*
X58387000Y-130740000D01*
X63529000Y-130780000D02*
X62000000Y-130780000D01*
X59920000Y-130780000D02*
X58391000Y-130780000D01*
X63525000Y-130820000D02*
X62000000Y-130820000D01*
X59920000Y-130820000D02*
X58395000Y-130820000D01*
X63521000Y-130860000D02*
X62000000Y-130860000D01*
X59920000Y-130860000D02*
X58399000Y-130860000D01*
X63516000Y-130900000D02*
X62000000Y-130900000D01*
X59920000Y-130900000D02*
X58404000Y-130900000D01*
X63510000Y-130940000D02*
X62000000Y-130940000D01*
X59920000Y-130940000D02*
X58410000Y-130940000D01*
X63503000Y-130980000D02*
X62000000Y-130980000D01*
X59920000Y-130980000D02*
X58417000Y-130980000D01*
X63496000Y-131020000D02*
X62000000Y-131020000D01*
X59920000Y-131020000D02*
X58424000Y-131020000D01*
X63488000Y-131060000D02*
X62000000Y-131060000D01*
X59920000Y-131060000D02*
X58432000Y-131060000D01*
X63480000Y-131100000D02*
X62000000Y-131100000D01*
X59920000Y-131100000D02*
X58440000Y-131100000D01*
X63471000Y-131140000D02*
X62000000Y-131140000D01*
X59920000Y-131140000D02*
X58449000Y-131140000D01*
X63461000Y-131180000D02*
X62000000Y-131180000D01*
X59920000Y-131180000D02*
X58459000Y-131180000D01*
X63451000Y-131220000D02*
X62000000Y-131220000D01*
X59920000Y-131220000D02*
X58469000Y-131220000D01*
X63440000Y-131261000D02*
X62000000Y-131261000D01*
X59920000Y-131261000D02*
X58480000Y-131261000D01*
X63428000Y-131301000D02*
X62000000Y-131301000D01*
X59920000Y-131301000D02*
X58492000Y-131301000D01*
X63415000Y-131341000D02*
X62000000Y-131341000D01*
X59920000Y-131341000D02*
X58505000Y-131341000D01*
X63402000Y-131381000D02*
X62000000Y-131381000D01*
X59920000Y-131381000D02*
X58518000Y-131381000D01*
X63388000Y-131421000D02*
X62000000Y-131421000D01*
X59920000Y-131421000D02*
X58532000Y-131421000D01*
X63374000Y-131461000D02*
X62000000Y-131461000D01*
X59920000Y-131461000D02*
X58546000Y-131461000D01*
X63358000Y-131501000D02*
X62000000Y-131501000D01*
X59920000Y-131501000D02*
X58562000Y-131501000D01*
X63342000Y-131541000D02*
X62000000Y-131541000D01*
X59920000Y-131541000D02*
X58578000Y-131541000D01*
X63325000Y-131581000D02*
X62000000Y-131581000D01*
X59920000Y-131581000D02*
X58595000Y-131581000D01*
X63308000Y-131621000D02*
X62000000Y-131621000D01*
X59920000Y-131621000D02*
X58612000Y-131621000D01*
X63289000Y-131661000D02*
X62000000Y-131661000D01*
X59920000Y-131661000D02*
X58631000Y-131661000D01*
X63270000Y-131701000D02*
X62000000Y-131701000D01*
X59920000Y-131701000D02*
X58650000Y-131701000D01*
X63250000Y-131741000D02*
X62000000Y-131741000D01*
X59920000Y-131741000D02*
X58670000Y-131741000D01*
X63228000Y-131781000D02*
X62000000Y-131781000D01*
X59920000Y-131781000D02*
X58692000Y-131781000D01*
X63207000Y-131821000D02*
X62000000Y-131821000D01*
X59920000Y-131821000D02*
X58713000Y-131821000D01*
X63184000Y-131861000D02*
X62000000Y-131861000D01*
X59920000Y-131861000D02*
X58736000Y-131861000D01*
X63160000Y-131901000D02*
X62000000Y-131901000D01*
X59920000Y-131901000D02*
X58760000Y-131901000D01*
X63135000Y-131941000D02*
X62000000Y-131941000D01*
X59920000Y-131941000D02*
X58785000Y-131941000D01*
X63109000Y-131981000D02*
X62000000Y-131981000D01*
X59920000Y-131981000D02*
X58811000Y-131981000D01*
X63082000Y-132021000D02*
X62000000Y-132021000D01*
X59920000Y-132021000D02*
X58838000Y-132021000D01*
X63055000Y-132061000D02*
X62000000Y-132061000D01*
X59920000Y-132061000D02*
X58865000Y-132061000D01*
X63025000Y-132101000D02*
X62000000Y-132101000D01*
X59920000Y-132101000D02*
X58895000Y-132101000D01*
X62995000Y-132141000D02*
X62000000Y-132141000D01*
X59920000Y-132141000D02*
X58925000Y-132141000D01*
X62964000Y-132181000D02*
X62000000Y-132181000D01*
X59920000Y-132181000D02*
X58956000Y-132181000D01*
X62931000Y-132221000D02*
X62000000Y-132221000D01*
X59920000Y-132221000D02*
X58989000Y-132221000D01*
X62897000Y-132261000D02*
X62000000Y-132261000D01*
X59920000Y-132261000D02*
X59023000Y-132261000D01*
X62861000Y-132301000D02*
X62000000Y-132301000D01*
X59920000Y-132301000D02*
X59059000Y-132301000D01*
X62824000Y-132341000D02*
X62000000Y-132341000D01*
X59920000Y-132341000D02*
X59096000Y-132341000D01*
X62786000Y-132381000D02*
X62000000Y-132381000D01*
X59920000Y-132381000D02*
X59134000Y-132381000D01*
X62745000Y-132421000D02*
X62000000Y-132421000D01*
X59920000Y-132421000D02*
X59175000Y-132421000D01*
X62703000Y-132461000D02*
X62000000Y-132461000D01*
X59920000Y-132461000D02*
X59217000Y-132461000D01*
X62659000Y-132501000D02*
X62000000Y-132501000D01*
X59920000Y-132501000D02*
X59261000Y-132501000D01*
X62613000Y-132541000D02*
X62000000Y-132541000D01*
X59920000Y-132541000D02*
X59307000Y-132541000D01*
X62565000Y-132581000D02*
X59355000Y-132581000D01*
X62514000Y-132621000D02*
X59406000Y-132621000D01*
X62460000Y-132661000D02*
X59460000Y-132661000D01*
X62403000Y-132701000D02*
X59517000Y-132701000D01*
X62343000Y-132741000D02*
X59577000Y-132741000D01*
X62279000Y-132781000D02*
X59641000Y-132781000D01*
X62211000Y-132821000D02*
X59709000Y-132821000D01*
X62138000Y-132861000D02*
X59782000Y-132861000D01*
X62058000Y-132901000D02*
X59862000Y-132901000D01*
X61971000Y-132941000D02*
X59949000Y-132941000D01*
X61875000Y-132981000D02*
X60045000Y-132981000D01*
X61765000Y-133021000D02*
X60155000Y-133021000D01*
X61637000Y-133061000D02*
X60283000Y-133061000D01*
X61478000Y-133101000D02*
X60442000Y-133101000D01*
X61244000Y-133141000D02*
X60676000Y-133141000D01*
X62435000Y-127735225D02*
X62435000Y-128235225D01*
X62685000Y-127985225D02*
X62185000Y-127985225D01*
G04 #@! TO.C,C9*
X102970000Y-118010000D02*
X102970000Y-123250000D01*
X100230000Y-118010000D02*
X100230000Y-123250000D01*
X102970000Y-118010000D02*
X100230000Y-118010000D01*
X102970000Y-123250000D02*
X100230000Y-123250000D01*
G04 #@! TO.C,C10*
X102970000Y-134680000D02*
X100230000Y-134680000D01*
X102970000Y-129440000D02*
X100230000Y-129440000D01*
X100230000Y-129440000D02*
X100230000Y-134680000D01*
X102970000Y-129440000D02*
X102970000Y-134680000D01*
G04 #@! TO.C,C11*
X102970000Y-111820000D02*
X100230000Y-111820000D01*
X102970000Y-106580000D02*
X100230000Y-106580000D01*
X100230000Y-106580000D02*
X100230000Y-111820000D01*
X102970000Y-106580000D02*
X102970000Y-111820000D01*
G04 #@! TO.C,C12*
X77550000Y-107680000D02*
G75*
G03X77550000Y-107680000I-2620000J0D01*
G01*
X73890000Y-107680000D02*
X72350000Y-107680000D01*
X77510000Y-107680000D02*
X75970000Y-107680000D01*
X73890000Y-107720000D02*
X72350000Y-107720000D01*
X77510000Y-107720000D02*
X75970000Y-107720000D01*
X77509000Y-107760000D02*
X75970000Y-107760000D01*
X73890000Y-107760000D02*
X72351000Y-107760000D01*
X77508000Y-107800000D02*
X75970000Y-107800000D01*
X73890000Y-107800000D02*
X72352000Y-107800000D01*
X77506000Y-107840000D02*
X75970000Y-107840000D01*
X73890000Y-107840000D02*
X72354000Y-107840000D01*
X77503000Y-107880000D02*
X75970000Y-107880000D01*
X73890000Y-107880000D02*
X72357000Y-107880000D01*
X77499000Y-107920000D02*
X75970000Y-107920000D01*
X73890000Y-107920000D02*
X72361000Y-107920000D01*
X77495000Y-107960000D02*
X75970000Y-107960000D01*
X73890000Y-107960000D02*
X72365000Y-107960000D01*
X77491000Y-108000000D02*
X75970000Y-108000000D01*
X73890000Y-108000000D02*
X72369000Y-108000000D01*
X77486000Y-108040000D02*
X75970000Y-108040000D01*
X73890000Y-108040000D02*
X72374000Y-108040000D01*
X77480000Y-108080000D02*
X75970000Y-108080000D01*
X73890000Y-108080000D02*
X72380000Y-108080000D01*
X77473000Y-108120000D02*
X75970000Y-108120000D01*
X73890000Y-108120000D02*
X72387000Y-108120000D01*
X77466000Y-108160000D02*
X75970000Y-108160000D01*
X73890000Y-108160000D02*
X72394000Y-108160000D01*
X77458000Y-108200000D02*
X75970000Y-108200000D01*
X73890000Y-108200000D02*
X72402000Y-108200000D01*
X77450000Y-108240000D02*
X75970000Y-108240000D01*
X73890000Y-108240000D02*
X72410000Y-108240000D01*
X77441000Y-108280000D02*
X75970000Y-108280000D01*
X73890000Y-108280000D02*
X72419000Y-108280000D01*
X77431000Y-108320000D02*
X75970000Y-108320000D01*
X73890000Y-108320000D02*
X72429000Y-108320000D01*
X77421000Y-108360000D02*
X75970000Y-108360000D01*
X73890000Y-108360000D02*
X72439000Y-108360000D01*
X77410000Y-108401000D02*
X75970000Y-108401000D01*
X73890000Y-108401000D02*
X72450000Y-108401000D01*
X77398000Y-108441000D02*
X75970000Y-108441000D01*
X73890000Y-108441000D02*
X72462000Y-108441000D01*
X77385000Y-108481000D02*
X75970000Y-108481000D01*
X73890000Y-108481000D02*
X72475000Y-108481000D01*
X77372000Y-108521000D02*
X75970000Y-108521000D01*
X73890000Y-108521000D02*
X72488000Y-108521000D01*
X77358000Y-108561000D02*
X75970000Y-108561000D01*
X73890000Y-108561000D02*
X72502000Y-108561000D01*
X77344000Y-108601000D02*
X75970000Y-108601000D01*
X73890000Y-108601000D02*
X72516000Y-108601000D01*
X77328000Y-108641000D02*
X75970000Y-108641000D01*
X73890000Y-108641000D02*
X72532000Y-108641000D01*
X77312000Y-108681000D02*
X75970000Y-108681000D01*
X73890000Y-108681000D02*
X72548000Y-108681000D01*
X77295000Y-108721000D02*
X75970000Y-108721000D01*
X73890000Y-108721000D02*
X72565000Y-108721000D01*
X77278000Y-108761000D02*
X75970000Y-108761000D01*
X73890000Y-108761000D02*
X72582000Y-108761000D01*
X77259000Y-108801000D02*
X75970000Y-108801000D01*
X73890000Y-108801000D02*
X72601000Y-108801000D01*
X77240000Y-108841000D02*
X75970000Y-108841000D01*
X73890000Y-108841000D02*
X72620000Y-108841000D01*
X77220000Y-108881000D02*
X75970000Y-108881000D01*
X73890000Y-108881000D02*
X72640000Y-108881000D01*
X77198000Y-108921000D02*
X75970000Y-108921000D01*
X73890000Y-108921000D02*
X72662000Y-108921000D01*
X77177000Y-108961000D02*
X75970000Y-108961000D01*
X73890000Y-108961000D02*
X72683000Y-108961000D01*
X77154000Y-109001000D02*
X75970000Y-109001000D01*
X73890000Y-109001000D02*
X72706000Y-109001000D01*
X77130000Y-109041000D02*
X75970000Y-109041000D01*
X73890000Y-109041000D02*
X72730000Y-109041000D01*
X77105000Y-109081000D02*
X75970000Y-109081000D01*
X73890000Y-109081000D02*
X72755000Y-109081000D01*
X77079000Y-109121000D02*
X75970000Y-109121000D01*
X73890000Y-109121000D02*
X72781000Y-109121000D01*
X77052000Y-109161000D02*
X75970000Y-109161000D01*
X73890000Y-109161000D02*
X72808000Y-109161000D01*
X77025000Y-109201000D02*
X75970000Y-109201000D01*
X73890000Y-109201000D02*
X72835000Y-109201000D01*
X76995000Y-109241000D02*
X75970000Y-109241000D01*
X73890000Y-109241000D02*
X72865000Y-109241000D01*
X76965000Y-109281000D02*
X75970000Y-109281000D01*
X73890000Y-109281000D02*
X72895000Y-109281000D01*
X76934000Y-109321000D02*
X75970000Y-109321000D01*
X73890000Y-109321000D02*
X72926000Y-109321000D01*
X76901000Y-109361000D02*
X75970000Y-109361000D01*
X73890000Y-109361000D02*
X72959000Y-109361000D01*
X76867000Y-109401000D02*
X75970000Y-109401000D01*
X73890000Y-109401000D02*
X72993000Y-109401000D01*
X76831000Y-109441000D02*
X75970000Y-109441000D01*
X73890000Y-109441000D02*
X73029000Y-109441000D01*
X76794000Y-109481000D02*
X75970000Y-109481000D01*
X73890000Y-109481000D02*
X73066000Y-109481000D01*
X76756000Y-109521000D02*
X75970000Y-109521000D01*
X73890000Y-109521000D02*
X73104000Y-109521000D01*
X76715000Y-109561000D02*
X75970000Y-109561000D01*
X73890000Y-109561000D02*
X73145000Y-109561000D01*
X76673000Y-109601000D02*
X75970000Y-109601000D01*
X73890000Y-109601000D02*
X73187000Y-109601000D01*
X76629000Y-109641000D02*
X75970000Y-109641000D01*
X73890000Y-109641000D02*
X73231000Y-109641000D01*
X76583000Y-109681000D02*
X75970000Y-109681000D01*
X73890000Y-109681000D02*
X73277000Y-109681000D01*
X76535000Y-109721000D02*
X73325000Y-109721000D01*
X76484000Y-109761000D02*
X73376000Y-109761000D01*
X76430000Y-109801000D02*
X73430000Y-109801000D01*
X76373000Y-109841000D02*
X73487000Y-109841000D01*
X76313000Y-109881000D02*
X73547000Y-109881000D01*
X76249000Y-109921000D02*
X73611000Y-109921000D01*
X76181000Y-109961000D02*
X73679000Y-109961000D01*
X76108000Y-110001000D02*
X73752000Y-110001000D01*
X76028000Y-110041000D02*
X73832000Y-110041000D01*
X75941000Y-110081000D02*
X73919000Y-110081000D01*
X75845000Y-110121000D02*
X74015000Y-110121000D01*
X75735000Y-110161000D02*
X74125000Y-110161000D01*
X75607000Y-110201000D02*
X74253000Y-110201000D01*
X75448000Y-110241000D02*
X74412000Y-110241000D01*
X75214000Y-110281000D02*
X74646000Y-110281000D01*
X76405000Y-104875225D02*
X76405000Y-105375225D01*
X76655000Y-105125225D02*
X76155000Y-105125225D01*
G04 #@! TO.C,D1*
X68580462Y-129090000D02*
G75*
G03X67035170Y-134640000I-462J-2990000D01*
G01*
X68579538Y-129090000D02*
G75*
G02X70124830Y-134640000I462J-2990000D01*
G01*
X71080000Y-132080000D02*
G75*
G03X71080000Y-132080000I-2500000J0D01*
G01*
X67035000Y-134640000D02*
X70125000Y-134640000D01*
G04 #@! TO.C,D2*
X74930462Y-129090000D02*
G75*
G03X73385170Y-134640000I-462J-2990000D01*
G01*
X74929538Y-129090000D02*
G75*
G02X76474830Y-134640000I462J-2990000D01*
G01*
X77430000Y-132080000D02*
G75*
G03X77430000Y-132080000I-2500000J0D01*
G01*
X73385000Y-134640000D02*
X76475000Y-134640000D01*
G04 #@! TO.C,D3*
X79735000Y-134640000D02*
X82825000Y-134640000D01*
X83780000Y-132080000D02*
G75*
G03X83780000Y-132080000I-2500000J0D01*
G01*
X81279538Y-129090000D02*
G75*
G02X82824830Y-134640000I462J-2990000D01*
G01*
X81280462Y-129090000D02*
G75*
G03X79735170Y-134640000I-462J-2990000D01*
G01*
G04 #@! TO.C,F1*
X57910000Y-106410000D02*
X54239000Y-106410000D01*
X52481000Y-106410000D02*
X43710000Y-106410000D01*
X57910000Y-103210000D02*
X49138000Y-103210000D01*
X47381000Y-103210000D02*
X43710000Y-103210000D01*
X57910000Y-106410000D02*
X57910000Y-103210000D01*
X43710000Y-106410000D02*
X43710000Y-103210000D01*
G04 #@! TO.C,F2*
X43710000Y-138160000D02*
X43710000Y-134960000D01*
X57910000Y-138160000D02*
X57910000Y-134960000D01*
X47381000Y-134960000D02*
X43710000Y-134960000D01*
X57910000Y-134960000D02*
X49138000Y-134960000D01*
X52481000Y-138160000D02*
X43710000Y-138160000D01*
X57910000Y-138160000D02*
X54239000Y-138160000D01*
G04 #@! TO.C,F3*
X85360000Y-116310000D02*
X85360000Y-112639000D01*
X85360000Y-110881000D02*
X85360000Y-102110000D01*
X88560000Y-116310000D02*
X88560000Y-107538000D01*
X88560000Y-105781000D02*
X88560000Y-102110000D01*
X85360000Y-116310000D02*
X88560000Y-116310000D01*
X85360000Y-102110000D02*
X88560000Y-102110000D01*
G04 #@! TO.C,J1*
X47830000Y-109380000D02*
X35610000Y-109380000D01*
X35610000Y-109380000D02*
X35610000Y-131920000D01*
X35610000Y-131920000D02*
X47830000Y-131920000D01*
X47830000Y-131920000D02*
X47830000Y-109380000D01*
X37110000Y-109380000D02*
X38910000Y-109380000D01*
X38910000Y-109380000D02*
X38910000Y-131920000D01*
X38910000Y-131920000D02*
X37110000Y-131920000D01*
X37110000Y-131920000D02*
X37110000Y-109380000D01*
X35610000Y-112030000D02*
X35610000Y-114030000D01*
X35610000Y-114030000D02*
X37110000Y-113780000D01*
X37110000Y-113780000D02*
X37110000Y-112280000D01*
X37110000Y-112280000D02*
X35610000Y-112030000D01*
X35610000Y-117110000D02*
X35610000Y-119110000D01*
X35610000Y-119110000D02*
X37110000Y-118860000D01*
X37110000Y-118860000D02*
X37110000Y-117360000D01*
X37110000Y-117360000D02*
X35610000Y-117110000D01*
X35610000Y-122190000D02*
X35610000Y-124190000D01*
X35610000Y-124190000D02*
X37110000Y-123940000D01*
X37110000Y-123940000D02*
X37110000Y-122440000D01*
X37110000Y-122440000D02*
X35610000Y-122190000D01*
X35610000Y-127270000D02*
X35610000Y-129270000D01*
X35610000Y-129270000D02*
X37110000Y-129020000D01*
X37110000Y-129020000D02*
X37110000Y-127520000D01*
X37110000Y-127520000D02*
X35610000Y-127270000D01*
X48630000Y-113330000D02*
X48030000Y-113030000D01*
X48030000Y-113030000D02*
X48630000Y-112730000D01*
X48630000Y-112730000D02*
X48630000Y-113330000D01*
G04 #@! TO.C,J2*
X57725000Y-124520000D02*
X60385000Y-124520000D01*
X57725000Y-119380000D02*
X57725000Y-124520000D01*
X60385000Y-119380000D02*
X60385000Y-124520000D01*
X57725000Y-119380000D02*
X60385000Y-119380000D01*
X57725000Y-118110000D02*
X57725000Y-116780000D01*
X57725000Y-116780000D02*
X59055000Y-116780000D01*
G04 #@! TO.C,J3*
X182610000Y-115975000D02*
X211090000Y-115975000D01*
X211090000Y-115975000D02*
X211090000Y-125325000D01*
X211090000Y-125325000D02*
X182610000Y-125325000D01*
X182610000Y-125325000D02*
X182610000Y-115975000D01*
X182360000Y-125575000D02*
X184900000Y-125575000D01*
X182360000Y-125575000D02*
X182360000Y-123035000D01*
G04 #@! TO.C,J4*
X144260000Y-125575000D02*
X144260000Y-123035000D01*
X144260000Y-125575000D02*
X146800000Y-125575000D01*
X144510000Y-125325000D02*
X144510000Y-115975000D01*
X172990000Y-125325000D02*
X144510000Y-125325000D01*
X172990000Y-115975000D02*
X172990000Y-125325000D01*
X144510000Y-115975000D02*
X172990000Y-115975000D01*
G04 #@! TO.C,J5*
X106410000Y-115975000D02*
X134890000Y-115975000D01*
X134890000Y-115975000D02*
X134890000Y-125325000D01*
X134890000Y-125325000D02*
X106410000Y-125325000D01*
X106410000Y-125325000D02*
X106410000Y-115975000D01*
X106160000Y-125575000D02*
X108700000Y-125575000D01*
X106160000Y-125575000D02*
X106160000Y-123035000D01*
G04 #@! TO.C,R1*
X69620000Y-119920000D02*
X69950000Y-119920000D01*
X69950000Y-119920000D02*
X69950000Y-126460000D01*
X69950000Y-126460000D02*
X69620000Y-126460000D01*
X67540000Y-119920000D02*
X67210000Y-119920000D01*
X67210000Y-119920000D02*
X67210000Y-126460000D01*
X67210000Y-126460000D02*
X67540000Y-126460000D01*
G04 #@! TO.C,R2*
X73560000Y-126460000D02*
X73890000Y-126460000D01*
X73560000Y-119920000D02*
X73560000Y-126460000D01*
X73890000Y-119920000D02*
X73560000Y-119920000D01*
X76300000Y-126460000D02*
X75970000Y-126460000D01*
X76300000Y-119920000D02*
X76300000Y-126460000D01*
X75970000Y-119920000D02*
X76300000Y-119920000D01*
G04 #@! TO.C,R3*
X82320000Y-119920000D02*
X82650000Y-119920000D01*
X82650000Y-119920000D02*
X82650000Y-126460000D01*
X82650000Y-126460000D02*
X82320000Y-126460000D01*
X80240000Y-119920000D02*
X79910000Y-119920000D01*
X79910000Y-119920000D02*
X79910000Y-126460000D01*
X79910000Y-126460000D02*
X80240000Y-126460000D01*
G04 #@! TO.C,U1*
X65310000Y-114340000D02*
X65310000Y-104100000D01*
X69951000Y-114340000D02*
X69951000Y-104100000D01*
X65310000Y-114340000D02*
X69951000Y-114340000D01*
X65310000Y-104100000D02*
X69951000Y-104100000D01*
X66820000Y-114340000D02*
X66820000Y-104100000D01*
X65310000Y-111070000D02*
X66820000Y-111070000D01*
X65310000Y-107369000D02*
X66820000Y-107369000D01*
G04 #@! TO.C,D4*
X79090000Y-110404000D02*
X80930000Y-110404000D01*
X79090000Y-110164000D02*
X80930000Y-110164000D01*
X79090000Y-110284000D02*
X80930000Y-110284000D01*
X80010000Y-106400000D02*
X80010000Y-107580000D01*
X80010000Y-112040000D02*
X80010000Y-110860000D01*
X79090000Y-107580000D02*
X79090000Y-110860000D01*
X80930000Y-107580000D02*
X79090000Y-107580000D01*
X80930000Y-110860000D02*
X80930000Y-107580000D01*
X79090000Y-110860000D02*
X80930000Y-110860000D01*
G04 #@! TO.C,D5*
X83470000Y-107580000D02*
X81630000Y-107580000D01*
X81630000Y-107580000D02*
X81630000Y-110860000D01*
X81630000Y-110860000D02*
X83470000Y-110860000D01*
X83470000Y-110860000D02*
X83470000Y-107580000D01*
X82550000Y-106400000D02*
X82550000Y-107580000D01*
X82550000Y-112040000D02*
X82550000Y-110860000D01*
X83470000Y-108156000D02*
X81630000Y-108156000D01*
X83470000Y-108276000D02*
X81630000Y-108276000D01*
X83470000Y-108036000D02*
X81630000Y-108036000D01*
G04 #@! TO.C,C1*
D13*
X92543333Y-117197142D02*
X92495714Y-117244761D01*
X92352857Y-117292380D01*
X92257619Y-117292380D01*
X92114761Y-117244761D01*
X92019523Y-117149523D01*
X91971904Y-117054285D01*
X91924285Y-116863809D01*
X91924285Y-116720952D01*
X91971904Y-116530476D01*
X92019523Y-116435238D01*
X92114761Y-116340000D01*
X92257619Y-116292380D01*
X92352857Y-116292380D01*
X92495714Y-116340000D01*
X92543333Y-116387619D01*
X93495714Y-117292380D02*
X92924285Y-117292380D01*
X93210000Y-117292380D02*
X93210000Y-116292380D01*
X93114761Y-116435238D01*
X93019523Y-116530476D01*
X92924285Y-116578095D01*
G04 #@! TO.C,C2*
X92543333Y-128627142D02*
X92495714Y-128674761D01*
X92352857Y-128722380D01*
X92257619Y-128722380D01*
X92114761Y-128674761D01*
X92019523Y-128579523D01*
X91971904Y-128484285D01*
X91924285Y-128293809D01*
X91924285Y-128150952D01*
X91971904Y-127960476D01*
X92019523Y-127865238D01*
X92114761Y-127770000D01*
X92257619Y-127722380D01*
X92352857Y-127722380D01*
X92495714Y-127770000D01*
X92543333Y-127817619D01*
X92924285Y-127817619D02*
X92971904Y-127770000D01*
X93067142Y-127722380D01*
X93305238Y-127722380D01*
X93400476Y-127770000D01*
X93448095Y-127817619D01*
X93495714Y-127912857D01*
X93495714Y-128008095D01*
X93448095Y-128150952D01*
X92876666Y-128722380D01*
X93495714Y-128722380D01*
G04 #@! TO.C,C3*
X92543333Y-105767142D02*
X92495714Y-105814761D01*
X92352857Y-105862380D01*
X92257619Y-105862380D01*
X92114761Y-105814761D01*
X92019523Y-105719523D01*
X91971904Y-105624285D01*
X91924285Y-105433809D01*
X91924285Y-105290952D01*
X91971904Y-105100476D01*
X92019523Y-105005238D01*
X92114761Y-104910000D01*
X92257619Y-104862380D01*
X92352857Y-104862380D01*
X92495714Y-104910000D01*
X92543333Y-104957619D01*
X92876666Y-104862380D02*
X93495714Y-104862380D01*
X93162380Y-105243333D01*
X93305238Y-105243333D01*
X93400476Y-105290952D01*
X93448095Y-105338571D01*
X93495714Y-105433809D01*
X93495714Y-105671904D01*
X93448095Y-105767142D01*
X93400476Y-105814761D01*
X93305238Y-105862380D01*
X93019523Y-105862380D01*
X92924285Y-105814761D01*
X92876666Y-105767142D01*
G04 #@! TO.C,C4*
X97623333Y-117197142D02*
X97575714Y-117244761D01*
X97432857Y-117292380D01*
X97337619Y-117292380D01*
X97194761Y-117244761D01*
X97099523Y-117149523D01*
X97051904Y-117054285D01*
X97004285Y-116863809D01*
X97004285Y-116720952D01*
X97051904Y-116530476D01*
X97099523Y-116435238D01*
X97194761Y-116340000D01*
X97337619Y-116292380D01*
X97432857Y-116292380D01*
X97575714Y-116340000D01*
X97623333Y-116387619D01*
X98480476Y-116625714D02*
X98480476Y-117292380D01*
X98242380Y-116244761D02*
X98004285Y-116959047D01*
X98623333Y-116959047D01*
G04 #@! TO.C,C5*
X97623333Y-128627142D02*
X97575714Y-128674761D01*
X97432857Y-128722380D01*
X97337619Y-128722380D01*
X97194761Y-128674761D01*
X97099523Y-128579523D01*
X97051904Y-128484285D01*
X97004285Y-128293809D01*
X97004285Y-128150952D01*
X97051904Y-127960476D01*
X97099523Y-127865238D01*
X97194761Y-127770000D01*
X97337619Y-127722380D01*
X97432857Y-127722380D01*
X97575714Y-127770000D01*
X97623333Y-127817619D01*
X98528095Y-127722380D02*
X98051904Y-127722380D01*
X98004285Y-128198571D01*
X98051904Y-128150952D01*
X98147142Y-128103333D01*
X98385238Y-128103333D01*
X98480476Y-128150952D01*
X98528095Y-128198571D01*
X98575714Y-128293809D01*
X98575714Y-128531904D01*
X98528095Y-128627142D01*
X98480476Y-128674761D01*
X98385238Y-128722380D01*
X98147142Y-128722380D01*
X98051904Y-128674761D01*
X98004285Y-128627142D01*
G04 #@! TO.C,C6*
X97623333Y-105767142D02*
X97575714Y-105814761D01*
X97432857Y-105862380D01*
X97337619Y-105862380D01*
X97194761Y-105814761D01*
X97099523Y-105719523D01*
X97051904Y-105624285D01*
X97004285Y-105433809D01*
X97004285Y-105290952D01*
X97051904Y-105100476D01*
X97099523Y-105005238D01*
X97194761Y-104910000D01*
X97337619Y-104862380D01*
X97432857Y-104862380D01*
X97575714Y-104910000D01*
X97623333Y-104957619D01*
X98480476Y-104862380D02*
X98290000Y-104862380D01*
X98194761Y-104910000D01*
X98147142Y-104957619D01*
X98051904Y-105100476D01*
X98004285Y-105290952D01*
X98004285Y-105671904D01*
X98051904Y-105767142D01*
X98099523Y-105814761D01*
X98194761Y-105862380D01*
X98385238Y-105862380D01*
X98480476Y-105814761D01*
X98528095Y-105767142D01*
X98575714Y-105671904D01*
X98575714Y-105433809D01*
X98528095Y-105338571D01*
X98480476Y-105290952D01*
X98385238Y-105243333D01*
X98194761Y-105243333D01*
X98099523Y-105290952D01*
X98051904Y-105338571D01*
X98004285Y-105433809D01*
G04 #@! TO.C,C7*
X57567142Y-110926666D02*
X57614761Y-110974285D01*
X57662380Y-111117142D01*
X57662380Y-111212380D01*
X57614761Y-111355238D01*
X57519523Y-111450476D01*
X57424285Y-111498095D01*
X57233809Y-111545714D01*
X57090952Y-111545714D01*
X56900476Y-111498095D01*
X56805238Y-111450476D01*
X56710000Y-111355238D01*
X56662380Y-111212380D01*
X56662380Y-111117142D01*
X56710000Y-110974285D01*
X56757619Y-110926666D01*
X56662380Y-110593333D02*
X56662380Y-109926666D01*
X57662380Y-110355238D01*
G04 #@! TO.C,C8*
X57507142Y-130706666D02*
X57554761Y-130754285D01*
X57602380Y-130897142D01*
X57602380Y-130992380D01*
X57554761Y-131135238D01*
X57459523Y-131230476D01*
X57364285Y-131278095D01*
X57173809Y-131325714D01*
X57030952Y-131325714D01*
X56840476Y-131278095D01*
X56745238Y-131230476D01*
X56650000Y-131135238D01*
X56602380Y-130992380D01*
X56602380Y-130897142D01*
X56650000Y-130754285D01*
X56697619Y-130706666D01*
X57030952Y-130135238D02*
X56983333Y-130230476D01*
X56935714Y-130278095D01*
X56840476Y-130325714D01*
X56792857Y-130325714D01*
X56697619Y-130278095D01*
X56650000Y-130230476D01*
X56602380Y-130135238D01*
X56602380Y-129944761D01*
X56650000Y-129849523D01*
X56697619Y-129801904D01*
X56792857Y-129754285D01*
X56840476Y-129754285D01*
X56935714Y-129801904D01*
X56983333Y-129849523D01*
X57030952Y-129944761D01*
X57030952Y-130135238D01*
X57078571Y-130230476D01*
X57126190Y-130278095D01*
X57221428Y-130325714D01*
X57411904Y-130325714D01*
X57507142Y-130278095D01*
X57554761Y-130230476D01*
X57602380Y-130135238D01*
X57602380Y-129944761D01*
X57554761Y-129849523D01*
X57507142Y-129801904D01*
X57411904Y-129754285D01*
X57221428Y-129754285D01*
X57126190Y-129801904D01*
X57078571Y-129849523D01*
X57030952Y-129944761D01*
G04 #@! TO.C,C9*
X101433333Y-117197142D02*
X101385714Y-117244761D01*
X101242857Y-117292380D01*
X101147619Y-117292380D01*
X101004761Y-117244761D01*
X100909523Y-117149523D01*
X100861904Y-117054285D01*
X100814285Y-116863809D01*
X100814285Y-116720952D01*
X100861904Y-116530476D01*
X100909523Y-116435238D01*
X101004761Y-116340000D01*
X101147619Y-116292380D01*
X101242857Y-116292380D01*
X101385714Y-116340000D01*
X101433333Y-116387619D01*
X101909523Y-117292380D02*
X102100000Y-117292380D01*
X102195238Y-117244761D01*
X102242857Y-117197142D01*
X102338095Y-117054285D01*
X102385714Y-116863809D01*
X102385714Y-116482857D01*
X102338095Y-116387619D01*
X102290476Y-116340000D01*
X102195238Y-116292380D01*
X102004761Y-116292380D01*
X101909523Y-116340000D01*
X101861904Y-116387619D01*
X101814285Y-116482857D01*
X101814285Y-116720952D01*
X101861904Y-116816190D01*
X101909523Y-116863809D01*
X102004761Y-116911428D01*
X102195238Y-116911428D01*
X102290476Y-116863809D01*
X102338095Y-116816190D01*
X102385714Y-116720952D01*
G04 #@! TO.C,C10*
X100957142Y-128627142D02*
X100909523Y-128674761D01*
X100766666Y-128722380D01*
X100671428Y-128722380D01*
X100528571Y-128674761D01*
X100433333Y-128579523D01*
X100385714Y-128484285D01*
X100338095Y-128293809D01*
X100338095Y-128150952D01*
X100385714Y-127960476D01*
X100433333Y-127865238D01*
X100528571Y-127770000D01*
X100671428Y-127722380D01*
X100766666Y-127722380D01*
X100909523Y-127770000D01*
X100957142Y-127817619D01*
X101909523Y-128722380D02*
X101338095Y-128722380D01*
X101623809Y-128722380D02*
X101623809Y-127722380D01*
X101528571Y-127865238D01*
X101433333Y-127960476D01*
X101338095Y-128008095D01*
X102528571Y-127722380D02*
X102623809Y-127722380D01*
X102719047Y-127770000D01*
X102766666Y-127817619D01*
X102814285Y-127912857D01*
X102861904Y-128103333D01*
X102861904Y-128341428D01*
X102814285Y-128531904D01*
X102766666Y-128627142D01*
X102719047Y-128674761D01*
X102623809Y-128722380D01*
X102528571Y-128722380D01*
X102433333Y-128674761D01*
X102385714Y-128627142D01*
X102338095Y-128531904D01*
X102290476Y-128341428D01*
X102290476Y-128103333D01*
X102338095Y-127912857D01*
X102385714Y-127817619D01*
X102433333Y-127770000D01*
X102528571Y-127722380D01*
G04 #@! TO.C,C11*
X100957142Y-105767142D02*
X100909523Y-105814761D01*
X100766666Y-105862380D01*
X100671428Y-105862380D01*
X100528571Y-105814761D01*
X100433333Y-105719523D01*
X100385714Y-105624285D01*
X100338095Y-105433809D01*
X100338095Y-105290952D01*
X100385714Y-105100476D01*
X100433333Y-105005238D01*
X100528571Y-104910000D01*
X100671428Y-104862380D01*
X100766666Y-104862380D01*
X100909523Y-104910000D01*
X100957142Y-104957619D01*
X101909523Y-105862380D02*
X101338095Y-105862380D01*
X101623809Y-105862380D02*
X101623809Y-104862380D01*
X101528571Y-105005238D01*
X101433333Y-105100476D01*
X101338095Y-105148095D01*
X102861904Y-105862380D02*
X102290476Y-105862380D01*
X102576190Y-105862380D02*
X102576190Y-104862380D01*
X102480952Y-105005238D01*
X102385714Y-105100476D01*
X102290476Y-105148095D01*
G04 #@! TO.C,C12*
X74287142Y-103227142D02*
X74239523Y-103274761D01*
X74096666Y-103322380D01*
X74001428Y-103322380D01*
X73858571Y-103274761D01*
X73763333Y-103179523D01*
X73715714Y-103084285D01*
X73668095Y-102893809D01*
X73668095Y-102750952D01*
X73715714Y-102560476D01*
X73763333Y-102465238D01*
X73858571Y-102370000D01*
X74001428Y-102322380D01*
X74096666Y-102322380D01*
X74239523Y-102370000D01*
X74287142Y-102417619D01*
X75239523Y-103322380D02*
X74668095Y-103322380D01*
X74953809Y-103322380D02*
X74953809Y-102322380D01*
X74858571Y-102465238D01*
X74763333Y-102560476D01*
X74668095Y-102608095D01*
X75620476Y-102417619D02*
X75668095Y-102370000D01*
X75763333Y-102322380D01*
X76001428Y-102322380D01*
X76096666Y-102370000D01*
X76144285Y-102417619D01*
X76191904Y-102512857D01*
X76191904Y-102608095D01*
X76144285Y-102750952D01*
X75572857Y-103322380D01*
X76191904Y-103322380D01*
G04 #@! TO.C,D1*
X67841904Y-136342380D02*
X67841904Y-135342380D01*
X68080000Y-135342380D01*
X68222857Y-135390000D01*
X68318095Y-135485238D01*
X68365714Y-135580476D01*
X68413333Y-135770952D01*
X68413333Y-135913809D01*
X68365714Y-136104285D01*
X68318095Y-136199523D01*
X68222857Y-136294761D01*
X68080000Y-136342380D01*
X67841904Y-136342380D01*
X69365714Y-136342380D02*
X68794285Y-136342380D01*
X69080000Y-136342380D02*
X69080000Y-135342380D01*
X68984761Y-135485238D01*
X68889523Y-135580476D01*
X68794285Y-135628095D01*
G04 #@! TO.C,D2*
X74191904Y-136342380D02*
X74191904Y-135342380D01*
X74430000Y-135342380D01*
X74572857Y-135390000D01*
X74668095Y-135485238D01*
X74715714Y-135580476D01*
X74763333Y-135770952D01*
X74763333Y-135913809D01*
X74715714Y-136104285D01*
X74668095Y-136199523D01*
X74572857Y-136294761D01*
X74430000Y-136342380D01*
X74191904Y-136342380D01*
X75144285Y-135437619D02*
X75191904Y-135390000D01*
X75287142Y-135342380D01*
X75525238Y-135342380D01*
X75620476Y-135390000D01*
X75668095Y-135437619D01*
X75715714Y-135532857D01*
X75715714Y-135628095D01*
X75668095Y-135770952D01*
X75096666Y-136342380D01*
X75715714Y-136342380D01*
G04 #@! TO.C,D3*
X80541904Y-136342380D02*
X80541904Y-135342380D01*
X80780000Y-135342380D01*
X80922857Y-135390000D01*
X81018095Y-135485238D01*
X81065714Y-135580476D01*
X81113333Y-135770952D01*
X81113333Y-135913809D01*
X81065714Y-136104285D01*
X81018095Y-136199523D01*
X80922857Y-136294761D01*
X80780000Y-136342380D01*
X80541904Y-136342380D01*
X81446666Y-135342380D02*
X82065714Y-135342380D01*
X81732380Y-135723333D01*
X81875238Y-135723333D01*
X81970476Y-135770952D01*
X82018095Y-135818571D01*
X82065714Y-135913809D01*
X82065714Y-136151904D01*
X82018095Y-136247142D01*
X81970476Y-136294761D01*
X81875238Y-136342380D01*
X81589523Y-136342380D01*
X81494285Y-136294761D01*
X81446666Y-136247142D01*
G04 #@! TO.C,F1*
X50476666Y-107238571D02*
X50143333Y-107238571D01*
X50143333Y-107762380D02*
X50143333Y-106762380D01*
X50619523Y-106762380D01*
X51524285Y-107762380D02*
X50952857Y-107762380D01*
X51238571Y-107762380D02*
X51238571Y-106762380D01*
X51143333Y-106905238D01*
X51048095Y-107000476D01*
X50952857Y-107048095D01*
G04 #@! TO.C,F2*
X50476666Y-138988571D02*
X50143333Y-138988571D01*
X50143333Y-139512380D02*
X50143333Y-138512380D01*
X50619523Y-138512380D01*
X50952857Y-138607619D02*
X51000476Y-138560000D01*
X51095714Y-138512380D01*
X51333809Y-138512380D01*
X51429047Y-138560000D01*
X51476666Y-138607619D01*
X51524285Y-138702857D01*
X51524285Y-138798095D01*
X51476666Y-138940952D01*
X50905238Y-139512380D01*
X51524285Y-139512380D01*
G04 #@! TO.C,F3*
X86026666Y-118038571D02*
X85693333Y-118038571D01*
X85693333Y-118562380D02*
X85693333Y-117562380D01*
X86169523Y-117562380D01*
X86455238Y-117562380D02*
X87074285Y-117562380D01*
X86740952Y-117943333D01*
X86883809Y-117943333D01*
X86979047Y-117990952D01*
X87026666Y-118038571D01*
X87074285Y-118133809D01*
X87074285Y-118371904D01*
X87026666Y-118467142D01*
X86979047Y-118514761D01*
X86883809Y-118562380D01*
X86598095Y-118562380D01*
X86502857Y-118514761D01*
X86455238Y-118467142D01*
G04 #@! TO.C,J1*
X41576666Y-107402380D02*
X41576666Y-108116666D01*
X41529047Y-108259523D01*
X41433809Y-108354761D01*
X41290952Y-108402380D01*
X41195714Y-108402380D01*
X42576666Y-108402380D02*
X42005238Y-108402380D01*
X42290952Y-108402380D02*
X42290952Y-107402380D01*
X42195714Y-107545238D01*
X42100476Y-107640476D01*
X42005238Y-107688095D01*
G04 #@! TO.C,J2*
X58721666Y-115232380D02*
X58721666Y-115946666D01*
X58674047Y-116089523D01*
X58578809Y-116184761D01*
X58435952Y-116232380D01*
X58340714Y-116232380D01*
X59150238Y-115327619D02*
X59197857Y-115280000D01*
X59293095Y-115232380D01*
X59531190Y-115232380D01*
X59626428Y-115280000D01*
X59674047Y-115327619D01*
X59721666Y-115422857D01*
X59721666Y-115518095D01*
X59674047Y-115660952D01*
X59102619Y-116232380D01*
X59721666Y-116232380D01*
G04 #@! TO.C,J3*
X196516666Y-113752380D02*
X196516666Y-114466666D01*
X196469047Y-114609523D01*
X196373809Y-114704761D01*
X196230952Y-114752380D01*
X196135714Y-114752380D01*
X196897619Y-113752380D02*
X197516666Y-113752380D01*
X197183333Y-114133333D01*
X197326190Y-114133333D01*
X197421428Y-114180952D01*
X197469047Y-114228571D01*
X197516666Y-114323809D01*
X197516666Y-114561904D01*
X197469047Y-114657142D01*
X197421428Y-114704761D01*
X197326190Y-114752380D01*
X197040476Y-114752380D01*
X196945238Y-114704761D01*
X196897619Y-114657142D01*
G04 #@! TO.C,J4*
X158416666Y-113752380D02*
X158416666Y-114466666D01*
X158369047Y-114609523D01*
X158273809Y-114704761D01*
X158130952Y-114752380D01*
X158035714Y-114752380D01*
X159321428Y-114085714D02*
X159321428Y-114752380D01*
X159083333Y-113704761D02*
X158845238Y-114419047D01*
X159464285Y-114419047D01*
G04 #@! TO.C,J5*
X120316666Y-113752380D02*
X120316666Y-114466666D01*
X120269047Y-114609523D01*
X120173809Y-114704761D01*
X120030952Y-114752380D01*
X119935714Y-114752380D01*
X121269047Y-113752380D02*
X120792857Y-113752380D01*
X120745238Y-114228571D01*
X120792857Y-114180952D01*
X120888095Y-114133333D01*
X121126190Y-114133333D01*
X121221428Y-114180952D01*
X121269047Y-114228571D01*
X121316666Y-114323809D01*
X121316666Y-114561904D01*
X121269047Y-114657142D01*
X121221428Y-114704761D01*
X121126190Y-114752380D01*
X120888095Y-114752380D01*
X120792857Y-114704761D01*
X120745238Y-114657142D01*
G04 #@! TO.C,R1*
X71402380Y-123356666D02*
X70926190Y-123690000D01*
X71402380Y-123928095D02*
X70402380Y-123928095D01*
X70402380Y-123547142D01*
X70450000Y-123451904D01*
X70497619Y-123404285D01*
X70592857Y-123356666D01*
X70735714Y-123356666D01*
X70830952Y-123404285D01*
X70878571Y-123451904D01*
X70926190Y-123547142D01*
X70926190Y-123928095D01*
X71402380Y-122404285D02*
X71402380Y-122975714D01*
X71402380Y-122690000D02*
X70402380Y-122690000D01*
X70545238Y-122785238D01*
X70640476Y-122880476D01*
X70688095Y-122975714D01*
G04 #@! TO.C,R2*
X77752380Y-123356666D02*
X77276190Y-123690000D01*
X77752380Y-123928095D02*
X76752380Y-123928095D01*
X76752380Y-123547142D01*
X76800000Y-123451904D01*
X76847619Y-123404285D01*
X76942857Y-123356666D01*
X77085714Y-123356666D01*
X77180952Y-123404285D01*
X77228571Y-123451904D01*
X77276190Y-123547142D01*
X77276190Y-123928095D01*
X76847619Y-122975714D02*
X76800000Y-122928095D01*
X76752380Y-122832857D01*
X76752380Y-122594761D01*
X76800000Y-122499523D01*
X76847619Y-122451904D01*
X76942857Y-122404285D01*
X77038095Y-122404285D01*
X77180952Y-122451904D01*
X77752380Y-123023333D01*
X77752380Y-122404285D01*
G04 #@! TO.C,R3*
X84102380Y-123356666D02*
X83626190Y-123690000D01*
X84102380Y-123928095D02*
X83102380Y-123928095D01*
X83102380Y-123547142D01*
X83150000Y-123451904D01*
X83197619Y-123404285D01*
X83292857Y-123356666D01*
X83435714Y-123356666D01*
X83530952Y-123404285D01*
X83578571Y-123451904D01*
X83626190Y-123547142D01*
X83626190Y-123928095D01*
X83102380Y-123023333D02*
X83102380Y-122404285D01*
X83483333Y-122737619D01*
X83483333Y-122594761D01*
X83530952Y-122499523D01*
X83578571Y-122451904D01*
X83673809Y-122404285D01*
X83911904Y-122404285D01*
X84007142Y-122451904D01*
X84054761Y-122499523D01*
X84102380Y-122594761D01*
X84102380Y-122880476D01*
X84054761Y-122975714D01*
X84007142Y-123023333D01*
G04 #@! TO.C,U1*
X67818095Y-102322380D02*
X67818095Y-103131904D01*
X67865714Y-103227142D01*
X67913333Y-103274761D01*
X68008571Y-103322380D01*
X68199047Y-103322380D01*
X68294285Y-103274761D01*
X68341904Y-103227142D01*
X68389523Y-103131904D01*
X68389523Y-102322380D01*
X69389523Y-103322380D02*
X68818095Y-103322380D01*
X69103809Y-103322380D02*
X69103809Y-102322380D01*
X69008571Y-102465238D01*
X68913333Y-102560476D01*
X68818095Y-102608095D01*
G04 #@! TO.C,H1*
X37338095Y-102052380D02*
X37338095Y-101052380D01*
X37338095Y-101528571D02*
X37909523Y-101528571D01*
X37909523Y-102052380D02*
X37909523Y-101052380D01*
X38909523Y-102052380D02*
X38338095Y-102052380D01*
X38623809Y-102052380D02*
X38623809Y-101052380D01*
X38528571Y-101195238D01*
X38433333Y-101290476D01*
X38338095Y-101338095D01*
G04 #@! TO.C,H2*
X37338095Y-140152380D02*
X37338095Y-139152380D01*
X37338095Y-139628571D02*
X37909523Y-139628571D01*
X37909523Y-140152380D02*
X37909523Y-139152380D01*
X38338095Y-139247619D02*
X38385714Y-139200000D01*
X38480952Y-139152380D01*
X38719047Y-139152380D01*
X38814285Y-139200000D01*
X38861904Y-139247619D01*
X38909523Y-139342857D01*
X38909523Y-139438095D01*
X38861904Y-139580952D01*
X38290476Y-140152380D01*
X38909523Y-140152380D01*
G04 #@! TO.C,H3*
X126238095Y-102052380D02*
X126238095Y-101052380D01*
X126238095Y-101528571D02*
X126809523Y-101528571D01*
X126809523Y-102052380D02*
X126809523Y-101052380D01*
X127190476Y-101052380D02*
X127809523Y-101052380D01*
X127476190Y-101433333D01*
X127619047Y-101433333D01*
X127714285Y-101480952D01*
X127761904Y-101528571D01*
X127809523Y-101623809D01*
X127809523Y-101861904D01*
X127761904Y-101957142D01*
X127714285Y-102004761D01*
X127619047Y-102052380D01*
X127333333Y-102052380D01*
X127238095Y-102004761D01*
X127190476Y-101957142D01*
G04 #@! TO.C,H4*
X126238095Y-140152380D02*
X126238095Y-139152380D01*
X126238095Y-139628571D02*
X126809523Y-139628571D01*
X126809523Y-140152380D02*
X126809523Y-139152380D01*
X127714285Y-139485714D02*
X127714285Y-140152380D01*
X127476190Y-139104761D02*
X127238095Y-139819047D01*
X127857142Y-139819047D01*
G04 #@! TO.C,H5*
X215138095Y-102052380D02*
X215138095Y-101052380D01*
X215138095Y-101528571D02*
X215709523Y-101528571D01*
X215709523Y-102052380D02*
X215709523Y-101052380D01*
X216661904Y-101052380D02*
X216185714Y-101052380D01*
X216138095Y-101528571D01*
X216185714Y-101480952D01*
X216280952Y-101433333D01*
X216519047Y-101433333D01*
X216614285Y-101480952D01*
X216661904Y-101528571D01*
X216709523Y-101623809D01*
X216709523Y-101861904D01*
X216661904Y-101957142D01*
X216614285Y-102004761D01*
X216519047Y-102052380D01*
X216280952Y-102052380D01*
X216185714Y-102004761D01*
X216138095Y-101957142D01*
G04 #@! TO.C,H6*
X215138095Y-140152380D02*
X215138095Y-139152380D01*
X215138095Y-139628571D02*
X215709523Y-139628571D01*
X215709523Y-140152380D02*
X215709523Y-139152380D01*
X216614285Y-139152380D02*
X216423809Y-139152380D01*
X216328571Y-139200000D01*
X216280952Y-139247619D01*
X216185714Y-139390476D01*
X216138095Y-139580952D01*
X216138095Y-139961904D01*
X216185714Y-140057142D01*
X216233333Y-140104761D01*
X216328571Y-140152380D01*
X216519047Y-140152380D01*
X216614285Y-140104761D01*
X216661904Y-140057142D01*
X216709523Y-139961904D01*
X216709523Y-139723809D01*
X216661904Y-139628571D01*
X216614285Y-139580952D01*
X216519047Y-139533333D01*
X216328571Y-139533333D01*
X216233333Y-139580952D01*
X216185714Y-139628571D01*
X216138095Y-139723809D01*
G04 #@! TO.C,D4*
X79271904Y-103322380D02*
X79271904Y-102322380D01*
X79510000Y-102322380D01*
X79652857Y-102370000D01*
X79748095Y-102465238D01*
X79795714Y-102560476D01*
X79843333Y-102750952D01*
X79843333Y-102893809D01*
X79795714Y-103084285D01*
X79748095Y-103179523D01*
X79652857Y-103274761D01*
X79510000Y-103322380D01*
X79271904Y-103322380D01*
X80700476Y-102655714D02*
X80700476Y-103322380D01*
X80462380Y-102274761D02*
X80224285Y-102989047D01*
X80843333Y-102989047D01*
G04 #@! TO.C,D5*
X81811904Y-103322380D02*
X81811904Y-102322380D01*
X82050000Y-102322380D01*
X82192857Y-102370000D01*
X82288095Y-102465238D01*
X82335714Y-102560476D01*
X82383333Y-102750952D01*
X82383333Y-102893809D01*
X82335714Y-103084285D01*
X82288095Y-103179523D01*
X82192857Y-103274761D01*
X82050000Y-103322380D01*
X81811904Y-103322380D01*
X83288095Y-102322380D02*
X82811904Y-102322380D01*
X82764285Y-102798571D01*
X82811904Y-102750952D01*
X82907142Y-102703333D01*
X83145238Y-102703333D01*
X83240476Y-102750952D01*
X83288095Y-102798571D01*
X83335714Y-102893809D01*
X83335714Y-103131904D01*
X83288095Y-103227142D01*
X83240476Y-103274761D01*
X83145238Y-103322380D01*
X82907142Y-103322380D01*
X82811904Y-103274761D01*
X82764285Y-103227142D01*
G04 #@! TD*
M02*
